<?xml version="1.0" standalone="no"?>
<!DOCTYPE svg PUBLIC "-//W3C//DTD SVG 1.1//EN" "http://www.w3.org/Graphics/SVG/1.1/DTD/svg11.dtd" >
<svg xmlns="http://www.w3.org/2000/svg" xmlns:xlink="http://www.w3.org/1999/xlink" version="1.1">
<metadata>
Created by FontForge 20160405 at Thu Nov  8 16:58:42 2018
 By www-data
</metadata>
<defs>
<font id="SkodaPro-MediumItalic" horiz-adv-x="0" >
  <font-face 
    font-family="Skoda Pro Light"
    font-weight="500"
    font-style="italic"
    font-stretch="normal"
    units-per-em="2048"
    panose-1="2 0 0 0 0 0 0 0 0 0"
    ascent="1638"
    descent="-410"
    x-height="1071"
    cap-height="1475"
    bbox="-817.704 -475 2539.45 1932"
    underline-thickness="102"
    underline-position="-307"
    slope="-10"
    unicode-range="U+0020-FB02"
  />
<missing-glyph 
 />
    <glyph glyph-name=".notdef" 
 />
    <glyph glyph-name=".null" 
 />
    <glyph glyph-name="nonmarkingreturn" horiz-adv-x="508" 
 />
    <glyph glyph-name="space" unicode=" " horiz-adv-x="508" 
 />
    <glyph glyph-name="exclam" unicode="!" horiz-adv-x="547" 
d="M186 493q-16 0 -13 16l161 950q3 17 19 18l159 25q16 1 13 -14l-194 -979q-3 -16 -19 -16h-126zM81 0q-16 0 -13 16l42 228q3 17 19 18l152 24q16 1 13 -14l-47 -256q-3 -16 -19 -16h-147z" />
    <glyph glyph-name="quotedbl" unicode="&#x22;" horiz-adv-x="765" 
d="M205 981q-16 0 -13 16l85 462q3 17 19 18l150 20q16 1 13 -14l-101 -486q-3 -16 -19 -16h-134zM534 981q-16 0 -13 16l86 462q3 17 19 18l149 20q16 1 13 -14l-100 -486q-3 -16 -19 -16h-135z" />
    <glyph glyph-name="numbersign" unicode="#" horiz-adv-x="1461" 
d="M682 0q-16 0 -11 15l120 341h-348l-120 -341q-5 -15 -21 -15h-144q-16 0 -11 15l120 341h-229q-17 0 -12 15l40 139q4 15 20 15h241l149 425h-234q-17 0 -12 15l38 138q4 15 20 15h247l121 342q5 15 21 15h142q15 0 11 -15l-120 -342h348l120 342q5 15 21 15h143
q15 0 11 -15l-121 -342h231q16 0 12 -15l-39 -138q-4 -15 -20 -15h-243l-149 -425h236q16 0 12 -15l-40 -139q-4 -15 -20 -15h-247l-120 -341q-5 -15 -21 -15h-142zM651 950l-149 -425h348l149 425h-348z" />
    <glyph glyph-name="dollar" unicode="$" horiz-adv-x="1066" 
d="M311 -245q-16 0 -13 16l41 217q-81 1 -163 8t-146 21q-16 4 -10 19l49 121q5 15 22 12q71 -14 140.5 -18.5t142.5 -4.5l111 542l-70 25q-61 22 -106.5 50t-76 64t-45.5 81.5t-15 104.5q0 109 23 192.5t77 142t143.5 92t223.5 43.5l41 221q3 16 19 16h110q16 0 13 -16
l-40 -217q78 -2 148.5 -8.5t125.5 -17.5q16 -3 10 -18l-43 -118q-4 -8 -8.5 -11t-13.5 -2q-58 7 -120.5 11t-131.5 6l-106 -524l61 -22q67 -25 113.5 -55t75 -66t41 -79t12.5 -94q0 -116 -25.5 -204t-81 -148.5t-144 -96t-214.5 -46.5l-41 -223q-3 -16 -19 -16h-110z
M613 1326q-86 -6 -140 -24t-85 -51t-42 -83t-11 -119q0 -39 10.5 -67.5t33 -51t56.5 -41.5t82 -38zM507 150q79 8 132 29.5t85 58t45 89t13 122.5q0 33 -9 59t-29.5 48.5t-54 43t-82.5 41.5z" />
    <glyph glyph-name="percent" unicode="%" horiz-adv-x="1889" 
d="M420 589q-77 0 -135 21.5t-93.5 68.5t-46 121t8.5 178l24 131q22 120 60.5 196t91 119t118 59t142.5 16t135 -21.5t93.5 -68t45.5 -120.5t-9 -180l-23 -131q-21 -119 -59 -195t-90.5 -119t-118.5 -59t-144 -16zM563 1358q-44 0 -81 -11.5t-66.5 -39.5t-51 -75t-34.5 -117
l-26 -142q-13 -69 -9 -115.5t23 -75t52 -40.5t78 -12q44 0 81 12t66 40.5t50.5 75.5t33.5 116l27 141q13 70 8.5 117t-24 75t-52 39.5t-75.5 11.5zM1339 -24q-77 0 -135 21.5t-93.5 68.5t-46 121t8.5 178l24 131q22 120 60 196t90.5 119t118 59t142.5 16t136 -21.5t94.5 -68
t45.5 -121t-9 -179.5l-24 -131q-22 -119 -59.5 -195t-90 -119t-118.5 -59t-144 -16zM1482 745q-44 0 -81 -11.5t-66.5 -39.5t-51 -75t-34.5 -117l-26 -143q-13 -69 -8.5 -115.5t23.5 -75t51.5 -40.5t76.5 -12t81.5 12t66.5 40.5t50.5 75.5t34.5 116l26 142q13 70 8.5 117
t-24 75t-52 39.5t-75.5 11.5zM305 0q-16 0 -6 13l1114 1449q6 8 11.5 10.5t14.5 2.5h174q16 0 6 -13l-1113 -1449q-10 -13 -26 -13h-175z" />
    <glyph glyph-name="ampersand" unicode="&#x26;" horiz-adv-x="1388" 
d="M1041 0q-16 0 -25 13l-97 153q-115 -88 -254 -139t-302 -51q-62 0 -123.5 11.5t-110 43.5t-79 89.5t-30.5 150.5q0 56 9 104t30.5 92t56 86.5t86 88t121.5 96.5t161 112q-61 99 -93.5 177t-32.5 154q0 91 28.5 152t81 98t126.5 52.5t166 15.5q67 0 122 -15t94 -44.5
t60 -72.5t21 -99q0 -69 -19.5 -122.5t-62.5 -102.5t-110 -100t-161 -116l260 -411q64 69 117 149.5t92 171.5q4 8 8.5 11.5t13.5 3.5h126q16 0 10 -15q-50 -125 -119.5 -240.5t-162.5 -213.5l171 -269q9 -14 -7 -14h-172zM203 321q0 -63 19 -99.5t48.5 -56t65.5 -25t70 -5.5
q110 0 219.5 43t209.5 120l-275 432q-95 -66 -163 -118.5t-111 -100t-63 -93.5t-20 -97zM734 1357q-45 0 -83.5 -8.5t-66.5 -27.5t-44 -50t-16 -76q0 -60 30 -121.5t73 -127.5q71 48 121 85.5t81.5 72t45.5 68t14 73.5q0 57 -41.5 84.5t-113.5 27.5z" />
    <glyph glyph-name="quotesingle" unicode="'" horiz-adv-x="435" 
d="M205 981q-16 0 -13 16l85 462q3 17 19 18l150 20q16 1 13 -14l-101 -486q-3 -16 -19 -16h-134z" />
    <glyph glyph-name="parenleft" unicode="(" horiz-adv-x="599" 
d="M283 518q-17 -106 -25.5 -224.5t-3.5 -236t25.5 -229t59.5 -202.5q7 -15 -9 -15h-147q-9 0 -14 3t-9 11q-40 88 -62 199.5t-28.5 231t1 238.5t27.5 222l13 73q20 114 55 232t84 231.5t109.5 218t131.5 192.5q9 12 26 12h157q16 0 6 -12q-74 -92 -137.5 -204
t-113.5 -230.5t-85.5 -237t-52.5 -224.5l-8 -49v0z" />
    <glyph glyph-name="parenright" unicode=")" horiz-adv-x="603" 
d="M290 567q17 106 25.5 224.5t3.5 236t-25.5 228.5t-59.5 203q-8 15 9 15h147q9 0 14 -3t9 -11q40 -88 62 -199.5t28.5 -231t-1 -238.5t-27.5 -222l-13 -73q-20 -114 -55 -232t-84 -231.5t-109.5 -218t-131.5 -192.5q-9 -12 -26 -12h-157q-16 0 -6 12q74 92 137.5 204
t113.5 230.5t85.5 237t52.5 224.5l8 49v0z" />
    <glyph glyph-name="asterisk" unicode="*" horiz-adv-x="941" 
d="M229 1307q-12 9 -3 22l69 93q6 8 10.5 8.5t12.5 -4.5l200 -129l49 260q3 16 19 16h106q16 0 13 -16l-48 -258l249 130q14 7 20 -8l37 -91q6 -15 -8 -22l-251 -131l199 -128q12 -9 3 -22l-70 -93q-10 -13 -23 -4l-201 129l-48 -262q-3 -16 -19 -16h-107q-16 0 -13 16
l48 259l-248 -130q-14 -7 -20 8l-36 92q-7 15 8 22l250 131z" />
    <glyph glyph-name="plus" unicode="+" horiz-adv-x="1030" 
d="M114 706q-16 0 -13 16l26 135q3 16 19 16h330l62 335q3 16 19 16h134q16 0 13 -16l-62 -335h331q16 0 13 -16l-25 -135q-3 -16 -19 -16h-331l-61 -332q-3 -16 -19 -16h-134q-16 0 -13 16l61 332h-331z" />
    <glyph glyph-name="comma" unicode="," horiz-adv-x="483" 
d="M-66 -242q-16 0 -11 15l165 472q3 8 7.5 12t13.5 5l179 24q16 1 10 -13l-219 -500q-5 -15 -22 -15h-123z" />
    <glyph glyph-name="hyphen" unicode="-" horiz-adv-x="812" 
d="M154 511q-16 0 -13 16l26 135q3 16 19 16h459q16 0 13 -16l-25 -135q-3 -16 -19 -16h-460z" />
    <glyph glyph-name="period" unicode="." horiz-adv-x="452" 
d="M40 0q-16 0 -13 16l43 228q3 17 19 18l151 24q16 1 13 -14l-46 -256q-3 -16 -19 -16h-148z" />
    <glyph glyph-name="slash" unicode="/" horiz-adv-x="826" 
d="M-13 0q-17 0 -9 14l741 1528q4 8 9 11t14 3h162q17 0 9 -14l-741 -1528q-4 -8 -9 -11t-14 -3h-162z" />
    <glyph glyph-name="zero" unicode="0" horiz-adv-x="1311" 
d="M533 -24q-78 0 -143.5 10t-116 36t-85.5 70.5t-51.5 113.5t-14 165.5t26.5 226.5l52 278q26 139 58.5 239.5t73 169.5t90 111t109 65t130 30.5t153.5 7.5q79 0 145.5 -10t117 -36t85 -71t50.5 -114t13.5 -165.5t-26.5 -226.5l-51 -278q-25 -140 -57.5 -240.5
t-72.5 -169.5t-89.5 -110.5t-109.5 -64t-131.5 -30t-155.5 -7.5zM782 1325q-53 0 -98.5 -6t-84.5 -23.5t-71 -49t-59 -82t-49.5 -122.5t-40.5 -171l-50 -268q-18 -99 -22.5 -171t4 -122t29.5 -81.5t53 -49t75.5 -23.5t96.5 -6q81 0 144 15.5t111.5 63.5t85 137.5t64.5 238.5
l49 266q19 99 23.5 171t-4 122.5t-29.5 82t-53.5 49t-76 23.5t-97.5 6z" />
    <glyph glyph-name="one" unicode="1" horiz-adv-x="759" 
d="M167 1240q-16 -3 -16 13l4 140q0 16 16 19l351 60q8 2 16.5 2.5t15.5 0.5h148q16 0 13 -16l-268 -1443q-3 -16 -19 -16h-147q-16 0 -13 16l237 1283z" />
    <glyph glyph-name="two" unicode="2" horiz-adv-x="1088" 
d="M-4 0q-16 0 -13 16l18 94q13 71 31 129t41.5 106.5t55 91t73 83t93.5 80.5t117 85l248 169q53 36 94.5 68t70.5 67t44 77t15 99q0 44 -15.5 74.5t-49.5 49t-89 27t-134 8.5q-59 0 -141.5 -5.5t-165.5 -19.5q-16 -3 -16 13l2 132q0 16 16 20q42 10 88.5 16.5t93 10.5t90 6
t78.5 2q121 0 205.5 -19t136.5 -55t75.5 -88.5t23.5 -119.5q0 -87 -17.5 -151t-55.5 -118t-98.5 -104.5t-147.5 -111.5l-206 -143q-93 -65 -153.5 -114t-98 -95.5t-56.5 -95.5t-31 -114h648q16 0 13 -16l-26 -138q-3 -16 -19 -16h-838z" />
    <glyph glyph-name="three" unicode="3" horiz-adv-x="1129" 
d="M343 -24q-91 0 -174 8t-147 20q-16 3 -12 18l33 139q2 9 6.5 12t13.5 2q74 -11 151.5 -17t147.5 -6q90 0 159 13.5t118 44.5t79 81.5t44 124.5l7 35q8 44 4 89.5t-27 82t-70 60t-126 23.5h-304q-16 0 -13 16l24 135q3 16 19 16h301q81 0 137.5 20.5t92.5 51.5t54 68
t24 71l5 22q12 63 -4.5 105t-57 67t-103.5 35.5t-146 10.5q-76 0 -151.5 -7t-152.5 -16q-15 -1 -14 14l16 138q2 9 5.5 13t12.5 6q66 11 149.5 19t171.5 8q125 0 220 -21.5t154.5 -66.5t82.5 -115.5t4 -168.5l-5 -26q-23 -120 -97 -198.5t-209 -110.5q63 -20 103 -61
t61 -91.5t24.5 -105t-5.5 -101.5l-8 -39q-27 -129 -77.5 -210t-125 -127.5t-173.5 -63.5t-222 -17z" />
    <glyph glyph-name="four" unicode="4" horiz-adv-x="1193" 
d="M23 351q-16 0 -13 16l30 162q2 9 5 15t9 13l823 906q11 12 27 12h182q16 0 13 -16l-177 -954h163q16 0 13 -16l-23 -122q-3 -16 -19 -16h-162l-63 -335q-3 -16 -19 -16h-148q-16 0 -13 16l63 335h-691zM222 505h521l132 710h-16l-636 -699z" />
    <glyph glyph-name="five" unicode="5" horiz-adv-x="1116" 
d="M324 -24q-96 0 -175 9t-147 26q-14 4 -9 19l52 135q4 8 8.5 11t13.5 1q35 -6 72.5 -11t74.5 -8.5t72 -5.5t65 -2q196 0 300.5 74t131.5 218l7 35q13 73 2 128t-51.5 91t-112.5 54t-180 18q-32 0 -69.5 -3t-74 -6.5t-67 -7.5t-47.5 -7q-16 -1 -13 14l20 109l7 31l162 562
q4 15 20 15h749q16 0 10 -15l-51 -141q-4 -8 -8.5 -11.5t-13.5 -3.5h-582l-113 -394l15 1.5t35.5 4t42 4t35.5 1.5q271 0 390.5 -111.5t75.5 -332.5l-7 -35q-26 -129 -80 -218t-134.5 -144t-187 -79.5t-238.5 -24.5z" />
    <glyph glyph-name="six" unicode="6" horiz-adv-x="1225" 
d="M517 -24q-115 0 -200 33.5t-134.5 110t-60 201t22.5 306.5l39 212q35 191 95 318t148.5 203t206 107.5t268.5 31.5q72 0 144 -8t138 -25q16 -4 9 -19l-48 -131q-4 -8 -8.5 -11t-13.5 -1q-56 10 -123 15.5t-128 5.5q-109 0 -191 -20.5t-142 -70.5t-100 -134t-65 -211
q33 6 72 11.5t81.5 10.5t87.5 8t89 3q107 0 191 -25.5t137.5 -79t73 -137t-2.5 -200.5l-3 -16q-22 -116 -70 -206.5t-121 -153t-171.5 -95.5t-220.5 -33zM921 476q15 81 4 136t-45.5 88.5t-91 47.5t-132.5 14q-37 0 -78 -2.5t-82.5 -7t-80 -10t-71.5 -10.5l-19 -105
q-27 -147 -23.5 -240t34 -145.5t85.5 -72t132 -19.5q156 0 247.5 80t117.5 229z" />
    <glyph glyph-name="seven" unicode="7" horiz-adv-x="1022" 
d="M27 0q-17 0 -7 13l885 1291h-707q-16 0 -15 16l8 139q1 16 17 16h911q16 0 13 -16l-25 -139q-3 -15 -12 -29l-858 -1278q-9 -13 -25 -13h-185z" />
    <glyph glyph-name="eight" unicode="8" horiz-adv-x="1274" 
d="M517 -24q-116 0 -205.5 24t-147 75.5t-78.5 132t0 193.5l8 41q9 48 31 99t58.5 97t89 82.5t123.5 53.5q-51 18 -82 57t-45.5 87t-14.5 98.5t11 92.5l6 23q28 107 73 178t109.5 113t150 59t195.5 17q109 0 192 -24.5t134.5 -72.5t69 -119t-2.5 -164l-5 -23
q-13 -59 -32.5 -110.5t-49.5 -93t-72 -72t-99 -46.5q62 -22 100 -62.5t57 -88.5t22.5 -97.5t-3.5 -88.5l-7 -42q-25 -130 -76.5 -211.5t-126.5 -127.5t-171.5 -63t-211.5 -17zM426 1087q-9 -35 -7.5 -75t22 -74.5t63.5 -57t118 -22.5h117q75 0 124.5 22.5t80.5 57t47.5 74.5
t25.5 75l4 16q30 122 -34 177.5t-219 55.5q-78 0 -134.5 -13.5t-97 -42t-66 -72.5t-40.5 -105zM589 690q-58 0 -103 -13t-79 -34t-58.5 -47.5t-40.5 -53.5t-25 -52t-12 -43l-7 -39q-14 -73 -3.5 -124t45.5 -83.5t95 -47t145 -14.5t150.5 14.5t113 47t76.5 83.5t43 124l8 39
q3 18 3 43t-6 52t-20.5 53.5t-41 47.5t-67 34t-98.5 13h-118z" />
    <glyph glyph-name="nine" unicode="9" horiz-adv-x="1226" 
d="M366 -24q-73 0 -147 8.5t-142 24.5q-16 4 -11 19l49 134q4 8 8.5 11t13.5 1q28 -6 60.5 -10.5t66.5 -7.5t67.5 -4.5t64.5 -1.5q103 0 182 20t138.5 69t102 131t71.5 206q-33 -5 -71.5 -10t-80.5 -9t-86 -6.5t-87 -2.5q-111 0 -194 27.5t-133.5 84t-67 144t6.5 207.5l3 16
q23 125 70 214.5t118 146.5t165.5 84t212.5 27q112 0 198 -32.5t137.5 -107.5t64.5 -197t-20 -301l-27 -146q-41 -218 -103.5 -361t-152 -227t-208 -117.5t-269.5 -33.5zM359 1015q-16 -84 -8.5 -142.5t39 -95t87 -53t135.5 -16.5q37 0 77.5 2t81 5.5t79 8t71.5 9.5l25 132
q27 145 21 235t-38.5 140t-89 67.5t-130.5 17.5q-80 0 -139 -17.5t-101 -54t-68 -92t-40 -130.5z" />
    <glyph glyph-name="colon" unicode=":" horiz-adv-x="519" 
d="M69 0q-16 0 -13 16l43 228q3 17 19 18l151 24q16 1 13 -14l-46 -256q-3 -16 -19 -16h-148zM194 676q-16 0 -13 16l43 228q3 17 19 18l151 24q16 1 13 -14l-46 -256q-3 -16 -19 -16h-148z" />
    <glyph glyph-name="semicolon" unicode=";" horiz-adv-x="545" 
d="M-33 -242q-16 0 -11 15l165 472q3 8 7.5 12t13.5 5l179 24q16 1 10 -13l-219 -500q-5 -15 -22 -15h-123zM219 676q-16 0 -13 16l43 228q3 17 19 18l151 24q16 1 13 -14l-46 -256q-3 -16 -19 -16h-148z" />
    <glyph glyph-name="less" unicode="&#x3c;" horiz-adv-x="927" 
d="M108 671q-13 9 -10 25l27 140q3 16 17 24l701 410q15 7 16 -8l14 -144q3 -16 -12 -24l-590 -336l464 -329q13 -9 6 -24l-60 -136q-7 -15 -20 -6z" />
    <glyph glyph-name="equal" unicode="=" horiz-adv-x="1194" 
d="M162 481q-16 0 -13 16l26 135q3 16 19 16h811q16 0 13 -16l-26 -135q-3 -16 -19 -16h-811zM250 952q-16 0 -13 16l24 134q3 16 19 16h810q16 0 13 -16l-24 -134q-3 -16 -19 -16h-810z" />
    <glyph glyph-name="greater" unicode="&#x3e;" horiz-adv-x="925" 
d="M868 860q13 -9 10 -25l-27 -140q-3 -16 -17 -24l-701 -410q-15 -7 -16 8l-14 144q-3 16 12 24l590 336l-464 329q-13 9 -6 24l60 136q7 15 20 6z" />
    <glyph glyph-name="question" unicode="?" horiz-adv-x="888" 
d="M382 443q-3 -16 -19 -16h-123q-17 0 -17 16q-2 14 -2 35t2 43q7 57 18 99.5t32.5 80.5t57.5 76t93 86l78 64q45 39 79.5 70t59 59.5t39.5 58t22 64.5q14 79 -39.5 112t-177.5 33q-57 0 -113 -4.5t-126 -15.5q-16 -1 -16 14v132q0 16 16 20q66 14 144 21.5t152 7.5
q93 0 165.5 -16t119.5 -50.5t67.5 -88.5t9.5 -130q-8 -54 -25.5 -96.5t-48 -82.5t-75.5 -81.5t-106 -95.5l-89 -78q-50 -43 -79 -72.5t-45.5 -57.5t-25 -60t-17.5 -80zM147 0q-16 0 -13 16l43 228q3 17 19 18l151 24q16 1 13 -14l-47 -256q-3 -16 -19 -16h-147z" />
    <glyph glyph-name="at" unicode="@" horiz-adv-x="1811" 
d="M272 549q-32 -104 -49.5 -198.5t-13.5 -175.5t31.5 -147t85 -113t147.5 -73t219 -27q16 0 12 -15l-35 -123q-4 -15 -20 -15q-152 2 -261.5 34t-182 89.5t-111 137.5t-48 178t6.5 211t53 237l40 135q61 207 159.5 351.5t229 235t291 131t345.5 40.5q156 0 263.5 -35.5
t175 -99.5t97.5 -151.5t30 -191.5q0 -187 -35 -327t-98 -240.5t-151.5 -166t-196.5 -104t-232 -53.5t-257 -15q-116 0 -187.5 25t-103 78.5t-26.5 137.5t42 202l34 115q39 132 83 218t104 135.5t142 69t197 19.5q67 0 137.5 -8t139.5 -22q16 -3 12 -18l-188 -765
q91 25 167 72.5t131 129t85.5 201t30.5 288.5q0 81 -23.5 146.5t-75.5 111.5t-135.5 71t-204.5 25q-139 0 -264.5 -31.5t-231 -104.5t-188 -192.5t-136.5 -295.5zM1005 908q-71 0 -121 -15t-86 -51.5t-63 -97.5t-52 -153l-18 -67q-27 -102 -35 -163.5t9 -94.5t62.5 -43.5
t123.5 -10.5q48 0 85 2.5t74 10.5l163 670q-34 5 -69.5 9t-72.5 4z" />
    <glyph glyph-name="A" unicode="A" horiz-adv-x="1294" 
d="M-77 0q-17 0 -9 14l765 1447q4 8 9 11t14 3h217q16 0 19 -16l229 -1443q3 -16 -13 -16h-163q-17 0 -18 16l-52 344h-629l-179 -346q-4 -8 -9 -11t-14 -3h-167zM779 1299l-398 -767h514z" />
    <glyph glyph-name="B" unicode="B" horiz-adv-x="1329" 
d="M454 -19q-37 0 -81 1t-91 3t-95 4.5t-92 6.5q-16 1 -13 17l268 1446q3 16 19 17q36 3 79 6t89.5 5t93 3t90.5 1q151 0 256.5 -18t168.5 -59t84.5 -108.5t3.5 -166.5l-2 -11q-12 -66 -32 -115t-46.5 -84t-58.5 -58.5t-68 -36.5q45 -22 79 -56.5t54.5 -81t25.5 -104
t-8 -126.5l-9 -47q-20 -105 -52.5 -178.5t-77.5 -122.5t-103.5 -76.5t-131 -41t-160 -16.5t-190.5 -3zM995 457q14 74 5 122.5t-36.5 77t-71.5 40t-100 11.5h-402l-103 -556q52 -4 112 -6t114 -2q113 0 195 7.5t138.5 35t90 81.5t50.5 146zM722 1328q-64 0 -117 -1.5
t-101 -6.5l-84 -452h355q115 3 182.5 60t87.5 165l4 15q13 73 -3 117t-58 66.5t-109.5 29.5t-156.5 7z" />
    <glyph glyph-name="C" unicode="C" horiz-adv-x="1170" 
d="M621 -24q-144 0 -250 36.5t-169 119t-79.5 214t17.5 322.5l25 140q36 204 102 337.5t159 212t213 110t264 31.5q96 0 182 -10t145 -27q16 -4 10 -20l-48 -131q-5 -15 -21 -12q-67 14 -143 20t-150 6q-104 0 -189.5 -24.5t-151.5 -83t-113.5 -156t-74.5 -243.5l-28 -160
q-28 -147 -17.5 -245t55 -156.5t121 -82.5t180.5 -24q90 0 167.5 6t145.5 17q16 3 16 -13l-4 -132q0 -16 -16 -20q-65 -15 -156.5 -23.5t-191.5 -8.5z" />
    <glyph glyph-name="D" unicode="D" horiz-adv-x="1411" 
d="M449 -16q-36 0 -79.5 1t-90 2.5t-93.5 4t-90 6.5q-9 2 -12 5.5t-1 12.5l267 1443q3 16 19 17q42 3 90 5t95 3.5t89 2t72 0.5q102 0 194 -10.5t167 -39t131 -77.5t88 -126t37 -185t-22 -254l-21 -113q-29 -158 -71.5 -271t-99 -190.5t-126 -124.5t-153 -71.5t-181 -32.5
t-209.5 -8zM721 1324q-21 0 -50 -0.5t-59 -1.5t-59 -2.5t-50 -3.5l-215 -1159q24 -3 53 -4.5t59.5 -3t59.5 -2t52 -0.5q124 0 221 20.5t170 78.5t123.5 161.5t81.5 270.5l22 119q20 110 21 192t-16.5 140.5t-53 96.5t-87.5 59.5t-120.5 30t-152.5 8.5z" />
    <glyph glyph-name="E" unicode="E" horiz-adv-x="1189" 
d="M97 0q-16 0 -13 16l266 1443q3 16 19 16h848q16 0 13 -16l-26 -144q-3 -16 -19 -16h-684l-79 -427h575q16 0 13 -16l-27 -143q-3 -16 -19 -16h-575l-95 -522h683q16 0 13 -16l-27 -143q-3 -16 -19 -16h-847z" />
    <glyph glyph-name="F" unicode="F" horiz-adv-x="1125" 
d="M97 0q-16 0 -13 16l266 1443q3 16 19 16h855q16 0 13 -16l-26 -144q-3 -16 -19 -16h-691l-79 -427h547q16 0 13 -16l-27 -143q-3 -16 -19 -16h-547l-126 -681q-3 -16 -19 -16h-147z" />
    <glyph glyph-name="G" unicode="G" horiz-adv-x="1290" 
d="M1171 784q16 0 13 -16l-133 -719q-2 -9 -6 -13.5t-12 -7.5q-110 -32 -214.5 -42t-199.5 -10q-149 0 -255.5 35.5t-168 116.5t-75.5 213.5t23 326.5l25 140q37 201 100 334t155 212.5t213.5 112t275.5 32.5q46 0 93 -2.5t90.5 -7.5t82 -12t68.5 -16q16 -4 10 -20l-47 -130
q-5 -15 -21 -12q-69 13 -147 18.5t-154 5.5q-110 0 -197 -24t-153 -82t-112 -155.5t-73 -243.5l-28 -160q-28 -147 -20 -244.5t49 -155.5t115.5 -82t180.5 -24q73 0 132.5 4.5t113.5 12.5l82 445l-273 8q-16 0 -13 16l24 130q3 16 19 16h437z" />
    <glyph glyph-name="H" unicode="H" horiz-adv-x="1451" 
d="M97 0q-16 0 -13 16l266 1443q3 16 19 16h147q16 0 13 -16l-107 -587h697l108 587q3 16 19 16h148q16 0 13 -16l-268 -1443q-3 -16 -19 -16h-147q-16 0 -13 16l126 681h-697l-126 -681q-3 -16 -19 -16h-147z" />
    <glyph glyph-name="I" unicode="I" horiz-adv-x="574" 
d="M97 0q-16 0 -13 16l266 1443q3 16 19 16h147q16 0 13 -16l-266 -1443q-3 -16 -19 -16h-147z" />
    <glyph glyph-name="J" unicode="J" horiz-adv-x="575" 
d="M-85 -307q-31 0 -66 4t-62 10q-16 4 -11 19l46 131q4 16 21 12q21 -4 41 -4.5t39 -0.5q31 0 57 5t46 20.5t34.5 45t23.5 78.5l267 1446q3 16 19 16h147q16 0 13 -16l-269 -1459q-15 -81 -42 -139t-68.5 -95.5t-99.5 -55t-136 -17.5z" />
    <glyph glyph-name="K" unicode="K" horiz-adv-x="1228" 
d="M887 0q-16 0 -24 14l-373 681l-122 -108l-105 -571q-3 -16 -19 -16h-147q-16 0 -13 16l266 1443q3 16 19 16h146q16 0 13 -16l-112 -607l686 612q12 11 28 11h231q15 0 4 -11l-729 -641l462 -809q8 -14 -8 -14h-203z" />
    <glyph glyph-name="L" unicode="L" horiz-adv-x="1029" 
d="M97 0q-16 0 -13 16l266 1443q3 16 19 16h147q16 0 13 -16l-236 -1289h617q16 0 13 -16l-26 -138q-3 -16 -19 -16h-781z" />
    <glyph glyph-name="M" unicode="M" horiz-adv-x="1667" 
d="M97 0q-16 0 -13 16l266 1443q3 16 19 16h163q9 0 13.5 -3.5t8.5 -11.5l246 -655q7 -18 13 -36t10.5 -33t7 -25l2.5 -10l6.5 9.5t17 24.5t23.5 34t27 37l487 656q6 8 11.5 10.5t14.5 2.5h190q16 0 13 -16l-267 -1443q-3 -16 -19 -16h-148q-16 0 -13 16l205 1106l11 72
q-2 -1 -17.5 -24.5t-34.5 -50.5l-457 -622q-9 -13 -25 -13h-106q-16 0 -21 15l-221 612q-11 33 -17.5 58t-8.5 25l-18 -88l-203 -1090q-3 -16 -19 -16h-147z" />
    <glyph glyph-name="N" unicode="N" horiz-adv-x="1443" 
d="M97 0q-16 0 -13 16l266 1443q3 16 19 16h158q9 0 13.5 -3.5t8.5 -11.5l414 -1039q20 -51 30.5 -81.5t12.5 -30.5l213 1150q3 16 19 16h148q16 0 13 -16l-267 -1443q-3 -16 -19 -16h-169q-9 0 -13.5 3.5t-8.5 11.5l-401 1032q-20 51 -31 84.5t-12 33.5l-215 -1149
q-3 -16 -19 -16h-147z" />
    <glyph glyph-name="O" unicode="O" horiz-adv-x="1433" 
d="M596 -24q-139 0 -239 38t-158.5 120.5t-72.5 214t19 319.5l25 140q37 208 99 342t150 211.5t202.5 107.5t256.5 30q139 0 238.5 -37.5t157 -120t71.5 -214t-18 -320.5l-24 -140q-36 -207 -97.5 -340.5t-149.5 -211.5t-203 -108.5t-257 -30.5zM844 1318
q-96 0 -174.5 -23.5t-140 -81t-105.5 -154t-71 -241.5l-28 -160q-27 -147 -20 -243.5t46 -154t108.5 -81t168.5 -23.5q95 0 174 24.5t140.5 82.5t105.5 154.5t70 241.5l30 158q27 145 20 241.5t-46 154.5t-109 81.5t-169 23.5z" />
    <glyph glyph-name="P" unicode="P" horiz-adv-x="1296" 
d="M698 1328q-17 0 -43.5 -0.5t-54 -2t-53.5 -3t-42 -2.5l-116 -622q16 -2 41.5 -3t53 -2t54 -1.5t43.5 -0.5q132 0 222 11t149 42.5t91.5 88.5t49.5 148l11 56q16 91 4.5 148t-58 88.5t-133 43t-219.5 11.5zM96 0q-16 0 -13 16l269 1443q3 16 19 17q42 3 91.5 5.5t98 5
t92 3.5t74.5 1q170 0 287.5 -19.5t186 -69t89 -134.5t-3.5 -215l-16 -87q-18 -98 -44.5 -169t-66 -119.5t-94 -78t-129 -45.5t-170.5 -21t-218 -5q-20 0 -49 0.5t-57.5 1t-51.5 1.5t-32 2l-95 -517q-3 -16 -19 -16h-148z" />
    <glyph glyph-name="Q" unicode="Q" horiz-adv-x="1435" 
d="M596 -24q-139 0 -239.5 39t-158.5 123t-72.5 215t18.5 315l25 140q25 141 61 247t83.5 183t106 127t128.5 80t152 42t177 12q139 0 239 -39t158 -122.5t72 -214.5t-19 -316l-25 -140q-31 -171 -77.5 -291.5t-110 -200t-144.5 -122.5t-180 -61l160 -366q6 -15 -10 -15
h-190q-9 0 -13.5 3.5t-8.5 11.5zM843 1318q-96 0 -174.5 -23.5t-139.5 -81t-105 -154t-71 -241.5l-29 -160q-27 -147 -20 -243.5t46 -154t109 -81t169 -23.5q95 0 173.5 24.5t140 82.5t106 154.5t70.5 241.5l29 158q27 145 20 241.5t-46 154.5t-109 81.5t-169 23.5z" />
    <glyph glyph-name="R" unicode="R" horiz-adv-x="1360" 
d="M960 0q-9 0 -13.5 3.5t-8.5 11.5l-208 536q-32 -1 -64 -1h-67q-57 0 -111.5 1t-123.5 6l-100 -541q-3 -16 -19 -16h-148q-16 0 -13 16l267 1443q3 16 19 17q104 8 200 9.5t190 1.5q174 0 290 -18.5t181.5 -65.5t83.5 -128t-4 -206l-18 -103q-19 -108 -51.5 -180.5
t-80.5 -118.5t-110.5 -70.5t-141.5 -34.5q7 -14 13.5 -28.5t14.5 -31.5l207 -487q6 -15 -10 -15h-174zM739 1324q-29 0 -62.5 -0.5t-65.5 -1t-60.5 -2t-46.5 -4.5l-109 -595q27 -3 58 -4.5t62.5 -2t60.5 -1t52 -0.5q82 0 146.5 3t115 13t88 28.5t64.5 49.5t45 76t30 108
l11 61q18 96 4.5 150.5t-61 81.5t-130 33.5t-202.5 6.5z" />
    <glyph glyph-name="S" unicode="S" horiz-adv-x="1188" 
d="M397 -24q-103 0 -200.5 9.5t-166.5 26.5q-16 4 -10 19l53 130q5 15 22 12q48 -8 90 -13t81 -8t77 -4.5t78 -1.5q133 0 219 16.5t136.5 52t70.5 91.5t20 135q0 39 -14 67.5t-45.5 54t-83 51t-126.5 58.5l-132 61q-72 33 -124 68t-85.5 75t-49 86.5t-15.5 102.5
q0 115 31.5 197t105.5 134.5t197.5 77.5t306.5 25q92 0 178.5 -8t151.5 -25q14 -4 9 -19l-49 -126q-5 -15 -22 -12q-32 5 -69 9t-75 6.5t-74.5 3.5t-66.5 1q-129 0 -213.5 -12.5t-134 -40.5t-69 -74.5t-19.5 -113.5q0 -43 15.5 -73.5t47.5 -55t80 -47.5t113 -50l154 -67
q76 -32 127.5 -66.5t82.5 -73t44 -82.5t13 -96q0 -141 -35 -237t-113 -154.5t-204 -84t-308 -25.5z" />
    <glyph glyph-name="T" unicode="T" horiz-adv-x="1174" 
d="M390 0q-16 0 -13 16l238 1283h-454q-16 0 -13 16l27 144q3 16 19 16h1088q16 0 13 -16l-27 -144q-3 -16 -19 -16h-454l-238 -1283q-3 -16 -19 -16h-148z" />
    <glyph glyph-name="U" unicode="U" horiz-adv-x="1457" 
d="M605 -24q-127 0 -222.5 31.5t-154 96t-78 162t5.5 230.5l179 963q3 16 19 16h148q16 0 13 -16l-170 -920q-19 -100 -14.5 -173t38 -121t99 -71.5t169.5 -23.5q105 0 180 23t127.5 71t85 121t51.5 174l171 920q3 16 19 16h145q16 0 13 -16l-179 -963q-30 -159 -85 -260
t-135.5 -158.5t-186.5 -79.5t-238 -22z" />
    <glyph glyph-name="V" unicode="V" horiz-adv-x="1284" 
d="M545 167h2l668 1294q4 8 9 11t14 3h164q17 0 9 -14l-762 -1447q-4 -8 -9 -11t-14 -3h-217q-17 0 -18 16l-224 1443q-1 9 2 12.5t12 3.5h159q17 0 18 -16z" />
    <glyph glyph-name="W" unicode="W" horiz-adv-x="1861" 
d="M278 0q-16 0 -16 16l-27 1443q0 16 16 16h167q16 0 16 -16l-13 -1073l-3 -230l9 21.5t22.5 54.5t30 73t33.5 78l478 1077q5 15 22 15h149q16 0 17 -16l79 -1069q0 -9 1.5 -29.5t3 -46t3.5 -53.5t3.5 -51.5t2.5 -38.5l1 -15l81 237l384 1067q5 15 21 15h172q16 0 10 -15
l-561 -1445q-4 -8 -8.5 -11.5t-13.5 -3.5h-209q-16 0 -17 16l-91 1055q-1 20 -2 40.5t-1.5 38t-0.5 28.5v11q0 -1 -4.5 -12.5t-11 -28.5t-14.5 -37.5t-17 -39.5l-481 -1056q-4 -9 -9 -12t-14 -3h-208z" />
    <glyph glyph-name="X" unicode="X" horiz-adv-x="1269" 
d="M927 0q-17 0 -22 15l-263 593l-485 -596q-6 -7 -11.5 -9.5t-14.5 -2.5h-197q-16 0 -6 12l611 725l-342 724q-8 14 9 14h175q16 0 23 -15l264 -588l484 591q6 7 11.5 9.5t14.5 2.5h197q16 0 6 -12l-610 -725l340 -724q8 -14 -9 -14h-175z" />
    <glyph glyph-name="Y" unicode="Y" horiz-adv-x="1163" 
d="M386 0q-16 0 -13 16l90 492l-305 952q-6 15 11 15h159q16 0 21 -15l233 -748l508 750q9 13 25 13h178q17 0 7 -13l-657 -955l-91 -491q-3 -16 -19 -16h-147z" />
    <glyph glyph-name="Z" unicode="Z" horiz-adv-x="1181" 
d="M-14 0q-16 0 -13 16l25 130q3 17 13 28l986 1134h-750q-16 0 -13 16l25 135q3 16 19 16h946q16 0 13 -16l-23 -130q-3 -15 -13 -28l-986 -1134h774q16 0 13 -16l-27 -135q-3 -16 -19 -16h-970z" />
    <glyph glyph-name="bracketleft" unicode="[" horiz-adv-x="646" 
d="M4 -389q-16 0 -13 16l354 1913q3 16 19 16h425q16 0 13 -16l-26 -138q-3 -16 -19 -16h-261l-297 -1605h261q16 0 13 -16l-26 -138q-3 -16 -19 -16h-424z" />
    <glyph glyph-name="backslash" unicode="\" horiz-adv-x="1050" 
d="M704 0q-9 0 -14.5 2.5t-8.5 11.5l-465 1528q-2 8 -0.5 11t9.5 3h159q9 0 14.5 -2.5t8.5 -11.5l465 -1528q2 -8 0.5 -11t-9.5 -3h-159z" />
    <glyph glyph-name="bracketright" unicode="]" horiz-adv-x="629" 
d="M610 1556q16 0 13 -16l-354 -1913q-3 -16 -19 -16h-425q-16 0 -13 16l26 138q3 16 19 16h261l297 1605h-261q-16 0 -13 16l26 138q3 16 19 16h424z" />
    <glyph glyph-name="asciicircum" unicode="^" horiz-adv-x="1242" 
d="M487 1150q-15 0 -4 11l320 301q12 11 28 11h127q16 0 25 -13l203 -297q10 -13 -7 -13h-125q-16 0 -25 13l-141 214l-230 -216q-12 -11 -28 -11h-143z" />
    <glyph glyph-name="underscore" unicode="_" horiz-adv-x="940" 
d="M-99 -268q-16 0 -13 16l26 135q3 16 19 16h820q16 0 13 -16l-25 -135q-3 -16 -19 -16h-821z" />
    <glyph glyph-name="grave" unicode="`" horiz-adv-x="771" 
d="M646 1264q-16 0 -26 13l-180 238q-10 13 6 13h192q16 0 24 -14l133 -236q8 -14 -8 -14h-141z" />
    <glyph glyph-name="a" unicode="a" horiz-adv-x="1183" 
d="M902 929q-45 5 -102 8.5t-124 3.5q-99 0 -165 -17t-109 -59t-69.5 -112.5t-47.5 -176.5l-14 -74q-20 -108 -20 -180t28 -115t89 -61t163 -18q60 0 120.5 3t102.5 8zM505 -24q-143 0 -233.5 29t-137.5 89.5t-54 154.5t18 224l24 126q29 152 70.5 248.5t108 151t164 75
t237.5 20.5q46 0 96 -1.5t99.5 -4.5t97 -7t89.5 -8q16 -1 13 -18l-193 -1039q-2 -9 -6 -12.5t-13 -5.5q-101 -11 -196.5 -16.5t-183.5 -5.5z" />
    <glyph glyph-name="b" unicode="b" horiz-adv-x="1182" 
d="M623 941q-26 0 -56 -1t-60.5 -3.5t-59.5 -6t-53 -7.5l-146 -781q50 -6 108.5 -10t116.5 -4q100 0 166.5 18t110.5 61t70.5 114.5t46.5 178.5l14 77q19 105 19 175t-28 112t-88 59.5t-161 17.5zM441 -24q-89 0 -182.5 6t-190.5 23q-16 3 -13 19l290 1562q3 17 19 18
l145 24q16 1 13 -14l-100 -542q54 8 118 15t131 7q134 0 219.5 -28.5t129.5 -89t50 -154t-18 -223.5l-24 -129q-27 -148 -69.5 -243.5t-110 -151t-167 -77.5t-240.5 -22z" />
    <glyph glyph-name="c" unicode="c" horiz-adv-x="958" 
d="M504 -24q-141 0 -230 27.5t-135.5 88t-54 157.5t15.5 236l17 101q24 144 66 241.5t111 157t171 84.5t248 25q67 0 126.5 -6t107.5 -15q17 -3 11 -18l-36 -117q-5 -14 -21 -13q-49 8 -104 10.5t-110 2.5q-101 0 -168.5 -18t-112.5 -61t-72 -114.5t-46 -177.5l-13 -65
q-20 -108 -19.5 -179.5t29.5 -114t90 -60t163 -17.5q59 0 115.5 3.5t106.5 11.5q16 3 15 -13l-10 -116q-1 -16 -17 -19q-25 -5 -55 -9t-62 -7t-64.5 -4.5t-62.5 -1.5z" />
    <glyph glyph-name="d" unicode="d" horiz-adv-x="1181" 
d="M676 941q-99 0 -165.5 -17.5t-110 -60t-70 -112.5t-45.5 -175l-15 -74q-20 -108 -20 -180t28.5 -115t89 -61t162.5 -18q57 0 115.5 4t108.5 10l146 779q-22 5 -50.5 8.5t-59 6t-60.5 4t-54 1.5zM504 -24q-143 0 -233.5 27.5t-137 87.5t-53 154.5t17.5 227.5l23 126
q18 97 42 172t57 130t77.5 92t103 59.5t132.5 32t168 9.5q59 0 118.5 -7t107.5 -17l95 516q3 17 19 18l147 24q16 1 13 -14l-296 -1590q-3 -17 -19 -18q-101 -15 -197.5 -22.5t-184.5 -7.5z" />
    <glyph glyph-name="e" unicode="e" horiz-adv-x="1149" 
d="M481 -24q-130 0 -214.5 30.5t-129.5 94.5t-53 162t15 233l15 88q24 138 67 235t110.5 158t162.5 89t223 28q104 0 178.5 -23.5t122.5 -68.5t71 -111t23 -151q0 -50 -6.5 -93.5t-16 -78t-19.5 -60t-16 -38.5q-4 -8 -8.5 -11t-13.5 -3l-731 -1q-14 -95 -8.5 -158
t35.5 -100.5t86.5 -53.5t143.5 -16q85 0 172 3.5t182 11.5q16 1 15 -15l-8 -111q-1 -9 -4.5 -12.5t-12.5 -5.5q-91 -10 -183 -16t-198 -6zM896 608q12 89 7.5 152.5t-32.5 104t-82 59t-140 18.5q-84 0 -144.5 -19.5t-103 -61.5t-70 -107.5t-45.5 -157.5z" />
    <glyph glyph-name="f" unicode="f" horiz-adv-x="718" 
d="M111 929q-16 1 -13 17l19 109q3 16 19 16h186l25 136q22 122 50 203.5t75 130t121 69t189 20.5q50 0 98 -4.5t82 -10.5q17 -3 11 -18l-36 -116q-3 -9 -7.5 -12t-13.5 -2q-31 2 -71.5 3.5t-70.5 1.5q-65 0 -107 -10.5t-68.5 -34t-41 -61t-24.5 -91.5l-38 -204h258
q17 0 11 -15l-40 -128q-5 -15 -21 -15h-237l-194 -1047q-20 -108 -49 -174.5t-74.5 -103.5t-111 -50t-156.5 -13q-36 0 -78 3.5t-74 10.5q-16 4 -11 19l41 116q5 15 21 12q25 -5 55.5 -7.5t57.5 -2.5q52 0 87 8t58 29.5t37 58.5t25 94l193 1047z" />
    <glyph glyph-name="g" unicode="g" horiz-adv-x="1184" 
d="M294 -475q-30 0 -64.5 1.5t-70.5 4t-70.5 6.5t-63.5 9q-16 3 -12 18l33 112q4 16 20 13q26 -5 56.5 -7.5t61.5 -4.5t62 -2.5t58 -0.5q101 0 173 12.5t121.5 47.5t80.5 98t50 164q-20 -3 -46.5 -6t-56.5 -5t-62 -3.5t-63 -1.5q-142 0 -231.5 28.5t-136 89t-53 153.5
t18.5 222l24 126q29 152 70.5 248.5t108 151t164 75t237.5 20.5q46 0 96 -1.5t99.5 -4.5t97 -7t89.5 -8q16 -1 13 -18l-195 -1049q-19 -103 -47.5 -179t-67 -129.5t-88 -87t-110.5 -52.5t-135 -26t-161 -7zM677 941q-99 0 -164.5 -17t-109 -59t-70 -112.5t-47.5 -176.5
l-14 -74q-20 -108 -20 -180t28 -115t89 -61t163 -18q60 0 120.5 3t102.5 8l148 790q-45 5 -102 8.5t-124 3.5z" />
    <glyph glyph-name="h" unicode="h" horiz-adv-x="1212" 
d="M786 0q-16 0 -13 16l111 593q16 91 17.5 152.5t-18.5 98t-65.5 52t-121.5 15.5q-35 0 -75 -4.5t-81 -13.5t-81 -22.5t-76 -31.5l-155 -839q-3 -16 -19 -16h-140q-16 0 -13 16l291 1570q3 17 19 18l145 24q16 1 13 -14l-114 -612q43 22 90.5 39t96 29t95.5 18t90 6
q103 0 167.5 -26t96.5 -82t34 -143t-20 -209l-114 -618q-3 -16 -19 -16h-141z" />
    <glyph glyph-name="i" unicode="i" horiz-adv-x="509" 
d="M70 0q-16 0 -13 16l192 1039q3 16 19 16h140q16 0 13 -16l-193 -1039q-3 -16 -19 -16h-139zM296 1243q-16 0 -13 16l49 265q3 17 19 18l153 25q16 1 13 -14l-55 -294q-3 -16 -19 -16h-147z" />
    <glyph glyph-name="j" unicode="j" horiz-adv-x="509" 
d="M-190 -475q-36 0 -77.5 3.5t-73.5 10.5q-16 4 -11 19l41 116q5 15 21 12q25 -5 55 -7.5t57 -2.5q52 0 87 8t58.5 29.5t37 58.5t24.5 94l220 1189q3 16 19 16h140q16 0 13 -16l-219 -1189q-19 -100 -48.5 -166t-75 -105t-111 -54.5t-157.5 -15.5zM297 1243q-16 0 -13 16
l48 265q3 17 19 18l153 25q16 1 13 -14l-54 -294q-3 -16 -19 -16h-147z" />
    <glyph glyph-name="k" unicode="k" horiz-adv-x="1101" 
d="M762 0q-9 0 -14 3t-9 11l-274 564l-153 -109l-84 -453q-3 -16 -19 -16h-140q-16 0 -13 16l291 1570q3 17 19 18l145 24q16 1 13 -14l-173 -931l521 379q13 9 29 9h237q7 0 7.5 -2.5t-4.5 -6.5l-536 -383l349 -665q8 -14 -9 -14h-183z" />
    <glyph glyph-name="l" unicode="l" horiz-adv-x="522" 
d="M76 0q-16 0 -13 16l291 1570q3 17 19 18l145 24q16 1 13 -14l-296 -1598q-3 -16 -19 -16h-140z" />
    <glyph glyph-name="m" unicode="m" horiz-adv-x="1744" 
d="M67 0q-16 0 -13 16l197 1058q3 16 19 16h106q9 0 12.5 -3.5t5.5 -12.5l7 -73q68 42 150 67.5t165 25.5q87 0 145.5 -22.5t91.5 -70.5q87 45 176.5 69t174.5 24q103 0 169.5 -26.5t101 -80t39 -135t-15.5 -190.5l-120 -646q-3 -16 -19 -16h-138q-16 0 -13 16l112 610
q18 95 17.5 154t-22 92t-65.5 45t-112 12q-57 0 -118.5 -13.5t-125.5 -44.5q7 -89 -18 -216l-119 -639q-3 -16 -19 -16h-136q-16 0 -13 16l114 618q16 88 15.5 145t-20 90t-59 46t-100.5 13q-60 0 -128 -16.5t-131 -58.5l-155 -837q-3 -16 -19 -16h-139z" />
    <glyph glyph-name="n" unicode="n" horiz-adv-x="1210" 
d="M67 0q-16 0 -13 16l197 1058q3 16 19 16h106q9 0 12.5 -3.5t5.5 -12.5l8 -75q43 23 91.5 40.5t98 29.5t97.5 18.5t91 6.5q103 0 167.5 -27.5t96.5 -84.5t34 -143.5t-20 -204.5l-114 -618q-3 -16 -19 -16h-140q-16 0 -13 16l110 593q16 91 18 152.5t-18.5 98t-65.5 52
t-121 15.5q-36 0 -75.5 -4.5t-80.5 -13.5t-81 -22.5t-76 -31.5l-156 -839q-3 -16 -19 -16h-140z" />
    <glyph glyph-name="o" unicode="o" horiz-adv-x="1179" 
d="M649 942q-87 0 -148.5 -20.5t-104 -65t-69.5 -115t-46 -170.5l-13 -73q-18 -99 -17 -169.5t26.5 -115.5t79 -65.5t140.5 -20.5t148.5 20.5t104 65.5t70 115.5t46.5 171.5l13 71q18 99 17.5 169.5t-26.5 115.5t-79.5 65.5t-141.5 20.5zM470 -24q-126 0 -209 32
t-127.5 96.5t-52.5 160t16 223.5l17 91q27 142 71 240.5t111.5 159.5t161 88t219.5 27q127 0 210.5 -31.5t128 -95t52 -160.5t-17.5 -228l-16 -91q-25 -143 -69 -240.5t-112 -158t-162.5 -87t-220.5 -26.5z" />
    <glyph glyph-name="p" unicode="p" horiz-adv-x="1182" 
d="M620 941q-54 0 -115.5 -3.5t-110.5 -11.5l-145 -779q45 -9 104.5 -14t116.5 -5q101 0 168 18t111.5 61t70.5 114t46 178l14 74q20 107 19.5 178t-29 113t-89 59.5t-161.5 17.5zM-17 -452q-16 0 -13 16l275 1483q3 17 19 18q103 16 199 22.5t185 6.5q141 0 230.5 -27
t136 -86t54 -153t-16.5 -228l-22 -124q-26 -147 -67.5 -243.5t-109 -153.5t-167 -80t-241.5 -23q-58 0 -116.5 6.5t-106.5 16.5l-80 -435q-3 -16 -19 -16h-140z" />
    <glyph glyph-name="q" unicode="q" horiz-adv-x="1182" 
d="M681 941q-102 0 -169 -17.5t-111 -59.5t-70.5 -113t-45.5 -178l-15 -74q-20 -107 -20 -178t28.5 -114t89 -61t161.5 -18q56 0 117.5 5t109.5 14l144 779q-47 8 -104.5 11.5t-114.5 3.5zM660 -452q-16 0 -13 16l82 435q-51 -10 -112.5 -16.5t-118.5 -6.5
q-142 0 -230.5 28.5t-133.5 88.5t-51.5 154t16.5 225l22 128q25 149 67 245t111 151.5t169 76.5t243 21q88 0 184 -7t187 -21q16 -3 13 -19l-275 -1483q-3 -16 -19 -16h-141z" />
    <glyph glyph-name="r" unicode="r" horiz-adv-x="742" 
d="M67 0q-16 0 -13 16l197 1058q3 16 19 16h106q9 0 12.5 -3.5t5.5 -12.5l7 -64q34 22 73.5 38t81 26t82.5 15t78 5q17 0 32 -1t26 -3q16 -3 12 -18l-37 -142q-4 -16 -20 -15q-13 2 -25.5 2.5t-29.5 0.5q-77 0 -147 -12.5t-145 -48.5l-156 -841q-3 -16 -19 -16h-140z" />
    <glyph glyph-name="s" unicode="s" horiz-adv-x="990" 
d="M328 -24q-27 0 -66 1.5t-81.5 5t-85 9t-77.5 14.5q-16 4 -11 19l34 117q5 15 21 12q79 -15 146 -20t138 -5q102 0 165 9t97.5 30.5t46 56t11.5 85.5q0 24 -8 42.5t-27.5 34.5t-52 32t-80.5 35l-171 65q-49 19 -85.5 40t-61 47.5t-36.5 60.5t-12 79q0 100 27.5 166.5
t86.5 107t153 57.5t228 17q81 0 154 -7t128 -15q17 -1 11 -17l-36 -117q-5 -14 -21 -13q-54 7 -115.5 11t-131.5 4q-83 0 -141.5 -6t-95.5 -24t-54.5 -50t-17.5 -83q0 -21 7 -37.5t25.5 -32t50 -30.5t80.5 -33l146 -54q60 -22 103 -44t71 -49.5t41.5 -62.5t13.5 -83
q0 -110 -28.5 -182t-90.5 -115t-160.5 -60.5t-237.5 -17.5z" />
    <glyph glyph-name="t" unicode="t" horiz-adv-x="774" 
d="M366 -24q-64 0 -109 11t-70 43t-29.5 90.5t12.5 153.5l119 643l-190 17q-16 1 -13 17l18 104q3 16 19 16h194l37 196q3 16 19 19l146 23q16 3 13 -13l-43 -225h314q15 0 11 -15l-45 -124q-5 -15 -21 -15h-287l-117 -636q-9 -50 -8 -79.5t13 -45.5t35.5 -20.5t58.5 -4.5
q32 0 68.5 3t63.5 8q16 3 15 -13l-9 -111q-1 -16 -17 -20q-38 -8 -91.5 -15t-106.5 -7z" />
    <glyph glyph-name="u" unicode="u" horiz-adv-x="1209" 
d="M501 -24q-141 0 -226.5 27t-127 83.5t-45.5 144t19 207.5l115 617q3 16 19 16h140q16 0 13 -16l-113 -608q-18 -94 -16 -155t29 -96t81 -49t141 -14q31 0 65 2t68 5t66 8t58 11l167 896q3 16 19 16h140q16 0 13 -16l-186 -1008q-3 -16 -19 -20q-40 -10 -89.5 -19
t-104.5 -16t-112.5 -11.5t-113.5 -4.5z" />
    <glyph glyph-name="v" unicode="v" horiz-adv-x="1029" 
d="M286 0q-16 0 -19 16l-165 1039q-3 16 13 16h152q17 0 18 -16l128 -897l464 899q4 8 9 11t14 3h162q16 0 8 -14l-553 -1043q-8 -14 -24 -14h-207z" />
    <glyph glyph-name="w" unicode="w" horiz-adv-x="1659" 
d="M240 0q-16 0 -17 16l-80 1039q-1 16 15 16h150q16 0 17 -16l48 -807q0 -8 0.5 -25.5t0.5 -35v-31t1 -13.5q2 1 14.5 32.5t32.5 71.5l404 810q4 8 9 11t14 3h129q17 0 18 -16l101 -811q2 -19 3.5 -37t2.5 -32.5t2 -23t2 -8.5t6 13.5t11.5 31t13.5 34t12 24.5l346 810
q5 15 22 15h155q16 0 9 -15l-467 -1041q-7 -15 -23 -15h-191q-17 0 -18 16l-107 706q-2 14 -3.5 30.5t-2 30.5t-1 23t-1.5 9t-4.5 -9.5t-9.5 -23.5t-13.5 -30t-14.5 -30l-372 -708q-4 -8 -9 -11t-14 -3h-191z" />
    <glyph glyph-name="x" unicode="x" horiz-adv-x="1076" 
d="M731 0q-9 0 -14 3t-9 11l-201 416l-356 -418q-9 -12 -26 -12h-182q-17 0 -5 12l472 531l-267 514q-8 14 9 14h161q9 0 14 -3t9 -11l201 -415l356 417q9 12 26 12h184q17 0 5 -12l-474 -530l269 -515q8 -14 -9 -14h-163z" />
    <glyph glyph-name="y" unicode="y" horiz-adv-x="998" 
d="M-55 -475q-27 0 -61 3.5t-61 10.5q-15 4 -10 19l40 117q5 15 21 12q21 -4 46.5 -6.5t46.5 -2.5q43 0 77 4.5t63 16.5t55 34t52.5 58t56 87t65.5 122q-2 0 -9 4.5t-17 18.5t-21 41.5t-20 73.5l-172 917q-3 16 13 16h160q16 0 19 -16l116 -716q4 -29 8 -56.5t7 -49.5t5 -35
l2 -13l411 872q4 8 9 11t14 3h165q17 0 9 -14l-573 -1139q-63 -125 -115 -202t-108.5 -119.5t-126 -57t-167.5 -14.5z" />
    <glyph glyph-name="z" unicode="z" horiz-adv-x="1021" 
d="M167 914q-17 0 -14 18l24 126q2 8 6.5 10.5t12.5 2.5h796q17 0 14 -18l-23 -118q-2 -7 -4.5 -11t-7.5 -9l-737 -757h589q17 0 14 -18l-24 -127q-2 -8 -6 -10.5t-12 -2.5h-801q-17 0 -14 18l22 114q2 10 5 15.5t8 10.5l737 756h-585z" />
    <glyph glyph-name="braceleft" unicode="{" horiz-adv-x="682" 
d="M310 -389q-78 0 -130 12.5t-80 45.5t-32.5 92t13.5 152l57 304q10 54 12.5 91t-4.5 63.5t-25.5 45t-49.5 36.5q-8 4 -10.5 9t-0.5 14l25 133q2 9 6 13.5t12 9.5q38 18 63.5 36.5t42.5 45t28 63.5t21 92l56 303q21 111 47.5 172.5t66 90.5t94.5 34.5t133 5.5h132
q16 0 13 -16l-24 -139q-3 -16 -19 -16h-132q-34 0 -56 -5t-36 -19t-22.5 -39t-15.5 -65l-58 -307q-14 -76 -29.5 -125.5t-37 -84t-53 -59t-77.5 -49.5l-3 -16q37 -26 58 -55.5t30 -67.5t6 -85.5t-14 -108.5l-57 -309q-7 -40 -8 -65t8 -39t28.5 -19t54.5 -5h130q16 0 13 -16
l-25 -138q-3 -16 -19 -16h-132v0z" />
    <glyph glyph-name="bar" unicode="|" horiz-adv-x="638" 
d="M224 -389q-16 0 -16 16v1832q0 16 16 16h148q16 0 16 -16v-1832q0 -16 -16 -16h-148z" />
    <glyph glyph-name="braceright" unicode="}" horiz-adv-x="668" 
d="M328 1474q78 0 130 -12.5t80 -45.5t32.5 -92t-13.5 -152l-57 -304q-10 -54 -12.5 -91t4.5 -63.5t25 -45t50 -36.5q8 -4 10.5 -9t0.5 -14l-25 -133q-2 -9 -6 -13.5t-12 -9.5q-38 -18 -63.5 -36.5t-42.5 -45t-28 -63.5t-21 -92l-56 -303q-21 -111 -47.5 -172.5t-66 -90.5
t-94.5 -34.5t-133 -5.5h-132q-16 0 -13 16l24 139q3 16 19 16h132q34 0 56 5t36 19t22 39t16 65l58 307q14 76 29.5 125.5t37 84t53 59t77.5 49.5l3 16q-37 25 -58 55t-30 68t-6 85.5t14 108.5l57 309q7 40 8 65t-8 39t-29 19t-54 5h-130q-16 0 -13 16l25 138q3 16 19 16
h132v0z" />
    <glyph glyph-name="asciitilde" unicode="~" horiz-adv-x="1056" 
d="M147 603q-16 0 -13 16l7 44q16 91 44.5 143t62.5 77.5t70.5 31.5t69.5 6q54 0 93 -16.5t74 -50.5l55 -52q18 -17 33 -29.5t28.5 -20.5t26.5 -11.5t28 -3.5q20 0 36.5 5t30 22t25.5 49.5t23 87.5q3 16 19 16h101q16 0 13 -16l-7 -44q-15 -90 -43.5 -141.5t-62.5 -77.5
t-71 -32.5t-70 -6.5q-54 0 -93.5 15.5t-74.5 50.5l-54 53q-19 18 -33.5 31t-27.5 20.5t-26 11t-28 3.5q-20 0 -36.5 -5t-30.5 -22.5t-26 -50t-23 -87.5q-3 -16 -19 -16h-101z" />
    <glyph glyph-name="uni007F" 
 />
    <glyph glyph-name="uni00A0" unicode="&#xa0;" horiz-adv-x="508" 
 />
    <glyph glyph-name="exclamdown" unicode="&#xa1;" horiz-adv-x="529" 
d="M323 578q16 0 13 -16l-161 -950q-3 -17 -19 -18l-159 -25q-16 -1 -13 14l194 979q3 16 19 16h126zM428 1071q16 0 13 -16l-42 -228q-3 -17 -19 -18l-152 -24q-16 -1 -13 14l47 256q3 16 19 16h147z" />
    <glyph glyph-name="cent" unicode="&#xa2;" horiz-adv-x="929" 
d="M314 -258q-16 0 -13 16l41 225q-99 12 -161 46.5t-92.5 97t-31.5 155.5t23 222l22 118q25 135 59.5 229.5t87.5 156t128 94t181 43.5l41 223q3 16 19 16h127q16 0 13 -16l-41 -217q58 -2 108.5 -8t92.5 -15q16 -3 10 -18l-44 -121q-4 -8 -8.5 -11t-13.5 -2
q-41 6 -85.5 9.5t-89.5 5.5l-161 -864q49 1 95 3.5t88 10.5q16 3 16 -13v-114q0 -16 -16 -19q-43 -8 -100 -12.5t-111 -6.5l-40 -218q-3 -16 -19 -16h-125zM251 514q-17 -91 -21 -157t8.5 -111t44.5 -71t88 -38l156 842q-60 -13 -102 -40.5t-72 -72.5t-50.5 -110t-36.5 -152
z" />
    <glyph glyph-name="sterling" unicode="&#xa3;" horiz-adv-x="1099" 
d="M142 691q-16 0 -13 16l25 138q3 16 19 16h111l30 161q22 120 55 205.5t95 140.5t163 81t261 26h208q16 0 13 -16l-25 -139q-3 -16 -19 -16h-207q-102 0 -166 -14.5t-103 -47t-59.5 -85.5t-34.5 -131l-31 -165h450q15 0 11 -15l-51 -140q-5 -15 -21 -15h-420l-51 -274
q-9 -46 -19 -83t-22 -67t-27 -53.5t-34 -43.5h633q16 0 13 -16l-26 -138q-3 -16 -19 -16h-867q-16 0 -13 16l26 143q2 9 6 13.5t12 8.5q39 18 64.5 36.5t42.5 44.5t28.5 63.5t21.5 91.5l50 274h-110z" />
    <glyph glyph-name="currency" unicode="&#xa4;" horiz-adv-x="1270" 
d="M240 1098q-10 13 2 22l116 98q13 10 22 -2l76 -95q57 27 124 39.5t146 12.5q76 0 135 -19t102 -53l113 92q13 10 22 -2l91 -109q10 -13 -2 -22l-126 -103q20 -62 20 -129q0 -122 -22.5 -212t-66.5 -153l77 -94q10 -13 -2 -22l-116 -98q-13 -10 -22 2l-77 94
q-55 -26 -122.5 -38t-146.5 -12q-75 0 -133 19t-101 54l-116 -94q-13 -10 -22 2l-90 110q-10 13 2 22l127 103q-21 61 -21 133q0 120 22 208t65 151zM385 662q0 -56 15 -95.5t43.5 -65t68.5 -37t91 -11.5q77 0 137 17.5t101 58.5t62.5 110t21.5 171q0 111 -58 159.5
t-160 48.5q-77 0 -136.5 -17t-101 -58.5t-63 -110t-21.5 -170.5z" />
    <glyph glyph-name="yen" unicode="&#xa5;" horiz-adv-x="1281" 
d="M191 510q-16 0 -10 15l49 128q4 8 8.5 11.5t13.5 3.5h225l-264 792q-5 15 11 15h158q16 0 21 -15l236 -724l505 726q9 13 25 13h179q17 0 7 -13l-557 -794h300q16 0 10 -15l-48 -128q-4 -8 -8.5 -11.5t-13.5 -3.5h-340l-24 -131h357q16 0 10 -15l-48 -129
q-4 -8 -8.5 -11.5t-13.5 -3.5h-326l-37 -204q-3 -16 -19 -16h-147q-16 0 -13 16l37 204h-343q-16 0 -10 15l48 129q4 8 8.5 11.5t13.5 3.5h312l24 131h-328z" />
    <glyph glyph-name="brokenbar" unicode="&#xa6;" horiz-adv-x="633" 
d="M230 707q-16 0 -16 16l-12 736q0 16 16 16h148q16 0 16 -16l-11 -736q0 -16 -16 -16h-125zM218 -389q-16 0 -16 16l12 736q0 16 16 16h125q16 0 16 -16l11 -736q0 -16 -16 -16h-148z" />
    <glyph glyph-name="section" unicode="&#xa7;" horiz-adv-x="1101" 
d="M275 -451q-41 0 -85 2.5t-86.5 7t-82 11t-71.5 14.5q-14 4 -9 19l53 135q4 8 8.5 11t13.5 1q81 -14 149.5 -20t133.5 -6q106 0 178.5 15.5t117.5 46.5t64.5 78t19.5 109q0 33 -11.5 58t-37.5 47.5t-67.5 45.5t-101.5 51l-125 61q-53 26 -97 55t-75.5 66t-49 83.5
t-17.5 106.5q0 113 39 194.5t121 138.5q-31 38 -47.5 85t-16.5 107q0 118 33.5 199.5t105.5 132t184 73t270 22.5q36 0 75 -2t77 -5.5t73.5 -9.5t64.5 -14q16 -4 10 -20l-48 -130q-4 -8 -8.5 -11t-13.5 -1q-28 5 -61 8.5t-66.5 6t-67 3.5t-62.5 1q-96 0 -165.5 -12.5
t-114 -39.5t-66 -70t-21.5 -104q0 -37 14 -65t40.5 -51.5t66 -45t90.5 -44.5l139 -67q124 -57 178.5 -130.5t54.5 -170.5q0 -62 -11 -112.5t-31.5 -91.5t-50.5 -73.5t-68 -58.5q34 -41 49.5 -86t15.5 -96q0 -122 -36 -208.5t-110 -142t-188 -81.5t-270 -26zM433 757
q-14 6 -27.5 12t-26.5 14q-25 -20 -42 -45t-27.5 -51.5t-15.5 -52t-5 -45.5q0 -41 14.5 -72t42 -56.5t67.5 -47.5t92 -45l140 -63q12 -5 23 -10.5t22 -11.5q26 20 43.5 45.5t28 52.5t15 53t4.5 47q0 34 -11 63t-37.5 54.5t-69 50.5t-105.5 52z" />
    <glyph glyph-name="dieresis" unicode="&#xa8;" horiz-adv-x="772" 
d="M376 1243q-16 0 -13 16l50 265q3 16 19 19l148 23q16 3 13 -13l-55 -294q-3 -16 -19 -16h-143zM714 1243q-16 0 -13 16l49 265q3 16 19 19l149 23q16 3 13 -13l-55 -294q-3 -16 -19 -16h-143z" />
    <glyph glyph-name="copyright" unicode="&#xa9;" horiz-adv-x="1569" 
d="M771 339q-98 0 -162 21.5t-98 68t-39 120.5t15 178l14 72q19 104 51 175.5t82.5 115.5t121.5 63t168 19q48 0 91.5 -4t78.5 -12q17 -3 11 -18l-38 -119q-5 -14 -21 -13q-34 5 -70 6.5t-71 1.5q-59 0 -100 -12.5t-69 -40.5t-45.5 -72t-29.5 -108l-8 -49
q-12 -65 -11.5 -109.5t18 -72.5t54 -40.5t95.5 -12.5q40 0 75.5 2t69.5 7q16 1 15 -14l-5 -118q-1 -16 -17 -19q-36 -8 -84 -12t-92 -4zM291 585q0 -86 20.5 -154.5t69 -116.5t128 -73.5t196.5 -25.5q153 0 269 40.5t193 127t116 221.5t39 324q0 85 -20.5 153t-68.5 116
t-126.5 73.5t-195.5 25.5q-154 0 -270 -40t-194 -126.5t-117 -221t-39 -323.5zM1477 931q0 -215 -46.5 -376.5t-144 -270.5t-248 -163.5t-357.5 -54.5q-147 0 -250.5 36t-168.5 102t-94.5 160t-29.5 210q0 216 46.5 379t144 272.5t248 164.5t358.5 55q147 0 250.5 -36.5
t168 -103.5t94 -162t29.5 -212z" />
    <glyph glyph-name="ordfeminine" unicode="&#xaa;" horiz-adv-x="964" 
d="M528 822q38 0 75 2t72 8l43 232h-84q-77 0 -128.5 -5t-82.5 -21.5t-44.5 -46.5t-13.5 -79q0 -30 12 -48t33.5 -27.5t51.5 -12t66 -2.5zM601 1370q-54 0 -109.5 -4.5t-109.5 -10.5q-16 -1 -13 14l16 90q3 15 19 18q29 6 61 10t63.5 7t60 4t51.5 1q104 0 162 -17.5t83 -54
t23.5 -94.5t-16.5 -139l-84 -455q-3 -17 -19 -18q-36 -5 -75 -9t-76.5 -7t-71 -4.5t-58.5 -1.5q-75 0 -131.5 8.5t-94 29.5t-56 56t-18.5 88q0 91 25 148.5t79.5 90.5t140.5 45.5t208 12.5h78l8 45q8 42 6 70.5t-18 45.5t-48.5 24t-85.5 7zM125 457q-16 0 -13 16l19 106
q3 16 19 16h659q16 0 13 -16l-18 -106q-3 -16 -19 -16h-660z" />
    <glyph glyph-name="guillemotleft" unicode="&#xab;" horiz-adv-x="1219" 
d="M347 204q-16 0 -25 13l-271 367q-9 13 3 24l408 372q12 11 28 11h192q15 0 4 -11l-433 -395l270 -368q10 -13 -7 -13h-169zM839 204q-16 0 -25 13l-271 367q-9 13 3 24l408 372q12 11 28 11h192q15 0 4 -11l-433 -395l270 -368q10 -13 -7 -13h-169z" />
    <glyph glyph-name="logicalnot" unicode="&#xac;" horiz-adv-x="1148" 
d="M183 905q-16 0 -13 16l24 135q3 16 19 16h824q16 0 13 -16l-28 -151l-75 -404q-3 -16 -19 -16h-134q-16 0 -13 16l74 404h-672z" />
    <glyph glyph-name="uni00AD" unicode="&#xad;" horiz-adv-x="815" 
d="M154 511q-16 0 -13 16l25 135q3 16 19 16h464q16 0 13 -16l-25 -135q-3 -16 -19 -16h-464z" />
    <glyph glyph-name="registered" unicode="&#xae;" horiz-adv-x="1292" 
d="M1246 1135q0 -195 -43 -328t-125.5 -214.5t-201.5 -117t-270 -35.5q-120 0 -203 30.5t-134.5 85.5t-74.5 130t-23 164q0 196 44 329.5t126.5 215t201 116.5t267.5 35q123 0 206.5 -31t134.5 -85.5t73 -130t22 -164.5zM303 860q0 -69 15.5 -123t53 -92t100 -58t156.5 -20
q138 0 231.5 38t150 110t80.5 176t24 237q0 68 -16 122t-53.5 91.5t-100 57.5t-156.5 20q-138 0 -231.5 -37.5t-149.5 -109t-80 -175.5t-24 -237zM816 671q-16 0 -20 15l-58 212q-16 -1 -32.5 -1.5t-34.5 -0.5q-14 0 -34.5 0.5t-42.5 2.5l-41 -212q-3 -16 -19 -16h-78
q-16 0 -13 16l111 606q3 16 19 17q45 3 87 4t80 1q78 0 129.5 -8.5t80 -30t35 -57.5t-5.5 -91l-7 -39q-11 -66 -39.5 -108.5t-89.5 -63.5l70 -209q5 -14 -7 -25l-1 -2q-7 -5 -13 -7.5t-15 -2.5h-61zM734 1204q-19 0 -43.5 -0.5t-39.5 -1.5l-40 -201q20 -1 46 -1h41
q41 0 70.5 3t49 12.5t31 28.5t16.5 51l4 26q6 28 1 44.5t-21.5 25t-45 11t-69.5 2.5z" />
    <glyph glyph-name="macron" unicode="&#xaf;" horiz-adv-x="771" 
d="M379 1317q-16 0 -13 16l20 107q3 16 19 16h491q16 0 13 -16l-20 -107q-3 -16 -19 -16h-491z" />
    <glyph glyph-name="degree" unicode="&#xb0;" horiz-adv-x="799" 
d="M530 1364q-34 0 -64.5 -8t-55.5 -26t-42.5 -47t-24.5 -70l-5 -26q-8 -41 -1.5 -69.5t24.5 -46.5t45 -26t62 -8q33 0 64 7.5t56 25.5t42.5 47t24.5 72l4 24q8 41 1.5 70t-24 47t-45 26t-61.5 8zM444 903q-71 0 -124 19t-86 56t-44 90.5t2 121.5l7 36q14 72 45 124t77 85
t105 48.5t129 15.5t123 -19.5t86 -56.5t44 -91t-2 -123l-7 -36q-14 -72 -45 -123t-77 -83.5t-105 -48t-128 -15.5z" />
    <glyph glyph-name="plusminus" unicode="&#xb1;" horiz-adv-x="1142" 
d="M193 791q-16 0 -13 16l24 136q3 16 19 16h334l62 334q3 16 19 16h135q16 0 13 -16l-62 -334h333q16 0 13 -16l-25 -136q-3 -16 -19 -16h-334l-61 -331q-3 -16 -19 -16h-135q-16 0 -13 16l61 331h-332zM54 0q-16 0 -13 16l25 135q3 16 19 16h817q16 0 13 -16l-25 -135
q-3 -16 -19 -16h-817z" />
    <glyph glyph-name="twosuperior" unicode="&#xb2;" horiz-adv-x="841" 
d="M127 599q-16 0 -13 16l11 59q12 64 30.5 110.5t48.5 85.5t75 74t110 77l156 101q29 19 52.5 34.5t40 32t25 37t8.5 49.5q0 45 -41 63.5t-138 18.5q-34 0 -84 -3t-101 -11q-16 -3 -16 13l2 102q0 16 16 20q56 12 116 16.5t105 4.5q87 0 145.5 -13.5t94.5 -38t51.5 -58
t15.5 -73.5q0 -54 -8.5 -94t-31 -73t-60.5 -63.5t-97 -66.5l-128 -78q-51 -31 -87 -56t-60 -48.5t-38.5 -48.5t-22.5 -56h405q16 0 13 -16l-19 -101q-3 -16 -19 -16h-557z" />
    <glyph glyph-name="threesuperior" unicode="&#xb3;" horiz-adv-x="832" 
d="M359 584q-62 0 -119 4.5t-101 10.5q-16 3 -12 18l25 107q2 9 6.5 12t13.5 2q53 -6 104 -8.5t97 -2.5q104 0 159 28t69 102l4 20q4 24 3 47t-14.5 42t-42.5 30.5t-80 11.5h-177q-16 0 -13 16l16 92q3 16 19 16h174q48 0 81 7.5t53.5 21t31 32t14.5 39.5l2 11q6 34 -3.5 56
t-33.5 34.5t-61 17.5t-85 5q-51 0 -102.5 -2.5t-99.5 -7.5q-16 -3 -14 14l13 105q2 9 5.5 13t12.5 5q46 6 102 11t118 5q82 0 143.5 -11.5t100 -38t54.5 -69t8 -103.5l-2 -16q-11 -84 -60.5 -127.5t-135.5 -62.5q39 -13 65 -36t40.5 -52t18 -62.5t-3.5 -66.5l-4 -20
q-15 -77 -47 -126t-81 -76.5t-114 -37.5t-147 -10z" />
    <glyph glyph-name="acute" unicode="&#xb4;" horiz-adv-x="772" 
d="M422 1264q-17 0 -5 12l230 240q11 12 27 12h206q16 0 4 -10l-282 -244q-7 -5 -13 -7.5t-15 -2.5h-152z" />
    <glyph glyph-name="mu" unicode="&#xb5;" horiz-adv-x="1281" 
d="M13 -389q-16 0 -13 16l265 1428q3 16 19 16h140q16 0 13 -16l-114 -613q-18 -98 -7.5 -158t45 -92.5t89.5 -43t126 -10.5q31 0 66.5 2t70 5.5t67 8.5t58.5 11l165 890q3 16 19 16h141q16 0 13 -16l-187 -1007q-3 -15 -18 -19q-43 -10 -99.5 -19.5t-117.5 -17t-120 -12
t-106 -4.5q-112 0 -182 25.5t-90 81.5l-84 -456q-3 -16 -19 -16h-140z" />
    <glyph glyph-name="paragraph" unicode="&#xb6;" horiz-adv-x="1182" 
d="M352 -452q-16 0 -13 16l194 1044q-6 0 -21 -0.5t-33.5 -1t-38 -1t-32.5 -0.5q-100 0 -162.5 17t-93 62.5t-31 126.5t23.5 209l9 51q24 126 55.5 205t81 123.5t122.5 60t180 15.5h258q16 0 13 -16l-351 -1895q-3 -16 -19 -16h-142zM631 -452q-16 0 -13 16l351 1895
q3 16 19 16h141q16 0 13 -16l-351 -1895q-3 -16 -19 -16h-141z" />
    <glyph glyph-name="periodcentered" unicode="&#xb7;" horiz-adv-x="496" 
d="M134 417q-16 0 -13 16l43 228q3 17 19 18l151 24q16 1 13 -14l-46 -256q-3 -16 -19 -16h-148z" />
    <glyph glyph-name="cedilla" unicode="&#xb8;" horiz-adv-x="771" 
d="M175 -389q-17 0 -7 13l193 261q9 13 25 13h141q17 0 7 -13l-174 -261q-9 -13 -25 -13h-160z" />
    <glyph glyph-name="onesuperior" unicode="&#xb9;" horiz-adv-x="527" 
d="M199 1325q-16 -3 -16 13l2 99q0 16 16 19l181 28q7 2 16 2.5t16 0.5h106q16 0 13 -16l-158 -856q-3 -16 -19 -16h-120q-16 0 -13 16l136 736z" />
    <glyph glyph-name="ordmasculine" unicode="&#xba;" horiz-adv-x="984" 
d="M634 1360q-56 0 -97 -13t-69.5 -41.5t-46.5 -72.5t-30 -107l-10 -54q-12 -63 -11 -107t17 -72t49.5 -41t87.5 -13q56 0 96 13t68.5 41t46.5 72.5t31 108.5l10 52q12 62 11.5 106.5t-16.5 73t-49.5 41.5t-87.5 13zM504 699q-94 0 -154.5 22.5t-92.5 67.5t-37.5 113.5
t11.5 161.5l12 68q18 100 49.5 169.5t81 113.5t119.5 64t164 20q91 0 151 -23t92.5 -68.5t38 -114.5t-12.5 -161l-12 -68q-18 -100 -50 -169.5t-81.5 -113t-118.5 -63t-160 -19.5zM130 457q-16 0 -13 16l19 106q3 16 19 16h659q16 0 13 -16l-19 -106q-3 -16 -19 -16h-659z
" />
    <glyph glyph-name="guillemotright" unicode="&#xbb;" horiz-adv-x="1222" 
d="M373 990q16 0 25 -13l271 -367q9 -13 -3 -24l-408 -372q-12 -11 -28 -11h-192q-15 0 -4 11l433 395l-270 368q-10 13 7 13h169zM865 990q16 0 25 -13l271 -367q9 -13 -3 -24l-408 -372q-12 -11 -28 -11h-192q-15 0 -4 11l433 395l-270 368q-10 13 7 13h169z" />
    <glyph glyph-name="onequarter" unicode="&#xbc;" horiz-adv-x="1692" 
d="M1256 0q-16 0 -13 16l37 199h-445q-16 0 -13 16l26 144q3 15 14 28l433 485q11 12 27 12h221q16 0 13 -16l-99 -531h90q16 0 13 -16l-20 -106q-3 -16 -19 -16h-89l-37 -199q-3 -16 -19 -16h-120zM113 0q-16 0 -6 13l1118 1449q6 8 11.5 10.5t14.5 2.5h175q16 0 6 -13
l-1119 -1449q-10 -13 -26 -13h-174zM223 1325q-16 -3 -16 13l1 99q0 16 16 19l181 28q7 2 16 2.5t16 0.5h106q16 0 13 -16l-158 -856q-3 -16 -19 -16h-119q-16 0 -13 16l137 736zM1010 353h296l74 397h-29l-337 -372z" />
    <glyph glyph-name="onehalf" unicode="&#xbd;" horiz-adv-x="1738" 
d="M113 0q-16 0 -6 13l1118 1449q6 8 11.5 10.5t14.5 2.5h175q16 0 6 -13l-1119 -1449q-10 -13 -26 -13h-174zM944 -1q-16 0 -13 16l11 59q12 64 30.5 110.5t48.5 85.5t75 74t110 77l156 101q29 19 52.5 34.5t40 32t25 37t8.5 49.5q0 45 -41 63.5t-138 18.5q-34 0 -84 -3
t-101 -11q-16 -3 -16 13l2 102q0 16 16 20q56 12 116 16.5t105 4.5q87 0 145.5 -13.5t94.5 -38t51.5 -58t15.5 -73.5q0 -54 -8.5 -94t-31 -73t-60.5 -63.5t-97 -66.5l-128 -78q-51 -31 -87 -56t-60 -48.5t-38.5 -48.5t-22.5 -56h405q16 0 13 -16l-19 -101q-3 -16 -19 -16
h-557zM223 1325q-16 -3 -16 13l1 99q0 16 16 19l181 28q7 2 16 2.5t16 0.5h106q16 0 13 -16l-158 -856q-3 -16 -19 -16h-119q-16 0 -13 16l137 736z" />
    <glyph glyph-name="threequarters" unicode="&#xbe;" horiz-adv-x="1893" 
d="M316 0q-16 0 -6 13l1119 1449q6 8 11.5 10.5t14.5 2.5h175q16 0 6 -13l-1119 -1449q-10 -13 -26 -13h-175zM1045 215q-16 0 -13 16l26 144q3 15 14 28l433 485q11 12 27 12h221q16 0 13 -16l-99 -531h90q16 0 13 -16l-20 -106q-3 -16 -19 -16h-89l-37 -199
q-3 -16 -19 -16h-120q-16 0 -13 16l37 199h-445zM1220 353h296l74 397h-29l-337 -372zM329 584q-62 0 -119 4.5t-101 10.5q-16 3 -12 18l25 107q2 9 6.5 12t13.5 2q53 -6 104 -8.5t97 -2.5q104 0 159 28t69 102l4 20q4 24 3 47t-14.5 42t-42.5 30.5t-80 11.5h-177
q-16 0 -13 16l16 92q3 16 19 16h174q48 0 81 7.5t53.5 21t31 32t14.5 39.5l2 11q6 34 -3.5 56t-33.5 34.5t-61 17.5t-85 5q-51 0 -102.5 -2.5t-99.5 -7.5q-16 -3 -14 14l13 105q2 9 5.5 13t12.5 5q46 6 102 11t118 5q82 0 143.5 -11.5t100 -38t54.5 -69t8 -103.5l-2 -16
q-11 -84 -60.5 -127.5t-135.5 -62.5q39 -13 65 -36t40.5 -52t18 -62.5t-3.5 -66.5l-4 -20q-15 -77 -47 -126t-81 -76.5t-114 -37.5t-147 -10z" />
    <glyph glyph-name="questiondown" unicode="&#xbf;" horiz-adv-x="855" 
d="M466 628q3 16 19 16h123q17 0 17 -16q2 -14 2 -35t-2 -43q-7 -57 -18 -99.5t-32.5 -80.5t-57.5 -76t-93 -86l-78 -64q-45 -39 -79.5 -70t-59 -59.5t-39.5 -58t-22 -64.5q-14 -79 39.5 -112t177.5 -33q57 0 113 4.5t126 15.5q16 1 16 -14v-132q0 -16 -16 -20
q-66 -14 -144 -21.5t-152 -7.5q-93 0 -165.5 16t-119.5 50.5t-67.5 88.5t-9.5 130q8 54 25.5 96.5t48 82t75 81.5t106.5 96l89 78q50 43 79 72.5t45.5 57.5t25 60t17.5 80zM701 1071q16 0 13 -16l-43 -228q-3 -17 -19 -18l-151 -24q-16 -1 -13 14l47 256q3 16 19 16h147z
" />
    <glyph glyph-name="Agrave" unicode="&#xc0;" horiz-adv-x="1294" 
d="M-77 0q-17 0 -9 14l765 1447q4 8 9 11t14 3h217q16 0 19 -16l229 -1443q3 -16 -13 -16h-163q-17 0 -18 16l-52 344h-629l-179 -346q-4 -8 -9 -11t-14 -3h-167zM779 1299l-398 -767h514zM856 1604q-9 0 -13.5 2t-9.5 7l-204 192q-5 5 -3 9.5t10 4.5h192q9 0 15 -2.5
t13 -7.5l161 -193q10 -12 -6 -12h-155z" />
    <glyph glyph-name="Aacute" unicode="&#xc1;" horiz-adv-x="1294" 
d="M-77 0q-17 0 -9 14l765 1447q4 8 9 11t14 3h217q16 0 19 -16l229 -1443q3 -16 -13 -16h-163q-17 0 -18 16l-52 344h-629l-179 -346q-4 -8 -9 -11t-14 -3h-167zM779 1299l-398 -767h514zM660 1604q-16 0 -4 10l232 195q7 5 13 7.5t15 2.5h205q7 0 7.5 -2.5t-4.5 -6.5
l-270 -197q-7 -5 -13.5 -7t-15.5 -2h-165z" />
    <glyph glyph-name="Acircumflex" unicode="&#xc2;" horiz-adv-x="1294" 
d="M-77 0q-17 0 -9 14l765 1447q4 8 9 11t14 3h217q16 0 19 -16l229 -1443q3 -16 -13 -16h-163q-17 0 -18 16l-52 344h-629l-179 -346q-4 -8 -9 -11t-14 -3h-167zM779 1299l-398 -767h514zM1143 1616q12 -12 -5 -12h-147q-9 0 -14.5 2.5t-11.5 9.5l-84 103h-20l-123 -105
q-7 -5 -13 -7.5t-15 -2.5h-174q-16 0 -3 10l252 195q8 5 14 7.5t15 2.5h136q16 0 27 -12z" />
    <glyph glyph-name="Atilde" unicode="&#xc3;" horiz-adv-x="1294" 
d="M-77 0q-17 0 -9 14l765 1447q4 8 9 11t14 3h217q16 0 19 -16l229 -1443q3 -16 -13 -16h-163q-17 0 -18 16l-52 344h-629l-179 -346q-4 -8 -9 -11t-14 -3h-167zM779 1299l-398 -767h514zM510 1603q-17 0 -14 16q12 82 37 129.5t56 72t64 31.5t61 7q25 0 45.5 -3.5
t39 -11.5t37 -20.5t41.5 -31.5q25 -21 42.5 -35t30 -22t22.5 -11.5t21 -3.5q15 0 28 4t23.5 16.5t18.5 35t14 59.5q2 9 5.5 12.5t12.5 3.5h106q17 0 14 -16q-12 -83 -37.5 -130.5t-56.5 -72t-64 -31t-61 -6.5q-26 0 -45.5 2.5t-37.5 10t-37 20.5t-43 34q-25 21 -42.5 35
t-30.5 22t-22.5 11.5t-19.5 3.5q-15 0 -28 -4.5t-23.5 -17t-18.5 -35t-14 -58.5q-2 -9 -5.5 -12.5t-12.5 -3.5h-106z" />
    <glyph glyph-name="Adieresis" unicode="&#xc4;" horiz-adv-x="1294" 
d="M-77 0q-17 0 -9 14l765 1447q4 8 9 11t14 3h217q16 0 19 -16l229 -1443q3 -16 -13 -16h-163q-17 0 -18 16l-52 344h-629l-179 -346q-4 -8 -9 -11t-14 -3h-167zM779 1299l-398 -767h514zM598 1604q-16 0 -13 16l37 199q3 16 19 19l148 23q16 3 13 -13l-43 -228
q-3 -16 -19 -16h-142zM935 1604q-16 0 -13 16l36 199q3 16 19 19l148 23q16 3 13 -13l-42 -228q-3 -16 -19 -16h-142z" />
    <glyph glyph-name="Aring" unicode="&#xc5;" horiz-adv-x="1287" 
d="M-81 0q-17 0 -9 14l752 1422q-26 26 -35 62.5t-3 76.5l1 8q12 82 71 129t162 47q51 0 85.5 -15t54.5 -40.5t26.5 -59.5t1.5 -71q-14 -96 -88 -143l225 -1414q3 -16 -13 -16h-163q-17 0 -18 16l-52 344h-629l-179 -346q-4 -8 -9 -11t-14 -3h-167zM775 1299l-398 -767h514z
M839 1656q-43 0 -70.5 -22.5t-32.5 -54.5l-1 -8q-4 -30 13.5 -52.5t61.5 -22.5q43 0 71.5 22.5t33.5 57.5q4 33 -13.5 56.5t-62.5 23.5z" />
    <glyph glyph-name="AE" unicode="&#xc6;" horiz-adv-x="1849" 
d="M768 0q-16 0 -13 16l65 354h-507l-232 -357q-9 -13 -25 -13h-165q-17 0 -7 13l945 1449q9 13 25 13h1020q16 0 13 -16l-26 -144q-3 -16 -19 -16h-669l-79 -427h568q16 0 13 -16l-27 -143q-3 -16 -19 -16h-568l-97 -522h670q16 0 13 -16l-27 -143q-3 -16 -19 -16h-833z
M919 1299l-497 -762h429l141 762h-73z" />
    <glyph glyph-name="Ccedilla" unicode="&#xc7;" horiz-adv-x="1171" 
d="M621 -24q-144 0 -250 36.5t-169 119t-79.5 214t17.5 322.5l25 140q36 204 102 337.5t159 212t213 110t264 31.5q96 0 182 -10t145 -27q16 -4 10 -20l-48 -131q-5 -15 -21 -12q-67 14 -143 20t-150 6q-104 0 -189.5 -24.5t-151.5 -83t-113.5 -156t-74.5 -243.5l-28 -160
q-28 -147 -17.5 -245t55 -156.5t121 -82.5t180.5 -24q90 0 167.5 6t145.5 17q16 3 16 -13l-4 -132q0 -16 -16 -20q-65 -15 -156.5 -23.5t-191.5 -8.5zM338 -389q-17 0 -7 13l193 261q9 13 25 13h141q17 0 7 -13l-174 -261q-9 -13 -25 -13h-160z" />
    <glyph glyph-name="Egrave" unicode="&#xc8;" horiz-adv-x="1189" 
d="M97 0q-16 0 -13 16l266 1443q3 16 19 16h848q16 0 13 -16l-26 -144q-3 -16 -19 -16h-684l-79 -427h575q16 0 13 -16l-27 -143q-3 -16 -19 -16h-575l-95 -522h683q16 0 13 -16l-27 -143q-3 -16 -19 -16h-847zM801 1604q-9 0 -13.5 2t-9.5 7l-204 192q-5 5 -3 9.5t10 4.5
h192q9 0 15 -2.5t13 -7.5l161 -193q10 -12 -6 -12h-155z" />
    <glyph glyph-name="Eacute" unicode="&#xc9;" horiz-adv-x="1189" 
d="M97 0q-16 0 -13 16l266 1443q3 16 19 16h848q16 0 13 -16l-26 -144q-3 -16 -19 -16h-684l-79 -427h575q16 0 13 -16l-27 -143q-3 -16 -19 -16h-575l-95 -522h683q16 0 13 -16l-27 -143q-3 -16 -19 -16h-847zM653 1604q-16 0 -4 10l232 195q7 5 13 7.5t15 2.5h205
q7 0 7.5 -2.5t-4.5 -6.5l-270 -197q-7 -5 -13.5 -7t-15.5 -2h-165z" />
    <glyph glyph-name="Ecircumflex" unicode="&#xca;" horiz-adv-x="1189" 
d="M97 0q-16 0 -13 16l266 1443q3 16 19 16h848q16 0 13 -16l-26 -144q-3 -16 -19 -16h-684l-79 -427h575q16 0 13 -16l-27 -143q-3 -16 -19 -16h-575l-95 -522h683q16 0 13 -16l-27 -143q-3 -16 -19 -16h-847zM1104 1616q12 -12 -5 -12h-147q-9 0 -14.5 2.5t-11.5 9.5
l-84 103h-20l-123 -105q-7 -5 -13 -7.5t-15 -2.5h-174q-16 0 -3 10l252 195q8 5 14 7.5t15 2.5h136q16 0 27 -12z" />
    <glyph glyph-name="Edieresis" unicode="&#xcb;" horiz-adv-x="1189" 
d="M97 0q-16 0 -13 16l266 1443q3 16 19 16h848q16 0 13 -16l-26 -144q-3 -16 -19 -16h-684l-79 -427h575q16 0 13 -16l-27 -143q-3 -16 -19 -16h-575l-95 -522h683q16 0 13 -16l-27 -143q-3 -16 -19 -16h-847zM558 1604q-16 0 -13 16l37 199q3 16 19 19l148 23q16 3 13 -13
l-43 -228q-3 -16 -19 -16h-142zM895 1604q-16 0 -13 16l36 199q3 16 19 19l148 23q16 3 13 -13l-42 -228q-3 -16 -19 -16h-142z" />
    <glyph glyph-name="Igrave" unicode="&#xcc;" horiz-adv-x="575" 
d="M97 0q-16 0 -13 16l266 1443q3 16 19 16h147q16 0 13 -16l-266 -1443q-3 -16 -19 -16h-147zM488 1604q-9 0 -13.5 2t-9.5 7l-204 192q-5 5 -3 9.5t10 4.5h192q9 0 15 -2.5t13 -7.5l161 -193q10 -12 -6 -12h-155z" />
    <glyph glyph-name="Iacute" unicode="&#xcd;" horiz-adv-x="574" 
d="M97 0q-16 0 -13 16l266 1443q3 16 19 16h147q16 0 13 -16l-266 -1443q-3 -16 -19 -16h-147zM245 1604q-16 0 -4 10l232 195q7 5 13 7.5t15 2.5h205q7 0 7.5 -2.5t-4.5 -6.5l-270 -197q-7 -5 -13.5 -7t-15.5 -2h-165z" />
    <glyph glyph-name="Icircumflex" unicode="&#xce;" horiz-adv-x="575" 
d="M97 0q-16 0 -13 16l266 1443q3 16 19 16h147q16 0 13 -16l-266 -1443q-3 -16 -19 -16h-147zM782 1616q12 -12 -5 -12h-147q-9 0 -14.5 2.5t-11.5 9.5l-84 103h-20l-123 -105q-7 -5 -13 -7.5t-15 -2.5h-174q-16 0 -3 10l252 195q8 5 14 7.5t15 2.5h136q16 0 27 -12z" />
    <glyph glyph-name="Idieresis" unicode="&#xcf;" horiz-adv-x="575" 
d="M97 0q-16 0 -13 16l266 1443q3 16 19 16h147q16 0 13 -16l-266 -1443q-3 -16 -19 -16h-147zM229 1604q-16 0 -13 16l37 199q3 16 19 19l148 23q16 3 13 -13l-43 -228q-3 -16 -19 -16h-142zM566 1604q-16 0 -13 16l36 199q3 16 19 19l148 23q16 3 13 -13l-42 -228
q-3 -16 -19 -16h-142z" />
    <glyph glyph-name="Eth" unicode="&#xd0;" horiz-adv-x="1422" 
d="M460 -16q-36 0 -79.5 1t-90 2.5t-93.5 4t-90 6.5q-9 2 -12 5.5t-1 12.5l126 682h-156q-16 0 -13 16l25 135q3 16 19 16h156l110 594q3 16 19 17q42 3 90 5t95 3.5t89 2t72 0.5q103 0 194.5 -10.5t166.5 -39t131 -77.5t88 -126t37 -185t-22 -254l-21 -113
q-29 -158 -71.5 -271t-99 -190.5t-126 -124.5t-153 -71.5t-181 -32.5t-209.5 -8zM732 1324q-21 0 -50 -0.5t-59 -1.5t-59 -2.5t-50 -3.5l-84 -451h264q16 0 13 -16l-25 -135q-3 -16 -19 -16h-264l-100 -541q24 -3 53 -4.5t59.5 -3t59.5 -2t52 -0.5q124 0 221 20.5t170 78.5
t123.5 161.5t81.5 270.5l22 119q20 110 21 192t-16.5 140.5t-53 96.5t-87.5 59.5t-120.5 30t-152.5 8.5z" />
    <glyph glyph-name="Ntilde" unicode="&#xd1;" horiz-adv-x="1453" 
d="M97 0q-16 0 -13 16l266 1443q3 16 19 16h158q9 0 13.5 -3.5t8.5 -11.5l414 -1039q20 -51 30.5 -81.5t12.5 -30.5l213 1150q3 16 19 16h148q16 0 13 -16l-267 -1443q-3 -16 -19 -16h-169q-9 0 -13.5 3.5t-8.5 11.5l-401 1032q-20 51 -31 84.5t-12 33.5l-215 -1149
q-3 -16 -19 -16h-147zM585 1603q-17 0 -14 16q12 82 37 129.5t56 72t64 31.5t61 7q25 0 45.5 -3.5t39 -11.5t37 -20.5t41.5 -31.5q25 -21 42.5 -35t30 -22t22.5 -11.5t21 -3.5q15 0 28 4t23.5 16.5t18.5 35t14 59.5q2 9 5.5 12.5t12.5 3.5h106q17 0 14 -16
q-12 -83 -37.5 -130.5t-56.5 -72t-64 -31t-61 -6.5q-26 0 -45.5 2.5t-37.5 10t-37 20.5t-43 34q-25 21 -42.5 35t-30.5 22t-22.5 11.5t-19.5 3.5q-15 0 -28 -4.5t-23.5 -17t-18.5 -35t-14 -58.5q-2 -9 -5.5 -12.5t-12.5 -3.5h-106z" />
    <glyph glyph-name="Ograve" unicode="&#xd2;" horiz-adv-x="1433" 
d="M596 -24q-139 0 -239 38t-158.5 120.5t-72.5 214t19 319.5l25 140q37 208 99 342t150 211.5t202.5 107.5t256.5 30q139 0 238.5 -37.5t157 -120t71.5 -214t-18 -320.5l-24 -140q-36 -207 -97.5 -340.5t-149.5 -211.5t-203 -108.5t-257 -30.5zM844 1318
q-96 0 -174.5 -23.5t-140 -81t-105.5 -154t-71 -241.5l-28 -160q-27 -147 -20 -243.5t46 -154t108.5 -81t168.5 -23.5q95 0 174 24.5t140.5 82.5t105.5 154.5t70 241.5l30 158q27 145 20 241.5t-46 154.5t-109 81.5t-169 23.5zM879 1604q-9 0 -13.5 2t-9.5 7l-204 192
q-5 5 -3 9.5t10 4.5h192q9 0 15 -2.5t13 -7.5l161 -193q10 -12 -6 -12h-155z" />
    <glyph glyph-name="Oacute" unicode="&#xd3;" horiz-adv-x="1433" 
d="M596 -24q-139 0 -239 38t-158.5 120.5t-72.5 214t19 319.5l25 140q37 208 99 342t150 211.5t202.5 107.5t256.5 30q139 0 238.5 -37.5t157 -120t71.5 -214t-18 -320.5l-24 -140q-36 -207 -97.5 -340.5t-149.5 -211.5t-203 -108.5t-257 -30.5zM844 1318
q-96 0 -174.5 -23.5t-140 -81t-105.5 -154t-71 -241.5l-28 -160q-27 -147 -20 -243.5t46 -154t108.5 -81t168.5 -23.5q95 0 174 24.5t140.5 82.5t105.5 154.5t70 241.5l30 158q27 145 20 241.5t-46 154.5t-109 81.5t-169 23.5zM713 1604q-16 0 -4 10l232 195q7 5 13 7.5
t15 2.5h205q7 0 7.5 -2.5t-4.5 -6.5l-270 -197q-7 -5 -13.5 -7t-15.5 -2h-165z" />
    <glyph glyph-name="Ocircumflex" unicode="&#xd4;" horiz-adv-x="1433" 
d="M596 -24q-139 0 -239 38t-158.5 120.5t-72.5 214t19 319.5l25 140q37 208 99 342t150 211.5t202.5 107.5t256.5 30q139 0 238.5 -37.5t157 -120t71.5 -214t-18 -320.5l-24 -140q-36 -207 -97.5 -340.5t-149.5 -211.5t-203 -108.5t-257 -30.5zM844 1318
q-96 0 -174.5 -23.5t-140 -81t-105.5 -154t-71 -241.5l-28 -160q-27 -147 -20 -243.5t46 -154t108.5 -81t168.5 -23.5q95 0 174 24.5t140.5 82.5t105.5 154.5t70 241.5l30 158q27 145 20 241.5t-46 154.5t-109 81.5t-169 23.5zM1202 1616q12 -12 -5 -12h-147q-9 0 -14.5 2.5
t-11.5 9.5l-84 103h-20l-123 -105q-7 -5 -13 -7.5t-15 -2.5h-174q-16 0 -3 10l252 195q8 5 14 7.5t15 2.5h136q16 0 27 -12z" />
    <glyph glyph-name="Otilde" unicode="&#xd5;" horiz-adv-x="1433" 
d="M596 -24q-139 0 -239 38t-158.5 120.5t-72.5 214t19 319.5l25 140q37 208 99 342t150 211.5t202.5 107.5t256.5 30q139 0 238.5 -37.5t157 -120t71.5 -214t-18 -320.5l-24 -140q-36 -207 -97.5 -340.5t-149.5 -211.5t-203 -108.5t-257 -30.5zM844 1318
q-96 0 -174.5 -23.5t-140 -81t-105.5 -154t-71 -241.5l-28 -160q-27 -147 -20 -243.5t46 -154t108.5 -81t168.5 -23.5q95 0 174 24.5t140.5 82.5t105.5 154.5t70 241.5l30 158q27 145 20 241.5t-46 154.5t-109 81.5t-169 23.5zM574 1603q-17 0 -14 16q12 82 37 129.5t56 72
t64 31.5t61 7q25 0 45.5 -3.5t39 -11.5t37 -20.5t41.5 -31.5q25 -21 42.5 -35t30 -22t22.5 -11.5t21 -3.5q15 0 28 4t23.5 16.5t18.5 35t14 59.5q2 9 5.5 12.5t12.5 3.5h106q17 0 14 -16q-12 -83 -37.5 -130.5t-56.5 -72t-64 -31t-61 -6.5q-26 0 -45.5 2.5t-37.5 10
t-37 20.5t-43 34q-25 21 -42.5 35t-30.5 22t-22.5 11.5t-19.5 3.5q-15 0 -28 -4.5t-23.5 -17t-18.5 -35t-14 -58.5q-2 -9 -5.5 -12.5t-12.5 -3.5h-106z" />
    <glyph glyph-name="Odieresis" unicode="&#xd6;" horiz-adv-x="1433" 
d="M596 -24q-139 0 -239 38t-158.5 120.5t-72.5 214t19 319.5l25 140q37 208 99 342t150 211.5t202.5 107.5t256.5 30q139 0 238.5 -37.5t157 -120t71.5 -214t-18 -320.5l-24 -140q-36 -207 -97.5 -340.5t-149.5 -211.5t-203 -108.5t-257 -30.5zM844 1318
q-96 0 -174.5 -23.5t-140 -81t-105.5 -154t-71 -241.5l-28 -160q-27 -147 -20 -243.5t46 -154t108.5 -81t168.5 -23.5q95 0 174 24.5t140.5 82.5t105.5 154.5t70 241.5l30 158q27 145 20 241.5t-46 154.5t-109 81.5t-169 23.5zM656 1604q-16 0 -13 16l37 199q3 16 19 19
l148 23q16 3 13 -13l-43 -228q-3 -16 -19 -16h-142zM993 1604q-16 0 -13 16l36 199q3 16 19 19l148 23q16 3 13 -13l-42 -228q-3 -16 -19 -16h-142z" />
    <glyph glyph-name="multiply" unicode="&#xd7;" horiz-adv-x="984" 
d="M211 1027q-10 13 2 22l117 97q13 10 22 -2l190 -234l282 238q13 10 22 -2l77 -94q10 -13 -2 -22l-282 -239l191 -234q10 -13 -2 -22l-116 -98q-13 -10 -22 2l-191 234l-279 -235q-13 -10 -22 2l-76 95q-10 13 2 22l278 235z" />
    <glyph glyph-name="Oslash" unicode="&#xd8;" horiz-adv-x="1397" 
d="M151 226q-27 83 -27.5 196.5t28.5 265.5l21 120q36 196 98 329t148 213t196 114.5t243 34.5q111 0 195.5 -24.5t142.5 -79.5l61 68q11 12 27 12h178q17 0 5 -12l-185 -206q29 -84 30 -199.5t-28 -270.5l-22 -120q-36 -197 -97.5 -330t-147 -213t-195 -114t-243.5 -34
q-113 0 -199 26t-145 83l-65 -73q-11 -12 -27 -12h-178q-17 0 -5 12zM1109 817q30 163 19 267l-760 -850q38 -43 99 -60.5t144 -17.5q91 0 165.5 24t132.5 81.5t100.5 154.5t69.5 243zM826 1318q-91 0 -165.5 -23.5t-133 -81t-101 -154t-69.5 -241.5l-30 -160
q-15 -79 -20 -143t-1 -115l757 846q-38 39 -97 55.5t-140 16.5z" />
    <glyph glyph-name="Ugrave" unicode="&#xd9;" horiz-adv-x="1457" 
d="M605 -24q-127 0 -222.5 31.5t-154 96t-78 162t5.5 230.5l179 963q3 16 19 16h148q16 0 13 -16l-170 -920q-19 -100 -14.5 -173t38 -121t99 -71.5t169.5 -23.5q105 0 180 23t127.5 71t85 121t51.5 174l171 920q3 16 19 16h145q16 0 13 -16l-179 -963q-30 -159 -85 -260
t-135.5 -158.5t-186.5 -79.5t-238 -22zM894 1604q-9 0 -13.5 2t-9.5 7l-204 192q-5 5 -3 9.5t10 4.5h192q9 0 15 -2.5t13 -7.5l161 -193q10 -12 -6 -12h-155z" />
    <glyph glyph-name="Uacute" unicode="&#xda;" horiz-adv-x="1457" 
d="M605 -24q-127 0 -222.5 31.5t-154 96t-78 162t5.5 230.5l179 963q3 16 19 16h148q16 0 13 -16l-170 -920q-19 -100 -14.5 -173t38 -121t99 -71.5t169.5 -23.5q105 0 180 23t127.5 71t85 121t51.5 174l171 920q3 16 19 16h145q16 0 13 -16l-179 -963q-30 -159 -85 -260
t-135.5 -158.5t-186.5 -79.5t-238 -22zM777 1604q-16 0 -4 10l232 195q7 5 13 7.5t15 2.5h205q7 0 7.5 -2.5t-4.5 -6.5l-270 -197q-7 -5 -13.5 -7t-15.5 -2h-165z" />
    <glyph glyph-name="Ucircumflex" unicode="&#xdb;" horiz-adv-x="1457" 
d="M605 -24q-127 0 -222.5 31.5t-154 96t-78 162t5.5 230.5l179 963q3 16 19 16h148q16 0 13 -16l-170 -920q-19 -100 -14.5 -173t38 -121t99 -71.5t169.5 -23.5q105 0 180 23t127.5 71t85 121t51.5 174l171 920q3 16 19 16h145q16 0 13 -16l-179 -963q-30 -159 -85 -260
t-135.5 -158.5t-186.5 -79.5t-238 -22zM1214 1616q12 -12 -5 -12h-147q-9 0 -14.5 2.5t-11.5 9.5l-84 103h-20l-123 -105q-7 -5 -13 -7.5t-15 -2.5h-174q-16 0 -3 10l252 195q8 5 14 7.5t15 2.5h136q16 0 27 -12z" />
    <glyph glyph-name="Udieresis" unicode="&#xdc;" horiz-adv-x="1457" 
d="M605 -24q-127 0 -222.5 31.5t-154 96t-78 162t5.5 230.5l179 963q3 16 19 16h148q16 0 13 -16l-170 -920q-19 -100 -14.5 -173t38 -121t99 -71.5t169.5 -23.5q105 0 180 23t127.5 71t85 121t51.5 174l171 920q3 16 19 16h145q16 0 13 -16l-179 -963q-30 -159 -85 -260
t-135.5 -158.5t-186.5 -79.5t-238 -22zM668 1604q-16 0 -13 16l37 199q3 16 19 19l148 23q16 3 13 -13l-43 -228q-3 -16 -19 -16h-142zM1005 1604q-16 0 -13 16l36 199q3 16 19 19l148 23q16 3 13 -13l-42 -228q-3 -16 -19 -16h-142z" />
    <glyph glyph-name="Yacute" unicode="&#xdd;" horiz-adv-x="1163" 
d="M386 0q-16 0 -13 16l90 492l-305 952q-6 15 11 15h159q16 0 21 -15l233 -748l508 750q9 13 25 13h178q17 0 7 -13l-657 -955l-91 -491q-3 -16 -19 -16h-147zM606 1604q-16 0 -4 10l232 195q7 5 13 7.5t15 2.5h205q7 0 7.5 -2.5t-4.5 -6.5l-270 -197q-7 -5 -13.5 -7
t-15.5 -2h-165z" />
    <glyph glyph-name="Thorn" unicode="&#xde;" horiz-adv-x="1297" 
d="M97 0q-16 0 -13 16l267 1443q3 16 19 16h148q16 0 13 -16l-35 -190q55 2 105.5 3t85.5 1q170 0 288 -18t186.5 -66.5t89 -134t-4.5 -220.5l-17 -86q-18 -95 -44 -164t-65.5 -118t-94 -79.5t-129 -47.5t-170.5 -23t-218 -6q-20 0 -49 0.5t-57.5 1t-51.5 1.5t-32 2
l-54 -299q-3 -16 -19 -16h-148zM658 1110q-17 0 -43.5 -0.5t-54.5 -2t-54 -3t-42 -2.5l-115 -622q16 -2 41.5 -3t53 -2t54 -1.5t43.5 -0.5q132 0 222 11t148.5 42.5t91.5 88.5t50 148l11 56q16 91 4.5 148t-58 88.5t-133 43t-219.5 11.5z" />
    <glyph glyph-name="germandbls" unicode="&#xdf;" horiz-adv-x="1234" 
d="M68 0q-16 0 -13 16l193 1039q28 153 73.5 254.5t112.5 162t157.5 85t209.5 24.5q112 0 191 -32t125 -88t60.5 -131.5t-2.5 -163.5l-4 -21q-11 -57 -30 -105t-50.5 -87t-77.5 -67.5t-111 -45.5q69 -21 111.5 -61t63 -93t22 -114.5t-11.5 -124.5l-6 -38
q-21 -134 -61.5 -218.5t-103.5 -132t-149.5 -65t-198.5 -17.5q-46 0 -89.5 4.5t-78.5 14.5q-15 4 -11 19l32 116q4 16 20 13q30 -7 62.5 -10.5t75.5 -3.5q68 0 121 15t92.5 49.5t66 90t41.5 137.5l10 54q11 58 5.5 110t-31 90t-73.5 60.5t-123 22.5h-101q-16 0 -13 16
l25 134q3 16 19 16h99q73 0 123.5 20.5t83 53t49.5 73.5t25 82l3 18q23 126 -31.5 186.5t-184.5 60.5q-81 0 -141.5 -19t-104 -62t-72 -112t-47.5 -169l-193 -1040q-3 -16 -19 -16h-140z" />
    <glyph glyph-name="agrave" unicode="&#xe0;" horiz-adv-x="1183" 
d="M902 929q-45 5 -102 8.5t-124 3.5q-99 0 -165 -17t-109 -59t-69.5 -112.5t-47.5 -176.5l-14 -74q-20 -108 -20 -180t28 -115t89 -61t163 -18q60 0 120.5 3t102.5 8zM505 -24q-143 0 -233.5 29t-137.5 89.5t-54 154.5t18 224l24 126q29 152 70.5 248.5t108 151t164 75
t237.5 20.5q46 0 96 -1.5t99.5 -4.5t97 -7t89.5 -8q16 -1 13 -18l-193 -1039q-2 -9 -6 -12.5t-13 -5.5q-101 -11 -196.5 -16.5t-183.5 -5.5zM698 1264q-16 0 -26 13l-180 238q-10 13 6 13h192q16 0 24 -14l133 -236q8 -14 -8 -14h-141z" />
    <glyph glyph-name="aacute" unicode="&#xe1;" horiz-adv-x="1183" 
d="M902 929q-45 5 -102 8.5t-124 3.5q-99 0 -165 -17t-109 -59t-69.5 -112.5t-47.5 -176.5l-14 -74q-20 -108 -20 -180t28 -115t89 -61t163 -18q60 0 120.5 3t102.5 8zM505 -24q-143 0 -233.5 29t-137.5 89.5t-54 154.5t18 224l24 126q29 152 70.5 248.5t108 151t164 75
t237.5 20.5q46 0 96 -1.5t99.5 -4.5t97 -7t89.5 -8q16 -1 13 -18l-193 -1039q-2 -9 -6 -12.5t-13 -5.5q-101 -11 -196.5 -16.5t-183.5 -5.5zM587 1264q-17 0 -5 12l230 240q11 12 27 12h206q16 0 4 -10l-282 -244q-7 -5 -13 -7.5t-15 -2.5h-152z" />
    <glyph glyph-name="acircumflex" unicode="&#xe2;" horiz-adv-x="1183" 
d="M902 929q-45 5 -102 8.5t-124 3.5q-99 0 -165 -17t-109 -59t-69.5 -112.5t-47.5 -176.5l-14 -74q-20 -108 -20 -180t28 -115t89 -61t163 -18q60 0 120.5 3t102.5 8zM505 -24q-143 0 -233.5 29t-137.5 89.5t-54 154.5t18 224l24 126q29 152 70.5 248.5t108 151t164 75
t237.5 20.5q46 0 96 -1.5t99.5 -4.5t97 -7t89.5 -8q16 -1 13 -18l-193 -1039q-2 -9 -6 -12.5t-13 -5.5q-101 -11 -196.5 -16.5t-183.5 -5.5zM1029 1274q10 -13 -7 -13h-145q-16 0 -24 14l-81 143h-21l-134 -145q-11 -12 -27 -12h-166q-15 0 -4 11l257 245q12 11 28 11h135
q16 0 25 -13z" />
    <glyph glyph-name="atilde" unicode="&#xe3;" horiz-adv-x="1183" 
d="M902 929q-45 5 -102 8.5t-124 3.5q-99 0 -165 -17t-109 -59t-69.5 -112.5t-47.5 -176.5l-14 -74q-20 -108 -20 -180t28 -115t89 -61t163 -18q60 0 120.5 3t102.5 8zM505 -24q-143 0 -233.5 29t-137.5 89.5t-54 154.5t18 224l24 126q29 152 70.5 248.5t108 151t164 75
t237.5 20.5q46 0 96 -1.5t99.5 -4.5t97 -7t89.5 -8q16 -1 13 -18l-193 -1039q-2 -9 -6 -12.5t-13 -5.5q-101 -11 -196.5 -16.5t-183.5 -5.5zM598 1412q-16 0 -29 -4t-23.5 -18t-20 -40t-18.5 -70q-3 -16 -19 -16h-94q-17 0 -14 16q10 84 32 135.5t51 79.5t64 37t72 9
q21 0 39 -3.5t36.5 -12.5t38.5 -24t46 -37q44 -41 69.5 -57.5t50.5 -16.5q16 0 28.5 4t23.5 17.5t20 40t18 70.5q3 16 19 16h95q17 0 14 -16q-11 -85 -32.5 -136.5t-51 -79.5t-64.5 -37t-71 -9q-21 0 -39.5 3.5t-36.5 12.5t-38.5 24t-45.5 38q-23 20 -39.5 34t-30.5 23
t-26 13t-24 4z" />
    <glyph glyph-name="adieresis" unicode="&#xe4;" horiz-adv-x="1183" 
d="M902 929q-45 5 -102 8.5t-124 3.5q-99 0 -165 -17t-109 -59t-69.5 -112.5t-47.5 -176.5l-14 -74q-20 -108 -20 -180t28 -115t89 -61t163 -18q60 0 120.5 3t102.5 8zM505 -24q-143 0 -233.5 29t-137.5 89.5t-54 154.5t18 224l24 126q29 152 70.5 248.5t108 151t164 75
t237.5 20.5q46 0 96 -1.5t99.5 -4.5t97 -7t89.5 -8q16 -1 13 -18l-193 -1039q-2 -9 -6 -12.5t-13 -5.5q-101 -11 -196.5 -16.5t-183.5 -5.5zM476 1243q-16 0 -13 16l50 265q3 16 19 19l148 23q16 3 13 -13l-55 -294q-3 -16 -19 -16h-143zM814 1243q-16 0 -13 16l49 265
q3 16 19 19l149 23q16 3 13 -13l-55 -294q-3 -16 -19 -16h-143z" />
    <glyph glyph-name="aring" unicode="&#xe5;" horiz-adv-x="1183" 
d="M902 929q-45 5 -102 8.5t-124 3.5q-99 0 -165 -17t-109 -59t-69.5 -112.5t-47.5 -176.5l-14 -74q-20 -108 -20 -180t28 -115t89 -61t163 -18q60 0 120.5 3t102.5 8zM505 -24q-143 0 -233.5 29t-137.5 89.5t-54 154.5t18 224l24 126q29 152 70.5 248.5t108 151t164 75
t237.5 20.5q46 0 96 -1.5t99.5 -4.5t97 -7t89.5 -8q16 -1 13 -18l-193 -1039q-2 -9 -6 -12.5t-13 -5.5q-101 -11 -196.5 -16.5t-183.5 -5.5zM746 1489q-64 0 -93 -25t-29 -85q0 -38 23 -52t66 -14q66 0 94 25.5t28 86.5q0 37 -22 50.5t-67 13.5zM690 1211q-95 0 -140.5 39
t-45.5 112q0 105 62.5 167.5t194.5 62.5q94 0 140 -39.5t46 -113.5q0 -52 -16.5 -94t-48.5 -72t-80.5 -46t-111.5 -16z" />
    <glyph glyph-name="ae" unicode="&#xe6;" horiz-adv-x="1874" 
d="M1206 -24q-200 0 -296 74l-6 -34q-2 -9 -6 -12.5t-13 -5.5q-101 -11 -196.5 -16.5t-183.5 -5.5q-143 0 -233.5 29t-137.5 89.5t-54 154.5t18 224l24 126q29 152 70.5 248.5t108 151t164 75t237.5 20.5q46 0 96 -1.5t99.5 -4.5t97 -7t89.5 -8q16 -1 13 -18l-5 -25
q61 33 137.5 48.5t172.5 15.5q104 0 178.5 -23.5t122.5 -68.5t71 -111t23 -151q0 -50 -6.5 -93.5t-16 -78t-19.5 -60t-16 -38.5q-4 -8 -8.5 -11t-13.5 -3l-731 -1q-14 -95 -8.5 -158t35.5 -100.5t86.5 -53.5t143.5 -16q85 0 172 3.5t182 11.5q16 1 15 -15l-8 -111
q-1 -9 -4.5 -12.5t-12.5 -5.5q-91 -10 -183 -16t-198 -6zM902 929q-45 5 -102 8.5t-124 3.5q-99 0 -165 -17t-109 -59t-69.5 -112.5t-47.5 -176.5l-14 -74q-20 -108 -20 -180t28 -115t89 -61t163 -18q60 0 120.5 3t102.5 8zM1621 608q12 89 7.5 152.5t-32.5 104t-82 59
t-140 18.5q-81 0 -139.5 -18t-100.5 -56.5t-70 -98t-47 -143.5l-5 -30z" />
    <glyph glyph-name="ccedilla" unicode="&#xe7;" horiz-adv-x="957" 
d="M504 -24q-141 0 -230 27.5t-135.5 88t-54 157.5t15.5 236l17 101q24 144 66 241.5t111 157t171 84.5t248 25q67 0 126.5 -6t107.5 -15q17 -3 11 -18l-36 -117q-5 -14 -21 -13q-49 8 -104 10.5t-110 2.5q-101 0 -168.5 -18t-112.5 -61t-72 -114.5t-46 -177.5l-13 -65
q-20 -108 -19.5 -179.5t29.5 -114t90 -60t163 -17.5q59 0 115.5 3.5t106.5 11.5q16 3 15 -13l-10 -116q-1 -16 -17 -19q-25 -5 -55 -9t-62 -7t-64.5 -4.5t-62.5 -1.5zM175 -389q-17 0 -7 13l193 261q9 13 25 13h141q17 0 7 -13l-174 -261q-9 -13 -25 -13h-160z" />
    <glyph glyph-name="egrave" unicode="&#xe8;" horiz-adv-x="1149" 
d="M481 -24q-130 0 -214.5 30.5t-129.5 94.5t-53 162t15 233l15 88q24 138 67 235t110.5 158t162.5 89t223 28q104 0 178.5 -23.5t122.5 -68.5t71 -111t23 -151q0 -50 -6.5 -93.5t-16 -78t-19.5 -60t-16 -38.5q-4 -8 -8.5 -11t-13.5 -3l-731 -1q-14 -95 -8.5 -158
t35.5 -100.5t86.5 -53.5t143.5 -16q85 0 172 3.5t182 11.5q16 1 15 -15l-8 -111q-1 -9 -4.5 -12.5t-12.5 -5.5q-91 -10 -183 -16t-198 -6zM896 608q12 89 7.5 152.5t-32.5 104t-82 59t-140 18.5q-84 0 -144.5 -19.5t-103 -61.5t-70 -107.5t-45.5 -157.5zM689 1264
q-16 0 -26 13l-180 238q-10 13 6 13h192q16 0 24 -14l133 -236q8 -14 -8 -14h-141z" />
    <glyph glyph-name="eacute" unicode="&#xe9;" horiz-adv-x="1149" 
d="M481 -24q-130 0 -214.5 30.5t-129.5 94.5t-53 162t15 233l15 88q24 138 67 235t110.5 158t162.5 89t223 28q104 0 178.5 -23.5t122.5 -68.5t71 -111t23 -151q0 -50 -6.5 -93.5t-16 -78t-19.5 -60t-16 -38.5q-4 -8 -8.5 -11t-13.5 -3l-731 -1q-14 -95 -8.5 -158
t35.5 -100.5t86.5 -53.5t143.5 -16q85 0 172 3.5t182 11.5q16 1 15 -15l-8 -111q-1 -9 -4.5 -12.5t-12.5 -5.5q-91 -10 -183 -16t-198 -6zM896 608q12 89 7.5 152.5t-32.5 104t-82 59t-140 18.5q-84 0 -144.5 -19.5t-103 -61.5t-70 -107.5t-45.5 -157.5zM567 1264
q-17 0 -5 12l230 240q11 12 27 12h206q16 0 4 -10l-282 -244q-7 -5 -13 -7.5t-15 -2.5h-152z" />
    <glyph glyph-name="ecircumflex" unicode="&#xea;" horiz-adv-x="1149" 
d="M481 -24q-130 0 -214.5 30.5t-129.5 94.5t-53 162t15 233l15 88q24 138 67 235t110.5 158t162.5 89t223 28q104 0 178.5 -23.5t122.5 -68.5t71 -111t23 -151q0 -50 -6.5 -93.5t-16 -78t-19.5 -60t-16 -38.5q-4 -8 -8.5 -11t-13.5 -3l-731 -1q-14 -95 -8.5 -158
t35.5 -100.5t86.5 -53.5t143.5 -16q85 0 172 3.5t182 11.5q16 1 15 -15l-8 -111q-1 -9 -4.5 -12.5t-12.5 -5.5q-91 -10 -183 -16t-198 -6zM896 608q12 89 7.5 152.5t-32.5 104t-82 59t-140 18.5q-84 0 -144.5 -19.5t-103 -61.5t-70 -107.5t-45.5 -157.5zM999 1274
q10 -13 -7 -13h-145q-16 0 -24 14l-81 143h-21l-134 -145q-11 -12 -27 -12h-166q-15 0 -4 11l257 245q12 11 28 11h135q16 0 25 -13z" />
    <glyph glyph-name="edieresis" unicode="&#xeb;" horiz-adv-x="1149" 
d="M481 -24q-130 0 -214.5 30.5t-129.5 94.5t-53 162t15 233l15 88q24 138 67 235t110.5 158t162.5 89t223 28q104 0 178.5 -23.5t122.5 -68.5t71 -111t23 -151q0 -50 -6.5 -93.5t-16 -78t-19.5 -60t-16 -38.5q-4 -8 -8.5 -11t-13.5 -3l-731 -1q-14 -95 -8.5 -158
t35.5 -100.5t86.5 -53.5t143.5 -16q85 0 172 3.5t182 11.5q16 1 15 -15l-8 -111q-1 -9 -4.5 -12.5t-12.5 -5.5q-91 -10 -183 -16t-198 -6zM896 608q12 89 7.5 152.5t-32.5 104t-82 59t-140 18.5q-84 0 -144.5 -19.5t-103 -61.5t-70 -107.5t-45.5 -157.5zM439 1243
q-16 0 -13 16l50 265q3 16 19 19l148 23q16 3 13 -13l-55 -294q-3 -16 -19 -16h-143zM777 1243q-16 0 -13 16l49 265q3 16 19 19l149 23q16 3 13 -13l-55 -294q-3 -16 -19 -16h-143z" />
    <glyph glyph-name="igrave" unicode="&#xec;" horiz-adv-x="510" 
d="M71 0q-16 0 -13 16l192 1039q3 16 19 16h140q16 0 13 -16l-193 -1039q-3 -16 -19 -16h-139zM368 1264q-16 0 -26 13l-180 238q-10 13 6 13h192q16 0 24 -14l133 -236q8 -14 -8 -14h-141z" />
    <glyph glyph-name="iacute" unicode="&#xed;" horiz-adv-x="509" 
d="M70 0q-16 0 -13 16l192 1039q3 16 19 16h140q16 0 13 -16l-193 -1039q-3 -16 -19 -16h-139zM189 1264q-17 0 -5 12l230 240q11 12 27 12h206q16 0 4 -10l-282 -244q-7 -5 -13 -7.5t-15 -2.5h-152z" />
    <glyph glyph-name="icircumflex" unicode="&#xee;" horiz-adv-x="509" 
d="M70 0q-16 0 -13 16l192 1039q3 16 19 16h140q16 0 13 -16l-193 -1039q-3 -16 -19 -16h-139zM672 1274q10 -13 -7 -13h-145q-16 0 -24 14l-81 143h-21l-134 -145q-11 -12 -27 -12h-166q-15 0 -4 11l257 245q12 11 28 11h135q16 0 25 -13z" />
    <glyph glyph-name="idieresis" unicode="&#xef;" horiz-adv-x="509" 
d="M70 0q-16 0 -13 16l192 1039q3 16 19 16h140q16 0 13 -16l-193 -1039q-3 -16 -19 -16h-139zM130 1243q-16 0 -13 16l50 265q3 16 19 19l148 23q16 3 13 -13l-55 -294q-3 -16 -19 -16h-143zM468 1243q-16 0 -13 16l49 265q3 16 19 19l149 23q16 3 13 -13l-55 -294
q-3 -16 -19 -16h-143z" />
    <glyph glyph-name="eth" unicode="&#xf0;" horiz-adv-x="1184" 
d="M888 1388q70 -62 111 -142.5t57.5 -182t9 -224.5t-34.5 -270l-14 -75q-27 -147 -70 -246.5t-107 -159.5t-153.5 -86t-209.5 -26q-129 0 -213 33.5t-129 99t-53 162t16 223.5l14 75q27 144 69 243t106 160.5t152 89t208 27.5q87 0 152.5 -21t113.5 -59q-36 186 -166 293
l-259 -157q-14 -8 -22 6l-44 80q-8 14 6 22l201 123q-50 24 -107.5 42.5t-124.5 32.5q-16 3 -10 18l38 98q4 8 8.5 11t13.5 1q198 -42 329 -113l214 131q14 8 21 -6l44 -83q7 -14 -7 -22zM646 939q-84 0 -144.5 -21.5t-103 -67.5t-70 -118t-46.5 -173l-10 -55
q-19 -102 -19 -173.5t25 -117t76.5 -66.5t134.5 -21q85 0 147 21.5t105.5 67t71.5 117.5t46 174l10 53q19 101 18.5 173t-25.5 118t-78 67.5t-138 21.5z" />
    <glyph glyph-name="ntilde" unicode="&#xf1;" horiz-adv-x="1210" 
d="M67 0q-16 0 -13 16l197 1058q3 16 19 16h106q9 0 12.5 -3.5t5.5 -12.5l8 -75q43 23 91.5 40.5t98 29.5t97.5 18.5t91 6.5q103 0 167.5 -27.5t96.5 -84.5t34 -143.5t-20 -204.5l-114 -618q-3 -16 -19 -16h-140q-16 0 -13 16l110 593q16 91 18 152.5t-18.5 98t-65.5 52
t-121 15.5q-36 0 -75.5 -4.5t-80.5 -13.5t-81 -22.5t-76 -31.5l-156 -839q-3 -16 -19 -16h-140zM598 1412q-16 0 -29 -4t-23.5 -18t-20 -40t-18.5 -70q-3 -16 -19 -16h-94q-17 0 -14 16q10 84 32 135.5t51 79.5t64 37t72 9q21 0 39 -3.5t36.5 -12.5t38.5 -24t46 -37
q44 -41 69.5 -57.5t50.5 -16.5q16 0 28.5 4t23.5 17.5t20 40t18 70.5q3 16 19 16h95q17 0 14 -16q-11 -85 -32.5 -136.5t-51 -79.5t-64.5 -37t-71 -9q-21 0 -39.5 3.5t-36.5 12.5t-38.5 24t-45.5 38q-23 20 -39.5 34t-30.5 23t-26 13t-24 4z" />
    <glyph glyph-name="ograve" unicode="&#xf2;" horiz-adv-x="1179" 
d="M649 942q-87 0 -148.5 -20.5t-104 -65t-69.5 -115t-46 -170.5l-13 -73q-18 -99 -17 -169.5t26.5 -115.5t79 -65.5t140.5 -20.5t148.5 20.5t104 65.5t70 115.5t46.5 171.5l13 71q18 99 17.5 169.5t-26.5 115.5t-79.5 65.5t-141.5 20.5zM470 -24q-126 0 -209 32
t-127.5 96.5t-52.5 160t16 223.5l17 91q27 142 71 240.5t111.5 159.5t161 88t219.5 27q127 0 210.5 -31.5t128 -95t52 -160.5t-17.5 -228l-16 -91q-25 -143 -69 -240.5t-112 -158t-162.5 -87t-220.5 -26.5zM683 1264q-16 0 -26 13l-180 238q-10 13 6 13h192q16 0 24 -14
l133 -236q8 -14 -8 -14h-141z" />
    <glyph glyph-name="oacute" unicode="&#xf3;" horiz-adv-x="1179" 
d="M649 942q-87 0 -148.5 -20.5t-104 -65t-69.5 -115t-46 -170.5l-13 -73q-18 -99 -17 -169.5t26.5 -115.5t79 -65.5t140.5 -20.5t148.5 20.5t104 65.5t70 115.5t46.5 171.5l13 71q18 99 17.5 169.5t-26.5 115.5t-79.5 65.5t-141.5 20.5zM470 -24q-126 0 -209 32
t-127.5 96.5t-52.5 160t16 223.5l17 91q27 142 71 240.5t111.5 159.5t161 88t219.5 27q127 0 210.5 -31.5t128 -95t52 -160.5t-17.5 -228l-16 -91q-25 -143 -69 -240.5t-112 -158t-162.5 -87t-220.5 -26.5zM553 1264q-17 0 -5 12l230 240q11 12 27 12h206q16 0 4 -10
l-282 -244q-7 -5 -13 -7.5t-15 -2.5h-152z" />
    <glyph glyph-name="ocircumflex" unicode="&#xf4;" horiz-adv-x="1179" 
d="M649 942q-87 0 -148.5 -20.5t-104 -65t-69.5 -115t-46 -170.5l-13 -73q-18 -99 -17 -169.5t26.5 -115.5t79 -65.5t140.5 -20.5t148.5 20.5t104 65.5t70 115.5t46.5 171.5l13 71q18 99 17.5 169.5t-26.5 115.5t-79.5 65.5t-141.5 20.5zM470 -24q-126 0 -209 32
t-127.5 96.5t-52.5 160t16 223.5l17 91q27 142 71 240.5t111.5 159.5t161 88t219.5 27q127 0 210.5 -31.5t128 -95t52 -160.5t-17.5 -228l-16 -91q-25 -143 -69 -240.5t-112 -158t-162.5 -87t-220.5 -26.5zM1004 1274q10 -13 -7 -13h-145q-16 0 -24 14l-81 143h-21
l-134 -145q-11 -12 -27 -12h-166q-15 0 -4 11l257 245q12 11 28 11h135q16 0 25 -13z" />
    <glyph glyph-name="otilde" unicode="&#xf5;" horiz-adv-x="1179" 
d="M649 942q-87 0 -148.5 -20.5t-104 -65t-69.5 -115t-46 -170.5l-13 -73q-18 -99 -17 -169.5t26.5 -115.5t79 -65.5t140.5 -20.5t148.5 20.5t104 65.5t70 115.5t46.5 171.5l13 71q18 99 17.5 169.5t-26.5 115.5t-79.5 65.5t-141.5 20.5zM470 -24q-126 0 -209 32
t-127.5 96.5t-52.5 160t16 223.5l17 91q27 142 71 240.5t111.5 159.5t161 88t219.5 27q127 0 210.5 -31.5t128 -95t52 -160.5t-17.5 -228l-16 -91q-25 -143 -69 -240.5t-112 -158t-162.5 -87t-220.5 -26.5zM576 1412q-16 0 -29 -4t-23.5 -18t-20 -40t-18.5 -70
q-3 -16 -19 -16h-94q-17 0 -14 16q10 84 32 135.5t51 79.5t64 37t72 9q21 0 39 -3.5t36.5 -12.5t38.5 -24t46 -37q44 -41 69.5 -57.5t50.5 -16.5q16 0 28.5 4t23.5 17.5t20 40t18 70.5q3 16 19 16h95q17 0 14 -16q-11 -85 -32.5 -136.5t-51 -79.5t-64.5 -37t-71 -9
q-21 0 -39.5 3.5t-36.5 12.5t-38.5 24t-45.5 38q-23 20 -39.5 34t-30.5 23t-26 13t-24 4z" />
    <glyph glyph-name="odieresis" unicode="&#xf6;" horiz-adv-x="1179" 
d="M649 942q-87 0 -148.5 -20.5t-104 -65t-69.5 -115t-46 -170.5l-13 -73q-18 -99 -17 -169.5t26.5 -115.5t79 -65.5t140.5 -20.5t148.5 20.5t104 65.5t70 115.5t46.5 171.5l13 71q18 99 17.5 169.5t-26.5 115.5t-79.5 65.5t-141.5 20.5zM470 -24q-126 0 -209 32
t-127.5 96.5t-52.5 160t16 223.5l17 91q27 142 71 240.5t111.5 159.5t161 88t219.5 27q127 0 210.5 -31.5t128 -95t52 -160.5t-17.5 -228l-16 -91q-25 -143 -69 -240.5t-112 -158t-162.5 -87t-220.5 -26.5zM450 1243q-16 0 -13 16l50 265q3 16 19 19l148 23q16 3 13 -13
l-55 -294q-3 -16 -19 -16h-143zM788 1243q-16 0 -13 16l49 265q3 16 19 19l149 23q16 3 13 -13l-55 -294q-3 -16 -19 -16h-143z" />
    <glyph glyph-name="divide" unicode="&#xf7;" horiz-adv-x="1115" 
d="M143 705q-16 0 -13 16l24 135q3 16 19 16h858q16 0 13 -16l-25 -135q-3 -16 -19 -16h-857zM416 266q-16 0 -13 16l42 228q3 17 19 18l153 24q16 1 13 -14l-48 -256q-3 -16 -19 -16h-147zM555 1017q-16 0 -13 16l43 229q3 17 19 18l152 24q16 1 13 -14l-48 -257
q-3 -16 -19 -16h-147z" />
    <glyph glyph-name="oslash" unicode="&#xf8;" horiz-adv-x="1188" 
d="M106 155q-47 121 -7 334l16 90q25 135 69.5 232.5t113 160t163.5 92.5t222 30q191 0 289 -74l40 40q11 11 27 11h163q16 0 5 -11l-153 -153q23 -61 24 -142.5t-18 -185.5l-17 -90q-25 -136 -69 -233t-112.5 -159.5t-164 -91.5t-222.5 -29q-187 0 -283 69l-34 -34
q-11 -11 -27 -11h-164q-16 0 -5 11zM654 942q-88 0 -150 -21t-104.5 -66t-70 -115.5t-45.5 -170.5l-11 -60q-12 -64 -17.5 -115t-3.5 -93l596 595q-30 23 -77.5 34.5t-116.5 11.5zM886 559q11 60 16 109.5t3 89.5l-590 -590q30 -22 76.5 -31.5t112.5 -9.5q88 0 150 20.5
t105 65.5t70 115.5t46 171.5z" />
    <glyph glyph-name="ugrave" unicode="&#xf9;" horiz-adv-x="1209" 
d="M501 -24q-141 0 -226.5 27t-127 83.5t-45.5 144t19 207.5l115 617q3 16 19 16h140q16 0 13 -16l-113 -608q-18 -94 -16 -155t29 -96t81 -49t141 -14q31 0 65 2t68 5t66 8t58 11l167 896q3 16 19 16h140q16 0 13 -16l-186 -1008q-3 -16 -19 -20q-40 -10 -89.5 -19
t-104.5 -16t-112.5 -11.5t-113.5 -4.5zM691 1264q-16 0 -26 13l-180 238q-10 13 6 13h192q16 0 24 -14l133 -236q8 -14 -8 -14h-141z" />
    <glyph glyph-name="uacute" unicode="&#xfa;" horiz-adv-x="1209" 
d="M501 -24q-141 0 -226.5 27t-127 83.5t-45.5 144t19 207.5l115 617q3 16 19 16h140q16 0 13 -16l-113 -608q-18 -94 -16 -155t29 -96t81 -49t141 -14q31 0 65 2t68 5t66 8t58 11l167 896q3 16 19 16h140q16 0 13 -16l-186 -1008q-3 -16 -19 -20q-40 -10 -89.5 -19
t-104.5 -16t-112.5 -11.5t-113.5 -4.5zM601 1264q-17 0 -5 12l230 240q11 12 27 12h206q16 0 4 -10l-282 -244q-7 -5 -13 -7.5t-15 -2.5h-152z" />
    <glyph glyph-name="ucircumflex" unicode="&#xfb;" horiz-adv-x="1209" 
d="M501 -24q-141 0 -226.5 27t-127 83.5t-45.5 144t19 207.5l115 617q3 16 19 16h140q16 0 13 -16l-113 -608q-18 -94 -16 -155t29 -96t81 -49t141 -14q31 0 65 2t68 5t66 8t58 11l167 896q3 16 19 16h140q16 0 13 -16l-186 -1008q-3 -16 -19 -20q-40 -10 -89.5 -19
t-104.5 -16t-112.5 -11.5t-113.5 -4.5zM1014 1274q10 -13 -7 -13h-145q-16 0 -24 14l-81 143h-21l-134 -145q-11 -12 -27 -12h-166q-15 0 -4 11l257 245q12 11 28 11h135q16 0 25 -13z" />
    <glyph glyph-name="udieresis" unicode="&#xfc;" horiz-adv-x="1209" 
d="M501 -24q-141 0 -226.5 27t-127 83.5t-45.5 144t19 207.5l115 617q3 16 19 16h140q16 0 13 -16l-113 -608q-18 -94 -16 -155t29 -96t81 -49t141 -14q31 0 65 2t68 5t66 8t58 11l167 896q3 16 19 16h140q16 0 13 -16l-186 -1008q-3 -16 -19 -20q-40 -10 -89.5 -19
t-104.5 -16t-112.5 -11.5t-113.5 -4.5zM474 1243q-16 0 -13 16l50 265q3 16 19 19l148 23q16 3 13 -13l-55 -294q-3 -16 -19 -16h-143zM812 1243q-16 0 -13 16l49 265q3 16 19 19l149 23q16 3 13 -13l-55 -294q-3 -16 -19 -16h-143z" />
    <glyph glyph-name="yacute" unicode="&#xfd;" horiz-adv-x="998" 
d="M-55 -475q-27 0 -61 3.5t-61 10.5q-15 4 -10 19l40 117q5 15 21 12q21 -4 46.5 -6.5t46.5 -2.5q43 0 77 4.5t63 16.5t55 34t52.5 58t56 87t65.5 122q-2 0 -9 4.5t-17 18.5t-21 41.5t-20 73.5l-172 917q-3 16 13 16h160q16 0 19 -16l116 -716q4 -29 8 -56.5t7 -49.5t5 -35
l2 -13l411 872q4 8 9 11t14 3h165q17 0 9 -14l-573 -1139q-63 -125 -115 -202t-108.5 -119.5t-126 -57t-167.5 -14.5zM476 1264q-17 0 -5 12l230 240q11 12 27 12h206q16 0 4 -10l-282 -244q-7 -5 -13 -7.5t-15 -2.5h-152z" />
    <glyph glyph-name="thorn" unicode="&#xfe;" horiz-adv-x="1183" 
d="M-16 -452q-16 0 -13 16l263 1413l16 86l97 523q3 17 19 18l145 24q16 1 13 -14l-98 -530q58 5 114 7.5t110 2.5q141 0 231 -27t136.5 -86t54 -153t-17.5 -228l-23 -124q-27 -147 -68.5 -243.5t-109 -153.5t-166.5 -80t-241 -23q-58 0 -116.5 6.5t-105.5 16.5l-81 -435
q-3 -16 -19 -16h-140zM621 941q-54 0 -115.5 -3.5t-110.5 -11.5l-144 -779q45 -9 104.5 -14t115.5 -5q101 0 168 18t111.5 61t71 114t46.5 178l13 74q20 107 20 178t-28.5 113t-89.5 59.5t-162 17.5z" />
    <glyph glyph-name="ydieresis" unicode="&#xff;" horiz-adv-x="998" 
d="M-55 -475q-27 0 -61 3.5t-61 10.5q-15 4 -10 19l40 117q5 15 21 12q21 -4 46.5 -6.5t46.5 -2.5q43 0 77 4.5t63 16.5t55 34t52.5 58t56 87t65.5 122q-2 0 -9 4.5t-17 18.5t-21 41.5t-20 73.5l-172 917q-3 16 13 16h160q16 0 19 -16l116 -716q4 -29 8 -56.5t7 -49.5t5 -35
l2 -13l411 872q4 8 9 11t14 3h165q17 0 9 -14l-573 -1139q-63 -125 -115 -202t-108.5 -119.5t-126 -57t-167.5 -14.5zM349 1243q-16 0 -13 16l50 265q3 16 19 19l148 23q16 3 13 -13l-55 -294q-3 -16 -19 -16h-143zM687 1243q-16 0 -13 16l49 265q3 16 19 19l149 23
q16 3 13 -13l-55 -294q-3 -16 -19 -16h-143z" />
    <glyph glyph-name="Amacron" unicode="&#x100;" horiz-adv-x="1294" 
d="M-77 0q-17 0 -9 14l765 1447q4 8 9 11t14 3h217q16 0 19 -16l229 -1443q3 -16 -13 -16h-163q-17 0 -18 16l-52 344h-629l-179 -346q-4 -8 -9 -11t-14 -3h-167zM779 1299l-398 -767h514zM591 1633q-16 0 -13 16l19 102q3 16 19 16h490q16 0 13 -16l-18 -102
q-3 -16 -19 -16h-491z" />
    <glyph glyph-name="amacron" unicode="&#x101;" horiz-adv-x="1183" 
d="M902 929q-45 5 -102 8.5t-124 3.5q-99 0 -165 -17t-109 -59t-69.5 -112.5t-47.5 -176.5l-14 -74q-20 -108 -20 -180t28 -115t89 -61t163 -18q60 0 120.5 3t102.5 8zM505 -24q-143 0 -233.5 29t-137.5 89.5t-54 154.5t18 224l24 126q29 152 70.5 248.5t108 151t164 75
t237.5 20.5q46 0 96 -1.5t99.5 -4.5t97 -7t89.5 -8q16 -1 13 -18l-193 -1039q-2 -9 -6 -12.5t-13 -5.5q-101 -11 -196.5 -16.5t-183.5 -5.5zM487 1317q-16 0 -13 16l20 107q3 16 19 16h491q16 0 13 -16l-20 -107q-3 -16 -19 -16h-491z" />
    <glyph glyph-name="Abreve" unicode="&#x102;" horiz-adv-x="1294" 
d="M-77 0q-17 0 -9 14l765 1447q4 8 9 11t14 3h217q16 0 19 -16l229 -1443q3 -16 -13 -16h-163q-17 0 -18 16l-52 344h-629l-179 -346q-4 -8 -9 -11t-14 -3h-167zM779 1299l-398 -767h514zM825 1580q-134 0 -192 58.5t-47 172.5q1 16 18 16h98q16 0 16 -16q-1 -33 9.5 -55
t27.5 -35t39 -18t45 -5q25 0 49 5.5t45 18.5t38 35t28 55q5 15 22 15h107q16 0 12 -16q-17 -61 -39.5 -104.5t-58.5 -71.5t-88.5 -41.5t-128.5 -13.5z" />
    <glyph glyph-name="abreve" unicode="&#x103;" horiz-adv-x="1183" 
d="M902 929q-45 5 -102 8.5t-124 3.5q-99 0 -165 -17t-109 -59t-69.5 -112.5t-47.5 -176.5l-14 -74q-20 -108 -20 -180t28 -115t89 -61t163 -18q60 0 120.5 3t102.5 8zM505 -24q-143 0 -233.5 29t-137.5 89.5t-54 154.5t18 224l24 126q29 152 70.5 248.5t108 151t164 75
t237.5 20.5q46 0 96 -1.5t99.5 -4.5t97 -7t89.5 -8q16 -1 13 -18l-193 -1039q-2 -9 -6 -12.5t-13 -5.5q-101 -11 -196.5 -16.5t-183.5 -5.5zM724 1259q-65 0 -111 18t-73.5 51t-38.5 80t-6 104q0 16 17 16h104q15 0 14 -16q-3 -35 4 -59t21.5 -38.5t35 -20.5t44.5 -6
q27 0 51.5 6t46 20.5t39 38.5t29.5 60q5 15 22 15h108q9 0 12 -3.5t2 -12.5q-9 -55 -29.5 -101.5t-58 -80t-94.5 -52.5t-139 -19z" />
    <glyph glyph-name="Aogonek" unicode="&#x104;" horiz-adv-x="1296" 
d="M-77 0q-17 0 -9 14l765 1447q4 8 9 11t14 3h217q16 0 19 -16l229 -1443q1 -7 0 -12.5t-10 -8.5q-63 -23 -111.5 -54.5t-80.5 -65.5t-48.5 -68.5t-16.5 -63.5q0 -27 19.5 -38t72.5 -11q21 0 47 1t51 5q16 1 15 -14l-6 -69q-1 -9 -4.5 -13t-11.5 -6q-23 -5 -57.5 -8.5
t-79.5 -3.5q-53 0 -90 7.5t-59.5 23t-32.5 38t-10 52.5q0 53 19.5 100t50.5 86.5t70.5 70t78.5 51.5l-52 345h-629l-179 -346q-4 -8 -9 -11t-14 -3h-167zM779 1299l-398 -767h514z" />
    <glyph glyph-name="aogonek" unicode="&#x105;" horiz-adv-x="1183" 
d="M505 -24q-143 0 -233.5 29t-137.5 89.5t-54 154.5t18 224l24 126q29 152 70.5 248.5t108 151t164 75t237.5 20.5q46 0 96 -1.5t99.5 -4.5t97 -7t89.5 -8q16 -1 13 -18l-193 -1039q-2 -10 -6 -14.5t-12 -7.5q-45 -20 -89 -50.5t-78.5 -66t-56 -71t-21.5 -64.5
q0 -27 18 -37.5t63 -10.5q18 0 39.5 1t42.5 4q16 3 15 -13l-7 -69q-1 -16 -16 -19q-23 -5 -55.5 -8.5t-70.5 -3.5q-97 0 -137 32t-40 86q0 37 16 76t42 76t59.5 69.5t68.5 56.5q-45 -3 -89 -4.5t-85 -1.5zM902 929q-45 5 -102 8.5t-124 3.5q-99 0 -165 -17t-109 -59
t-69.5 -112.5t-47.5 -176.5l-14 -74q-20 -108 -20 -180t28 -115t89 -61t163 -18q60 0 120.5 3t102.5 8z" />
    <glyph glyph-name="Cacute" unicode="&#x106;" horiz-adv-x="1170" 
d="M621 -24q-144 0 -250 36.5t-169 119t-79.5 214t17.5 322.5l25 140q36 204 102 337.5t159 212t213 110t264 31.5q96 0 182 -10t145 -27q16 -4 10 -20l-48 -131q-5 -15 -21 -12q-67 14 -143 20t-150 6q-104 0 -189.5 -24.5t-151.5 -83t-113.5 -156t-74.5 -243.5l-28 -160
q-28 -147 -17.5 -245t55 -156.5t121 -82.5t180.5 -24q90 0 167.5 6t145.5 17q16 3 16 -13l-4 -132q0 -16 -16 -20q-65 -15 -156.5 -23.5t-191.5 -8.5zM749 1604q-16 0 -4 10l232 195q7 5 13 7.5t15 2.5h205q7 0 7.5 -2.5t-4.5 -6.5l-270 -197q-7 -5 -13.5 -7t-15.5 -2h-165z
" />
    <glyph glyph-name="cacute" unicode="&#x107;" horiz-adv-x="958" 
d="M504 -24q-141 0 -230 27.5t-135.5 88t-54 157.5t15.5 236l17 101q24 144 66 241.5t111 157t171 84.5t248 25q67 0 126.5 -6t107.5 -15q17 -3 11 -18l-36 -117q-5 -14 -21 -13q-49 8 -104 10.5t-110 2.5q-101 0 -168.5 -18t-112.5 -61t-72 -114.5t-46 -177.5l-13 -65
q-20 -108 -19.5 -179.5t29.5 -114t90 -60t163 -17.5q59 0 115.5 3.5t106.5 11.5q16 3 15 -13l-10 -116q-1 -16 -17 -19q-25 -5 -55 -9t-62 -7t-64.5 -4.5t-62.5 -1.5zM528 1264q-17 0 -5 12l230 240q11 12 27 12h206q16 0 4 -10l-282 -244q-7 -5 -13 -7.5t-15 -2.5h-152z
" />
    <glyph glyph-name="Ccaron" unicode="&#x10c;" horiz-adv-x="1170" 
d="M621 -24q-144 0 -250 36.5t-169 119t-79.5 214t17.5 322.5l25 140q36 204 102 337.5t159 212t213 110t264 31.5q96 0 182 -10t145 -27q16 -4 10 -20l-48 -131q-5 -15 -21 -12q-67 14 -143 20t-150 6q-104 0 -189.5 -24.5t-151.5 -83t-113.5 -156t-74.5 -243.5l-28 -160
q-28 -147 -17.5 -245t55 -156.5t121 -82.5t180.5 -24q90 0 167.5 6t145.5 17q16 3 16 -13l-4 -132q0 -16 -16 -20q-65 -15 -156.5 -23.5t-191.5 -8.5zM611 1807q-12 12 5 12h147q9 0 14.5 -2.5t11.5 -9.5l84 -103h20l123 105q7 5 13 7.5t15 2.5h174q16 0 3 -10l-252 -195
q-8 -5 -14 -7.5t-15 -2.5h-136q-16 0 -27 12z" />
    <glyph glyph-name="ccaron" unicode="&#x10d;" horiz-adv-x="958" 
d="M504 -24q-141 0 -230 27.5t-135.5 88t-54 157.5t15.5 236l17 101q24 144 66 241.5t111 157t171 84.5t248 25q67 0 126.5 -6t107.5 -15q17 -3 11 -18l-36 -117q-5 -14 -21 -13q-49 8 -104 10.5t-110 2.5q-101 0 -168.5 -18t-112.5 -61t-72 -114.5t-46 -177.5l-13 -65
q-20 -108 -19.5 -179.5t29.5 -114t90 -60t163 -17.5q59 0 115.5 3.5t106.5 11.5q16 3 15 -13l-10 -116q-1 -16 -17 -19q-25 -5 -55 -9t-62 -7t-64.5 -4.5t-62.5 -1.5zM406 1515q-10 13 7 13h145q16 0 24 -14l81 -143h21l134 145q11 12 27 12h166q15 0 4 -11l-257 -245
q-12 -11 -28 -11h-135q-16 0 -25 13z" />
    <glyph glyph-name="Dcaron" unicode="&#x10e;" horiz-adv-x="1411" 
d="M449 -16q-36 0 -79.5 1t-90 2.5t-93.5 4t-90 6.5q-9 2 -12 5.5t-1 12.5l267 1443q3 16 19 17q42 3 90 5t95 3.5t89 2t72 0.5q102 0 194 -10.5t167 -39t131 -77.5t88 -126t37 -185t-22 -254l-21 -113q-29 -158 -71.5 -271t-99 -190.5t-126 -124.5t-153 -71.5t-181 -32.5
t-209.5 -8zM721 1324q-21 0 -50 -0.5t-59 -1.5t-59 -2.5t-50 -3.5l-215 -1159q24 -3 53 -4.5t59.5 -3t59.5 -2t52 -0.5q124 0 221 20.5t170 78.5t123.5 161.5t81.5 270.5l22 119q20 110 21 192t-16.5 140.5t-53 96.5t-87.5 59.5t-120.5 30t-152.5 8.5zM562 1807q-12 12 5 12
h147q9 0 14.5 -2.5t11.5 -9.5l84 -103h20l123 105q7 5 13 7.5t15 2.5h174q16 0 3 -10l-252 -195q-8 -5 -14 -7.5t-15 -2.5h-136q-16 0 -27 12z" />
    <glyph glyph-name="dcaron" unicode="&#x10f;" horiz-adv-x="1181" 
d="M676 941q-99 0 -165.5 -17.5t-110 -60t-70 -112.5t-45.5 -175l-15 -74q-20 -108 -20 -180t28.5 -115t89 -61t162.5 -18q57 0 115.5 4t108.5 10l146 779q-22 5 -50.5 8.5t-59 6t-60.5 4t-54 1.5zM504 -24q-143 0 -233.5 27.5t-137 87.5t-53 154.5t17.5 227.5l23 126
q18 97 42 172t57 130t77.5 92t103 59.5t132.5 32t168 9.5q59 0 118.5 -7t107.5 -17l95 516q3 17 19 18l147 24q16 1 13 -14l-296 -1590q-3 -17 -19 -18q-101 -15 -197.5 -22.5t-184.5 -7.5zM1264 1194q-16 0 -13 16l70 376q3 17 19 18l143 23q16 1 12 -13l-104 -405
q-4 -15 -20 -15h-107z" />
    <glyph glyph-name="Dcroat" unicode="&#x110;" horiz-adv-x="1422" 
d="M460 -16q-36 0 -79.5 1t-90 2.5t-93.5 4t-90 6.5q-9 2 -12 5.5t-1 12.5l126 682h-156q-16 0 -13 16l25 135q3 16 19 16h156l110 594q3 16 19 17q42 3 90 5t95 3.5t89 2t72 0.5q103 0 194.5 -10.5t166.5 -39t131 -77.5t88 -126t37 -185t-22 -254l-21 -113
q-29 -158 -71.5 -271t-99 -190.5t-126 -124.5t-153 -71.5t-181 -32.5t-209.5 -8zM732 1324q-21 0 -50 -0.5t-59 -1.5t-59 -2.5t-50 -3.5l-84 -451h264q16 0 13 -16l-25 -135q-3 -16 -19 -16h-264l-100 -541q24 -3 53 -4.5t59.5 -3t59.5 -2t52 -0.5q124 0 221 20.5t170 78.5
t123.5 161.5t81.5 270.5l22 119q20 110 21 192t-16.5 140.5t-53 96.5t-87.5 59.5t-120.5 30t-152.5 8.5z" />
    <glyph glyph-name="dcroat" unicode="&#x111;" horiz-adv-x="1181" 
d="M504 -24q-143 0 -233.5 27.5t-137 87.5t-53 154.5t17.5 227.5l23 126q18 97 42 172t57 130t77.5 92t103 59.5t132.5 32t168 9.5q59 0 118.5 -7t107.5 -17l34 186h-301q-16 0 -13 16l17 96q3 16 19 16h301l38 202q3 17 19 18l147 24q16 1 13 -14l-43 -230h119q16 0 13 -16
l-17 -96q-3 -16 -19 -16h-120l-229 -1232q-3 -17 -19 -18q-101 -15 -197.5 -22.5t-184.5 -7.5zM676 941q-99 0 -165.5 -17.5t-110 -60t-70 -112.5t-45.5 -175l-15 -74q-20 -108 -20 -180t28.5 -115t89 -61t162.5 -18q57 0 115.5 4t108.5 10l146 779q-22 5 -50.5 8.5t-59 6
t-60.5 4t-54 1.5z" />
    <glyph glyph-name="Emacron" unicode="&#x112;" horiz-adv-x="1189" 
d="M97 0q-16 0 -13 16l266 1443q3 16 19 16h848q16 0 13 -16l-26 -144q-3 -16 -19 -16h-684l-79 -427h575q16 0 13 -16l-27 -143q-3 -16 -19 -16h-575l-95 -522h683q16 0 13 -16l-27 -143q-3 -16 -19 -16h-847zM561 1633q-16 0 -13 16l19 102q3 16 19 16h490q16 0 13 -16
l-18 -102q-3 -16 -19 -16h-491z" />
    <glyph glyph-name="emacron" unicode="&#x113;" horiz-adv-x="1149" 
d="M481 -24q-130 0 -214.5 30.5t-129.5 94.5t-53 162t15 233l15 88q24 138 67 235t110.5 158t162.5 89t223 28q104 0 178.5 -23.5t122.5 -68.5t71 -111t23 -151q0 -50 -6.5 -93.5t-16 -78t-19.5 -60t-16 -38.5q-4 -8 -8.5 -11t-13.5 -3l-731 -1q-14 -95 -8.5 -158
t35.5 -100.5t86.5 -53.5t143.5 -16q85 0 172 3.5t182 11.5q16 1 15 -15l-8 -111q-1 -9 -4.5 -12.5t-12.5 -5.5q-91 -10 -183 -16t-198 -6zM896 608q12 89 7.5 152.5t-32.5 104t-82 59t-140 18.5q-84 0 -144.5 -19.5t-103 -61.5t-70 -107.5t-45.5 -157.5zM441 1317
q-16 0 -13 16l20 107q3 16 19 16h491q16 0 13 -16l-20 -107q-3 -16 -19 -16h-491z" />
    <glyph glyph-name="Edotaccent" unicode="&#x116;" horiz-adv-x="1189" 
d="M97 0q-16 0 -13 16l266 1443q3 16 19 16h848q16 0 13 -16l-26 -144q-3 -16 -19 -16h-684l-79 -427h575q16 0 13 -16l-27 -143q-3 -16 -19 -16h-575l-95 -522h683q16 0 13 -16l-27 -143q-3 -16 -19 -16h-847zM724 1604q-16 0 -13 16l36 199q3 17 19 18l153 25q16 1 13 -14
l-42 -228q-3 -16 -19 -16h-147z" />
    <glyph glyph-name="edotaccent" unicode="&#x117;" horiz-adv-x="1149" 
d="M481 -24q-130 0 -214.5 30.5t-129.5 94.5t-53 162t15 233l15 88q24 138 67 235t110.5 158t162.5 89t223 28q104 0 178.5 -23.5t122.5 -68.5t71 -111t23 -151q0 -50 -6.5 -93.5t-16 -78t-19.5 -60t-16 -38.5q-4 -8 -8.5 -11t-13.5 -3l-731 -1q-14 -95 -8.5 -158
t35.5 -100.5t86.5 -53.5t143.5 -16q85 0 172 3.5t182 11.5q16 1 15 -15l-8 -111q-1 -9 -4.5 -12.5t-12.5 -5.5q-91 -10 -183 -16t-198 -6zM896 608q12 89 7.5 152.5t-32.5 104t-82 59t-140 18.5q-84 0 -144.5 -19.5t-103 -61.5t-70 -107.5t-45.5 -157.5zM619 1243
q-16 0 -13 16l50 265q3 17 19 18l152 25q16 1 13 -14l-55 -294q-3 -16 -19 -16h-147z" />
    <glyph glyph-name="Eogonek" unicode="&#x118;" horiz-adv-x="1189" 
d="M790 -306q21 0 46.5 1t51.5 5q16 1 15 -14l-7 -69q-1 -9 -4.5 -13t-11.5 -6q-23 -5 -57.5 -8.5t-82.5 -3.5q-104 0 -147 30.5t-43 90.5q0 42 15.5 84.5t41.5 81.5t59.5 72t70.5 55h-640q-16 0 -13 16l266 1443q3 16 19 16h848q16 0 13 -16l-26 -144q-3 -16 -19 -16h-684
l-79 -427h575q16 0 13 -16l-27 -143q-3 -16 -19 -16h-575l-95 -522h683q16 0 13 -16l-27 -143q-3 -16 -19 -16h-59q-37 -24 -71 -56.5t-60 -68t-41.5 -70.5t-15.5 -64q0 -26 19 -36.5t74 -10.5z" />
    <glyph glyph-name="eogonek" unicode="&#x119;" horiz-adv-x="1150" 
d="M703 -306q21 0 46.5 1t51.5 5q16 1 15 -14l-7 -69q-1 -9 -4.5 -13t-11.5 -6q-23 -5 -57.5 -8.5t-82.5 -3.5q-104 0 -147 30.5t-43 90.5q0 37 12.5 75t33.5 74t49.5 67.5t60.5 55.5q-66 -3 -138 -3q-130 0 -214.5 30.5t-129.5 94.5t-53 162t15 233l15 88q24 138 67 235
t110.5 158t162.5 89t223 28q104 0 178.5 -23.5t122.5 -68.5t71 -111t23 -151q0 -50 -6.5 -93.5t-16 -78t-19.5 -60t-16 -38.5q-4 -8 -8.5 -11t-13.5 -3l-731 -1q-14 -95 -8.5 -158t35.5 -100.5t86.5 -53.5t143.5 -16q85 0 172 3.5t182 11.5q16 1 15 -15l-8 -111
q-1 -9 -4.5 -12.5t-12.5 -5.5l-78 -8q-35 -24 -66.5 -56t-55.5 -65.5t-38 -67t-14 -60.5q0 -26 19 -36.5t74 -10.5zM896 608q12 89 7.5 152.5t-32.5 104t-82 59t-140 18.5q-84 0 -144.5 -19.5t-103 -61.5t-70 -107.5t-45.5 -157.5z" />
    <glyph glyph-name="Ecaron" unicode="&#x11a;" horiz-adv-x="1189" 
d="M97 0q-16 0 -13 16l266 1443q3 16 19 16h848q16 0 13 -16l-26 -144q-3 -16 -19 -16h-684l-79 -427h575q16 0 13 -16l-27 -143q-3 -16 -19 -16h-575l-95 -522h683q16 0 13 -16l-27 -143q-3 -16 -19 -16h-847zM545 1807q-12 12 5 12h147q9 0 14.5 -2.5t11.5 -9.5l84 -103
h20l123 105q7 5 13 7.5t15 2.5h174q16 0 3 -10l-252 -195q-8 -5 -14 -7.5t-15 -2.5h-136q-16 0 -27 12z" />
    <glyph glyph-name="ecaron" unicode="&#x11b;" horiz-adv-x="1149" 
d="M481 -24q-130 0 -214.5 30.5t-129.5 94.5t-53 162t15 233l15 88q24 138 67 235t110.5 158t162.5 89t223 28q104 0 178.5 -23.5t122.5 -68.5t71 -111t23 -151q0 -50 -6.5 -93.5t-16 -78t-19.5 -60t-16 -38.5q-4 -8 -8.5 -11t-13.5 -3l-731 -1q-14 -95 -8.5 -158
t35.5 -100.5t86.5 -53.5t143.5 -16q85 0 172 3.5t182 11.5q16 1 15 -15l-8 -111q-1 -9 -4.5 -12.5t-12.5 -5.5q-91 -10 -183 -16t-198 -6zM896 608q12 89 7.5 152.5t-32.5 104t-82 59t-140 18.5q-84 0 -144.5 -19.5t-103 -61.5t-70 -107.5t-45.5 -157.5zM429 1515
q-10 13 7 13h145q16 0 24 -14l81 -143h21l134 145q11 12 27 12h166q15 0 4 -11l-257 -245q-12 -11 -28 -11h-135q-16 0 -25 13z" />
    <glyph glyph-name="Gbreve" unicode="&#x11e;" horiz-adv-x="1290" 
d="M1171 784q16 0 13 -16l-133 -719q-2 -9 -6 -13.5t-12 -7.5q-110 -32 -214.5 -42t-199.5 -10q-149 0 -255.5 35.5t-168 116.5t-75.5 213.5t23 326.5l25 140q37 201 100 334t155 212.5t213.5 112t275.5 32.5q46 0 93 -2.5t90.5 -7.5t82 -12t68.5 -16q16 -4 10 -20l-47 -130
q-5 -15 -21 -12q-69 13 -147 18.5t-154 5.5q-110 0 -197 -24t-153 -82t-112 -155.5t-73 -243.5l-28 -160q-28 -147 -20 -244.5t49 -155.5t115.5 -82t180.5 -24q73 0 132.5 4.5t113.5 12.5l82 445l-273 8q-16 0 -13 16l24 130q3 16 19 16h437zM874 1580q-134 0 -192 58.5
t-47 172.5q1 16 18 16h98q16 0 16 -16q-1 -33 9.5 -55t27.5 -35t39 -18t45 -5q25 0 49 5.5t45 18.5t38 35t28 55q5 15 22 15h107q16 0 12 -16q-17 -61 -39.5 -104.5t-58.5 -71.5t-88.5 -41.5t-128.5 -13.5z" />
    <glyph glyph-name="gbreve" unicode="&#x11f;" horiz-adv-x="1184" 
d="M709 1259q-65 0 -111 18t-73.5 51t-38.5 80t-6 104q0 16 17 16h104q15 0 14 -16q-3 -35 4 -59t21.5 -38.5t35 -20.5t44.5 -6q27 0 51.5 6t46 20.5t39 38.5t29.5 60q5 15 22 15h108q9 0 12 -3.5t2 -12.5q-9 -55 -29.5 -101.5t-58 -80t-94.5 -52.5t-139 -19zM294 -475
q-30 0 -64.5 1.5t-70.5 4t-70.5 6.5t-63.5 9q-16 3 -12 18l33 112q4 16 20 13q26 -5 56.5 -7.5t61.5 -4.5t62 -2.5t58 -0.5q101 0 173 12.5t121.5 47.5t80.5 98t50 164q-20 -3 -46.5 -6t-56.5 -5t-62 -3.5t-63 -1.5q-142 0 -231.5 28.5t-136 89t-53 153.5t18.5 222l24 126
q29 152 70.5 248.5t108 151t164 75t237.5 20.5q46 0 96 -1.5t99.5 -4.5t97 -7t89.5 -8q16 -1 13 -18l-195 -1049q-19 -103 -47.5 -179t-67 -129.5t-88 -87t-110.5 -52.5t-135 -26t-161 -7zM677 941q-99 0 -164.5 -17t-109 -59t-70 -112.5t-47.5 -176.5l-14 -74
q-20 -108 -20 -180t28 -115t89 -61t163 -18q60 0 120.5 3t102.5 8l148 790q-45 5 -102 8.5t-124 3.5z" />
    <glyph glyph-name="Gcommaaccent" unicode="&#x122;" horiz-adv-x="1290" 
d="M1171 784q16 0 13 -16l-133 -719q-2 -9 -6 -13.5t-12 -7.5q-110 -32 -214.5 -42t-199.5 -10q-149 0 -255.5 35.5t-168 116.5t-75.5 213.5t23 326.5l25 140q37 201 100 334t155 212.5t213.5 112t275.5 32.5q46 0 93 -2.5t90.5 -7.5t82 -12t68.5 -16q16 -4 10 -20l-47 -130
q-5 -15 -21 -12q-69 13 -147 18.5t-154 5.5q-110 0 -197 -24t-153 -82t-112 -155.5t-73 -243.5l-28 -160q-28 -147 -20 -244.5t49 -155.5t115.5 -82t180.5 -24q73 0 132.5 4.5t113.5 12.5l82 445l-273 8q-16 0 -13 16l24 130q3 16 19 16h437zM382 -439q-17 0 -9 15l128 276
q7 16 23 17l155 23q16 2 8 -12l-164 -305q-8 -14 -24 -14h-117z" />
    <glyph glyph-name="gcommaaccent" unicode="&#x123;" horiz-adv-x="1184" 
d="M625 1256q-16 -2 -8 12l169 293q8 14 24 14h127q16 0 9 -15l-121 -263q-7 -16 -23 -17zM293 -475q-30 0 -64.5 1.5t-70.5 4t-70.5 6.5t-63.5 9q-16 3 -12 18l33 112q4 16 20 13q26 -5 56.5 -7.5t61.5 -4.5t62 -2.5t58 -0.5q101 0 173 12.5t121.5 47.5t80.5 98t50 164
q-20 -3 -46.5 -6t-56.5 -5t-62 -3.5t-63 -1.5q-142 0 -231.5 28.5t-136 89t-53 153.5t18.5 222l24 126q29 152 70.5 248.5t108 151t164 75t237.5 20.5q46 0 96 -1.5t99.5 -4.5t97 -7t89.5 -8q16 -1 13 -18l-195 -1049q-19 -103 -47.5 -179t-67 -129.5t-88 -87t-110.5 -52.5
t-135 -26t-161 -7zM676 941q-99 0 -164.5 -17t-109 -59t-70 -112.5t-47.5 -176.5l-14 -74q-20 -108 -20 -180t28 -115t89 -61t163 -18q60 0 120.5 3t102.5 8l148 790q-45 5 -102 8.5t-124 3.5z" />
    <glyph glyph-name="Imacron" unicode="&#x12a;" horiz-adv-x="574" 
d="M260 1646q-16 0 -13 16l19 101q3 16 19 16h408q16 0 13 -16l-20 -101q-3 -16 -19 -16h-407zM97 0q-16 0 -13 16l266 1443q3 16 19 16h147q16 0 13 -16l-266 -1443q-3 -16 -19 -16h-147z" />
    <glyph glyph-name="imacron" unicode="&#x12b;" horiz-adv-x="510" 
d="M183 1293q-16 0 -13 16l19 102q3 16 19 16h386q16 0 13 -16l-20 -102q-3 -16 -19 -16h-385zM71 0q-16 0 -13 16l192 1039q3 16 19 16h140q16 0 13 -16l-193 -1039q-3 -16 -19 -16h-139z" />
    <glyph glyph-name="Ibreve" unicode="&#x12c;" horiz-adv-x="575" 
d="M98 0q-16 0 -13 16l266 1443q3 16 19 16h147q16 0 13 -16l-266 -1443q-3 -16 -19 -16h-147zM464 1580q-134 0 -192 58.5t-47 172.5q1 16 18 16h98q16 0 16 -16q-1 -33 9.5 -55t27.5 -35t39 -18t45 -5q25 0 49 5.5t45 18.5t38 35t28 55q5 15 22 15h107q16 0 12 -16
q-17 -61 -39.5 -104.5t-58.5 -71.5t-88.5 -41.5t-128.5 -13.5z" />
    <glyph glyph-name="ibreve" unicode="&#x12d;" horiz-adv-x="510" 
d="M71 0q-16 0 -13 16l192 1039q3 16 19 16h140q16 0 13 -16l-193 -1039q-3 -16 -19 -16h-139zM367 1259q-65 0 -111 18t-73.5 51t-38.5 80t-6 104q0 16 17 16h104q15 0 14 -16q-3 -35 4 -59t21.5 -38.5t35 -20.5t44.5 -6q27 0 51.5 6t46 20.5t39 38.5t29.5 60q5 15 22 15
h108q9 0 12 -3.5t2 -12.5q-9 -55 -29.5 -101.5t-58 -80t-94.5 -52.5t-139 -19z" />
    <glyph glyph-name="Iogonek" unicode="&#x12e;" horiz-adv-x="575" 
d="M265 20q-2 -11 -7.5 -15t-20.5 -12q-41 -20 -78 -49.5t-64.5 -63t-44 -69t-16.5 -68.5q0 -27 19.5 -38t72.5 -11q21 0 47 1t51 5q16 1 15 -14l-6 -69q-1 -9 -4.5 -13t-11.5 -6q-23 -5 -57.5 -8.5t-81.5 -3.5q-101 0 -143 31t-42 93q0 44 15.5 85.5t41.5 79t61 71t74 61.5
q-1 4 0 9l266 1443q3 16 19 16h147q16 0 13 -16l-265 -1439v0z" />
    <glyph glyph-name="iogonek" unicode="&#x12f;" horiz-adv-x="511" 
d="M108 -306q20 0 44.5 1t47.5 5q16 1 15 -14l-7 -69q-1 -16 -16 -19q-23 -5 -56.5 -8.5t-75.5 -3.5q-107 0 -152 31t-45 93q0 46 17.5 92t45.5 88t63.5 78t71.5 62l190 1025q3 16 19 16h140q16 0 13 -16l-193 -1039q-2 -8 -4 -13t-13 -10q-41 -19 -77.5 -48.5t-65 -63
t-45 -69.5t-16.5 -69q0 -27 20.5 -38t78.5 -11zM298 1243q-16 0 -13 16l49 265q3 17 19 18l153 25q16 1 13 -14l-55 -294q-3 -16 -19 -16h-147z" />
    <glyph glyph-name="Idotaccent" unicode="&#x130;" horiz-adv-x="574" 
d="M97 0q-16 0 -13 16l266 1443q3 16 19 16h147q16 0 13 -16l-266 -1443q-3 -16 -19 -16h-147zM394 1604q-16 0 -13 16l36 199q3 17 19 18l153 25q16 1 13 -14l-42 -228q-3 -16 -19 -16h-147z" />
    <glyph glyph-name="dotlessi" unicode="&#x131;" horiz-adv-x="509" 
d="M70 0q-16 0 -13 16l192 1039q3 16 19 16h140q16 0 13 -16l-193 -1039q-3 -16 -19 -16h-139z" />
    <glyph glyph-name="IJ" unicode="&#x132;" horiz-adv-x="1134" 
d="M97 0q-16 0 -13 16l266 1443q3 16 19 16h147q16 0 13 -16l-266 -1443q-3 -16 -19 -16h-147zM475 -307q-31 0 -66 4t-62 10q-16 4 -11 19l46 131q4 16 21 12q21 -4 41 -4.5t39 -0.5q31 0 57 5t46 20.5t34.5 45t23.5 78.5l267 1446q3 16 19 16h147q16 0 13 -16l-269 -1459
q-15 -81 -42 -139t-68.5 -95.5t-99.5 -55t-136 -17.5z" />
    <glyph glyph-name="ij" unicode="&#x133;" horiz-adv-x="1015" 
d="M70 0q-16 0 -13 16l192 1039q3 16 19 16h140q16 0 13 -16l-193 -1039q-3 -16 -19 -16h-139zM296 1243q-16 0 -13 16l49 265q3 17 19 18l153 25q16 1 13 -14l-55 -294q-3 -16 -19 -16h-147zM316 -475q-36 0 -77.5 3.5t-73.5 10.5q-16 4 -11 19l41 116q5 15 21 12
q25 -5 55 -7.5t57 -2.5q52 0 87 8t58.5 29.5t37 58.5t24.5 94l220 1189q3 16 19 16h140q16 0 13 -16l-219 -1189q-19 -100 -48.5 -166t-75 -105t-111 -54.5t-157.5 -15.5zM803 1243q-16 0 -13 16l48 265q3 17 19 18l153 25q16 1 13 -14l-54 -294q-3 -16 -19 -16h-147z" />
    <glyph glyph-name="Kcommaaccent" unicode="&#x136;" horiz-adv-x="1219" 
d="M882 0q-16 0 -24 14l-373 681l-122 -108l-105 -571q-3 -16 -19 -16h-147q-16 0 -13 16l266 1443q3 16 19 16h146q16 0 13 -16l-112 -607l686 612q12 11 28 11h231q15 0 4 -11l-729 -641l462 -809q8 -14 -8 -14h-203zM295 -439q-17 0 -9 15l128 276q7 16 23 17l155 23
q16 2 8 -12l-164 -305q-8 -14 -24 -14h-117z" />
    <glyph glyph-name="kcommaaccent" unicode="&#x137;" horiz-adv-x="1102" 
d="M762 0q-9 0 -14 3t-9 11l-274 564l-153 -109l-84 -453q-3 -16 -19 -16h-140q-16 0 -13 16l291 1570q3 17 19 18l145 24q16 1 13 -14l-173 -931l521 379q13 9 29 9h237q7 0 7.5 -2.5t-4.5 -6.5l-536 -383l349 -665q8 -14 -9 -14h-183zM218 -439q-17 0 -9 15l128 276
q7 16 23 17l155 23q16 2 8 -12l-164 -305q-8 -14 -24 -14h-117z" />
    <glyph glyph-name="Lacute" unicode="&#x139;" horiz-adv-x="1029" 
d="M97 0q-16 0 -13 16l266 1443q3 16 19 16h147q16 0 13 -16l-236 -1289h617q16 0 13 -16l-26 -138q-3 -16 -19 -16h-781zM405 1604q-16 0 -4 10l232 195q7 5 13 7.5t15 2.5h205q7 0 7.5 -2.5t-4.5 -6.5l-270 -197q-7 -5 -13.5 -7t-15.5 -2h-165z" />
    <glyph glyph-name="lacute" unicode="&#x13a;" horiz-adv-x="522" 
d="M76 0q-16 0 -13 16l291 1570q3 17 19 18l145 24q16 1 13 -14l-296 -1598q-3 -16 -19 -16h-140zM255 1686q-16 0 -4 10l232 195q7 5 13 7.5t15 2.5h205q7 0 7.5 -2.5t-4.5 -6.5l-270 -197q-7 -5 -13.5 -7t-15.5 -2h-165z" />
    <glyph glyph-name="Lcommaaccent" unicode="&#x13b;" horiz-adv-x="1029" 
d="M97 0q-16 0 -13 16l266 1443q3 16 19 16h147q16 0 13 -16l-236 -1289h617q16 0 13 -16l-26 -138q-3 -16 -19 -16h-781zM257 -439q-17 0 -9 15l128 276q7 16 23 17l155 23q16 2 8 -12l-164 -305q-8 -14 -24 -14h-117z" />
    <glyph glyph-name="lcommaaccent" unicode="&#x13c;" horiz-adv-x="522" 
d="M76 0q-16 0 -13 16l291 1570q3 17 19 18l145 24q16 1 13 -14l-296 -1598q-3 -16 -19 -16h-140zM-92 -439q-17 0 -9 15l128 276q7 16 23 17l155 23q16 2 8 -12l-164 -305q-8 -14 -24 -14h-117z" />
    <glyph glyph-name="Lcaron" unicode="&#x13d;" horiz-adv-x="1032" 
d="M624 1114q-16 0 -13 16l71 375q3 16 19 19l143 22q16 3 12 -12l-105 -405q-4 -15 -20 -15h-107zM97 0q-16 0 -13 16l266 1443q3 16 19 16h147q16 0 13 -16l-236 -1289h617q16 0 13 -16l-26 -138q-3 -16 -19 -16h-781z" />
    <glyph glyph-name="lcaron" unicode="&#x13e;" horiz-adv-x="522" 
d="M76 0q-16 0 -13 16l291 1570q3 17 19 18l145 24q16 1 13 -14l-296 -1598q-3 -16 -19 -16h-140zM579 1194q-16 0 -13 16l70 376q3 17 19 18l143 23q16 1 12 -13l-104 -405q-4 -15 -20 -15h-107z" />
    <glyph glyph-name="Lslash" unicode="&#x141;" horiz-adv-x="1047" 
d="M115 0q-16 0 -13 16l98 535l-176 -103q-14 -8 -11 8l29 163q3 16 17 24l177 104l132 712q3 16 19 16h147q16 0 13 -16l-109 -594l392 229q14 8 11 -8l-29 -162q-3 -16 -17 -24l-393 -230l-91 -500h617q16 0 13 -16l-26 -138q-3 -16 -19 -16h-781z" />
    <glyph glyph-name="lslash" unicode="&#x142;" horiz-adv-x="544" 
d="M92 0q-16 0 -13 16l110 594l-172 -137q-5 -5 -10 -2t-3 10l30 170q3 16 15 26l179 143l142 766q3 17 19 18l145 24q16 1 13 -14l-117 -633l177 142q5 5 9.5 3t2.5 -9l-32 -175q-3 -16 -15 -26l-181 -145l-140 -755q-3 -16 -19 -16h-140z" />
    <glyph glyph-name="Nacute" unicode="&#x143;" horiz-adv-x="1453" 
d="M97 0q-16 0 -13 16l266 1443q3 16 19 16h158q9 0 13.5 -3.5t8.5 -11.5l414 -1039q20 -51 30.5 -81.5t12.5 -30.5l213 1150q3 16 19 16h148q16 0 13 -16l-267 -1443q-3 -16 -19 -16h-169q-9 0 -13.5 3.5t-8.5 11.5l-401 1032q-20 51 -31 84.5t-12 33.5l-215 -1149
q-3 -16 -19 -16h-147zM782 1604q-16 0 -4 10l232 195q7 5 13 7.5t15 2.5h205q7 0 7.5 -2.5t-4.5 -6.5l-270 -197q-7 -5 -13.5 -7t-15.5 -2h-165z" />
    <glyph glyph-name="nacute" unicode="&#x144;" horiz-adv-x="1210" 
d="M67 0q-16 0 -13 16l197 1058q3 16 19 16h106q9 0 12.5 -3.5t5.5 -12.5l8 -75q43 23 91.5 40.5t98 29.5t97.5 18.5t91 6.5q103 0 167.5 -27.5t96.5 -84.5t34 -143.5t-20 -204.5l-114 -618q-3 -16 -19 -16h-140q-16 0 -13 16l110 593q16 91 18 152.5t-18.5 98t-65.5 52
t-121 15.5q-36 0 -75.5 -4.5t-80.5 -13.5t-81 -22.5t-76 -31.5l-156 -839q-3 -16 -19 -16h-140zM609 1264q-17 0 -5 12l230 240q11 12 27 12h206q16 0 4 -10l-282 -244q-7 -5 -13 -7.5t-15 -2.5h-152z" />
    <glyph glyph-name="Ncommaaccent" unicode="&#x145;" horiz-adv-x="1453" 
d="M97 0q-16 0 -13 16l266 1443q3 16 19 16h158q9 0 13.5 -3.5t8.5 -11.5l414 -1039q20 -51 30.5 -81.5t12.5 -30.5l213 1150q3 16 19 16h148q16 0 13 -16l-267 -1443q-3 -16 -19 -16h-169q-9 0 -13.5 3.5t-8.5 11.5l-401 1032q-20 51 -31 84.5t-12 33.5l-215 -1149
q-3 -16 -19 -16h-147zM392 -439q-17 0 -9 15l128 276q7 16 23 17l155 23q16 2 8 -12l-164 -305q-8 -14 -24 -14h-117z" />
    <glyph glyph-name="ncommaaccent" unicode="&#x146;" horiz-adv-x="1211" 
d="M67 0q-16 0 -13 16l197 1058q3 16 19 16h106q9 0 12.5 -3.5t5.5 -12.5l8 -75q43 23 91.5 40.5t98 29.5t97.5 18.5t91 6.5q103 0 167.5 -27.5t96.5 -84.5t34 -143.5t-20 -204.5l-114 -618q-3 -16 -19 -16h-140q-16 0 -13 16l110 593q16 91 18 152.5t-18.5 98t-65.5 52
t-121 15.5q-36 0 -75.5 -4.5t-80.5 -13.5t-81 -22.5t-76 -31.5l-156 -839q-3 -16 -19 -16h-140zM266 -439q-17 0 -9 15l128 276q7 16 23 17l155 23q16 2 8 -12l-164 -305q-8 -14 -24 -14h-117z" />
    <glyph glyph-name="Ncaron" unicode="&#x147;" horiz-adv-x="1453" 
d="M97 0q-16 0 -13 16l266 1443q3 16 19 16h158q9 0 13.5 -3.5t8.5 -11.5l414 -1039q20 -51 30.5 -81.5t12.5 -30.5l213 1150q3 16 19 16h148q16 0 13 -16l-267 -1443q-3 -16 -19 -16h-169q-9 0 -13.5 3.5t-8.5 11.5l-401 1032q-20 51 -31 84.5t-12 33.5l-215 -1149
q-3 -16 -19 -16h-147zM649 1807q-12 12 5 12h147q9 0 14.5 -2.5t11.5 -9.5l84 -103h20l123 105q7 5 13 7.5t15 2.5h174q16 0 3 -10l-252 -195q-8 -5 -14 -7.5t-15 -2.5h-136q-16 0 -27 12z" />
    <glyph glyph-name="ncaron" unicode="&#x148;" horiz-adv-x="1210" 
d="M67 0q-16 0 -13 16l197 1058q3 16 19 16h106q9 0 12.5 -3.5t5.5 -12.5l8 -75q43 23 91.5 40.5t98 29.5t97.5 18.5t91 6.5q103 0 167.5 -27.5t96.5 -84.5t34 -143.5t-20 -204.5l-114 -618q-3 -16 -19 -16h-140q-16 0 -13 16l110 593q16 91 18 152.5t-18.5 98t-65.5 52
t-121 15.5q-36 0 -75.5 -4.5t-80.5 -13.5t-81 -22.5t-76 -31.5l-156 -839q-3 -16 -19 -16h-140zM459 1515q-10 13 7 13h145q16 0 24 -14l81 -143h21l134 145q11 12 27 12h166q15 0 4 -11l-257 -245q-12 -11 -28 -11h-135q-16 0 -25 13z" />
    <glyph glyph-name="Omacron" unicode="&#x14c;" horiz-adv-x="1433" 
d="M596 -24q-139 0 -239 38t-158.5 120.5t-72.5 214t19 319.5l25 140q37 208 99 342t150 211.5t202.5 107.5t256.5 30q139 0 238.5 -37.5t157 -120t71.5 -214t-18 -320.5l-24 -140q-36 -207 -97.5 -340.5t-149.5 -211.5t-203 -108.5t-257 -30.5zM844 1318
q-96 0 -174.5 -23.5t-140 -81t-105.5 -154t-71 -241.5l-28 -160q-27 -147 -20 -243.5t46 -154t108.5 -81t168.5 -23.5q95 0 174 24.5t140.5 82.5t105.5 154.5t70 241.5l30 158q27 145 20 241.5t-46 154.5t-109 81.5t-169 23.5zM659 1633q-16 0 -13 16l19 102q3 16 19 16h490
q16 0 13 -16l-18 -102q-3 -16 -19 -16h-491z" />
    <glyph glyph-name="omacron" unicode="&#x14d;" horiz-adv-x="1179" 
d="M649 942q-87 0 -148.5 -20.5t-104 -65t-69.5 -115t-46 -170.5l-13 -73q-18 -99 -17 -169.5t26.5 -115.5t79 -65.5t140.5 -20.5t148.5 20.5t104 65.5t70 115.5t46.5 171.5l13 71q18 99 17.5 169.5t-26.5 115.5t-79.5 65.5t-141.5 20.5zM470 -24q-126 0 -209 32
t-127.5 96.5t-52.5 160t16 223.5l17 91q27 142 71 240.5t111.5 159.5t161 88t219.5 27q127 0 210.5 -31.5t128 -95t52 -160.5t-17.5 -228l-16 -91q-25 -143 -69 -240.5t-112 -158t-162.5 -87t-220.5 -26.5zM454 1317q-16 0 -13 16l20 107q3 16 19 16h491q16 0 13 -16
l-20 -107q-3 -16 -19 -16h-491z" />
    <glyph glyph-name="Ohungarumlaut" unicode="&#x150;" horiz-adv-x="1433" 
d="M596 -24q-139 0 -239 38t-158.5 120.5t-72.5 214t19 319.5l25 140q37 208 99 342t150 211.5t202.5 107.5t256.5 30q139 0 238.5 -37.5t157 -120t71.5 -214t-18 -320.5l-24 -140q-36 -207 -97.5 -340.5t-149.5 -211.5t-203 -108.5t-257 -30.5zM844 1318
q-96 0 -174.5 -23.5t-140 -81t-105.5 -154t-71 -241.5l-28 -160q-27 -147 -20 -243.5t46 -154t108.5 -81t168.5 -23.5q95 0 174 24.5t140.5 82.5t105.5 154.5t70 241.5l30 158q27 145 20 241.5t-46 154.5t-109 81.5t-169 23.5zM602 1604q-17 0 -5 12l176 191q11 12 27 12
h181q16 0 4 -10l-227 -195q-7 -5 -13 -7.5t-15 -2.5h-128zM937 1604q-17 0 -5 12l176 191q11 12 27 12h181q16 0 4 -10l-227 -195q-7 -5 -13 -7.5t-15 -2.5h-128z" />
    <glyph glyph-name="ohungarumlaut" unicode="&#x151;" horiz-adv-x="1179" 
d="M649 942q-87 0 -148.5 -20.5t-104 -65t-69.5 -115t-46 -170.5l-13 -73q-18 -99 -17 -169.5t26.5 -115.5t79 -65.5t140.5 -20.5t148.5 20.5t104 65.5t70 115.5t46.5 171.5l13 71q18 99 17.5 169.5t-26.5 115.5t-79.5 65.5t-141.5 20.5zM470 -24q-126 0 -209 32
t-127.5 96.5t-52.5 160t16 223.5l17 91q27 142 71 240.5t111.5 159.5t161 88t219.5 27q127 0 210.5 -31.5t128 -95t52 -160.5t-17.5 -228l-16 -91q-25 -143 -69 -240.5t-112 -158t-162.5 -87t-220.5 -26.5zM776 1260q-16 0 -8 14l141 240q8 14 24 14h165q16 0 6 -13
l-186 -242q-10 -13 -26 -13h-116zM476 1260q-16 0 -8 14l141 240q8 14 24 14h165q16 0 6 -13l-186 -242q-10 -13 -26 -13h-116z" />
    <glyph glyph-name="OE" unicode="&#x152;" horiz-adv-x="2077" 
d="M596 -24q-139 0 -239 38t-158.5 120.5t-72.5 214t19 319.5l25 140q37 208 99 342t150 211.5t202.5 107.5t256.5 30q112 0 199 -24h1028q16 0 13 -16l-25 -139q-3 -16 -19 -16h-778q39 -75 49.5 -181.5t-8.5 -250.5h548q16 0 13 -16l-26 -138q-3 -16 -19 -16h-544l-6 -35
q-30 -175 -78 -296t-116 -201h755q16 0 13 -16l-26 -138q-3 -16 -19 -16h-1005q-53 -13 -110.5 -18.5t-120.5 -5.5zM844 1318q-96 0 -174.5 -23.5t-140 -81t-105.5 -154t-71 -241.5l-28 -160q-27 -147 -20 -243.5t46 -154t108.5 -81t168.5 -23.5q95 0 174 24.5t140.5 82.5
t105.5 154.5t70 241.5l30 158q27 145 20 241.5t-46 154.5t-109 81.5t-169 23.5z" />
    <glyph glyph-name="oe" unicode="&#x153;" horiz-adv-x="1917" 
d="M1248 -24q-143 0 -230 36.5t-129 113.5q-70 -81 -172 -115.5t-247 -34.5q-126 0 -209 32t-127.5 96.5t-52.5 160t16 223.5l17 91q27 142 71 240.5t111.5 159.5t161 88t219.5 27q137 0 223 -36.5t128 -111.5q69 78 171 113t245 35q104 0 178.5 -23.5t122.5 -68.5t71 -111
t23 -151q0 -50 -6.5 -93.5t-16 -78t-19.5 -60t-16 -38.5q-4 -8 -8.5 -11t-13.5 -3l-731 -1q-14 -95 -8.5 -158t35.5 -100.5t86.5 -53.5t143.5 -16q85 0 172 3.5t182 11.5q16 1 15 -15l-8 -111q-1 -9 -4.5 -12.5t-12.5 -5.5q-91 -10 -183 -16t-198 -6zM649 942
q-87 0 -148.5 -20.5t-104 -65t-69.5 -115t-46 -170.5l-13 -73q-18 -99 -17 -169.5t26.5 -115.5t79 -65.5t140.5 -20.5t148.5 20.5t104 65.5t70 115.5t46.5 171.5l10 54l5 30l3 18q15 91 11.5 155.5t-30 105.5t-79.5 60t-137 19zM1663 608q12 89 7.5 152.5t-32.5 104t-82 59
t-140 18.5q-84 0 -144.5 -19.5t-103 -61.5t-70 -107.5t-45.5 -157.5z" />
    <glyph glyph-name="Racute" unicode="&#x154;" horiz-adv-x="1360" 
d="M960 0q-9 0 -13.5 3.5t-8.5 11.5l-208 536q-32 -1 -64 -1h-67q-57 0 -111.5 1t-123.5 6l-100 -541q-3 -16 -19 -16h-148q-16 0 -13 16l267 1443q3 16 19 17q104 8 200 9.5t190 1.5q174 0 290 -18.5t181.5 -65.5t83.5 -128t-4 -206l-18 -103q-19 -108 -51.5 -180.5
t-80.5 -118.5t-110.5 -70.5t-141.5 -34.5q7 -14 13.5 -28.5t14.5 -31.5l207 -487q6 -15 -10 -15h-174zM739 1324q-29 0 -62.5 -0.5t-65.5 -1t-60.5 -2t-46.5 -4.5l-109 -595q27 -3 58 -4.5t62.5 -2t60.5 -1t52 -0.5q82 0 146.5 3t115 13t88 28.5t64.5 49.5t45 76t30 108
l11 61q18 96 4.5 150.5t-61 81.5t-130 33.5t-202.5 6.5zM688 1604q-16 0 -4 10l232 195q7 5 13 7.5t15 2.5h205q7 0 7.5 -2.5t-4.5 -6.5l-270 -197q-7 -5 -13.5 -7t-15.5 -2h-165z" />
    <glyph glyph-name="racute" unicode="&#x155;" horiz-adv-x="742" 
d="M67 0q-16 0 -13 16l197 1058q3 16 19 16h106q9 0 12.5 -3.5t5.5 -12.5l7 -64q34 22 73.5 38t81 26t82.5 15t78 5q17 0 32 -1t26 -3q16 -3 12 -18l-37 -142q-4 -16 -20 -15q-13 2 -25.5 2.5t-29.5 0.5q-77 0 -147 -12.5t-145 -48.5l-156 -841q-3 -16 -19 -16h-140z
M418 1264q-17 0 -5 12l230 240q11 12 27 12h206q16 0 4 -10l-282 -244q-7 -5 -13 -7.5t-15 -2.5h-152z" />
    <glyph glyph-name="Rcommaaccent" unicode="&#x156;" horiz-adv-x="1357" 
d="M960 0q-9 0 -13.5 3.5t-8.5 11.5l-208 536q-32 -1 -64 -1h-67q-57 0 -111.5 1t-123.5 6l-100 -541q-3 -16 -19 -16h-148q-16 0 -13 16l267 1443q3 16 19 17q104 8 200 9.5t190 1.5q174 0 290 -18.5t181.5 -65.5t83.5 -128t-4 -206l-18 -103q-19 -108 -51.5 -180.5
t-80.5 -118.5t-110.5 -70.5t-141.5 -34.5q7 -14 13.5 -28.5t14.5 -31.5l207 -487q6 -15 -10 -15h-174zM739 1324q-29 0 -62.5 -0.5t-65.5 -1t-60.5 -2t-46.5 -4.5l-109 -595q27 -3 58 -4.5t62.5 -2t60.5 -1t52 -0.5q82 0 146.5 3t115 13t88 28.5t64.5 49.5t45 76t30 108
l11 61q18 96 4.5 150.5t-61 81.5t-130 33.5t-202.5 6.5zM348 -439q-17 0 -9 15l128 276q7 16 23 17l155 23q16 2 8 -12l-164 -305q-8 -14 -24 -14h-117z" />
    <glyph glyph-name="rcommaaccent" unicode="&#x157;" horiz-adv-x="742" 
d="M67 0q-16 0 -13 16l197 1058q3 16 19 16h106q9 0 12.5 -3.5t5.5 -12.5l7 -64q34 22 73.5 38t81 26t82.5 15t78 5q17 0 32 -1t26 -3q16 -3 12 -18l-37 -142q-4 -16 -20 -15q-13 2 -25.5 2.5t-29.5 0.5q-77 0 -147 -12.5t-145 -48.5l-156 -841q-3 -16 -19 -16h-140z
M-104 -439q-17 0 -9 15l128 276q7 16 23 17l155 23q16 2 8 -12l-164 -305q-8 -14 -24 -14h-117z" />
    <glyph glyph-name="Rcaron" unicode="&#x158;" horiz-adv-x="1360" 
d="M960 0q-9 0 -13.5 3.5t-8.5 11.5l-208 536q-32 -1 -64 -1h-67q-57 0 -111.5 1t-123.5 6l-100 -541q-3 -16 -19 -16h-148q-16 0 -13 16l267 1443q3 16 19 17q104 8 200 9.5t190 1.5q174 0 290 -18.5t181.5 -65.5t83.5 -128t-4 -206l-18 -103q-19 -108 -51.5 -180.5
t-80.5 -118.5t-110.5 -70.5t-141.5 -34.5q7 -14 13.5 -28.5t14.5 -31.5l207 -487q6 -15 -10 -15h-174zM739 1324q-29 0 -62.5 -0.5t-65.5 -1t-60.5 -2t-46.5 -4.5l-109 -595q27 -3 58 -4.5t62.5 -2t60.5 -1t52 -0.5q82 0 146.5 3t115 13t88 28.5t64.5 49.5t45 76t30 108
l11 61q18 96 4.5 150.5t-61 81.5t-130 33.5t-202.5 6.5zM580 1807q-12 12 5 12h147q9 0 14.5 -2.5t11.5 -9.5l84 -103h20l123 105q7 5 13 7.5t15 2.5h174q16 0 3 -10l-252 -195q-8 -5 -14 -7.5t-15 -2.5h-136q-16 0 -27 12z" />
    <glyph glyph-name="rcaron" unicode="&#x159;" horiz-adv-x="743" 
d="M67 0q-16 0 -13 16l197 1058q3 16 19 16h106q9 0 12.5 -3.5t5.5 -12.5l7 -64q34 22 73.5 38t81 26t82.5 15t78 5q17 0 32 -1t26 -3q16 -3 12 -18l-37 -142q-4 -16 -20 -15q-13 2 -25.5 2.5t-29.5 0.5q-77 0 -147 -12.5t-145 -48.5l-156 -841q-3 -16 -19 -16h-140z
M276 1515q-10 13 7 13h145q16 0 24 -14l81 -143h21l134 145q11 12 27 12h166q15 0 4 -11l-257 -245q-12 -11 -28 -11h-135q-16 0 -25 13z" />
    <glyph glyph-name="Sacute" unicode="&#x15a;" horiz-adv-x="1188" 
d="M397 -24q-103 0 -200.5 9.5t-166.5 26.5q-16 4 -10 19l53 130q5 15 22 12q48 -8 90 -13t81 -8t77 -4.5t78 -1.5q133 0 219 16.5t136.5 52t70.5 91.5t20 135q0 39 -14 67.5t-45.5 54t-83 51t-126.5 58.5l-132 61q-72 33 -124 68t-85.5 75t-49 86.5t-15.5 102.5
q0 115 31.5 197t105.5 134.5t197.5 77.5t306.5 25q92 0 178.5 -8t151.5 -25q14 -4 9 -19l-49 -126q-5 -15 -22 -12q-32 5 -69 9t-75 6.5t-74.5 3.5t-66.5 1q-129 0 -213.5 -12.5t-134 -40.5t-69 -74.5t-19.5 -113.5q0 -43 15.5 -73.5t47.5 -55t80 -47.5t113 -50l154 -67
q76 -32 127.5 -66.5t82.5 -73t44 -82.5t13 -96q0 -141 -35 -237t-113 -154.5t-204 -84t-308 -25.5zM666 1604q-16 0 -4 10l232 195q7 5 13 7.5t15 2.5h205q7 0 7.5 -2.5t-4.5 -6.5l-270 -197q-7 -5 -13.5 -7t-15.5 -2h-165z" />
    <glyph glyph-name="sacute" unicode="&#x15b;" horiz-adv-x="990" 
d="M328 -24q-27 0 -66 1.5t-81.5 5t-85 9t-77.5 14.5q-16 4 -11 19l34 117q5 15 21 12q79 -15 146 -20t138 -5q102 0 165 9t97.5 30.5t46 56t11.5 85.5q0 24 -8 42.5t-27.5 34.5t-52 32t-80.5 35l-171 65q-49 19 -85.5 40t-61 47.5t-36.5 60.5t-12 79q0 100 27.5 166.5
t86.5 107t153 57.5t228 17q81 0 154 -7t128 -15q17 -1 11 -17l-36 -117q-5 -14 -21 -13q-54 7 -115.5 11t-131.5 4q-83 0 -141.5 -6t-95.5 -24t-54.5 -50t-17.5 -83q0 -21 7 -37.5t25.5 -32t50 -30.5t80.5 -33l146 -54q60 -22 103 -44t71 -49.5t41.5 -62.5t13.5 -83
q0 -110 -28.5 -182t-90.5 -115t-160.5 -60.5t-237.5 -17.5zM477 1264q-17 0 -5 12l230 240q11 12 27 12h206q16 0 4 -10l-282 -244q-7 -5 -13 -7.5t-15 -2.5h-152z" />
    <glyph glyph-name="uni015E" unicode="&#x15e;" horiz-adv-x="1188" 
d="M397 -24q-103 0 -200.5 9.5t-166.5 26.5q-16 4 -10 19l53 130q5 15 22 12q48 -8 90 -13t81 -8t77 -4.5t78 -1.5q133 0 219 16.5t136.5 52t70.5 91.5t20 135q0 39 -14 67.5t-45.5 54t-83 51t-126.5 58.5l-132 61q-72 33 -124 68t-85.5 75t-49 86.5t-15.5 102.5
q0 115 31.5 197t105.5 134.5t197.5 77.5t306.5 25q92 0 178.5 -8t151.5 -25q14 -4 9 -19l-49 -126q-5 -15 -22 -12q-32 5 -69 9t-75 6.5t-74.5 3.5t-66.5 1q-129 0 -213.5 -12.5t-134 -40.5t-69 -74.5t-19.5 -113.5q0 -43 15.5 -73.5t47.5 -55t80 -47.5t113 -50l154 -67
q76 -32 127.5 -66.5t82.5 -73t44 -82.5t13 -96q0 -141 -35 -237t-113 -154.5t-204 -84t-308 -25.5zM252 -389q-17 0 -7 13l193 261q9 13 25 13h141q17 0 7 -13l-174 -261q-9 -13 -25 -13h-160z" />
    <glyph glyph-name="uni015F" unicode="&#x15f;" horiz-adv-x="990" 
d="M328 -24q-27 0 -66 1.5t-81.5 5t-85 9t-77.5 14.5q-16 4 -11 19l34 117q5 15 21 12q79 -15 146 -20t138 -5q102 0 165 9t97.5 30.5t46 56t11.5 85.5q0 24 -8 42.5t-27.5 34.5t-52 32t-80.5 35l-171 65q-49 19 -85.5 40t-61 47.5t-36.5 60.5t-12 79q0 100 27.5 166.5
t86.5 107t153 57.5t228 17q81 0 154 -7t128 -15q17 -1 11 -17l-36 -117q-5 -14 -21 -13q-54 7 -115.5 11t-131.5 4q-83 0 -141.5 -6t-95.5 -24t-54.5 -50t-17.5 -83q0 -21 7 -37.5t25.5 -32t50 -30.5t80.5 -33l146 -54q60 -22 103 -44t71 -49.5t41.5 -62.5t13.5 -83
q0 -110 -28.5 -182t-90.5 -115t-160.5 -60.5t-237.5 -17.5zM117 -389q-17 0 -7 13l193 261q9 13 25 13h141q17 0 7 -13l-174 -261q-9 -13 -25 -13h-160z" />
    <glyph glyph-name="Scaron" unicode="&#x160;" horiz-adv-x="1188" 
d="M397 -24q-103 0 -200.5 9.5t-166.5 26.5q-16 4 -10 19l53 130q5 15 22 12q48 -8 90 -13t81 -8t77 -4.5t78 -1.5q133 0 219 16.5t136.5 52t70.5 91.5t20 135q0 39 -14 67.5t-45.5 54t-83 51t-126.5 58.5l-132 61q-72 33 -124 68t-85.5 75t-49 86.5t-15.5 102.5
q0 115 31.5 197t105.5 134.5t197.5 77.5t306.5 25q92 0 178.5 -8t151.5 -25q14 -4 9 -19l-49 -126q-5 -15 -22 -12q-32 5 -69 9t-75 6.5t-74.5 3.5t-66.5 1q-129 0 -213.5 -12.5t-134 -40.5t-69 -74.5t-19.5 -113.5q0 -43 15.5 -73.5t47.5 -55t80 -47.5t113 -50l154 -67
q76 -32 127.5 -66.5t82.5 -73t44 -82.5t13 -96q0 -141 -35 -237t-113 -154.5t-204 -84t-308 -25.5zM524 1807q-12 12 5 12h147q9 0 14.5 -2.5t11.5 -9.5l84 -103h20l123 105q7 5 13 7.5t15 2.5h174q16 0 3 -10l-252 -195q-8 -5 -14 -7.5t-15 -2.5h-136q-16 0 -27 12z" />
    <glyph glyph-name="scaron" unicode="&#x161;" horiz-adv-x="990" 
d="M328 -24q-27 0 -66 1.5t-81.5 5t-85 9t-77.5 14.5q-16 4 -11 19l34 117q5 15 21 12q79 -15 146 -20t138 -5q102 0 165 9t97.5 30.5t46 56t11.5 85.5q0 24 -8 42.5t-27.5 34.5t-52 32t-80.5 35l-171 65q-49 19 -85.5 40t-61 47.5t-36.5 60.5t-12 79q0 100 27.5 166.5
t86.5 107t153 57.5t228 17q81 0 154 -7t128 -15q17 -1 11 -17l-36 -117q-5 -14 -21 -13q-54 7 -115.5 11t-131.5 4q-83 0 -141.5 -6t-95.5 -24t-54.5 -50t-17.5 -83q0 -21 7 -37.5t25.5 -32t50 -30.5t80.5 -33l146 -54q60 -22 103 -44t71 -49.5t41.5 -62.5t13.5 -83
q0 -110 -28.5 -182t-90.5 -115t-160.5 -60.5t-237.5 -17.5zM331 1515q-10 13 7 13h145q16 0 24 -14l81 -143h21l134 145q11 12 27 12h166q15 0 4 -11l-257 -245q-12 -11 -28 -11h-135q-16 0 -25 13z" />
    <glyph glyph-name="uni0162" unicode="&#x162;" horiz-adv-x="1174" 
d="M390 0q-16 0 -13 16l238 1283h-454q-16 0 -13 16l27 144q3 16 19 16h1088q16 0 13 -16l-27 -144q-3 -16 -19 -16h-454l-238 -1283q-3 -16 -19 -16h-148zM238 -439q-17 0 -9 15l128 276q7 16 23 17l155 23q16 2 8 -12l-164 -305q-8 -14 -24 -14h-117z" />
    <glyph glyph-name="uni0163" unicode="&#x163;" horiz-adv-x="772" 
d="M365 -24q-64 0 -109 11t-70 43t-29.5 90.5t12.5 153.5l119 643l-190 17q-16 1 -13 17l18 104q3 16 19 16h194l37 196q3 16 19 19l146 23q16 3 13 -13l-43 -225h314q15 0 11 -15l-45 -124q-5 -15 -21 -15h-287l-117 -636q-9 -50 -8 -79.5t13 -45.5t35.5 -20.5t58.5 -4.5
q32 0 68.5 3t63.5 8q16 3 15 -13l-9 -111q-1 -16 -17 -20q-38 -8 -91.5 -15t-106.5 -7zM112 -439q-17 0 -9 15l128 276q7 16 23 17l155 23q16 2 8 -12l-164 -305q-8 -14 -24 -14h-117z" />
    <glyph glyph-name="Tcaron" unicode="&#x164;" horiz-adv-x="1174" 
d="M390 0q-16 0 -13 16l238 1283h-454q-16 0 -13 16l27 144q3 16 19 16h1088q16 0 13 -16l-27 -144q-3 -16 -19 -16h-454l-238 -1283q-3 -16 -19 -16h-148zM502 1807q-12 12 5 12h147q9 0 14.5 -2.5t11.5 -9.5l84 -103h20l123 105q7 5 13 7.5t15 2.5h174q16 0 3 -10
l-252 -195q-8 -5 -14 -7.5t-15 -2.5h-136q-16 0 -27 12z" />
    <glyph glyph-name="tcaron" unicode="&#x165;" horiz-adv-x="774" 
d="M644 1206q-16 0 -13 16l66 364q3 17 19 18l144 23q16 1 12 -13l-102 -393q-4 -15 -20 -15h-106zM366 -24q-64 0 -109 11t-70 43t-29.5 90.5t12.5 153.5l119 643l-190 17q-16 1 -13 17l18 104q3 16 19 16h194l37 196q3 16 19 19l146 23q16 3 13 -13l-43 -225h314
q15 0 11 -15l-45 -124q-5 -15 -21 -15h-287l-117 -636q-9 -50 -8 -79.5t13 -45.5t35.5 -20.5t58.5 -4.5q32 0 68.5 3t63.5 8q16 3 15 -13l-9 -111q-1 -16 -17 -20q-38 -8 -91.5 -15t-106.5 -7z" />
    <glyph glyph-name="uni0166" unicode="&#x166;" horiz-adv-x="1174" 
d="M391 0q-16 0 -13 16l117 632h-169q-16 0 -13 16l26 135q3 16 19 16h168l90 484h-454q-16 0 -13 16l27 144q3 16 19 16h1088q16 0 13 -16l-27 -144q-3 -16 -19 -16h-454l-90 -484h169q16 0 13 -16l-26 -135q-3 -16 -19 -16h-168l-117 -632q-3 -16 -19 -16h-148z" />
    <glyph glyph-name="uni0167" unicode="&#x167;" horiz-adv-x="782" 
d="M371 -24q-64 0 -109 11t-70 43t-29.5 90.5t12.5 153.5l42 228q-1 0 -1.5 0.5t-1.5 0.5l-152 14q-9 2 -12 5.5t-1 12.5l17 100q3 16 19 16h160l49 266l-190 17q-16 1 -13 17l18 104q3 16 19 16h194l37 196q3 16 19 19l146 23q16 3 13 -13l-43 -225h314q15 0 11 -15
l-45 -124q-5 -15 -21 -15h-287l-49 -266h270q15 0 11 -15l-43 -120q-5 -15 -21 -15h-245l-40 -220q-9 -50 -8 -79.5t13 -45.5t35.5 -20.5t58.5 -4.5q32 0 68.5 3t63.5 8q16 3 15 -13l-9 -111q-1 -16 -17 -20q-38 -8 -91.5 -15t-106.5 -7z" />
    <glyph glyph-name="Utilde" unicode="&#x168;" horiz-adv-x="1457" 
d="M605 -24q-127 0 -222.5 31.5t-154 96t-78 162t5.5 230.5l179 963q3 16 19 16h148q16 0 13 -16l-170 -920q-19 -100 -14.5 -173t38 -121t99 -71.5t169.5 -23.5q105 0 180 23t127.5 71t85 121t51.5 174l171 920q3 16 19 16h145q16 0 13 -16l-179 -963q-30 -159 -85 -260
t-135.5 -158.5t-186.5 -79.5t-238 -22zM586 1603q-17 0 -14 16q12 82 37 129.5t56 72t64 31.5t61 7q25 0 45.5 -3.5t39 -11.5t37 -20.5t41.5 -31.5q25 -21 42.5 -35t30 -22t22.5 -11.5t21 -3.5q15 0 28 4t23.5 16.5t18.5 35t14 59.5q2 9 5.5 12.5t12.5 3.5h106q17 0 14 -16
q-12 -83 -37.5 -130.5t-56.5 -72t-64 -31t-61 -6.5q-26 0 -45.5 2.5t-37.5 10t-37 20.5t-43 34q-25 21 -42.5 35t-30.5 22t-22.5 11.5t-19.5 3.5q-15 0 -28 -4.5t-23.5 -17t-18.5 -35t-14 -58.5q-2 -9 -5.5 -12.5t-12.5 -3.5h-106z" />
    <glyph glyph-name="utilde" unicode="&#x169;" horiz-adv-x="1209" 
d="M501 -24q-141 0 -226.5 27t-127 83.5t-45.5 144t19 207.5l115 617q3 16 19 16h140q16 0 13 -16l-113 -608q-18 -94 -16 -155t29 -96t81 -49t141 -14q31 0 65 2t68 5t66 8t58 11l167 896q3 16 19 16h140q16 0 13 -16l-186 -1008q-3 -16 -19 -20q-40 -10 -89.5 -19
t-104.5 -16t-112.5 -11.5t-113.5 -4.5zM594 1412q-16 0 -29 -4t-23.5 -18t-20 -40t-18.5 -70q-3 -16 -19 -16h-94q-17 0 -14 16q10 84 32 135.5t51 79.5t64 37t72 9q21 0 39 -3.5t36.5 -12.5t38.5 -24t46 -37q44 -41 69.5 -57.5t50.5 -16.5q16 0 28.5 4t23.5 17.5t20 40
t18 70.5q3 16 19 16h95q17 0 14 -16q-11 -85 -32.5 -136.5t-51 -79.5t-64.5 -37t-71 -9q-21 0 -39.5 3.5t-36.5 12.5t-38.5 24t-45.5 38q-23 20 -39.5 34t-30.5 23t-26 13t-24 4z" />
    <glyph glyph-name="Umacron" unicode="&#x16a;" horiz-adv-x="1457" 
d="M605 -24q-127 0 -222.5 31.5t-154 96t-78 162t5.5 230.5l179 963q3 16 19 16h148q16 0 13 -16l-170 -920q-19 -100 -14.5 -173t38 -121t99 -71.5t169.5 -23.5q105 0 180 23t127.5 71t85 121t51.5 174l171 920q3 16 19 16h145q16 0 13 -16l-179 -963q-30 -159 -85 -260
t-135.5 -158.5t-186.5 -79.5t-238 -22zM671 1633q-16 0 -13 16l19 102q3 16 19 16h490q16 0 13 -16l-18 -102q-3 -16 -19 -16h-491z" />
    <glyph glyph-name="umacron" unicode="&#x16b;" horiz-adv-x="1209" 
d="M501 -24q-141 0 -226.5 27t-127 83.5t-45.5 144t19 207.5l115 617q3 16 19 16h140q16 0 13 -16l-113 -608q-18 -94 -16 -155t29 -96t81 -49t141 -14q31 0 65 2t68 5t66 8t58 11l167 896q3 16 19 16h140q16 0 13 -16l-186 -1008q-3 -16 -19 -20q-40 -10 -89.5 -19
t-104.5 -16t-112.5 -11.5t-113.5 -4.5zM477 1317q-16 0 -13 16l20 107q3 16 19 16h491q16 0 13 -16l-20 -107q-3 -16 -19 -16h-491z" />
    <glyph glyph-name="Uring" unicode="&#x16e;" horiz-adv-x="1457" 
d="M605 -24q-127 0 -222.5 31.5t-154 96t-78 162t5.5 230.5l179 963q3 16 19 16h148q16 0 13 -16l-170 -920q-19 -100 -14.5 -173t38 -121t99 -71.5t169.5 -23.5q105 0 180 23t127.5 71t85 121t51.5 174l171 920q3 16 19 16h145q16 0 13 -16l-179 -963q-30 -159 -85 -260
t-135.5 -158.5t-186.5 -79.5t-238 -22zM941 1786q-43 0 -70.5 -22.5t-32.5 -54.5l-1 -8q-4 -30 13.5 -52.5t61.5 -22.5q43 0 71.5 22.5t33.5 57.5q4 33 -13.5 56.5t-62.5 23.5zM893 1523q-51 0 -85 15t-54 40.5t-26.5 58t-1.5 68.5l1 8q12 82 71 129t162 47q51 0 85.5 -15
t54.5 -40.5t26.5 -59.5t1.5 -71q-12 -85 -72 -132.5t-163 -47.5z" />
    <glyph glyph-name="uring" unicode="&#x16f;" horiz-adv-x="1209" 
d="M501 -24q-141 0 -226.5 27t-127 83.5t-45.5 144t19 207.5l115 617q3 16 19 16h140q16 0 13 -16l-113 -608q-18 -94 -16 -155t29 -96t81 -49t141 -14q31 0 65 2t68 5t66 8t58 11l167 896q3 16 19 16h140q16 0 13 -16l-186 -1008q-3 -16 -19 -20q-40 -10 -89.5 -19
t-104.5 -16t-112.5 -11.5t-113.5 -4.5zM765 1489q-64 0 -93 -25t-29 -85q0 -38 23 -52t66 -14q66 0 94 25.5t28 86.5q0 37 -22 50.5t-67 13.5zM709 1211q-95 0 -140.5 39t-45.5 112q0 105 62.5 167.5t194.5 62.5q94 0 140 -39.5t46 -113.5q0 -52 -16.5 -94t-48.5 -72
t-80.5 -46t-111.5 -16z" />
    <glyph glyph-name="Uhungarumlaut" unicode="&#x170;" horiz-adv-x="1457" 
d="M605 -24q-127 0 -222.5 31.5t-154 96t-78 162t5.5 230.5l179 963q3 16 19 16h148q16 0 13 -16l-170 -920q-19 -100 -14.5 -173t38 -121t99 -71.5t169.5 -23.5q105 0 180 23t127.5 71t85 121t51.5 174l171 920q3 16 19 16h145q16 0 13 -16l-179 -963q-30 -159 -85 -260
t-135.5 -158.5t-186.5 -79.5t-238 -22zM625 1604q-17 0 -5 12l176 191q11 12 27 12h181q16 0 4 -10l-227 -195q-7 -5 -13 -7.5t-15 -2.5h-128zM960 1604q-17 0 -5 12l176 191q11 12 27 12h181q16 0 4 -10l-227 -195q-7 -5 -13 -7.5t-15 -2.5h-128z" />
    <glyph glyph-name="uhungarumlaut" unicode="&#x171;" horiz-adv-x="1209" 
d="M501 -24q-141 0 -226.5 27t-127 83.5t-45.5 144t19 207.5l115 617q3 16 19 16h140q16 0 13 -16l-113 -608q-18 -94 -16 -155t29 -96t81 -49t141 -14q31 0 65 2t68 5t66 8t58 11l167 896q3 16 19 16h140q16 0 13 -16l-186 -1008q-3 -16 -19 -20q-40 -10 -89.5 -19
t-104.5 -16t-112.5 -11.5t-113.5 -4.5zM769 1260q-16 0 -8 14l141 240q8 14 24 14h165q16 0 6 -13l-186 -242q-10 -13 -26 -13h-116zM469 1260q-16 0 -8 14l141 240q8 14 24 14h165q16 0 6 -13l-186 -242q-10 -13 -26 -13h-116z" />
    <glyph glyph-name="Uogonek" unicode="&#x172;" horiz-adv-x="1459" 
d="M605 -24q-127 0 -222.5 31.5t-154 96t-78 162t5.5 230.5l179 963q3 16 19 16h148q16 0 13 -16l-170 -920q-19 -100 -14.5 -173t38 -121t99 -71.5t169.5 -23.5q105 0 180 23t127.5 71t85 121t51.5 174l171 920q3 16 19 16h145q16 0 13 -16l-179 -963q-21 -113 -55 -196
t-80.5 -141.5t-106.5 -95.5t-132 -57q-64 -30 -105.5 -64t-65.5 -69t-33.5 -69t-9.5 -63q0 -13 4.5 -22t15 -14.5t28.5 -8t46 -2.5q21 0 46.5 1t51.5 5q16 1 15 -14l-7 -69q-1 -9 -4.5 -13t-11.5 -6q-23 -5 -58 -8.5t-83 -3.5q-52 0 -88 7.5t-58.5 23t-32.5 38t-10 52.5
q0 35 8 71.5t25 71.5t42.5 67.5t60.5 59.5q-11 -1 -23 -1h-24z" />
    <glyph glyph-name="uogonek" unicode="&#x173;" horiz-adv-x="1212" 
d="M501 -24q-141 0 -226 28.5t-126.5 86t-45.5 144t18 203.5l115 617q3 16 19 16h140q16 0 13 -16l-113 -608q-18 -94 -16 -155t29 -96t81 -49t141 -14q31 0 65 2t68 5t66 8t58 11l167 896q3 16 19 16h140q16 0 13 -16l-186 -1008q-3 -16 -16 -23q-43 -24 -85 -60.5
t-75.5 -76t-54.5 -78.5t-21 -68q0 -26 18 -37t63 -11q19 0 40 1t42 4q16 3 15 -13l-6 -69q-1 -9 -4.5 -13t-11.5 -6q-23 -5 -56 -8.5t-71 -3.5q-98 0 -137.5 31t-39.5 84q0 37 14.5 77t39.5 78.5t57.5 73.5t68.5 62q-54 -7 -109.5 -11t-109.5 -4z" />
    <glyph glyph-name="Ydieresis" unicode="&#x178;" horiz-adv-x="1163" 
d="M386 0q-16 0 -13 16l90 492l-305 952q-6 15 11 15h159q16 0 21 -15l233 -748l508 750q9 13 25 13h178q17 0 7 -13l-657 -955l-91 -491q-3 -16 -19 -16h-147zM505 1604q-16 0 -13 16l37 199q3 16 19 19l148 23q16 3 13 -13l-43 -228q-3 -16 -19 -16h-142zM842 1604
q-16 0 -13 16l36 199q3 16 19 19l148 23q16 3 13 -13l-42 -228q-3 -16 -19 -16h-142z" />
    <glyph glyph-name="Zacute" unicode="&#x179;" horiz-adv-x="1181" 
d="M-14 0q-16 0 -13 16l25 130q3 17 13 28l986 1134h-750q-16 0 -13 16l25 135q3 16 19 16h946q16 0 13 -16l-23 -130q-3 -15 -13 -28l-986 -1134h774q16 0 13 -16l-27 -135q-3 -16 -19 -16h-970zM608 1604q-16 0 -4 10l232 195q7 5 13 7.5t15 2.5h205q7 0 7.5 -2.5
t-4.5 -6.5l-270 -197q-7 -5 -13.5 -7t-15.5 -2h-165z" />
    <glyph glyph-name="zacute" unicode="&#x17a;" horiz-adv-x="1021" 
d="M167 914q-17 0 -14 18l24 126q2 8 6.5 10.5t12.5 2.5h796q17 0 14 -18l-23 -118q-2 -7 -4.5 -11t-7.5 -9l-737 -757h589q17 0 14 -18l-24 -127q-2 -8 -6 -10.5t-12 -2.5h-801q-17 0 -14 18l22 114q2 10 5 15.5t8 10.5l737 756h-585zM476 1264q-17 0 -5 12l230 240
q11 12 27 12h206q16 0 4 -10l-282 -244q-7 -5 -13 -7.5t-15 -2.5h-152z" />
    <glyph glyph-name="Zdotaccent" unicode="&#x17b;" horiz-adv-x="1181" 
d="M-14 0q-16 0 -13 16l25 130q3 17 13 28l986 1134h-750q-16 0 -13 16l25 135q3 16 19 16h946q16 0 13 -16l-23 -130q-3 -15 -13 -28l-986 -1134h774q16 0 13 -16l-27 -135q-3 -16 -19 -16h-970zM693 1604q-16 0 -13 16l36 199q3 17 19 18l153 25q16 1 13 -14l-42 -228
q-3 -16 -19 -16h-147z" />
    <glyph glyph-name="zdotaccent" unicode="&#x17c;" horiz-adv-x="1021" 
d="M167 914q-17 0 -14 18l24 126q2 8 6.5 10.5t12.5 2.5h796q17 0 14 -18l-23 -118q-2 -7 -4.5 -11t-7.5 -9l-737 -757h589q17 0 14 -18l-24 -127q-2 -8 -6 -10.5t-12 -2.5h-801q-17 0 -14 18l22 114q2 10 5 15.5t8 10.5l737 756h-585zM515 1243q-16 0 -13 16l50 265
q3 17 19 18l152 25q16 1 13 -14l-55 -294q-3 -16 -19 -16h-147z" />
    <glyph glyph-name="Zcaron" unicode="&#x17d;" horiz-adv-x="1181" 
d="M-14 0q-16 0 -13 16l25 130q3 17 13 28l986 1134h-750q-16 0 -13 16l25 135q3 16 19 16h946q16 0 13 -16l-23 -130q-3 -15 -13 -28l-986 -1134h774q16 0 13 -16l-27 -135q-3 -16 -19 -16h-970zM508 1807q-12 12 5 12h147q9 0 14.5 -2.5t11.5 -9.5l84 -103h20l123 105
q7 5 13 7.5t15 2.5h174q16 0 3 -10l-252 -195q-8 -5 -14 -7.5t-15 -2.5h-136q-16 0 -27 12z" />
    <glyph glyph-name="zcaron" unicode="&#x17e;" horiz-adv-x="1021" 
d="M167 914q-17 0 -14 18l24 126q2 8 6.5 10.5t12.5 2.5h796q17 0 14 -18l-23 -118q-2 -7 -4.5 -11t-7.5 -9l-737 -757h589q17 0 14 -18l-24 -127q-2 -8 -6 -10.5t-12 -2.5h-801q-17 0 -14 18l22 114q2 10 5 15.5t8 10.5l737 756h-585zM348 1515q-10 13 7 13h145
q16 0 24 -14l81 -143h21l134 145q11 12 27 12h166q15 0 4 -11l-257 -245q-12 -11 -28 -11h-135q-16 0 -25 13z" />
    <glyph glyph-name="florin" unicode="&#x192;" horiz-adv-x="717" 
d="M106 900q-9 2 -12 5.5t-1 12.5l23 106q3 16 19 16h170l13 81q17 110 43.5 182.5t71 116t110.5 61.5t163 18q35 0 74 -3.5t67 -8.5q16 -3 12 -18l-28 -122q-2 -9 -6.5 -12t-13.5 -2q-24 3 -54.5 4.5t-54.5 1.5q-56 0 -93 -11.5t-60 -37.5t-36.5 -68t-22.5 -103l-13 -79
h252q16 0 13 -16l-28 -127q-3 -16 -19 -16h-243l-153 -977q-17 -111 -44.5 -180.5t-71.5 -108t-107.5 -52.5t-153.5 -14q-35 0 -76 4t-73 12q-16 4 -10 20l34 114q5 16 21 12q25 -5 54 -7.5t57 -2.5q50 0 83.5 9t56 31.5t35.5 62t23 100.5l153 977z" />
    <glyph glyph-name="uni01D3" unicode="&#x1d3;" horiz-adv-x="1457" 
d="M605 -24q-127 0 -222.5 31.5t-154 96t-78 162t5.5 230.5l179 963q3 16 19 16h148q16 0 13 -16l-170 -920q-19 -100 -14.5 -173t38 -121t99 -71.5t169.5 -23.5q105 0 180 23t127.5 71t85 121t51.5 174l171 920q3 16 19 16h145q16 0 13 -16l-179 -963q-30 -159 -85 -260
t-135.5 -158.5t-186.5 -79.5t-238 -22zM644 1919q-10 13 7 13h145q16 0 24 -14l81 -143h21l134 145q11 12 27 12h166q15 0 4 -11l-257 -245q-12 -11 -28 -11h-135q-16 0 -25 13z" />
    <glyph glyph-name="uni01D4" unicode="&#x1d4;" horiz-adv-x="1209" 
d="M501 -24q-141 0 -226.5 27t-127 83.5t-45.5 144t19 207.5l115 617q3 16 19 16h140q16 0 13 -16l-113 -608q-18 -94 -16 -155t29 -96t81 -49t141 -14q31 0 65 2t68 5t66 8t58 11l167 896q3 16 19 16h140q16 0 13 -16l-186 -1008q-3 -16 -19 -20q-40 -10 -89.5 -19
t-104.5 -16t-112.5 -11.5t-113.5 -4.5zM447 1515q-10 13 7 13h145q16 0 24 -14l81 -143h21l134 145q11 12 27 12h166q15 0 4 -11l-257 -245q-12 -11 -28 -11h-135q-16 0 -25 13z" />
    <glyph glyph-name="circumflex" unicode="&#x2c6;" horiz-adv-x="772" 
d="M918 1274q10 -13 -7 -13h-145q-16 0 -24 14l-81 143h-21l-134 -145q-11 -12 -27 -12h-166q-15 0 -4 11l257 245q12 11 28 11h135q16 0 25 -13z" />
    <glyph glyph-name="caron" unicode="&#x2c7;" horiz-adv-x="772" 
d="M356 1515q-10 13 7 13h145q16 0 24 -14l81 -143h21l134 145q11 12 27 12h166q15 0 4 -11l-257 -245q-12 -11 -28 -11h-135q-16 0 -25 13z" />
    <glyph glyph-name="breve" unicode="&#x2d8;" horiz-adv-x="771" 
d="M615 1259q-65 0 -111 18t-73.5 51t-38.5 80t-6 104q0 16 17 16h104q15 0 14 -16q-3 -35 4 -59t21.5 -38.5t35 -20.5t44.5 -6q27 0 51.5 6t46 20.5t39 38.5t29.5 60q5 15 22 15h108q9 0 12 -3.5t2 -12.5q-9 -55 -29.5 -101.5t-58 -80t-94.5 -52.5t-139 -19z" />
    <glyph glyph-name="dotaccent" unicode="&#x2d9;" horiz-adv-x="772" 
d="M543 1243q-16 0 -13 16l50 265q3 17 19 18l152 25q16 1 13 -14l-55 -294q-3 -16 -19 -16h-147z" />
    <glyph glyph-name="ring" unicode="&#x2da;" horiz-adv-x="764" 
d="M666 1489q-64 0 -93 -25t-29 -85q0 -38 23 -52t66 -14q66 0 94 25.5t28 86.5q0 37 -22 50.5t-67 13.5zM610 1211q-95 0 -140.5 39t-45.5 112q0 105 62.5 167.5t194.5 62.5q94 0 140 -39.5t46 -113.5q0 -52 -16.5 -94t-48.5 -72t-80.5 -46t-111.5 -16z" />
    <glyph glyph-name="ogonek" unicode="&#x2db;" horiz-adv-x="772" 
d="M351 -306q21 0 46.5 1t51.5 5q16 1 15 -14l-7 -69q-1 -9 -4.5 -13t-11.5 -6q-23 -5 -57.5 -8.5t-82.5 -3.5q-104 0 -147 30.5t-43 90.5q0 45 18 91t47.5 87.5t67.5 74.5t78 53q14 7 29 7h115q6 0 6.5 -2.5t-4.5 -4.5q-40 -22 -77.5 -56t-67 -71.5t-47.5 -75.5t-18 -69
q0 -26 19 -36.5t74 -10.5z" />
    <glyph glyph-name="tilde" unicode="&#x2dc;" horiz-adv-x="771" 
d="M501 1412q-16 0 -29 -4t-23.5 -18t-20 -40t-18.5 -70q-3 -16 -19 -16h-94q-17 0 -14 16q10 84 32 135.5t51 79.5t64 37t72 9q21 0 39 -3.5t36.5 -12.5t38.5 -24t46 -37q44 -41 69.5 -57.5t50.5 -16.5q16 0 28.5 4t23.5 17.5t20 40t18 70.5q3 16 19 16h95q17 0 14 -16
q-11 -85 -32.5 -136.5t-51 -79.5t-64.5 -37t-71 -9q-21 0 -39.5 3.5t-36.5 12.5t-38.5 24t-45.5 38q-23 20 -39.5 34t-30.5 23t-26 13t-24 4z" />
    <glyph glyph-name="hungarumlaut" unicode="&#x2dd;" horiz-adv-x="772" 
d="M632 1260q-16 0 -8 14l141 240q8 14 24 14h165q16 0 6 -13l-186 -242q-10 -13 -26 -13h-116zM332 1260q-16 0 -8 14l141 240q8 14 24 14h165q16 0 6 -13l-186 -242q-10 -13 -26 -13h-116z" />
    <glyph glyph-name="uni0300" unicode="&#x300;" 
d="M-346 1264q-16 0 -26 13l-180 238q-10 13 6 13h192q16 0 24 -14l133 -236q8 -14 -8 -14h-141z" />
    <glyph glyph-name="uni0301" unicode="&#x301;" 
d="M-472 1264q-17 0 -5 12l230 240q11 12 27 12h206q16 0 4 -10l-282 -244q-7 -5 -13 -7.5t-15 -2.5h-152z" />
    <glyph glyph-name="uni0302" unicode="&#x302;" 
d="M-51 1274q10 -13 -7 -13h-145q-16 0 -24 14l-81 143h-21l-134 -145q-11 -12 -27 -12h-166q-15 0 -4 11l257 245q12 11 28 11h135q16 0 25 -13z" />
    <glyph glyph-name="uni0303" unicode="&#x303;" 
d="M-475 1412q-16 0 -29 -4t-23.5 -18t-20 -40t-18.5 -70q-3 -16 -19 -16h-94q-17 0 -14 16q10 84 32 135.5t51 79.5t64 37t72 9q21 0 39 -3.5t36.5 -12.5t38.5 -24t46 -37q44 -41 69.5 -57.5t50.5 -16.5q16 0 28.5 4t23.5 17.5t20 40t18 70.5q3 16 19 16h95q17 0 14 -16
q-11 -85 -32.5 -136.5t-51 -79.5t-64.5 -37t-71 -9q-21 0 -39.5 3.5t-36.5 12.5t-38.5 24t-45.5 38q-23 20 -39.5 34t-30.5 23t-26 13t-24 4z" />
    <glyph glyph-name="uni0304" unicode="&#x304;" 
d="M-607 1317q-16 0 -13 16l20 107q3 16 19 16h491q16 0 13 -16l-20 -107q-3 -16 -19 -16h-491z" />
    <glyph glyph-name="uni0306" unicode="&#x306;" 
d="M-364 1259q-65 0 -111 18t-73.5 51t-38.5 80t-6 104q0 16 17 16h104q15 0 14 -16q-3 -35 4 -59t21.5 -38.5t35 -20.5t44.5 -6q27 0 51.5 6t46 20.5t39 38.5t29.5 60q5 15 22 15h108q9 0 12 -3.5t2 -12.5q-9 -55 -29.5 -101.5t-58 -80t-94.5 -52.5t-139 -19z" />
    <glyph glyph-name="uni0307" unicode="&#x307;" 
d="M-426 1243q-16 0 -13 16l50 265q3 17 19 18l152 25q16 1 13 -14l-55 -294q-3 -16 -19 -16h-147z" />
    <glyph glyph-name="uni0308" unicode="&#x308;" 
d="M-609 1243q-16 0 -13 16l50 265q3 16 19 19l148 23q16 3 13 -13l-55 -294q-3 -16 -19 -16h-143zM-271 1243q-16 0 -13 16l49 265q3 16 19 19l149 23q16 3 13 -13l-55 -294q-3 -16 -19 -16h-143z" />
    <glyph glyph-name="uni030A" unicode="&#x30a;" 
d="M-326 1489q-64 0 -93 -25t-29 -85q0 -38 23 -52t66 -14q66 0 94 25.5t28 86.5q0 37 -22 50.5t-67 13.5zM-382 1211q-95 0 -140.5 39t-45.5 112q0 105 62.5 167.5t194.5 62.5q94 0 140 -39.5t46 -113.5q0 -52 -16.5 -94t-48.5 -72t-80.5 -46t-111.5 -16z" />
    <glyph glyph-name="uni030B" unicode="&#x30b;" 
d="M-283 1260q-16 0 -8 14l141 240q8 14 24 14h165q16 0 6 -13l-186 -242q-10 -13 -26 -13h-116zM-583 1260q-16 0 -8 14l141 240q8 14 24 14h165q16 0 6 -13l-186 -242q-10 -13 -26 -13h-116z" />
    <glyph glyph-name="uni030C" unicode="&#x30c;" 
d="M-643 1515q-10 13 7 13h145q16 0 24 -14l81 -143h21l134 145q11 12 27 12h166q15 0 4 -11l-257 -245q-12 -11 -28 -11h-135q-16 0 -25 13z" />
    <glyph glyph-name="uni0327" unicode="&#x327;" 
d="M-807 -389q-17 0 -7 13l193 261q9 13 25 13h141q17 0 7 -13l-174 -261q-9 -13 -25 -13h-160z" />
    <glyph glyph-name="uni0328" unicode="&#x328;" 
d="M-234 -306q21 0 46.5 1t51.5 5q16 1 15 -14l-7 -69q-1 -9 -4.5 -13t-11.5 -6q-23 -5 -57.5 -8.5t-82.5 -3.5q-104 0 -147 30.5t-43 90.5q0 45 18 91t47.5 87.5t67.5 74.5t78 53q14 7 29 7h115q6 0 6.5 -2.5t-4.5 -4.5q-40 -22 -77.5 -56t-67 -71.5t-47.5 -75.5t-18 -69
q0 -26 19 -36.5t74 -10.5z" />
    <glyph glyph-name="uni037E" unicode="&#x37e;" horiz-adv-x="545" 
d="M-33 -242q-16 0 -11 15l165 472q3 8 7.5 12t13.5 5l179 24q16 1 10 -13l-219 -500q-5 -15 -22 -15h-123zM219 676q-16 0 -13 16l43 228q3 17 19 18l151 24q16 1 13 -14l-46 -256q-3 -16 -19 -16h-148z" />
    <glyph glyph-name="tonos" unicode="&#x384;" horiz-adv-x="778" 
d="M501 1243q-16 0 -12 16l78 327q4 16 20 16h156q16 0 10 -15l-127 -329q-4 -8 -8.5 -11.5t-13.5 -3.5h-103z" />
    <glyph glyph-name="dieresistonos" unicode="&#x385;" horiz-adv-x="779" 
d="M378 1243q-16 0 -13 16l37 200q3 16 19 19l148 23q16 3 13 -13l-43 -229q-3 -16 -19 -16h-142zM716 1243q-16 0 -13 16l37 200q3 16 19 19l148 23q16 3 13 -13l-43 -229q-3 -16 -19 -16h-142zM616 1483q-16 0 -10 15l103 271q4 8 8.5 11.5t13.5 3.5h172q17 0 7 -13
l-175 -275q-9 -13 -25 -13h-94z" />
    <glyph glyph-name="Alphatonos" unicode="&#x386;" horiz-adv-x="1294" 
d="M-75 0q-17 0 -9 14l765 1447q4 8 9 11t14 3h217q16 0 19 -16l229 -1443q3 -16 -13 -16h-163q-17 0 -18 16l-52 344h-629l-179 -346q-4 -8 -9 -11t-14 -3h-167zM781 1299l-398 -767h514zM214 1117q-16 0 -12 16l78 327q4 16 20 16h156q16 0 10 -15l-127 -329
q-4 -8 -8.5 -11.5t-13.5 -3.5h-103z" />
    <glyph glyph-name="Epsilontonos" unicode="&#x388;" horiz-adv-x="1191" 
d="M97 0q-16 0 -13 16l266 1443q3 16 19 16h848q16 0 13 -16l-26 -144q-3 -16 -19 -16h-684l-79 -427h575q16 0 13 -16l-27 -143q-3 -16 -19 -16h-575l-95 -522h683q16 0 13 -16l-27 -143q-3 -16 -19 -16h-847zM7 1117q-16 0 -12 16l78 327q4 16 20 16h156q16 0 10 -15
l-127 -329q-4 -8 -8.5 -11.5t-13.5 -3.5h-103z" />
    <glyph glyph-name="Etatonos" unicode="&#x389;" horiz-adv-x="1573" 
d="M220 0q-16 0 -13 16l266 1443q3 16 19 16h147q16 0 13 -16l-107 -587h697l108 587q3 16 19 16h148q16 0 13 -16l-268 -1443q-3 -16 -19 -16h-147q-16 0 -13 16l126 681h-697l-126 -681q-3 -16 -19 -16h-147zM136 1117q-16 0 -12 16l78 327q4 16 20 16h156q16 0 10 -15
l-127 -329q-4 -8 -8.5 -11.5t-13.5 -3.5h-103z" />
    <glyph glyph-name="Iotatonos" unicode="&#x38a;" horiz-adv-x="693" 
d="M215 0q-16 0 -13 16l266 1443q3 16 19 16h147q16 0 13 -16l-266 -1443q-3 -16 -19 -16h-147zM135 1117q-16 0 -12 16l78 327q4 16 20 16h156q16 0 10 -15l-127 -329q-4 -8 -8.5 -11.5t-13.5 -3.5h-103z" />
    <glyph glyph-name="Omicrontonos" unicode="&#x38c;" horiz-adv-x="1563" 
d="M726 -24q-139 0 -239 38t-158.5 120.5t-72.5 214t19 319.5l25 140q37 208 99 342t150 211.5t202.5 107.5t256.5 30q139 0 238.5 -37.5t157 -120t71.5 -214t-18 -320.5l-24 -140q-36 -207 -97.5 -340.5t-149.5 -211.5t-203 -108.5t-257 -30.5zM974 1318
q-96 0 -174.5 -23.5t-140 -81t-105.5 -154t-71 -241.5l-28 -160q-27 -147 -20 -243.5t46 -154t108.5 -81t168.5 -23.5q95 0 174 24.5t140.5 82.5t105.5 154.5t70 241.5l30 158q27 145 20 241.5t-46 154.5t-109 81.5t-169 23.5zM167 1117q-16 0 -12 16l78 327q4 16 20 16h156
q16 0 10 -15l-127 -329q-4 -8 -8.5 -11.5t-13.5 -3.5h-103z" />
    <glyph glyph-name="Upsilontonos" unicode="&#x38e;" horiz-adv-x="1479" 
d="M701 0q-16 0 -13 16l90 492l-305 952q-6 15 11 15h159q16 0 21 -15l233 -748l508 750q9 13 25 13h178q17 0 7 -13l-657 -955l-91 -491q-3 -16 -19 -16h-147zM149 1117q-16 0 -12 16l78 327q4 16 20 16h156q16 0 10 -15l-127 -329q-4 -8 -8.5 -11.5t-13.5 -3.5h-103z" />
    <glyph glyph-name="Omegatonos" unicode="&#x38f;" horiz-adv-x="1538" 
d="M197 0q-16 0 -13 16l24 130q3 16 19 16h253l3 18q-60 31 -103 83.5t-66 128.5t-24.5 176t22.5 226l12 65q33 179 94.5 301.5t148 197.5t196 108t237.5 33q126 0 223.5 -34.5t157 -111t77 -198t-14.5 -296.5l-12 -65q-25 -135 -63.5 -236t-89.5 -175t-113 -123t-134 -80
l-3 -18h253q16 0 13 -16l-24 -130q-3 -16 -19 -16h-411q-16 0 -13 16l39 211q2 9 6 13.5t12 8.5q63 25 120.5 69.5t105.5 110.5t84 154t56 199l13 69q24 134 13.5 224.5t-50.5 145t-105.5 78t-151.5 23.5q-85 0 -159.5 -25t-135 -81t-104.5 -145.5t-68 -219.5l-13 -69
q-22 -117 -18 -207t27 -155t63.5 -107t92.5 -64q8 -4 11 -8.5t1 -13.5l-39 -211q-3 -16 -19 -16h-411zM168 1117q-16 0 -12 16l78 327q4 16 20 16h156q16 0 10 -15l-127 -329q-4 -8 -8.5 -11.5t-13.5 -3.5h-103z" />
    <glyph glyph-name="iotadieresistonos" unicode="&#x390;" horiz-adv-x="537" 
d="M240 -24q-58 0 -93.5 11.5t-53 38t-19 69t10.5 104.5l159 856q3 16 19 16h140q16 0 13 -16l-155 -836q-6 -29 -7.5 -47.5t2 -28.5t12 -13.5t23.5 -3.5q11 0 21 0.5t21 1.5q16 3 15 -14l-3 -113q-1 -9 -4.5 -12.5t-12.5 -5.5q-19 -3 -42.5 -5t-45.5 -2zM128 1243
q-16 0 -13 16l37 200q3 16 19 19l148 23q16 3 13 -13l-43 -229q-3 -16 -19 -16h-142zM466 1243q-16 0 -13 16l37 200q3 16 19 19l148 23q16 3 13 -13l-43 -229q-3 -16 -19 -16h-142zM366 1483q-16 0 -10 15l103 271q4 8 8.5 11.5t13.5 3.5h172q17 0 7 -13l-175 -275
q-9 -13 -25 -13h-94z" />
    <glyph glyph-name="Alpha" unicode="&#x391;" horiz-adv-x="1294" 
d="M-75 0q-17 0 -9 14l765 1447q4 8 9 11t14 3h217q16 0 19 -16l229 -1443q3 -16 -13 -16h-163q-17 0 -18 16l-52 344h-629l-179 -346q-4 -8 -9 -11t-14 -3h-167zM781 1299l-398 -767h514z" />
    <glyph glyph-name="Beta" unicode="&#x392;" horiz-adv-x="1329" 
d="M454 -19q-37 0 -81 1t-91 3t-95 4.5t-92 6.5q-16 1 -13 17l268 1446q3 16 19 17q36 3 79 6t89.5 5t93 3t90.5 1q151 0 256.5 -18t168.5 -59t84.5 -108.5t3.5 -166.5l-2 -11q-12 -66 -32 -115t-46.5 -84t-58.5 -58.5t-68 -36.5q45 -22 79 -56.5t54.5 -81t25.5 -104
t-8 -126.5l-9 -47q-20 -105 -52.5 -178.5t-77.5 -122.5t-103.5 -76.5t-131 -41t-160 -16.5t-190.5 -3zM995 457q14 74 5 122.5t-36.5 77t-71.5 40t-100 11.5h-402l-103 -556q52 -4 112 -6t114 -2q113 0 195 7.5t138.5 35t90 81.5t50.5 146zM722 1328q-64 0 -117 -1.5
t-101 -6.5l-84 -452h355q115 3 182.5 60t87.5 165l4 15q13 73 -3 117t-58 66.5t-109.5 29.5t-156.5 7z" />
    <glyph glyph-name="Gamma" unicode="&#x393;" horiz-adv-x="1082" 
d="M96 0q-16 0 -13 16l268 1443q3 16 19 16h817q16 0 13 -16l-25 -139q-3 -16 -19 -16h-655l-239 -1288q-3 -16 -19 -16h-147z" />
    <glyph glyph-name="Delta" unicode="&#x394;" horiz-adv-x="1274" 
d="M-45 0q-16 0 -13 16l23 126q3 16 11 30l693 1289q8 14 24 14h218q16 0 19 -16l214 -1285q3 -16 0 -32l-23 -126q-3 -16 -19 -16h-1147zM161 162h810l-194 1137z" />
    <glyph glyph-name="Delta" unicode="&#x2206;" horiz-adv-x="1274" 
d="M-45 0q-16 0 -13 16l23 126q3 16 11 30l693 1289q8 14 24 14h218q16 0 19 -16l214 -1285q3 -16 0 -32l-23 -126q-3 -16 -19 -16h-1147zM161 162h810l-194 1137z" />
    <glyph glyph-name="Epsilon" unicode="&#x395;" horiz-adv-x="1191" 
d="M97 0q-16 0 -13 16l266 1443q3 16 19 16h848q16 0 13 -16l-26 -144q-3 -16 -19 -16h-684l-79 -427h575q16 0 13 -16l-27 -143q-3 -16 -19 -16h-575l-95 -522h683q16 0 13 -16l-27 -143q-3 -16 -19 -16h-847z" />
    <glyph glyph-name="Zeta" unicode="&#x396;" horiz-adv-x="1181" 
d="M-14 0q-16 0 -13 16l25 130q3 17 13 28l986 1134h-750q-16 0 -13 16l25 135q3 16 19 16h946q16 0 13 -16l-23 -130q-3 -15 -13 -28l-986 -1134h774q16 0 13 -16l-27 -135q-3 -16 -19 -16h-970z" />
    <glyph glyph-name="Eta" unicode="&#x397;" horiz-adv-x="1451" 
d="M97 0q-16 0 -13 16l266 1443q3 16 19 16h147q16 0 13 -16l-107 -587h697l108 587q3 16 19 16h148q16 0 13 -16l-268 -1443q-3 -16 -19 -16h-147q-16 0 -13 16l126 681h-697l-126 -681q-3 -16 -19 -16h-147z" />
    <glyph glyph-name="Theta" unicode="&#x398;" horiz-adv-x="1433" 
d="M495 666q-16 0 -13 16l26 138q3 16 19 16h456q16 0 13 -16l-26 -138q-3 -16 -19 -16h-456zM596 -24q-139 0 -239 38t-158.5 120.5t-72.5 214t19 319.5l25 140q37 208 99 342t150 211.5t202.5 107.5t256.5 30q139 0 238.5 -37.5t157 -120t71.5 -214t-18 -320.5l-24 -140
q-36 -207 -97.5 -340.5t-149.5 -211.5t-203 -108.5t-257 -30.5zM844 1318q-96 0 -174.5 -23.5t-140 -81t-105.5 -154t-71 -241.5l-28 -160q-27 -147 -20 -243.5t46 -154t108.5 -81t168.5 -23.5q95 0 174 24.5t140.5 82.5t105.5 154.5t70 241.5l30 158q27 145 20 241.5
t-46 154.5t-109 81.5t-169 23.5z" />
    <glyph glyph-name="Iota" unicode="&#x399;" horiz-adv-x="574" 
d="M97 0q-16 0 -13 16l266 1443q3 16 19 16h147q16 0 13 -16l-266 -1443q-3 -16 -19 -16h-147z" />
    <glyph glyph-name="Kappa" unicode="&#x39a;" horiz-adv-x="1223" 
d="M882 0q-16 0 -24 14l-373 681l-122 -108l-105 -571q-3 -16 -19 -16h-147q-16 0 -13 16l266 1443q3 16 19 16h146q16 0 13 -16l-112 -607l686 612q12 11 28 11h231q15 0 4 -11l-729 -641l462 -809q8 -14 -8 -14h-203z" />
    <glyph glyph-name="Lambda" unicode="&#x39b;" horiz-adv-x="1294" 
d="M-77 0q-17 0 -9 14l765 1447q4 8 9 11t14 3h217q16 0 19 -16l230 -1443q3 -16 -13 -16h-164q-17 0 -18 16l-193 1283l-667 -1285q-4 -8 -9 -11t-14 -3h-167z" />
    <glyph glyph-name="Mu" unicode="&#x39c;" horiz-adv-x="1667" 
d="M97 0q-16 0 -13 16l266 1443q3 16 19 16h163q9 0 13.5 -3.5t8.5 -11.5l246 -655q7 -18 13 -36t10.5 -33t7 -25l2.5 -10l6.5 9.5t17 24.5t23.5 34t27 37l487 656q6 8 11.5 10.5t14.5 2.5h190q16 0 13 -16l-267 -1443q-3 -16 -19 -16h-148q-16 0 -13 16l205 1106l11 72
q-2 -1 -17.5 -24.5t-34.5 -50.5l-457 -622q-9 -13 -25 -13h-106q-16 0 -21 15l-221 612q-11 33 -17.5 58t-8.5 25l-18 -88l-203 -1090q-3 -16 -19 -16h-147z" />
    <glyph glyph-name="Nu" unicode="&#x39d;" horiz-adv-x="1453" 
d="M97 0q-16 0 -13 16l266 1443q3 16 19 16h158q9 0 13.5 -3.5t8.5 -11.5l414 -1039q20 -51 30.5 -81.5t12.5 -30.5l213 1150q3 16 19 16h148q16 0 13 -16l-267 -1443q-3 -16 -19 -16h-169q-9 0 -13.5 3.5t-8.5 11.5l-401 1032q-20 51 -31 84.5t-12 33.5l-215 -1149
q-3 -16 -19 -16h-147z" />
    <glyph glyph-name="Xi" unicode="&#x39e;" horiz-adv-x="1110" 
d="M259 702q-16 0 -13 16l26 138q3 16 19 16h626q16 0 13 -16l-26 -138q-3 -16 -19 -16h-626zM1124 1320q-3 -16 -19 -16h-853q-16 0 -13 16l25 139q3 16 19 16h854q16 0 13 -16zM22 154q3 16 19 16h854q16 0 13 -16l-25 -138q-3 -16 -19 -16h-854q-16 0 -13 16z" />
    <glyph glyph-name="Omicron" unicode="&#x39f;" horiz-adv-x="1433" 
d="M596 -24q-139 0 -239 38t-158.5 120.5t-72.5 214t19 319.5l25 140q37 208 99 342t150 211.5t202.5 107.5t256.5 30q139 0 238.5 -37.5t157 -120t71.5 -214t-18 -320.5l-24 -140q-36 -207 -97.5 -340.5t-149.5 -211.5t-203 -108.5t-257 -30.5zM844 1318
q-96 0 -174.5 -23.5t-140 -81t-105.5 -154t-71 -241.5l-28 -160q-27 -147 -20 -243.5t46 -154t108.5 -81t168.5 -23.5q95 0 174 24.5t140.5 82.5t105.5 154.5t70 241.5l30 158q27 145 20 241.5t-46 154.5t-109 81.5t-169 23.5z" />
    <glyph glyph-name="Pi" unicode="&#x3a0;" horiz-adv-x="1450" 
d="M97 0q-16 0 -13 16l267 1443q3 16 19 16h1022q16 0 13 -16l-267 -1443q-3 -16 -19 -16h-147q-16 0 -13 16l238 1283h-696l-238 -1283q-3 -16 -19 -16h-147z" />
    <glyph glyph-name="Rho" unicode="&#x3a1;" horiz-adv-x="1296" 
d="M698 1328q-17 0 -43.5 -0.5t-54 -2t-53.5 -3t-42 -2.5l-116 -622q16 -2 41.5 -3t53 -2t54 -1.5t43.5 -0.5q132 0 222 11t149 42.5t91.5 88.5t49.5 148l11 56q16 91 4.5 148t-58 88.5t-133 43t-219.5 11.5zM96 0q-16 0 -13 16l269 1443q3 16 19 17q42 3 91.5 5.5t98 5
t92 3.5t74.5 1q170 0 287.5 -19.5t186 -69t89 -134.5t-3.5 -215l-16 -87q-18 -98 -44.5 -169t-66 -119.5t-94 -78t-129 -45.5t-170.5 -21t-218 -5q-20 0 -49 0.5t-57.5 1t-51.5 1.5t-32 2l-95 -517q-3 -16 -19 -16h-148z" />
    <glyph glyph-name="Sigma" unicode="&#x3a3;" horiz-adv-x="1164" 
d="M-23 0q-16 0 -13 16l24 130q3 16 15 27l618 581l-407 545q-6 8 -7.5 14t0.5 15l24 131q3 16 19 16h964q16 0 13 -16l-26 -144q-3 -16 -19 -16h-751l409 -544q10 -13 -2 -24l-589 -556h725q16 0 13 -16l-27 -143q-3 -16 -19 -16h-964z" />
    <glyph glyph-name="Tau" unicode="&#x3a4;" horiz-adv-x="1173" 
d="M390 0q-16 0 -13 16l238 1283h-454q-16 0 -13 16l27 144q3 16 19 16h1088q16 0 13 -16l-27 -144q-3 -16 -19 -16h-454l-238 -1283q-3 -16 -19 -16h-148z" />
    <glyph glyph-name="Upsilon" unicode="&#x3a5;" horiz-adv-x="1163" 
d="M386 0q-16 0 -13 16l90 492l-305 952q-6 15 11 15h159q16 0 21 -15l233 -748l508 750q9 13 25 13h178q17 0 7 -13l-657 -955l-91 -491q-3 -16 -19 -16h-147z" />
    <glyph glyph-name="Phi" unicode="&#x3a6;" horiz-adv-x="1421" 
d="M533 157q-125 9 -215.5 44.5t-145 102.5t-71 168.5t8.5 241.5l9 51q27 153 78 256.5t128 167.5t182.5 94t241.5 36l26 140q3 16 19 16h148q16 0 13 -16l-26 -141q125 -9 215.5 -44t144.5 -102t70 -168t-8 -240l-9 -51q-27 -151 -77 -254t-127 -168.5t-182.5 -96.5
t-242.5 -38l-26 -140q-3 -16 -19 -16h-148q-16 0 -13 16zM717 1148q-92 -7 -161 -30t-119.5 -68t-83 -113.5t-50.5 -165.5l-12 -64q-19 -96 -11.5 -165t41.5 -115t95 -70.5t148 -31.5zM1170 770q18 96 10 164t-42 113.5t-94.5 69.5t-146.5 31l-153 -823q91 7 160.5 32.5
t120 71.5t83.5 115t50 164z" />
    <glyph glyph-name="Chi" unicode="&#x3a7;" horiz-adv-x="1269" 
d="M927 0q-17 0 -22 15l-263 593l-485 -596q-6 -7 -11.5 -9.5t-14.5 -2.5h-197q-16 0 -6 12l611 725l-342 724q-8 14 9 14h175q16 0 23 -15l264 -588l484 591q6 7 11.5 9.5t14.5 2.5h197q16 0 6 -12l-610 -725l340 -724q8 -14 -9 -14h-175z" />
    <glyph glyph-name="Psi" unicode="&#x3a8;" horiz-adv-x="1326" 
d="M461 0q-16 0 -13 16l97 524q-107 10 -188.5 46.5t-131.5 100.5t-66.5 156.5t6.5 216.5l73 399q3 16 19 16h148q16 0 13 -16l-66 -360q-17 -88 -15 -155t28 -114.5t78 -75t135 -36.5l137 741q3 16 19 16h148q16 0 13 -16l-138 -741q88 9 152 36t108.5 74t72 114.5
t44.5 156.5l66 360q3 16 19 16h148q16 0 13 -16l-74 -399q-26 -138 -76.5 -234t-124.5 -157.5t-169.5 -92t-211.5 -37.5l-96 -523q-3 -16 -19 -16h-148z" />
    <glyph glyph-name="Omega" unicode="&#x3a9;" horiz-adv-x="1396" 
d="M55 0q-16 0 -13 16l24 130q3 16 19 16h253l3 18q-60 31 -103 83.5t-66 128.5t-24.5 176t22.5 226l12 65q33 179 94.5 301.5t148 197.5t196 108t237.5 33q126 0 223.5 -34.5t157 -111t77 -198t-14.5 -296.5l-12 -65q-25 -135 -63.5 -236t-89.5 -175t-113 -123t-134 -80
l-3 -18h253q16 0 13 -16l-24 -130q-3 -16 -19 -16h-411q-16 0 -13 16l39 211q2 9 6 13.5t12 8.5q63 25 120.5 69.5t105.5 110.5t84 154t56 199l13 69q24 134 13.5 224.5t-50.5 145t-105.5 78t-151.5 23.5q-85 0 -159.5 -25t-135 -81t-104.5 -145.5t-68 -219.5l-13 -69
q-22 -117 -18 -207t27 -155t63.5 -107t92.5 -64q8 -4 11 -8.5t1 -13.5l-39 -211q-3 -16 -19 -16h-411z" />
    <glyph glyph-name="Omega" unicode="&#x2126;" horiz-adv-x="1396" 
d="M55 0q-16 0 -13 16l24 130q3 16 19 16h253l3 18q-60 31 -103 83.5t-66 128.5t-24.5 176t22.5 226l12 65q33 179 94.5 301.5t148 197.5t196 108t237.5 33q126 0 223.5 -34.5t157 -111t77 -198t-14.5 -296.5l-12 -65q-25 -135 -63.5 -236t-89.5 -175t-113 -123t-134 -80
l-3 -18h253q16 0 13 -16l-24 -130q-3 -16 -19 -16h-411q-16 0 -13 16l39 211q2 9 6 13.5t12 8.5q63 25 120.5 69.5t105.5 110.5t84 154t56 199l13 69q24 134 13.5 224.5t-50.5 145t-105.5 78t-151.5 23.5q-85 0 -159.5 -25t-135 -81t-104.5 -145.5t-68 -219.5l-13 -69
q-22 -117 -18 -207t27 -155t63.5 -107t92.5 -64q8 -4 11 -8.5t1 -13.5l-39 -211q-3 -16 -19 -16h-411z" />
    <glyph glyph-name="Iotadieresis" unicode="&#x3aa;" horiz-adv-x="575" 
d="M97 0q-16 0 -13 16l266 1443q3 16 19 16h147q16 0 13 -16l-266 -1443q-3 -16 -19 -16h-147zM234 1604q-16 0 -13 16l37 199q3 16 19 19l148 23q16 3 13 -13l-43 -228q-3 -16 -19 -16h-142zM571 1604q-16 0 -13 16l36 199q3 16 19 19l148 23q16 3 13 -13l-42 -228
q-3 -16 -19 -16h-142z" />
    <glyph glyph-name="Upsilondieresis" unicode="&#x3ab;" horiz-adv-x="1164" 
d="M386 0q-16 0 -13 16l90 492l-305 952q-6 15 11 15h159q16 0 21 -15l233 -748l508 750q9 13 25 13h178q17 0 7 -13l-657 -955l-91 -491q-3 -16 -19 -16h-147zM513 1604q-16 0 -13 16l37 199q3 16 19 19l148 23q16 3 13 -13l-43 -228q-3 -16 -19 -16h-142zM850 1604
q-16 0 -13 16l36 199q3 16 19 19l148 23q16 3 13 -13l-42 -228q-3 -16 -19 -16h-142z" />
    <glyph glyph-name="alphatonos" unicode="&#x3ac;" horiz-adv-x="1200" 
d="M986 -17q-19 -3 -43 -5t-45 -2q-59 0 -93.5 15t-49.5 47q-39 -16 -80 -28t-80.5 -19.5t-76.5 -11t-68 -3.5q-124 0 -203 27t-119.5 86t-45.5 153t19 228l23 127q26 145 68 241t103.5 153t144.5 80t193 23q38 0 77 -6t75.5 -17.5t68.5 -27t58 -33.5l31 66q4 8 9 11t14 3
h107q16 0 13 -16l-159 -855q-5 -29 -6.5 -47.5t1.5 -28.5t11.5 -13.5t23.5 -3.5q9 0 17.5 0.5t16.5 1.5q16 1 15 -14l-3 -113q-1 -9 -4.5 -12.5t-12.5 -5.5zM641 939q-85 0 -143.5 -17.5t-99 -60t-66.5 -113t-45 -175.5l-14 -76q-21 -108 -23.5 -179.5t20 -114t73.5 -60
t137 -17.5q27 0 59.5 2t67.5 8t70.5 16t69.5 27l4 20l127 685q-51 26 -115 40.5t-122 14.5zM622 1243q-16 0 -12 16l78 327q4 16 20 16h156q16 0 10 -15l-127 -329q-4 -8 -8.5 -11.5t-13.5 -3.5h-103z" />
    <glyph glyph-name="epsilontonos" unicode="&#x3ad;" horiz-adv-x="978" 
d="M459 -24q-117 0 -199 15t-130 52t-63.5 99.5t-0.5 156.5q18 113 78 178t176 87q-56 13 -91 38.5t-52.5 59t-20 74.5t5.5 86q15 85 50.5 138t96 83t148 40.5t206.5 10.5q83 0 158.5 -6.5t133.5 -15.5q17 -3 11 -18l-38 -128q-5 -14 -21 -13q-60 7 -125.5 11t-131.5 4
q-82 0 -138 -6t-92 -22.5t-55 -47t-28 -78.5q-3 -14 -4 -29t3 -30t16 -28t36.5 -23t63 -16t96.5 -6h183q16 0 13 -16l-25 -126q-3 -16 -19 -16h-169q-80 0 -131 -11.5t-81 -32t-44.5 -49t-20.5 -63.5q-11 -59 -2 -95t39 -56t81.5 -27t126.5 -7q31 0 66 1t71 2.5t70.5 4.5
t64.5 6q16 1 15 -14l-10 -125q-1 -16 -17 -19q-60 -11 -138.5 -17t-161.5 -6zM589 1243q-16 0 -12 16l78 327q4 16 20 16h156q16 0 10 -15l-127 -329q-4 -8 -8.5 -11.5t-13.5 -3.5h-103z" />
    <glyph glyph-name="etatonos" unicode="&#x3ae;" horiz-adv-x="1210" 
d="M701 -452q-16 0 -13 16l194 1045q16 91 17.5 152.5t-18.5 98t-65 52t-121 15.5q-74 0 -156 -18.5t-157 -54.5l-155 -838q-3 -16 -19 -16h-140q-16 0 -13 16l196 1058q3 16 19 16h106q9 0 12.5 -3.5t5.5 -12.5l8 -75q40 22 87 39.5t97 30t100 19t97 6.5q96 0 160 -25
t97 -80t37 -142.5t-19 -212.5l-198 -1070q-3 -16 -19 -16h-140zM664 1243q-16 0 -12 16l78 327q4 16 20 16h156q16 0 10 -15l-127 -329q-4 -8 -8.5 -11.5t-13.5 -3.5h-103z" />
    <glyph glyph-name="iotatonos" unicode="&#x3af;" horiz-adv-x="538" 
d="M240 -24q-58 0 -93.5 11.5t-53 38t-19 69t10.5 104.5l159 856q3 16 19 16h140q16 0 13 -16l-155 -836q-6 -29 -7.5 -47.5t2 -28.5t12 -13.5t23.5 -3.5q11 0 21 0.5t21 1.5q16 3 15 -14l-3 -113q-1 -9 -4.5 -12.5t-12.5 -5.5q-19 -3 -42.5 -5t-45.5 -2zM302 1243
q-16 0 -12 16l78 327q4 16 20 16h156q16 0 10 -15l-127 -329q-4 -8 -8.5 -11.5t-13.5 -3.5h-103z" />
    <glyph glyph-name="upsilondieresistonos" unicode="&#x3b0;" horiz-adv-x="1206" 
d="M499 -24q-125 0 -207 34t-125.5 101.5t-51 168.5t17.5 234l101 542q3 16 19 16h139q16 0 13 -16l-98 -532q-20 -107 -20 -182.5t25 -123.5t77.5 -70t137.5 -22q83 0 142.5 20.5t101 66.5t69 118t45.5 176l7 37q19 103 26.5 170t3.5 109.5t-20 66t-44 40.5q-13 8 -8 23
l51 129q7 14 21 9q68 -23 106.5 -66.5t54 -110t10 -155.5t-26.5 -203l-10 -55q-29 -156 -73 -257.5t-110 -161t-158 -83t-216 -23.5zM457 1243q-16 0 -13 16l37 200q3 16 19 19l148 23q16 3 13 -13l-43 -229q-3 -16 -19 -16h-142zM795 1243q-16 0 -13 16l37 200q3 16 19 19
l148 23q16 3 13 -13l-43 -229q-3 -16 -19 -16h-142zM695 1483q-16 0 -10 15l103 271q4 8 8.5 11.5t13.5 3.5h172q17 0 7 -13l-175 -275q-9 -13 -25 -13h-94z" />
    <glyph glyph-name="alpha" unicode="&#x3b1;" horiz-adv-x="1200" 
d="M986 -17q-19 -3 -43 -5t-45 -2q-59 0 -93.5 15t-49.5 47q-39 -16 -80 -28t-80.5 -19.5t-76.5 -11t-68 -3.5q-124 0 -203 27t-119.5 86t-45.5 153t19 228l23 127q26 145 68 241t103.5 153t144.5 80t193 23q38 0 77 -6t75.5 -17.5t68.5 -27t58 -33.5l31 66q4 8 9 11t14 3
h107q16 0 13 -16l-159 -855q-5 -29 -6.5 -47.5t1.5 -28.5t11.5 -13.5t23.5 -3.5q9 0 17.5 0.5t16.5 1.5q16 1 15 -14l-3 -113q-1 -9 -4.5 -12.5t-12.5 -5.5zM641 939q-85 0 -143.5 -17.5t-99 -60t-66.5 -113t-45 -175.5l-14 -76q-21 -108 -23.5 -179.5t20 -114t73.5 -60
t137 -17.5q27 0 59.5 2t67.5 8t70.5 16t69.5 27l4 20l127 685q-51 26 -115 40.5t-122 14.5z" />
    <glyph glyph-name="beta" unicode="&#x3b2;" horiz-adv-x="1187" 
d="M-15 -452q-16 0 -13 16l283 1531q21 114 49.5 198t65 143.5t81 97t97.5 59t115 29.5t133 8q102 0 175 -31t116.5 -85t57.5 -128.5t-2 -161.5l-4 -22q-12 -63 -31.5 -117t-51.5 -97t-80 -73.5t-116 -47.5q74 -22 116 -66.5t60.5 -99.5t19 -114.5t-9.5 -111.5l-6 -32
q-28 -150 -76 -242t-118 -142t-163 -66.5t-211 -16.5q-65 0 -131 4.5t-118 12.5l-79 -429q-3 -16 -19 -16h-140zM766 1467q-71 0 -125 -17t-94.5 -59t-69.5 -114t-50 -182l-176 -950q26 -3 50.5 -6t51 -5t57.5 -3t70 -1q77 0 139.5 14.5t109.5 49.5t79.5 95t49.5 152l9 46
q11 61 7 115t-28 94.5t-69 64t-116 23.5h-46q-16 0 -13 16l26 134q3 16 19 16h43q69 0 116.5 22t78.5 56.5t48.5 77.5t25.5 86l3 19q13 72 4 121t-35.5 79t-68.5 43t-96 13z" />
    <glyph glyph-name="gamma" unicode="&#x3b3;" horiz-adv-x="1047" 
d="M273 -452q-16 0 -13 16l81 437l-148 888q-7 47 -63 47q-6 0 -13 -0.5t-14 -1.5q-16 -1 -15 14l4 121q1 9 4.5 13t12.5 6q14 2 32 4t41 2q46 0 77 -9t51 -28.5t31.5 -49t17.5 -69.5l107 -733l429 852q4 8 9 11t14 3h164q16 0 8 -14l-577 -1057l-81 -436q-3 -16 -19 -16
h-140z" />
    <glyph glyph-name="delta" unicode="&#x3b4;" horiz-adv-x="1151" 
d="M455 -26q-125 0 -205.5 37t-123 107.5t-48.5 172.5t18 233l12 64q22 117 65 201.5t105.5 142.5t142 91.5t174.5 48.5q-53 34 -91 64t-62 58.5t-35.5 59t-11.5 66.5q0 68 12.5 117.5t42.5 83.5t80.5 55.5t126 33t178 15.5t238.5 4q16 0 13 -16l-21 -113q-3 -16 -19 -16
q-156 0 -250.5 -6t-146 -20t-68 -39.5t-16.5 -64.5q0 -20 9 -37.5t31 -38t58.5 -46t91.5 -60.5q89 -57 150 -115.5t94 -128t39 -154t-15 -193.5l-11 -57q-30 -158 -74.5 -263.5t-110.5 -169.5t-157 -90.5t-215 -26.5zM853 565q16 87 15 150t-17.5 110.5t-47.5 84t-74 70.5
q-200 -20 -311.5 -123t-144.5 -281l-8 -41q-20 -108 -20.5 -185.5t23.5 -127t76 -73t137 -23.5q82 0 142 23t103 72.5t72 127.5t49 188z" />
    <glyph glyph-name="epsilon" unicode="&#x3b5;" horiz-adv-x="979" 
d="M459 -24q-117 0 -199 15t-130 52t-63.5 99.5t-0.5 156.5q18 113 78 178t176 87q-56 13 -91 38.5t-52.5 59t-20 74.5t5.5 86q15 85 50.5 138t96 83t148 40.5t206.5 10.5q83 0 158.5 -6.5t133.5 -15.5q17 -3 11 -18l-38 -128q-5 -14 -21 -13q-60 7 -125.5 11t-131.5 4
q-82 0 -138 -6t-92 -22.5t-55 -47t-28 -78.5q-3 -14 -4 -29t3 -30t16 -28t36.5 -23t63 -16t96.5 -6h183q16 0 13 -16l-25 -126q-3 -16 -19 -16h-169q-80 0 -131 -11.5t-81 -32t-44.5 -49t-20.5 -63.5q-11 -59 -2 -95t39 -56t81.5 -27t126.5 -7q31 0 66 1t71 2.5t70.5 4.5
t64.5 6q16 1 15 -14l-10 -125q-1 -16 -17 -19q-60 -11 -138.5 -17t-161.5 -6z" />
    <glyph glyph-name="zeta" unicode="&#x3b6;" horiz-adv-x="852" 
d="M254 1443q-16 0 -13 16l24 127q3 16 19 16h681q16 0 13 -16l-23 -127q-3 -16 -16 -25q-115 -83 -211.5 -175t-173.5 -185t-135 -184t-96.5 -172.5t-58 -151t-19.5 -119.5q0 -37 10 -66.5t34.5 -56t66 -51t104.5 -51.5q76 -35 126.5 -64t79.5 -57.5t41 -59t12 -68.5
q0 -80 -29 -136t-81 -94t-124 -62.5t-158 -42.5q-16 -3 -15 13l4 126q1 16 16 20q111 29 161 63t50 86q0 16 -6.5 29t-24.5 26t-49 28t-80 35q-95 40 -157.5 79t-99 79t-51 84t-14.5 95q0 74 20.5 159t60 176t97 185t130 185.5t160 177t187.5 159.5h-462z" />
    <glyph glyph-name="eta" unicode="&#x3b7;" horiz-adv-x="1211" 
d="M701 -452q-16 0 -13 16l194 1045q16 91 17.5 152.5t-18.5 98t-65 52t-121 15.5q-74 0 -156 -18.5t-157 -54.5l-155 -838q-3 -16 -19 -16h-140q-16 0 -13 16l196 1058q3 16 19 16h106q9 0 12.5 -3.5t5.5 -12.5l8 -75q40 22 87 39.5t97 30t100 19t97 6.5q96 0 160 -25
t97 -80t37 -142.5t-19 -212.5l-198 -1070q-3 -16 -19 -16h-140z" />
    <glyph glyph-name="theta" unicode="&#x3b8;" horiz-adv-x="1236" 
d="M498 -25q-123 0 -204.5 38t-124.5 120.5t-46.5 212.5t29.5 313l52 286q36 199 84.5 330.5t118.5 210.5t167 111.5t231 32.5q123 0 205 -38t125 -120.5t46.5 -212.5t-30.5 -314l-53 -286q-37 -198 -85 -329.5t-118 -210.5t-167 -111.5t-230 -32.5zM324 672
q-29 -154 -34 -258t18 -167.5t76 -91t142 -27.5q88 0 151.5 27t110 91t80 168t62.5 259l14 77h-606zM776 1477q-88 0 -151.5 -27t-110 -90.5t-80.5 -168.5t-62 -260l-4 -19h607l4 19q28 155 33 260t-18.5 168.5t-76.5 90.5t-141 27z" />
    <glyph glyph-name="iota" unicode="&#x3b9;" horiz-adv-x="538" 
d="M240 -24q-58 0 -93.5 11.5t-53 38t-19 69t10.5 104.5l159 856q3 16 19 16h140q16 0 13 -16l-155 -836q-6 -29 -7.5 -47.5t2 -28.5t12 -13.5t23.5 -3.5q11 0 21 0.5t21 1.5q16 3 15 -14l-3 -113q-1 -9 -4.5 -12.5t-12.5 -5.5q-19 -3 -42.5 -5t-45.5 -2z" />
    <glyph glyph-name="kappa" unicode="&#x3ba;" horiz-adv-x="1066" 
d="M725 0q-16 0 -24 14l-272 467l-137 -117l-64 -348q-3 -16 -19 -16h-140q-16 0 -13 16l192 1039q3 16 19 16h140q16 0 13 -16l-83 -448l511 453q12 11 28 11h224q16 0 4 -10l-546 -469l366 -578q9 -14 -7 -14h-192z" />
    <glyph glyph-name="lambda" unicode="&#x3bb;" horiz-adv-x="1050" 
d="M-67 0q-16 0 -8 14l624 1084l-1 10q-12 111 -29.5 182.5t-44.5 113t-65.5 57t-92.5 15.5q-26 0 -54.5 -2.5t-52.5 -7.5q-16 -4 -16 12l3 109q0 16 15 20q35 11 79.5 17t81.5 6q78 0 133.5 -20t94 -71.5t63 -140t41.5 -224.5l126 -1014q2 -21 13.5 -27.5t38.5 -6.5
q7 0 14.5 0.5t15.5 1.5q16 3 15 -14l-3 -112q-1 -16 -17 -19q-20 -3 -42 -5t-46 -2q-47 0 -77 9t-48 26t-26 43t-12 61l-79 725q-8 -18 -17 -38t-20 -39l-420 -749q-8 -14 -24 -14h-163z" />
    <glyph glyph-name="uni03BC" unicode="&#x3bc;" horiz-adv-x="1242" 
d="M-2 -389q-16 0 -13 16l265 1428q3 16 19 16h140q16 0 13 -16l-114 -613q-18 -98 -7.5 -158t45 -92.5t89.5 -43t126 -10.5q31 0 66.5 2t70 5.5t67 8.5t58.5 11l165 890q3 16 19 16h141q16 0 13 -16l-187 -1007q-3 -15 -18 -19q-43 -10 -99.5 -19.5t-117.5 -17t-120 -12
t-106 -4.5q-112 0 -182 25.5t-90 81.5l-84 -456q-3 -16 -19 -16h-140z" />
    <glyph glyph-name="nu" unicode="&#x3bd;" horiz-adv-x="1029" 
d="M286 0q-16 0 -19 16l-165 1039q-3 16 13 16h152q17 0 18 -16l128 -897l464 899q4 8 9 11t14 3h162q16 0 8 -14l-553 -1043q-8 -14 -24 -14h-207z" />
    <glyph glyph-name="xi" unicode="&#x3be;" horiz-adv-x="876" 
d="M795 827q-3 -16 -19 -16h-110q-107 0 -179.5 -14.5t-119 -45.5t-72 -81t-38.5 -120l-5 -24q-12 -62 -9.5 -105t25 -76t68.5 -61.5t121 -60.5q76 -35 126.5 -63t79.5 -56t41 -58t12 -68q0 -81 -29 -137.5t-81 -95.5t-124 -63.5t-158 -42.5q-16 -3 -15 13l4 128q1 16 17 20
q110 28 160.5 62t50.5 84q0 16 -6.5 29t-24.5 26t-49.5 28t-80.5 35q-117 45 -184 91t-98 99.5t-32.5 118t12.5 147.5l8 46q13 73 36 130t59 100.5t87 74t119 48.5q-202 70 -163 290l11 63q17 98 53 166.5t96.5 111t150 61.5t213.5 19q57 0 113 -6t113 -17q16 -3 10 -18
l-43 -119q-4 -8 -8.5 -11t-13.5 -2q-48 7 -91.5 10t-84.5 3q-87 0 -147 -14.5t-99.5 -41.5t-60.5 -66t-30 -87l-9 -52q-15 -80 2 -127.5t67 -73t134.5 -34t205.5 -8.5q15 0 12 -15v-1l-12 -65z" />
    <glyph glyph-name="omicron" unicode="&#x3bf;" horiz-adv-x="1179" 
d="M649 942q-87 0 -148.5 -20.5t-104 -65t-69.5 -115t-46 -170.5l-13 -73q-18 -99 -17 -169.5t26.5 -115.5t79 -65.5t140.5 -20.5t148.5 20.5t104 65.5t70 115.5t46.5 171.5l13 71q18 99 17.5 169.5t-26.5 115.5t-79.5 65.5t-141.5 20.5zM470 -24q-126 0 -209 32
t-127.5 96.5t-52.5 160t16 223.5l17 91q27 142 71 240.5t111.5 159.5t161 88t219.5 27q127 0 210.5 -31.5t128 -95t52 -160.5t-17.5 -228l-16 -91q-25 -143 -69 -240.5t-112 -158t-162.5 -87t-220.5 -26.5z" />
    <glyph glyph-name="pi" unicode="&#x3c0;" horiz-adv-x="1290" 
d="M108 917q-16 0 -13 16l23 122q3 16 19 16h1162q15 0 11 -15l-46 -124q-5 -15 -21 -15h-162l-130 -698q-5 -29 -5.5 -47.5t4 -28.5t16 -13.5t30.5 -3.5q16 0 28.5 0.5t25.5 2.5q16 1 16 -15l-3 -113q0 -15 -16 -18q-20 -3 -46.5 -5t-49.5 -2q-62 0 -101 11.5t-59.5 38
t-23 69t8.5 104.5l133 718h-444l-167 -901q-3 -16 -19 -16h-140q-16 0 -13 16l167 901h-185z" />
    <glyph glyph-name="rho" unicode="&#x3c1;" horiz-adv-x="1173" 
d="M655 941q-66 0 -118 -11t-92 -43t-68 -91.5t-46 -156.5l-91 -490q22 -5 49 -9t56 -6.5t58 -4t55 -1.5q101 0 168.5 17.5t112 61t71.5 116.5t47 183l11 64q20 108 21 179.5t-22.5 114t-75 60t-136.5 17.5zM-27 -452q-16 0 -13 16l201 1083q27 147 71.5 235.5t109 135.5
t149.5 61.5t194 14.5q124 0 204 -29.5t122 -91.5t48 -157t-18 -227l-18 -99q-19 -104 -43.5 -182.5t-57.5 -135.5t-78 -95t-104 -60.5t-135.5 -31.5t-173.5 -9q-58 0 -115.5 6.5t-102.5 16.5l-81 -435q-3 -16 -19 -16h-140z" />
    <glyph glyph-name="sigma1" unicode="&#x3c2;" horiz-adv-x="901" 
d="M718 -17q0 -81 -29 -138t-81 -96.5t-124 -65.5t-158 -44q-16 -3 -15 13l4 128q1 16 17 20q55 14 95 28t65.5 31.5t38 38.5t12.5 48q0 16 -7.5 29.5t-25.5 27t-49 28t-78 34.5q-115 45 -182 90t-98.5 98t-33 120.5t15.5 157.5l13 72q26 142 66 237t107 151t166 79.5
t242 23.5q66 0 127 -5.5t106 -15.5q17 -3 11 -18l-44 -123q-5 -14 -21 -13q-46 7 -100.5 9.5t-104.5 2.5q-98 0 -164 -18t-109.5 -59t-69 -108t-43.5 -165l-7 -38q-12 -67 -10 -113.5t24 -81.5t67 -64t119 -61q75 -35 124.5 -62.5t79.5 -54.5t42 -56.5t12 -66.5z" />
    <glyph glyph-name="sigma" unicode="&#x3c3;" horiz-adv-x="1221" 
d="M469 -24q-126 0 -208.5 32.5t-127 97t-52.5 161.5t16 225l16 85q27 143 71 241t111 158.5t160.5 87t219.5 26.5h536q16 0 13 -16l-22 -117q-3 -16 -19 -16h-216q31 -35 51 -72q13 -26 22.5 -57t14 -68.5t3 -84t-11.5 -104.5l-12 -63q-27 -144 -71 -242.5t-111 -159
t-161 -87.5t-222 -27zM648 940q-88 0 -149.5 -20.5t-104 -65t-69.5 -115.5t-45 -172l-12 -66q-18 -101 -17 -172t26.5 -116t79 -65.5t140.5 -20.5q88 0 150 21t104.5 66t70 116.5t45.5 172.5l12 65q18 99 17.5 169.5t-26 115.5t-79.5 66t-143 21z" />
    <glyph glyph-name="tau" unicode="&#x3c4;" horiz-adv-x="890" 
d="M94 917q-16 0 -13 16l23 122q3 16 19 16h817q15 0 11 -15l-45 -124q-5 -15 -21 -15h-326l-130 -698q-5 -29 -6 -47.5t4 -28.5t16 -13.5t30 -3.5q14 0 29 0.5t26 1.5q16 1 16 -14l-4 -113q0 -15 -16 -18q-21 -3 -49 -5t-52 -2q-61 0 -99 11.5t-57.5 38t-22 69t8.5 104.5
l133 718h-292z" />
    <glyph glyph-name="upsilon" unicode="&#x3c5;" horiz-adv-x="1206" 
d="M499 -24q-125 0 -207 34t-125.5 101.5t-51 168.5t17.5 234l101 542q3 16 19 16h139q16 0 13 -16l-98 -532q-20 -107 -20 -182.5t25 -123.5t77.5 -70t137.5 -22q83 0 142.5 20.5t101 66.5t69 118t45.5 176l7 37q19 103 26.5 170t3.5 109.5t-20 66t-44 40.5q-13 8 -8 23
l51 129q7 14 21 9q68 -23 106.5 -66.5t54 -110t10 -155.5t-26.5 -203l-10 -55q-29 -156 -73 -257.5t-110 -161t-158 -83t-216 -23.5z" />
    <glyph glyph-name="phi" unicode="&#x3c6;" horiz-adv-x="1478" 
d="M470 -452q-16 0 -13 16l76 412q-153 1 -249.5 34.5t-146.5 98.5t-58 160.5t15 218.5l17 91q27 145 71.5 244t117 159t180 86t260.5 26l92 492q3 17 19 18l145 24q16 1 13 -14l-97 -520q154 -1 251 -34t147 -97.5t58 -160.5t-16 -223l-17 -91q-27 -146 -71.5 -244
t-117 -157.5t-180 -85t-261.5 -25.5l-76 -412q-3 -16 -19 -16h-140zM1181 571q18 99 17 169t-32.5 115t-99 66t-182.5 21l-151 -815q114 0 189 21t123.5 66t76 115.5t45.5 170.5zM266 498q-18 -99 -17 -169t32.5 -115t98.5 -66t181 -21l151 815q-114 -1 -189 -22t-123 -65.5
t-75 -114.5t-45 -169z" />
    <glyph glyph-name="chi" unicode="&#x3c7;" horiz-adv-x="1019" 
d="M604 -452q-16 0 -20 16l-147 608l-385 -610q-5 -8 -10.5 -11t-14.5 -3h-176q-17 0 -7 13l511 765l-233 730q-6 15 11 15h161q16 0 20 -15l156 -587l376 589q9 13 25 13h186q17 0 7 -13l-515 -734l237 -761q6 -15 -11 -15h-171z" />
    <glyph glyph-name="psi" unicode="&#x3c8;" horiz-adv-x="1454" 
d="M459 -452q-16 0 -13 16l77 415q-133 8 -219.5 43.5t-133 100.5t-55 159.5t15.5 219.5l103 553q3 16 19 16h140q16 0 13 -16l-101 -543q-18 -96 -16 -165t30 -115t84.5 -71t147.5 -32l270 1457q3 17 19 18l146 24q16 1 13 -14l-276 -1485q93 7 158.5 31.5t110.5 70.5
t73 115.5t46 166.5l101 542q3 16 19 16h139q16 0 13 -16l-102 -552q-26 -140 -70 -236.5t-114 -158.5t-168.5 -92.5t-233.5 -37.5l-77 -414q-3 -16 -19 -16h-140z" />
    <glyph glyph-name="omega" unicode="&#x3c9;" horiz-adv-x="1626" 
d="M397 -24q-102 0 -169.5 33.5t-103 98.5t-39.5 160t20 219l11 56q28 144 56.5 240.5t67 158.5t92 96t130.5 53q16 4 16 -12l1 -121q0 -9 -3 -13.5t-11 -9.5q-35 -19 -60.5 -44t-46 -68.5t-38 -110t-36.5 -168.5l-9 -47q-18 -99 -20 -168.5t15.5 -113.5t56.5 -64t103 -20
q62 0 107.5 22t78.5 69.5t56.5 122t43.5 179.5l30 164q3 16 19 16h126q16 0 13 -16l-30 -164q-20 -105 -23.5 -179.5t12 -122t52.5 -69.5t99 -22q64 0 111 20t80.5 64t57.5 113.5t42 168.5l9 47q18 100 25.5 166.5t3 110t-20 69t-42.5 43.5q-8 5 -9 10.5t2 14.5l45 122
q6 15 20 10q71 -23 110 -70.5t53.5 -117t7.5 -160t-28 -199.5l-11 -56q-29 -149 -69.5 -247.5t-98.5 -157t-135 -82.5t-180 -24q-106 0 -171.5 59t-75.5 171q-25 -62 -61 -105.5t-80.5 -71.5t-95.5 -40.5t-106 -12.5z" />
    <glyph glyph-name="iotadieresis" unicode="&#x3ca;" horiz-adv-x="537" 
d="M240 -24q-58 0 -93.5 11.5t-53 38t-19 69t10.5 104.5l159 856q3 16 19 16h140q16 0 13 -16l-155 -836q-6 -29 -7.5 -47.5t2 -28.5t12 -13.5t23.5 -3.5q11 0 21 0.5t21 1.5q16 3 15 -14l-3 -113q-1 -9 -4.5 -12.5t-12.5 -5.5q-19 -3 -42.5 -5t-45.5 -2zM122 1243
q-16 0 -13 16l50 265q3 16 19 19l148 23q16 3 13 -13l-55 -294q-3 -16 -19 -16h-143zM460 1243q-16 0 -13 16l49 265q3 16 19 19l149 23q16 3 13 -13l-55 -294q-3 -16 -19 -16h-143z" />
    <glyph glyph-name="upsilondieresis" unicode="&#x3cb;" horiz-adv-x="1206" 
d="M499 -24q-125 0 -207 34t-125.5 101.5t-51 168.5t17.5 234l101 542q3 16 19 16h139q16 0 13 -16l-98 -532q-20 -107 -20 -182.5t25 -123.5t77.5 -70t137.5 -22q83 0 142.5 20.5t101 66.5t69 118t45.5 176l7 37q19 103 26.5 170t3.5 109.5t-20 66t-44 40.5q-13 8 -8 23
l51 129q7 14 21 9q68 -23 106.5 -66.5t54 -110t10 -155.5t-26.5 -203l-10 -55q-29 -156 -73 -257.5t-110 -161t-158 -83t-216 -23.5zM465 1243q-16 0 -13 16l50 265q3 16 19 19l148 23q16 3 13 -13l-55 -294q-3 -16 -19 -16h-143zM803 1243q-16 0 -13 16l49 265q3 16 19 19
l149 23q16 3 13 -13l-55 -294q-3 -16 -19 -16h-143z" />
    <glyph glyph-name="omicrontonos" unicode="&#x3cc;" horiz-adv-x="1179" 
d="M649 942q-87 0 -148.5 -20.5t-104 -65t-69.5 -115t-46 -170.5l-13 -73q-18 -99 -17 -169.5t26.5 -115.5t79 -65.5t140.5 -20.5t148.5 20.5t104 65.5t70 115.5t46.5 171.5l13 71q18 99 17.5 169.5t-26.5 115.5t-79.5 65.5t-141.5 20.5zM470 -24q-126 0 -209 32
t-127.5 96.5t-52.5 160t16 223.5l17 91q27 142 71 240.5t111.5 159.5t161 88t219.5 27q127 0 210.5 -31.5t128 -95t52 -160.5t-17.5 -228l-16 -91q-25 -143 -69 -240.5t-112 -158t-162.5 -87t-220.5 -26.5zM607 1243q-16 0 -12 16l78 327q4 16 20 16h156q16 0 10 -15
l-127 -329q-4 -8 -8.5 -11.5t-13.5 -3.5h-103z" />
    <glyph glyph-name="upsilontonos" unicode="&#x3cd;" horiz-adv-x="1206" 
d="M499 -24q-125 0 -207 34t-125.5 101.5t-51 168.5t17.5 234l101 542q3 16 19 16h139q16 0 13 -16l-98 -532q-20 -107 -20 -182.5t25 -123.5t77.5 -70t137.5 -22q83 0 142.5 20.5t101 66.5t69 118t45.5 176l7 37q19 103 26.5 170t3.5 109.5t-20 66t-44 40.5q-13 8 -8 23
l51 129q7 14 21 9q68 -23 106.5 -66.5t54 -110t10 -155.5t-26.5 -203l-10 -55q-29 -156 -73 -257.5t-110 -161t-158 -83t-216 -23.5zM620 1243q-16 0 -12 16l78 327q4 16 20 16h156q16 0 10 -15l-127 -329q-4 -8 -8.5 -11.5t-13.5 -3.5h-103z" />
    <glyph glyph-name="omegatonos" unicode="&#x3ce;" horiz-adv-x="1626" 
d="M397 -24q-102 0 -169.5 33.5t-103 98.5t-39.5 160t20 219l11 56q28 144 56.5 240.5t67 158.5t92 96t130.5 53q16 4 16 -12l1 -121q0 -9 -3 -13.5t-11 -9.5q-35 -19 -60.5 -44t-46 -68.5t-38 -110t-36.5 -168.5l-9 -47q-18 -99 -20 -168.5t15.5 -113.5t56.5 -64t103 -20
q62 0 107.5 22t78.5 69.5t56.5 122t43.5 179.5l30 164q3 16 19 16h126q16 0 13 -16l-30 -164q-20 -105 -23.5 -179.5t12 -122t52.5 -69.5t99 -22q64 0 111 20t80.5 64t57.5 113.5t42 168.5l9 47q18 100 25.5 166.5t3 110t-20 69t-42.5 43.5q-8 5 -9 10.5t2 14.5l45 122
q6 15 20 10q71 -23 110 -70.5t53.5 -117t7.5 -160t-28 -199.5l-11 -56q-29 -149 -69.5 -247.5t-98.5 -157t-135 -82.5t-180 -24q-106 0 -171.5 59t-75.5 171q-25 -62 -61 -105.5t-80.5 -71.5t-95.5 -40.5t-106 -12.5zM850 1243q-16 0 -12 16l78 327q4 16 20 16h156
q16 0 10 -15l-127 -329q-4 -8 -8.5 -11.5t-13.5 -3.5h-103z" />
    <glyph glyph-name="afii10023" unicode="&#x401;" horiz-adv-x="1191" 
d="M97 0q-16 0 -13 16l266 1443q3 16 19 16h848q16 0 13 -16l-26 -144q-3 -16 -19 -16h-684l-79 -427h575q16 0 13 -16l-27 -143q-3 -16 -19 -16h-575l-95 -522h683q16 0 13 -16l-27 -143q-3 -16 -19 -16h-847zM583 1604q-16 0 -13 16l37 199q3 16 19 19l148 23q16 3 13 -13
l-43 -228q-3 -16 -19 -16h-142zM920 1604q-16 0 -13 16l36 199q3 16 19 19l148 23q16 3 13 -13l-42 -228q-3 -16 -19 -16h-142z" />
    <glyph glyph-name="afii10051" unicode="&#x402;" horiz-adv-x="1492" 
d="M389 0q-16 0 -13 16l238 1283h-454q-16 0 -13 16l27 144q3 16 19 16h1088q16 0 13 -16l-27 -144q-3 -16 -19 -16h-454l-60 -324q40 18 84.5 32.5t91 25t92.5 16t90 5.5q106 0 171.5 -26.5t98 -83t34 -144.5t-20.5 -212l-46 -252q-20 -110 -49.5 -180t-73.5 -110
t-106.5 -55t-148.5 -15q-31 0 -67.5 3t-66.5 11q-16 4 -10 20l41 115q5 15 21 11q21 -4 44.5 -6.5t46.5 -2.5q45 0 76 9t52.5 33t35.5 64.5t25 103.5l43 232q17 91 18 152t-19.5 98t-66.5 52t-122 15q-33 0 -70 -4t-75.5 -11.5t-77 -19.5t-73.5 -27l-150 -808
q-3 -16 -19 -16h-148z" />
    <glyph glyph-name="afii10052" unicode="&#x403;" horiz-adv-x="1082" 
d="M96 0q-16 0 -13 16l268 1443q3 16 19 16h817q16 0 13 -16l-25 -139q-3 -16 -19 -16h-655l-239 -1288q-3 -16 -19 -16h-147zM655 1604q-16 0 -4 10l232 195q7 5 13 7.5t15 2.5h205q7 0 7.5 -2.5t-4.5 -6.5l-270 -197q-7 -5 -13.5 -7t-15.5 -2h-165z" />
    <glyph glyph-name="afii10053" unicode="&#x404;" horiz-adv-x="1174" 
d="M604 -24q-142 0 -245 39t-162.5 123t-73.5 215.5t22 315.5l25 141q37 210 99 343.5t151 210.5t205 106t261 29q92 0 175 -10t140 -27q16 -4 10 -20l-48 -131q-4 -8 -8.5 -10.5t-13.5 -0.5q-63 14 -137 18.5t-145 4.5q-95 0 -173 -22t-139.5 -74t-106.5 -138.5t-74 -216.5
h637q16 0 13 -16l-27 -143q-3 -16 -19 -16h-638l-7 -39q-27 -145 -20 -242.5t47.5 -156t113.5 -83t177 -24.5q167 0 302 21q16 3 16 -13l-5 -132q0 -16 -16 -20q-64 -15 -152.5 -23.5t-183.5 -8.5z" />
    <glyph glyph-name="afii10054" unicode="&#x405;" horiz-adv-x="1188" 
d="M397 -24q-103 0 -200.5 9.5t-166.5 26.5q-16 4 -10 19l53 130q5 15 22 12q48 -8 90 -13t81 -8t77 -4.5t78 -1.5q133 0 219 16.5t136.5 52t70.5 91.5t20 135q0 39 -14 67.5t-45.5 54t-83 51t-126.5 58.5l-132 61q-72 33 -124 68t-85.5 75t-49 86.5t-15.5 102.5
q0 115 31.5 197t105.5 134.5t197.5 77.5t306.5 25q92 0 178.5 -8t151.5 -25q14 -4 9 -19l-49 -126q-5 -15 -22 -12q-32 5 -69 9t-75 6.5t-74.5 3.5t-66.5 1q-129 0 -213.5 -12.5t-134 -40.5t-69 -74.5t-19.5 -113.5q0 -43 15.5 -73.5t47.5 -55t80 -47.5t113 -50l154 -67
q76 -32 127.5 -66.5t82.5 -73t44 -82.5t13 -96q0 -141 -35 -237t-113 -154.5t-204 -84t-308 -25.5z" />
    <glyph glyph-name="afii10055" unicode="&#x406;" horiz-adv-x="574" 
d="M97 0q-16 0 -13 16l266 1443q3 16 19 16h147q16 0 13 -16l-266 -1443q-3 -16 -19 -16h-147z" />
    <glyph glyph-name="afii10056" unicode="&#x407;" horiz-adv-x="575" 
d="M97 0q-16 0 -13 16l266 1443q3 16 19 16h147q16 0 13 -16l-266 -1443q-3 -16 -19 -16h-147zM234 1604q-16 0 -13 16l37 199q3 16 19 19l148 23q16 3 13 -13l-43 -228q-3 -16 -19 -16h-142zM571 1604q-16 0 -13 16l36 199q3 16 19 19l148 23q16 3 13 -13l-42 -228
q-3 -16 -19 -16h-142z" />
    <glyph glyph-name="afii10057" unicode="&#x408;" horiz-adv-x="575" 
d="M-85 -307q-31 0 -66 4t-62 10q-16 4 -11 19l46 131q4 16 21 12q21 -4 41 -4.5t39 -0.5q31 0 57 5t46 20.5t34.5 45t23.5 78.5l267 1446q3 16 19 16h147q16 0 13 -16l-269 -1459q-15 -81 -42 -139t-68.5 -95.5t-99.5 -55t-136 -17.5z" />
    <glyph glyph-name="afii10058" unicode="&#x409;" horiz-adv-x="2008" 
d="M1207 -24q-36 0 -80 1.5t-90.5 4.5t-95 7t-93.5 9q-16 1 -13 18l238 1283h-503q-45 -243 -85.5 -429t-82.5 -325t-86.5 -235.5t-97.5 -160.5t-115.5 -99.5t-140.5 -52.5q-16 -3 -16 13l-3 140q0 17 16 21q51 14 93 48t78 93.5t67.5 147t62.5 207.5t63 275.5t68 351.5
l30 165q3 16 19 16h829q16 0 13 -16l-105 -565q19 3 43.5 5.5t51 4t52 2.5t46.5 1q156 0 269 -16.5t181 -64.5t90 -134t-5 -225l-9 -47q-19 -102 -48.5 -174.5t-71.5 -122t-96.5 -78.5t-124.5 -44.5t-156.5 -20t-191.5 -4.5zM1725 468q17 94 4 149t-58 83t-122 35.5
t-188 7.5q-47 0 -106 -3.5t-108 -9.5l-108 -585q49 -3 102.5 -4.5t102.5 -1.5q113 0 194.5 8t137.5 36.5t89.5 84t50.5 150.5z" />
    <glyph glyph-name="afii10059" unicode="&#x40a;" horiz-adv-x="2132" 
d="M97 0q-16 0 -13 16l266 1443q3 16 19 16h147q16 0 13 -16l-107 -587h697l108 587q3 16 19 16h148q16 0 13 -16l-105 -565q19 3 43.5 5.5t50.5 4t51.5 2.5t46.5 1q156 0 269 -16.5t181 -64.5t90 -134t-5 -225l-9 -47q-20 -102 -49 -174.5t-71 -122t-96.5 -78.5
t-124.5 -44.5t-156.5 -20t-191.5 -4.5q-36 0 -80 1.5t-90.5 4.5t-95 7.5t-93.5 9.5q-16 1 -13 17l127 681h-697l-126 -681q-3 -16 -19 -16h-147zM1849 468q17 94 4 149t-58 83t-122 35.5t-188 7.5q-46 0 -105 -3.5t-109 -9.5l-108 -585q49 -3 102.5 -4.5t102.5 -1.5
q113 0 194.5 8t137.5 36.5t89.5 84t50.5 150.5z" />
    <glyph glyph-name="afii10060" unicode="&#x40b;" horiz-adv-x="1527" 
d="M389 0q-16 0 -13 16l238 1283h-454q-16 0 -13 16l27 144q3 16 19 16h1088q16 0 13 -16l-27 -144q-3 -16 -19 -16h-454l-61 -327q41 19 86.5 34.5t93.5 26t96 16t93 5.5q105 0 170.5 -27.5t98 -84.5t34.5 -143.5t-20 -204.5l-106 -578q-1 -16 -19 -16h-145q-16 0 -13 16
l103 553q16 91 17.5 152t-19 98t-65.5 52t-121 15q-36 0 -75.5 -4.5t-80.5 -13.5t-81 -22.5t-76 -31.5l-148 -798q-3 -16 -19 -16h-148z" />
    <glyph glyph-name="afii10061" unicode="&#x40c;" horiz-adv-x="1175" 
d="M97 0q-16 0 -13 16l267 1443q3 16 19 16h147q16 0 13 -16l-108 -586l660 591q12 11 28 11h206q15 0 4 -11l-781 -700l492 -751q10 -13 -7 -13h-177q-16 0 -25 13l-436 670l-123 -667q-3 -16 -19 -16h-147zM707 1604q-16 0 -4 10l232 195q7 5 13 7.5t15 2.5h205
q7 0 7.5 -2.5t-4.5 -6.5l-270 -197q-7 -5 -13.5 -7t-15.5 -2h-165z" />
    <glyph glyph-name="afii10062" unicode="&#x40e;" horiz-adv-x="1061" 
d="M128 -24q-35 0 -68.5 4.5t-61.5 13.5q-16 6 -10 21l40 112q5 15 21 12q23 -5 49.5 -7.5t48.5 -2.5q55 0 96.5 8.5t76.5 32t67.5 65.5t68.5 110l-263 1114q-4 16 12 16h160q16 0 19 -16l163 -782q8 -41 10.5 -71t3.5 -44l426 899q4 8 9 11t14 3h163q17 0 9 -14l-559 -1106
q-43 -83 -80.5 -143.5t-72.5 -102.5t-71 -68t-76.5 -40.5t-88 -19.5t-106.5 -5zM704 1580q-134 0 -192 58.5t-47 172.5q1 16 18 16h98q16 0 16 -16q-1 -33 9.5 -55t27.5 -35t39 -18t45 -5q25 0 49 5.5t45 18.5t38 35t28 55q5 15 22 15h107q16 0 12 -16q-17 -61 -39.5 -104.5
t-58.5 -71.5t-88.5 -41.5t-128.5 -13.5z" />
    <glyph glyph-name="afii10145" unicode="&#x40f;" horiz-adv-x="1415" 
d="M97 0q-16 0 -13 16l267 1443q3 16 19 16h147q16 0 13 -16l-237 -1284h661l237 1284q3 16 19 16h148q16 0 13 -16l-267 -1443q-3 -16 -19 -16h-405l-47 -256q-3 -16 -19 -16h-147q-16 0 -13 16l47 256h-404z" />
    <glyph glyph-name="afii10017" unicode="&#x410;" horiz-adv-x="1294" 
d="M-75 0q-17 0 -9 14l765 1447q4 8 9 11t14 3h217q16 0 19 -16l229 -1443q3 -16 -13 -16h-163q-17 0 -18 16l-52 344h-629l-179 -346q-4 -8 -9 -11t-14 -3h-167zM781 1299l-398 -767h514z" />
    <glyph glyph-name="afii10018" unicode="&#x411;" horiz-adv-x="1277" 
d="M433 -19q-31 0 -71.5 1.5t-85.5 4t-91 5.5t-88 7q-9 2 -12 5.5t-1 12.5l267 1442q3 16 19 16h815q16 0 13 -16l-27 -144q-3 -16 -19 -16h-652l-73 -398q16 1 39 2.5t47 2l48 1t44 0.5q154 0 268 -16.5t184 -64.5t95 -134t1 -225l-8 -47q-18 -105 -49.5 -178.5t-77 -122
t-105 -76.5t-132.5 -41.5t-160 -17t-188 -3.5zM973 469q18 94 4.5 148.5t-59 82.5t-124 36t-191.5 8q-49 0 -105.5 -1.5t-101.5 -5.5l-108 -585q48 -4 102 -6t102 -2q113 0 194.5 8t137.5 36t89.5 82.5t50.5 147.5z" />
    <glyph glyph-name="afii10019" unicode="&#x412;" horiz-adv-x="1329" 
d="M454 -19q-37 0 -81 1t-91 3t-95 4.5t-92 6.5q-16 1 -13 17l268 1446q3 16 19 17q36 3 79 6t89.5 5t93 3t90.5 1q151 0 256.5 -18t168.5 -59t84.5 -108.5t3.5 -166.5l-2 -11q-12 -66 -32 -115t-46.5 -84t-58.5 -58.5t-68 -36.5q45 -22 79 -56.5t54.5 -81t25.5 -104
t-8 -126.5l-9 -47q-20 -105 -52.5 -178.5t-77.5 -122.5t-103.5 -76.5t-131 -41t-160 -16.5t-190.5 -3zM995 457q14 74 5 122.5t-36.5 77t-71.5 40t-100 11.5h-402l-103 -556q52 -4 112 -6t114 -2q113 0 195 7.5t138.5 35t90 81.5t50.5 146zM722 1328q-64 0 -117 -1.5
t-101 -6.5l-84 -452h355q115 3 182.5 60t87.5 165l4 15q13 73 -3 117t-58 66.5t-109.5 29.5t-156.5 7z" />
    <glyph glyph-name="afii10020" unicode="&#x413;" horiz-adv-x="1083" 
d="M96 0q-16 0 -13 16l268 1443q3 16 19 16h817q16 0 13 -16l-25 -139q-3 -16 -19 -16h-655l-239 -1288q-3 -16 -19 -16h-147z" />
    <glyph glyph-name="afii10021" unicode="&#x414;" horiz-adv-x="1430" 
d="M-121 -276q-16 0 -13 16l77 415q3 16 19 16h51q36 0 69.5 24t66 77.5t64.5 139.5t65.5 211t69 291t74.5 380l31 165q3 16 19 16h870q16 0 13 -16l-240 -1288h90q16 0 13 -16l-77 -415q-3 -16 -19 -16h-148q-16 0 -13 16l48 260h-916l-47 -260q-3 -16 -19 -16h-148z
M601 1299q-34 -184 -64 -332t-58.5 -264.5t-55.5 -204t-55 -151.5t-58 -106.5t-64 -69.5h690l209 1128h-544z" />
    <glyph glyph-name="afii10022" unicode="&#x415;" horiz-adv-x="1191" 
d="M97 0q-16 0 -13 16l266 1443q3 16 19 16h848q16 0 13 -16l-26 -144q-3 -16 -19 -16h-684l-79 -427h575q16 0 13 -16l-27 -143q-3 -16 -19 -16h-575l-95 -522h683q16 0 13 -16l-27 -143q-3 -16 -19 -16h-847z" />
    <glyph glyph-name="afii10024" unicode="&#x416;" horiz-adv-x="1779" 
d="M-99 0q-14 0 -5 11l802 777l-521 674q-10 13 6 13h191q9 0 14.5 -2.5t11.5 -10.5l447 -589l108 586q3 16 19 16h148q16 0 13 -16l-109 -586l661 591q12 11 28 11h205q15 0 4 -11l-780 -700l491 -751q10 -13 -7 -13h-176q-16 0 -25 13l-436 670l-123 -667q-3 -16 -19 -16
h-148q-16 0 -13 16l124 667l-692 -672q-11 -11 -27 -11h-192z" />
    <glyph glyph-name="afii10025" unicode="&#x417;" horiz-adv-x="1144" 
d="M349 -24q-93 0 -179 6.5t-153 15.5q-16 1 -12 18l32 138q2 9 6.5 12t13.5 2q77 -8 157 -12t154 -4q95 0 166.5 13.5t122.5 44.5t81.5 81.5t44.5 124.5l7 35q8 43 4 87.5t-29 80.5t-75.5 59t-134.5 23h-349q-16 0 -13 16l24 140q3 16 19 16h346q87 0 146 20.5t97 51.5
t57 68t25 71l4 22q12 63 -5 105t-59.5 67t-108.5 35.5t-153 10.5q-74 0 -149.5 -4.5t-150.5 -11.5q-16 -3 -14 14l17 137q2 9 5.5 13t12.5 5q68 8 151 15t171 7q127 0 223 -23t157 -69t85 -115t6 -160l-5 -26q-14 -70 -38.5 -123t-63 -92.5t-92 -66t-124.5 -42.5
q67 -19 109 -57.5t63.5 -86.5t26 -100.5t-4.5 -99.5l-7 -39q-24 -134 -75.5 -217t-128.5 -129t-180 -61.5t-230 -15.5z" />
    <glyph glyph-name="afii10026" unicode="&#x418;" horiz-adv-x="1461" 
d="M1178 1150q-10 -16 -23 -34q-11 -16 -27 -37t-36 -47l-792 -1010q-8 -9 -18.5 -15.5t-29.5 -6.5h-155q-16 0 -13 16l266 1443q3 16 19 16h147q16 0 13 -16l-209 -1135h3q9 13 21 31q11 15 25.5 35.5t34.5 45.5l803 1024q11 15 32 15h165q16 0 13 -16l-266 -1443
q-3 -16 -19 -16h-147q-16 0 -13 16l209 1134h-3z" />
    <glyph glyph-name="afii10027" unicode="&#x419;" horiz-adv-x="1462" 
d="M1178 1150q-10 -16 -23 -34q-11 -16 -27 -37t-36 -47l-792 -1010q-8 -9 -18.5 -15.5t-29.5 -6.5h-155q-16 0 -13 16l266 1443q3 16 19 16h147q16 0 13 -16l-209 -1135h3q9 13 21 31q11 15 25.5 35.5t34.5 45.5l803 1024q11 15 32 15h165q16 0 13 -16l-266 -1443
q-3 -16 -19 -16h-147q-16 0 -13 16l209 1134h-3zM896 1580q-134 0 -192 58.5t-47 172.5q1 16 18 16h98q16 0 16 -16q-1 -33 9.5 -55t27.5 -35t39 -18t45 -5q25 0 49 5.5t45 18.5t38 35t28 55q5 15 22 15h107q16 0 12 -16q-17 -61 -39.5 -104.5t-58.5 -71.5t-88.5 -41.5
t-128.5 -13.5z" />
    <glyph glyph-name="afii10028" unicode="&#x41a;" horiz-adv-x="1175" 
d="M97 0q-16 0 -13 16l267 1443q3 16 19 16h147q16 0 13 -16l-108 -586l660 591q12 11 28 11h206q15 0 4 -11l-781 -700l492 -751q10 -13 -7 -13h-177q-16 0 -25 13l-436 670l-123 -667q-3 -16 -19 -16h-147z" />
    <glyph glyph-name="afii10029" unicode="&#x41b;" horiz-adv-x="1380" 
d="M570 1299q-43 -238 -83.5 -422t-82 -323t-86.5 -237t-98.5 -163.5t-116.5 -102.5t-141 -54q-16 -3 -16 13l-3 140q0 17 16 21q51 14 93 48t78 93.5t67.5 147t62.5 207.5t63 275.5t68 351.5l30 165q3 16 19 16h884q16 0 13 -16l-268 -1443q-3 -16 -19 -16h-147
q-16 0 -13 16l238 1283h-558v0z" />
    <glyph glyph-name="afii10030" unicode="&#x41c;" horiz-adv-x="1667" 
d="M97 0q-16 0 -13 16l266 1443q3 16 19 16h163q9 0 13.5 -3.5t8.5 -11.5l246 -655q7 -18 13 -36t10.5 -33t7 -25l2.5 -10l6.5 9.5t17 24.5t23.5 34t27 37l487 656q6 8 11.5 10.5t14.5 2.5h190q16 0 13 -16l-267 -1443q-3 -16 -19 -16h-148q-16 0 -13 16l205 1106l11 72
q-2 -1 -17.5 -24.5t-34.5 -50.5l-457 -622q-9 -13 -25 -13h-106q-16 0 -21 15l-221 612q-11 33 -17.5 58t-8.5 25l-18 -88l-203 -1090q-3 -16 -19 -16h-147z" />
    <glyph glyph-name="afii10031" unicode="&#x41d;" horiz-adv-x="1451" 
d="M97 0q-16 0 -13 16l266 1443q3 16 19 16h147q16 0 13 -16l-107 -587h697l108 587q3 16 19 16h148q16 0 13 -16l-268 -1443q-3 -16 -19 -16h-147q-16 0 -13 16l126 681h-697l-126 -681q-3 -16 -19 -16h-147z" />
    <glyph glyph-name="afii10032" unicode="&#x41e;" horiz-adv-x="1433" 
d="M596 -24q-139 0 -239 38t-158.5 120.5t-72.5 214t19 319.5l25 140q37 208 99 342t150 211.5t202.5 107.5t256.5 30q139 0 238.5 -37.5t157 -120t71.5 -214t-18 -320.5l-24 -140q-36 -207 -97.5 -340.5t-149.5 -211.5t-203 -108.5t-257 -30.5zM844 1318
q-96 0 -174.5 -23.5t-140 -81t-105.5 -154t-71 -241.5l-28 -160q-27 -147 -20 -243.5t46 -154t108.5 -81t168.5 -23.5q95 0 174 24.5t140.5 82.5t105.5 154.5t70 241.5l30 158q27 145 20 241.5t-46 154.5t-109 81.5t-169 23.5z" />
    <glyph glyph-name="afii10033" unicode="&#x41f;" horiz-adv-x="1451" 
d="M97 0q-16 0 -13 16l267 1443q3 16 19 16h1022q16 0 13 -16l-267 -1443q-3 -16 -19 -16h-147q-16 0 -13 16l238 1283h-696l-238 -1283q-3 -16 -19 -16h-147z" />
    <glyph glyph-name="afii10034" unicode="&#x420;" horiz-adv-x="1296" 
d="M698 1328q-17 0 -43.5 -0.5t-54 -2t-53.5 -3t-42 -2.5l-116 -622q16 -2 41.5 -3t53 -2t54 -1.5t43.5 -0.5q132 0 222 11t149 42.5t91.5 88.5t49.5 148l11 56q16 91 4.5 148t-58 88.5t-133 43t-219.5 11.5zM96 0q-16 0 -13 16l269 1443q3 16 19 17q42 3 91.5 5.5t98 5
t92 3.5t74.5 1q170 0 287.5 -19.5t186 -69t89 -134.5t-3.5 -215l-16 -87q-18 -98 -44.5 -169t-66 -119.5t-94 -78t-129 -45.5t-170.5 -21t-218 -5q-20 0 -49 0.5t-57.5 1t-51.5 1.5t-32 2l-95 -517q-3 -16 -19 -16h-148z" />
    <glyph glyph-name="afii10035" unicode="&#x421;" horiz-adv-x="1170" 
d="M621 -24q-144 0 -250 36.5t-169 119t-79.5 214t17.5 322.5l25 140q36 204 102 337.5t159 212t213 110t264 31.5q96 0 182 -10t145 -27q16 -4 10 -20l-48 -131q-5 -15 -21 -12q-67 14 -143 20t-150 6q-104 0 -189.5 -24.5t-151.5 -83t-113.5 -156t-74.5 -243.5l-28 -160
q-28 -147 -17.5 -245t55 -156.5t121 -82.5t180.5 -24q90 0 167.5 6t145.5 17q16 3 16 -13l-4 -132q0 -16 -16 -20q-65 -15 -156.5 -23.5t-191.5 -8.5z" />
    <glyph glyph-name="afii10036" unicode="&#x422;" horiz-adv-x="1173" 
d="M390 0q-16 0 -13 16l238 1283h-454q-16 0 -13 16l27 144q3 16 19 16h1088q16 0 13 -16l-27 -144q-3 -16 -19 -16h-454l-238 -1283q-3 -16 -19 -16h-148z" />
    <glyph glyph-name="afii10037" unicode="&#x423;" horiz-adv-x="1061" 
d="M128 -24q-35 0 -68.5 4.5t-61.5 13.5q-16 6 -10 21l40 112q5 15 21 12q23 -5 49.5 -7.5t48.5 -2.5q55 0 96.5 8.5t76.5 32t67.5 65.5t68.5 110l-263 1114q-4 16 12 16h160q16 0 19 -16l163 -782q8 -41 10.5 -71t3.5 -44l426 899q4 8 9 11t14 3h163q17 0 9 -14l-559 -1106
q-43 -83 -80.5 -143.5t-72.5 -102.5t-71 -68t-76.5 -40.5t-88 -19.5t-106.5 -5z" />
    <glyph glyph-name="afii10038" unicode="&#x424;" horiz-adv-x="1774" 
d="M547 159q-137 0 -232 25.5t-149.5 85t-68 155.5t13.5 237l25 132q22 116 51.5 199.5t68.5 141.5t88.5 93.5t111.5 54.5t138 25.5t167 6.5q29 0 73.5 -1t88.5 -5l28 150q3 16 19 16h147q16 0 13 -16l-28 -150q45 5 89.5 5.5t74.5 0.5q136 0 231.5 -26.5t149.5 -87.5
t67 -160.5t-15 -246.5l-25 -132q-21 -112 -50 -193t-68 -136.5t-88.5 -90t-111.5 -53t-137.5 -24.5t-166.5 -6q-44 0 -87 2t-75 4l-28 -149q-3 -16 -19 -16h-147q-16 0 -13 16l28 149q-26 -2 -66.5 -4t-97.5 -2zM1238 1151q-16 0 -38.5 -0.5t-46 -1t-45 -2t-36.5 -3.5
l-151 -815q28 -2 72 -4t92 -2q86 0 153.5 14t118.5 53t85 108t54 179l16 90q22 119 15.5 194t-41 117t-96.5 57.5t-152 15.5zM729 1151q-88 0 -155.5 -14.5t-118 -55.5t-85.5 -113.5t-56 -187.5l-19 -103q-20 -110 -11.5 -179t44 -108t98 -53t149.5 -14q48 0 92.5 2t73.5 4
l152 815q-14 2 -35.5 3.5t-44.5 2t-45.5 1t-38.5 0.5z" />
    <glyph glyph-name="afii10039" unicode="&#x425;" horiz-adv-x="1269" 
d="M927 0q-17 0 -22 15l-263 593l-485 -596q-6 -7 -11.5 -9.5t-14.5 -2.5h-197q-16 0 -6 12l611 725l-342 724q-8 14 9 14h175q16 0 23 -15l264 -588l484 591q6 7 11.5 9.5t14.5 2.5h197q16 0 6 -12l-610 -725l340 -724q8 -14 -9 -14h-175z" />
    <glyph glyph-name="afii10040" unicode="&#x426;" horiz-adv-x="1457" 
d="M97 0q-16 0 -13 16l267 1443q3 16 19 16h148q16 0 13 -16l-238 -1284h661l237 1284q3 16 19 16h148q16 0 13 -16l-238 -1284h105q16 0 13 -16l-77 -415q-3 -16 -19 -16h-147q-16 0 -13 16l47 256h-945z" />
    <glyph glyph-name="afii10041" unicode="&#x427;" horiz-adv-x="1234" 
d="M499 581q-113 0 -188 27.5t-116 81.5t-49 134t14 185l83 450q1 16 19 16h145q16 0 13 -16l-78 -422q-15 -82 -13.5 -137t27.5 -88t80 -47t143 -14q37 0 78.5 3.5t84 11t84 18t77.5 24.5l121 651q3 16 19 16h145q16 0 13 -16l-268 -1443q-1 -16 -19 -16h-145q-16 0 -13 16
l115 622q-38 -13 -85 -23.5t-96.5 -18t-99 -11.5t-91.5 -4z" />
    <glyph glyph-name="afii10042" unicode="&#x428;" horiz-adv-x="2032" 
d="M97 0q-16 0 -13 16l267 1443q3 16 19 16h147q16 0 13 -16l-238 -1284h550l238 1284q3 16 19 16h148q16 0 13 -16l-238 -1284h550l238 1284q3 16 19 16h146q16 0 13 -16l-267 -1443q-3 -16 -19 -16h-1605z" />
    <glyph glyph-name="afii10043" unicode="&#x429;" horiz-adv-x="2075" 
d="M97 0q-16 0 -13 16l267 1443q3 16 19 16h147q16 0 13 -16l-238 -1284h550l238 1284q3 16 19 16h148q16 0 13 -16l-238 -1284h550l238 1284q3 16 19 16h146q16 0 13 -16l-238 -1284h106q16 0 13 -16l-77 -415q-3 -16 -19 -16h-148q-16 0 -13 16l48 256h-1563z" />
    <glyph glyph-name="afii10044" unicode="&#x42a;" horiz-adv-x="1362" 
d="M170 1299q-16 0 -13 16l27 144q3 16 19 16h419q16 0 13 -16l-105 -565q19 3 43.5 5.5t51 4t52 2.5t46.5 1q156 0 269 -16.5t181 -64.5t90 -134t-5 -225l-9 -47q-20 -102 -49 -174.5t-70.5 -122t-96.5 -78.5t-125 -44.5t-156.5 -20t-191.5 -4.5q-36 0 -80 1.5t-90.5 4.5
t-95 7t-93.5 9q-16 1 -13 18l237 1283h-255zM1078 468q17 94 4 149t-58 83t-122 35.5t-188 7.5q-23 0 -50 -1t-55.5 -2.5t-56.5 -4t-52 -5.5l-107 -578q48 -4 101.5 -6t102.5 -2q113 0 194.5 8t137.5 36t89.5 82.5t50.5 147.5z" />
    <glyph glyph-name="afii10045" unicode="&#x42b;" horiz-adv-x="1858" 
d="M456 -24q-36 0 -80 1.5t-90.5 4.5t-95 7t-93.5 9q-16 1 -13 18l267 1443q3 16 19 16h147q16 0 13 -16l-105 -565q19 3 44 5.5t51.5 4t52 2.5t46.5 1q155 0 267 -16.5t179 -64.5t89.5 -134t-1.5 -225l-8 -47q-17 -102 -46 -175t-70.5 -122.5t-97 -78.5t-126 -44
t-157.5 -19.5t-192 -4.5zM973 468q17 94 4 149t-58 83t-122 35.5t-188 7.5q-47 0 -106 -3.5t-108 -9.5l-107 -578q48 -4 102 -6t102 -2q113 0 194.5 8t137.5 36t89.5 82.5t50.5 147.5zM1380 0q-16 0 -13 16l267 1443q3 16 19 16h148q16 0 13 -16l-267 -1443q-3 -16 -19 -16
h-148z" />
    <glyph glyph-name="afii10046" unicode="&#x42c;" horiz-adv-x="1256" 
d="M455 -24q-36 0 -80 1.5t-90.5 4.5t-95 7t-93.5 9q-16 1 -13 18l267 1443q3 16 19 16h148q16 0 13 -16l-105 -565q18 3 43 5.5t51.5 4t52 2.5t46.5 1q156 0 269 -16.5t181 -64.5t90 -134t-5 -225l-9 -47q-19 -102 -48.5 -174.5t-71.5 -122t-96.5 -78.5t-124.5 -44.5
t-156.5 -20t-191.5 -4.5zM973 468q17 94 4 149t-58 83t-122 35.5t-188 7.5q-23 0 -50.5 -1t-56 -2.5t-56.5 -4t-52 -5.5l-107 -578q49 -4 102.5 -6t102.5 -2q113 0 194.5 8t137 36t89 82.5t50.5 147.5z" />
    <glyph glyph-name="afii10047" unicode="&#x42d;" horiz-adv-x="1174" 
d="M613 1499q142 0 244 -42t161.5 -128t73.5 -216t-20 -307l-27 -139q-41 -211 -103 -345.5t-149.5 -211t-202 -105.5t-259.5 -29q-95 0 -181.5 9t-144.5 26q-16 4 -10 20l48 131q5 15 22 11q64 -14 140 -18t148 -4q99 0 182.5 25t149.5 87t112.5 167.5t70.5 266.5h-637
q-16 0 -13 16l27 143q3 16 19 16h638q13 118 4.5 203t-46 140t-107.5 81.5t-179 26.5q-82 0 -154 -6t-138 -17q-16 -3 -16 13v129q0 16 16 20q63 15 150.5 26t180.5 11z" />
    <glyph glyph-name="afii10048" unicode="&#x42e;" horiz-adv-x="2037" 
d="M1201 -24q-139 0 -239 38t-158.5 120.5t-72.5 214t19 319.5l5 29h-366l-125 -681q-3 -16 -19 -16h-148q-16 0 -13 16l267 1443q3 16 19 16h148q16 0 13 -16l-108 -587h364q39 187 101.5 308.5t149 192.5t197.5 98.5t248 27.5q139 0 238.5 -37.5t157 -120t71.5 -214
t-18 -320.5l-24 -140q-36 -207 -97.5 -340.5t-149.5 -211.5t-203 -108.5t-257 -30.5zM1449 1318q-96 0 -174.5 -23.5t-140 -81t-105.5 -154t-71 -241.5l-28 -160q-27 -147 -20 -243.5t46 -154t108.5 -81t168.5 -23.5q95 0 174 24.5t140.5 82.5t105.5 154.5t70 241.5l30 158
q27 145 20 241.5t-46 154.5t-109 81.5t-169 23.5z" />
    <glyph glyph-name="afii10049" unicode="&#x42f;" horiz-adv-x="1367" 
d="M198 14q-7 -9 -14 -11.5t-16 -2.5h-174q-8 0 -9 4.5t4 11.5l380 486q15 19 30 36.5t30 34.5q-60 12 -104 30.5t-73 46.5q-52 48 -65.5 127t6.5 189l19 103q17 96 44 164t67 114.5t94.5 74t128 42t166.5 19t210 4.5q99 0 196.5 -2t191.5 -10q16 -1 13 -16l-267 -1443
q-3 -16 -19 -16h-147q-16 0 -13 16l101 541q-36 -2 -67.5 -3.5t-60.5 -2.5t-57 -1h-57h-63t-59 2zM1118 1316q-18 3 -45.5 4.5t-59.5 2t-65.5 1t-62.5 0.5q-122 0 -208 -6.5t-144 -33.5t-92 -81.5t-52 -150.5l-11 -61q-18 -95 -5.5 -150t59 -83.5t129.5 -36.5t207 -8
q23 0 52.5 0.5t61.5 1t64 2t61 4.5z" />
    <glyph glyph-name="afii10065" unicode="&#x430;" horiz-adv-x="1183" 
d="M902 929q-45 5 -102 8.5t-124 3.5q-99 0 -165 -17t-109 -59t-69.5 -112.5t-47.5 -176.5l-14 -74q-20 -108 -20 -180t28 -115t89 -61t163 -18q60 0 120.5 3t102.5 8zM505 -24q-143 0 -233.5 29t-137.5 89.5t-54 154.5t18 224l24 126q29 152 70.5 248.5t108 151t164 75
t237.5 20.5q46 0 96 -1.5t99.5 -4.5t97 -7t89.5 -8q16 -1 13 -18l-193 -1039q-2 -9 -6 -12.5t-13 -5.5q-101 -11 -196.5 -16.5t-183.5 -5.5z" />
    <glyph glyph-name="afii10066" unicode="&#x431;" horiz-adv-x="1191" 
d="M495 -24q-125 0 -207 35t-125.5 101t-51.5 161.5t15 215.5l14 74q28 153 54 268.5t57 202t71 147t98 103.5t137 71.5t187 51.5q94 20 160 38t109.5 38.5t67 45.5t32.5 58q5 16 21 16h114q16 0 13 -16q-12 -56 -37.5 -102t-74 -82.5t-124.5 -65.5t-190 -51
q-65 -13 -118.5 -26t-97.5 -29t-80 -38t-65.5 -52.5t-53.5 -72.5t-45 -98q67 52 151 82t187 30q119 0 196.5 -35t118.5 -101.5t47.5 -162t-16.5 -215.5l-15 -79q-28 -146 -71 -244t-108.5 -158t-156 -85.5t-213.5 -25.5zM672 931q-82 0 -141.5 -21t-102.5 -66t-71 -115.5
t-47 -170.5l-11 -59q-18 -100 -17.5 -171t25.5 -116t77.5 -65.5t138.5 -20.5q84 0 144.5 21t103 66.5t70 116.5t45.5 171l11 57q18 99 17.5 169.5t-26 116t-78.5 66.5t-138 21z" />
    <glyph glyph-name="afii10067" unicode="&#x432;" horiz-adv-x="1133" 
d="M378 -13q-31 0 -68.5 0.5t-78 2t-82.5 4t-81 5.5q-16 1 -13 17l192 1039q3 16 19 17q32 3 71.5 5t80.5 3.5t82.5 2.5t77.5 1q131 0 218.5 -17t137 -51t64.5 -85t3 -118q-15 -82 -51.5 -133t-100.5 -78q31 -15 59 -37t46 -53t24.5 -72.5t-3.5 -95.5l-9 -45
q-15 -75 -39.5 -127.5t-60 -87t-82.5 -54t-107.5 -29.5t-134.5 -12t-164 -2zM796 349q9 48 -0.5 76.5t-34 44t-62 20.5t-84.5 5h-292l-63 -340q41 -4 88 -4.5t96 -0.5q85 0 145.5 5t101.5 22t64.5 49.5t33.5 87.5zM568 922q-42 0 -85.5 -0.5t-81.5 -5.5l-52 -277h325
q37 9 61.5 24.5t40.5 34.5t24 41t13 45q9 47 -2 74.5t-41 41.5t-80.5 18t-121.5 4z" />
    <glyph glyph-name="afii10068" unicode="&#x433;" horiz-adv-x="993" 
d="M425 -24q-200 0 -302.5 55.5t-102.5 180.5q0 97 17 156.5t57 98t106 65t165 58.5l167 54q69 22 112.5 40t68.5 38.5t34.5 48t9.5 69.5q0 29 -13.5 48.5t-44 31t-81 16t-123.5 4.5q-69 0 -134.5 -4.5t-122.5 -10.5q-17 -1 -16 16l7 114q1 9 4 12t13 5q80 11 153.5 16.5
t141.5 5.5q198 0 295 -53.5t97 -165.5q0 -90 -18.5 -147.5t-56 -95t-95 -63t-135.5 -50.5l-197 -65q-67 -23 -112.5 -41.5t-73 -40.5t-39 -51.5t-11.5 -75.5q0 -34 14.5 -56.5t47 -35.5t83.5 -18.5t124 -5.5q37 0 70.5 1t68 3.5t72 7.5t83.5 13q19 3 18 -14l-9 -117
q-1 -9 -4 -12t-13 -5q-106 -20 -189 -25t-136 -5z" />
    <glyph glyph-name="afii10069" unicode="&#x434;" horiz-adv-x="1161" 
d="M456 -26q-124 0 -205 37t-123 107.5t-48.5 172.5t17.5 233l12 64q26 142 78 237.5t136.5 154.5t205 85.5t284.5 29.5q-53 122 -159 217t-278 162q-8 4 -11 8.5t-1 13.5l21 117q3 16 18 12q207 -60 340.5 -169.5t205 -254.5t85 -317t-19.5 -357q-29 -162 -73.5 -268.5
t-110.5 -169.5t-158 -89t-216 -26zM482 126q82 0 142 21t103.5 69t72.5 125.5t49 191.5q20 117 22 221t-15 198q-152 -1 -255 -23.5t-169.5 -68.5t-103 -116.5t-54.5 -167.5l-7 -41q-20 -108 -21 -185.5t23.5 -127t76 -73t136.5 -23.5z" />
    <glyph glyph-name="afii10070" unicode="&#x435;" horiz-adv-x="1149" 
d="M481 -24q-130 0 -214.5 30.5t-129.5 94.5t-53 162t15 233l15 88q24 138 67 235t110.5 158t162.5 89t223 28q104 0 178.5 -23.5t122.5 -68.5t71 -111t23 -151q0 -50 -6.5 -93.5t-16 -78t-19.5 -60t-16 -38.5q-4 -8 -8.5 -11t-13.5 -3l-731 -1q-14 -95 -8.5 -158
t35.5 -100.5t86.5 -53.5t143.5 -16q85 0 172 3.5t182 11.5q16 1 15 -15l-8 -111q-1 -9 -4.5 -12.5t-12.5 -5.5q-91 -10 -183 -16t-198 -6zM896 608q12 89 7.5 152.5t-32.5 104t-82 59t-140 18.5q-84 0 -144.5 -19.5t-103 -61.5t-70 -107.5t-45.5 -157.5z" />
    </font>
</defs>
</svg>
