<?xml version="1.0" standalone="no"?>
<!DOCTYPE svg PUBLIC "-//W3C//DTD SVG 1.1//EN" "http://www.w3.org/Graphics/SVG/1.1/DTD/svg11.dtd" >
<svg xmlns="http://www.w3.org/2000/svg" xmlns:xlink="http://www.w3.org/1999/xlink" version="1.1">
<metadata>
Created by FontForge 20160405 at Thu Nov  8 16:57:56 2018
 By www-data
</metadata>
<defs>
<font id="SkodaPro-ExtraBoldItalic" horiz-adv-x="1243" >
  <font-face 
    font-family="Skoda Pro ExtraBold"
    font-weight="800"
    font-style="italic"
    font-stretch="normal"
    units-per-em="2048"
    panose-1="2 0 0 0 0 0 0 0 0 0"
    ascent="1638"
    descent="-410"
    x-height="1071"
    cap-height="1475"
    bbox="-898.033 -481 2869.78 1950"
    underline-thickness="102"
    underline-position="-307"
    slope="-10"
    unicode-range="U+0020-FB02"
  />
<missing-glyph horiz-adv-x="0" 
 />
    <glyph glyph-name=".notdef" horiz-adv-x="0" 
 />
    <glyph glyph-name=".null" horiz-adv-x="0" 
 />
    <glyph glyph-name="nonmarkingreturn" horiz-adv-x="508" 
 />
    <glyph glyph-name="space" unicode=" " horiz-adv-x="508" 
 />
    <glyph glyph-name="exclam" unicode="!" horiz-adv-x="632" 
d="M181 614q-20 0 -17 20l131 821q3 21 23 22l320 37q20 1 16 -18l-178 -862q-4 -20 -24 -20h-271zM48 0q-20 0 -16 20l55 300q4 21 24 22l298 35q20 1 16 -18l-62 -339q-4 -20 -24 -20h-291z" />
    <glyph glyph-name="quotedbl" unicode="&#x22;" horiz-adv-x="1002" 
d="M175 889q-20 0 -16 20l100 546q2 11 7.5 15.5t16.5 6.5l280 26q20 1 16 -18l-107 -576q-4 -20 -24 -20h-273zM639 889q-20 0 -16 20l101 546q2 11 7.5 15.5t16.5 6.5l279 26q20 1 16 -18l-106 -576q-4 -20 -24 -20h-274z" />
    <glyph glyph-name="numbersign" unicode="#" horiz-adv-x="1485" 
d="M624 0q-20 0 -14 19l86 257h-176l-86 -257q-5 -19 -26 -19h-294q-20 0 -14 19l86 257h-166q-21 0 -15 19l72 284q5 19 25 19h192l94 281h-186q-21 0 -15 19l70 281q5 19 25 19h213l87 258q5 19 26 19h292q20 0 14 -19l-87 -258h176l87 258q5 19 26 19h294q20 0 14 -19
l-87 -258h167q21 0 15 -19l-70 -281q-5 -19 -25 -19h-194l-94 -281h187q21 0 15 -19l-71 -284q-5 -19 -25 -19h-214l-86 -257q-5 -19 -26 -19h-292zM721 879l-94 -281h176l94 281h-176z" />
    <glyph glyph-name="dollar" unicode="$" horiz-adv-x="1111" 
d="M262 -215q-20 0 -16 20l35 196q-65 3 -126 9.5t-117 18.5q-20 4 -13 23l87 251q7 19 27 15q51 -9 108 -13.5t123 -6.5l83 318l-88 25q-69 19 -113.5 48.5t-71 67t-37 82t-10.5 93.5q0 131 27.5 226.5t86 160t149 100.5t216.5 48l37 203q4 20 24 20h218q20 0 16 -20
l-36 -197q65 -3 124 -9t111 -16q20 -4 13 -23l-86 -243q-7 -19 -27 -18q-61 4 -113 7t-112 5l-81 -317l88 -25q69 -20 113.5 -49.5t71 -67t37 -81t10.5 -91.5q0 -132 -27.5 -227.5t-86 -160.5t-149 -101.5t-217.5 -48.5l-36 -202q-4 -20 -24 -20h-218zM574 300q39 3 65 12
t42 27.5t23 48.5t7 75q0 31 -18.5 54.5t-70.5 45.5zM579 1175q-39 -4 -65.5 -13.5t-42.5 -28t-22.5 -48t-6.5 -73.5q0 -32 18 -55t70 -45z" />
    <glyph glyph-name="percent" unicode="%" horiz-adv-x="2135" 
d="M429 590q-83 0 -148.5 20.5t-107.5 68t-56 125t7 191.5l20 107q22 115 64.5 192.5t101.5 124t132 66.5t157 20q83 0 148.5 -20t106.5 -66.5t54 -124t-8 -192.5l-18 -107q-22 -114 -64 -191.5t-100.5 -125t-131.5 -68t-157 -20.5zM550 1243q-50 0 -78.5 -29t-42.5 -98
l-24 -135q-13 -63 4.5 -96t68.5 -33q47 0 76.5 33t40.5 96l27 135q12 69 -7.5 98t-64.5 29zM1578 -31q-83 0 -148.5 21t-107 68.5t-55 125t7.5 191.5l18 106q22 115 64.5 192.5t101.5 124.5t132 67t157 20q83 0 148.5 -20t106.5 -67t55 -124.5t-7 -192.5l-20 -106
q-22 -114 -64 -191.5t-100.5 -125t-131.5 -68.5t-157 -21zM1699 623q-50 0 -78.5 -29t-40.5 -98l-27 -136q-11 -63 6 -96t68 -33q47 0 77 33t42 96l25 136q12 69 -7 98t-65 29zM375 0q-21 0 -8 16l1033 1443q12 16 32 16h355q21 0 8 -16l-1032 -1443q-12 -16 -32 -16h-356z
" />
    <glyph glyph-name="ampersand" unicode="&#x26;" horiz-adv-x="1422" 
d="M949 0q-11 0 -18 3.5t-13 13.5l-51 80q-106 -60 -225.5 -94t-255.5 -34q-196 0 -293.5 81.5t-97.5 234.5q0 87 19 154.5t66 127.5t128 120t204 132q-46 83 -68 151t-22 137q0 95 32 169t95 125t155 77.5t212 26.5q88 0 155 -18.5t112 -52t67.5 -81.5t22.5 -107
q0 -78 -20.5 -142.5t-62.5 -121.5t-106.5 -110t-152.5 -108l139 -221q72 86 121 197q5 11 11 14.5t17 3.5h248q20 0 14 -19q-41 -118 -106 -229.5t-153 -207.5l179 -285q11 -17 -9 -17h-343zM347 365q0 -30 11 -49t29.5 -29t43 -13.5t51.5 -3.5q48 0 107.5 16.5t125.5 50.5
l-166 261q-60 -38 -99.5 -68.5t-62 -57.5t-31.5 -53t-9 -54zM767 1239q-71 0 -101 -26.5t-30 -80.5q0 -37 16 -75t40 -77q43 27 73.5 49.5t50 46t28 48.5t8.5 57q0 58 -85 58z" />
    <glyph glyph-name="quotesingle" unicode="'" horiz-adv-x="537" 
d="M175 889q-20 0 -16 20l100 546q2 11 7.5 15.5t16.5 6.5l280 26q20 1 16 -18l-107 -576q-4 -20 -24 -20h-273z" />
    <glyph glyph-name="parenleft" unicode="(" horiz-adv-x="708" 
d="M428 522q-23 -118 -31.5 -236.5t-3 -232t24 -220.5t51.5 -203q7 -19 -13 -19h-317q-20 0 -27 19q-30 85 -49.5 182.5t-27 205.5t-0.5 226.5t31 247.5l18 102q24 129 61 248t84.5 227.5t103.5 206t118 183.5q12 16 32 16h317q21 0 8 -16q-68 -96 -126.5 -203.5
t-105.5 -221.5t-83 -233t-58 -238l-7 -41v0z" />
    <glyph glyph-name="parenright" unicode=")" horiz-adv-x="713" 
d="M255 563q22 118 31 236.5t3.5 232t-24 220.5t-51.5 203q-7 19 13 19h317q20 0 27 -19q30 -86 49.5 -183t27 -205t0.5 -226.5t-31 -247.5l-18 -102q-24 -129 -61 -248t-84.5 -227.5t-103.5 -206t-118 -183.5q-12 -16 -32 -16h-317q-21 0 -8 16q68 96 126.5 203.5
t105.5 221.5t82.5 233t58.5 238l7 41v0z" />
    <glyph glyph-name="asterisk" unicode="*" horiz-adv-x="1015" 
d="M188 1253q-17 11 -5 27l142 185q12 16 29 5l160 -106l40 213q4 20 24 20h208q20 0 16 -20l-39 -213l203 108q10 5 15.5 3t9.5 -13l70 -179q4 -11 2 -17t-13 -11l-204 -108l162 -106q17 -11 5 -27l-140 -185q-12 -16 -29 -5l-161 105l-39 -213q-4 -20 -24 -20h-210
q-20 0 -16 20l39 213l-203 -107q-10 -5 -15.5 -3t-9.5 13l-70 179q-4 11 -2 17t13 11l204 108z" />
    <glyph glyph-name="plus" unicode="+" horiz-adv-x="1107" 
d="M80 604q-20 0 -16 20l52 280q4 20 24 20h308l59 320q4 20 24 20h279q20 0 16 -20l-59 -320h310q20 0 16 -20l-52 -280q-4 -20 -24 -20h-310l-57 -312q-4 -20 -24 -20h-279q-20 0 -16 20l57 312h-308z" />
    <glyph glyph-name="comma" unicode="," horiz-adv-x="595" 
d="M-83 -266q-20 0 -14 19l176 568q4 11 9.5 15t16.5 6l339 35q19 1 12 -16l-265 -609q-5 -11 -11 -14.5t-17 -3.5h-246z" />
    <glyph glyph-name="hyphen" unicode="-" horiz-adv-x="762" 
d="M105 403q-20 0 -16 20l52 280q4 20 24 20h470q20 0 16 -20l-52 -280q-4 -20 -24 -20h-470z" />
    <glyph glyph-name="period" unicode="." horiz-adv-x="561" 
d="M22 0q-20 0 -16 20l55 300q4 21 24 22l298 35q20 1 16 -18l-61 -339q-4 -20 -24 -20h-292z" />
    <glyph glyph-name="slash" unicode="/" horiz-adv-x="890" 
d="M-37 0q-20 0 -12 18l676 1520q5 11 11 14.5t17 3.5h335q19 0 12 -18l-677 -1520q-5 -11 -11 -14.5t-17 -3.5h-334z" />
    <glyph glyph-name="zero" unicode="0" horiz-adv-x="1297" 
d="M527 -31q-85 0 -156.5 9t-127.5 33.5t-94.5 69t-57.5 115t-17.5 171t27.5 237.5l50 268q25 137 60 237t80 170.5t99.5 114.5t119.5 68.5t140 33.5t160 9q86 0 157.5 -9t127 -33.5t94 -68.5t57 -114.5t16 -170.5t-27.5 -237l-49 -268q-26 -137 -61 -237.5t-79.5 -171
t-99 -115t-119 -69t-139.5 -33.5t-160 -9zM747 1167q-51 0 -90 -13t-68.5 -47.5t-51.5 -95.5t-40 -157l-43 -231q-18 -96 -18 -157.5t17 -96.5t51 -48.5t85 -13.5q49 0 87.5 13.5t68 48.5t52 96.5t40.5 157.5l43 231q18 96 18 157t-17 95.5t-51 47.5t-83 13z" />
    <glyph glyph-name="one" unicode="1" horiz-adv-x="852" 
d="M155 1074q-19 -6 -19 15l8 280q0 20 19 25l327 76q20 5 39 5h310q20 0 16 -20l-266 -1435q-4 -20 -24 -20h-311q-20 0 -16 20l209 1122z" />
    <glyph glyph-name="two" unicode="2" horiz-adv-x="1152" 
d="M-8 0q-20 0 -16 20l29 162q14 74 32 133.5t42.5 108.5t56.5 91t73 81t92 76.5t114 79.5l221 145q39 25 63.5 46.5t39 41.5t19.5 40t5 44q0 51 -44.5 73.5t-146.5 22.5q-24 0 -59.5 -1t-77.5 -3.5t-87 -7t-89 -11.5q-20 -3 -20 17l6 275q0 20 19 25q54 14 109.5 23
t108.5 14t101 7t88 2q140 0 233.5 -24.5t149.5 -68t79 -102.5t23 -128q0 -77 -13 -142t-47.5 -125.5t-95 -120t-155.5 -126.5l-158 -111q-78 -54 -123.5 -88t-70 -58t-33.5 -42t-13 -41h521q20 0 16 -20l-53 -288q-4 -20 -24 -20h-915z" />
    <glyph glyph-name="three" unicode="3" horiz-adv-x="1130" 
d="M368 -31q-110 0 -208.5 8.5t-173.5 21.5q-21 3 -15 22l70 287q3 11 8.5 15t16.5 3q93 -10 175.5 -11.5t154.5 -1.5q110 0 168 29t72 104l4 27q5 30 2 54.5t-19.5 42t-49.5 27t-87 9.5h-209q-20 0 -16 20l49 278q4 20 24 20h202q57 0 94.5 8t61.5 23t35.5 36.5t16.5 48.5
l5 19q18 102 -195 102q-42 0 -81.5 -1t-79.5 -2.5t-81 -4t-86 -5.5q-19 -1 -18 19l35 286q1 20 22 23q77 11 173 20t204 9q130 0 228 -21t159 -67t84 -119t4 -176l-6 -28q-23 -124 -98 -204.5t-199 -115.5q100 -42 149.5 -126.5t26.5 -205.5l-6 -36q-24 -129 -75 -213
t-128.5 -134t-181 -70t-231.5 -20z" />
    <glyph glyph-name="four" unicode="4" horiz-adv-x="1260" 
d="M1 258q-20 0 -16 20l53 292q4 19 17 35l756 855q8 8 15 11.5t18 3.5h337q20 0 16 -20l-170 -910h130q20 0 16 -20l-46 -247q-4 -20 -24 -20h-129l-43 -238q-4 -20 -24 -20h-311q-20 0 -16 20l44 238h-623zM388 545h289l84 446h-17l-354 -432z" />
    <glyph glyph-name="five" unicode="5" horiz-adv-x="1130" 
d="M342 -31q-199 0 -358 45q-19 5 -13 25l97 284q5 19 26 15q38 -7 81 -12.5t83.5 -9.5t75.5 -6.5t57 -2.5q74 0 122 11.5t77.5 32.5t44 51.5t22.5 68.5l2 14q9 49 3.5 84t-31 57t-73.5 32t-124 10q-30 0 -70 -2.5t-80 -6t-75 -7l-55 -5.5q-19 -1 -15 17l39 217
q2 8 4.5 19.5t4.5 19.5l154 536q5 19 25 19h804q20 0 13 -19l-103 -290q-7 -19 -27 -19h-476l-53 -191h39q120 0 214.5 -22t155 -76t82.5 -144.5t-3 -228.5l-2 -14q-26 -137 -81 -232.5t-139 -155.5t-196 -87t-252 -27z" />
    <glyph glyph-name="six" unicode="6" horiz-adv-x="1239" 
d="M513 -31q-120 0 -212 34t-148.5 110t-73 196.5t15.5 294.5l35 193q36 194 102.5 329t164 219t224.5 122t285 38q72 0 154.5 -9.5t170.5 -35.5q19 -5 12 -25l-96 -273q-7 -19 -27 -15q-35 6 -72 9.5t-73 6t-69 3.5t-59 1q-68 0 -121.5 -9t-94 -34t-70 -70.5t-49.5 -117.5
q49 8 98 14t112 6q102 0 190.5 -21.5t149 -72.5t86.5 -135.5t2 -210.5l-4 -24q-23 -124 -75.5 -221t-132.5 -164t-186.5 -102.5t-238.5 -35.5zM796 506q8 44 -2.5 72.5t-34.5 45t-59.5 23t-75.5 6.5q-32 0 -77.5 -5.5t-93.5 -12.5l-6 -31q-18 -94 -16 -152t20.5 -90.5
t52.5 -43.5t81 -11q40 0 73.5 8t60 27.5t45.5 53.5t28 85z" />
    <glyph glyph-name="seven" unicode="7" horiz-adv-x="1094" 
d="M8 0q-20 0 -9 16l775 1131h-594q-21 0 -18 20l26 288q2 11 6.5 15.5t15.5 4.5h972q20 0 16 -20l-51 -286q-2 -11 -6 -19.5t-9 -17.5l-726 -1115q-6 -10 -13 -13.5t-18 -3.5h-367z" />
    <glyph glyph-name="eight" unicode="8" horiz-adv-x="1276" 
d="M518 -31q-125 0 -223.5 19t-162 67t-87.5 131.5t0 212.5l8 41q7 40 29.5 85.5t59.5 88.5t88 80.5t116 61.5q-45 21 -73 56t-42 77t-16 88.5t6 91.5l8 35q21 112 67.5 188.5t118.5 124t169 68t219 20.5q120 0 209 -20.5t144 -68t73.5 -124t-2.5 -188.5l-6 -35
q-9 -45 -27.5 -91.5t-48 -88.5t-70.5 -77t-94 -56q55 -24 92 -61.5t58 -80.5t27 -88.5t-1 -85.5l-8 -41q-24 -129 -79 -212.5t-136 -131.5t-186.5 -67t-229.5 -19zM539 1049q-4 -23 -3 -47t14 -43.5t41 -31.5t79 -12h45q48 0 79.5 10.5t52 28t31 39t15.5 43.5q2 8 4.5 18.5
t4.5 18.5l-3 -10q7 38 3.5 63.5t-21 40.5t-51 21t-85.5 6q-51 0 -85.5 -5.5t-57.5 -19t-36 -36.5t-20 -57q-2 -7 -4.5 -16.5t-4.5 -16.5zM610 592q-62 0 -102 -16.5t-64 -39t-34.5 -46.5t-12.5 -39l-4 -21q-8 -42 -2.5 -70.5t27 -46t60 -25t97.5 -7.5t101 7.5t70 25t43.5 46
t23.5 70.5l4 21q2 15 0 39t-17.5 46.5t-49.5 39t-95 16.5h-45z" />
    <glyph glyph-name="nine" unicode="9" horiz-adv-x="1248" 
d="M383 -31q-75 0 -163.5 11t-182.5 37q-19 5 -12 25l97 281q7 19 26 14q37 -8 77 -13.5t79 -9.5t75 -5.5t63 -1.5q67 0 119.5 8.5t93 32.5t70 67.5t50.5 112.5q-48 -8 -97.5 -14t-112.5 -6q-111 0 -200.5 22t-147.5 74t-80 138.5t2 215.5l4 25q23 124 72.5 221t127.5 164
t185.5 102t247.5 35q120 0 212.5 -34.5t148.5 -111.5t72 -199.5t-17 -299.5l-33 -182q-36 -194 -102.5 -329t-164 -219.5t-225 -122.5t-284.5 -38zM494 969q-9 -47 -2.5 -77.5t28 -48.5t58 -25t86.5 -7q32 0 76.5 2.5t92.5 6.5l9 50q18 95 16 153.5t-20.5 90.5t-52.5 42.5
t-81 10.5q-46 0 -80.5 -8t-59.5 -27.5t-41 -53.5t-25 -85z" />
    <glyph glyph-name="colon" unicode=":" horiz-adv-x="622" 
d="M46 0q-20 0 -16 20l55 300q4 21 24 22l298 35q20 1 16 -18l-61 -339q-4 -20 -24 -20h-292zM171 676q-20 0 -16 20l55 300q4 21 24 22l298 35q20 1 16 -18l-61 -339q-4 -20 -24 -20h-292z" />
    <glyph glyph-name="semicolon" unicode=";" horiz-adv-x="628" 
d="M-54 -266q-20 0 -14 19l176 568q4 11 9.5 15t16.5 6l339 35q19 1 12 -16l-265 -609q-5 -11 -11 -14.5t-17 -3.5h-246zM195 676q-20 0 -16 20l55 300q4 21 24 22l298 35q20 1 16 -18l-61 -339q-4 -20 -24 -20h-292z" />
    <glyph glyph-name="less" unicode="&#x3c;" horiz-adv-x="1017" 
d="M70 571q-17 11 -13 31l54 293q2 11 6.5 17.5t15.5 11.5l824 415q18 9 19 -11l20 -286q1 -11 -2.5 -17t-14.5 -11l-600 -266l498 -266q18 -10 10 -27l-125 -290q-8 -18 -25 -7z" />
    <glyph glyph-name="equal" unicode="=" horiz-adv-x="1214" 
d="M108 356q-20 0 -16 20l52 280q4 20 24 20h896q20 0 16 -20l-52 -280q-4 -20 -24 -20h-896zM213 924q-20 0 -16 20l51 279q4 20 24 20h896q20 0 16 -20l-51 -279q-4 -20 -24 -20h-896z" />
    <glyph glyph-name="greater" unicode="&#x3e;" horiz-adv-x="1016" 
d="M991 924q17 -11 13 -31l-54 -293q-2 -11 -6.5 -17.5t-15.5 -11.5l-824 -415q-18 -9 -19 11l-20 286q-1 11 2.5 17t14.5 11l600 266l-498 266q-18 10 -10 27l125 290q8 18 25 7z" />
    <glyph glyph-name="question" unicode="?" horiz-adv-x="943" 
d="M529 517q-3 -11 -13 -11h-290q-21 0 -22 20q-1 7 -1.5 15t-0.5 16q0 53 10 97t31 82.5t53 73.5t76 71l96 75q28 22 47.5 39t33 32t21.5 30.5t11 34.5q6 35 -22.5 54t-108.5 19q-57 0 -112.5 -6t-121.5 -17q-20 -3 -20 17l6 275q0 21 19 26q73 22 164 33.5t191 11.5
q112 0 195 -18.5t135.5 -57.5t73 -100t6.5 -145q-9 -57 -26 -101.5t-43.5 -83t-63.5 -75.5t-86 -80l-111 -99q-34 -30 -54.5 -50.5t-33 -42t-20.5 -49.5t-17 -73zM121 0q-20 0 -16 20l56 300q4 21 24 22l298 35q20 1 16 -18l-62 -339q-4 -20 -24 -20h-292z" />
    <glyph glyph-name="at" unicode="@" horiz-adv-x="1920" 
d="M375 528q-31 -97 -48 -183.5t-12.5 -159t33.5 -130t88.5 -98t154 -63t229.5 -23.5q20 0 14 -19l-70 -243q-4 -11 -9.5 -15t-16.5 -4q-262 2 -424.5 60.5t-239.5 175t-75.5 292.5t68.5 414l41 150q57 203 160.5 356.5t246.5 257t322 155.5t386 52q333 0 496 -144.5
t163 -416.5q0 -256 -67.5 -429.5t-207 -279.5t-353.5 -152t-506 -46q-95 0 -156.5 21t-90.5 71.5t-25.5 134.5t38.5 209l41 143q34 120 75 202t99 133t138.5 73t193.5 22q89 0 178 -11t168 -24q20 -3 16 -22l-144 -631q70 21 122 59.5t87 103t52.5 158.5t17.5 226
q0 81 -23 141t-74 99.5t-132 59.5t-197 20q-65 0 -132 -7.5t-133.5 -28.5t-129.5 -58.5t-120 -98t-106 -147t-87 -205.5zM973 764q-21 0 -35.5 -9.5t-26.5 -32t-24 -59.5t-27 -92l-18 -65q-18 -63 -25 -99.5t-1.5 -54.5t25.5 -23t56 -5q11 0 29.5 1t33.5 3l95 430
q-44 6 -82 6z" />
    <glyph glyph-name="A" unicode="A" horiz-adv-x="1353" 
d="M-92 0q-20 0 -11 18l693 1439q5 11 11.5 14.5t17.5 3.5h441q21 0 22 -20l162 -1435q1 -20 -18 -20h-345q-20 0 -21 20l-16 220h-466l-99 -222q-5 -11 -11 -14.5t-17 -3.5h-343zM780 1135l-264 -588h307z" />
    <glyph glyph-name="B" unicode="B" horiz-adv-x="1353" 
d="M437 -18q-34 0 -79.5 1t-96.5 3t-104.5 4.5t-104.5 6.5q-20 1 -16 21l266 1437q4 20 24 21q43 3 95 5.5t107 5t109 3.5t101 1q177 0 294 -20.5t183 -66t84.5 -118t-2.5 -176.5l-2 -10q-20 -100 -64.5 -164t-110.5 -106q38 -25 68 -59t48 -78.5t23.5 -98t-5.5 -117.5
l-6 -35q-18 -106 -53 -181.5t-86.5 -127t-119.5 -81.5t-152 -45.5t-184 -20t-216 -4.5zM896 451q9 44 1.5 71.5t-28 43t-53.5 21t-76 5.5h-248l-55 -295q13 -1 31 -2h37q19 -1 35.5 -1.5t25.5 -0.5q87 0 146 4.5t96.5 18.5t56.5 41.5t27 72.5zM757 1180q-41 0 -75 -0.5
t-81 -3.5l-53 -283h226q26 1 50 7t44 20t35 37.5t23 59.5l7 29q8 44 0 71t-30.5 41t-59.5 18t-86 4z" />
    <glyph glyph-name="C" unicode="C" horiz-adv-x="1197" 
d="M616 -31q-152 0 -265.5 34t-181.5 114.5t-87 213.5t18 331l29 153q36 196 104 328.5t166 213t224 114.5t278 34q54 0 105.5 -3.5t98.5 -10.5t88 -16.5t73 -22.5q10 -5 12.5 -10t-0.5 -16l-95 -274q-7 -19 -26 -14q-75 17 -150.5 23t-152.5 6q-76 0 -137 -17t-107.5 -57
t-78.5 -105.5t-50 -162.5l-30 -174q-19 -98 -11.5 -163.5t38.5 -106t85.5 -57.5t130.5 -17q81 0 163 5t163 15q20 3 19 -17l-12 -278q-1 -20 -20 -25q-36 -9 -81 -16t-95 -12t-105 -7.5t-110 -2.5z" />
    <glyph glyph-name="D" unicode="D" horiz-adv-x="1419" 
d="M405 -16q-32 0 -73.5 1t-88.5 2.5t-95.5 4t-93.5 6.5q-20 1 -16 22l264 1435q2 11 7.5 15.5t16.5 6.5q38 3 84 5.5t91.5 4.5t87 3t70.5 1q119 0 224.5 -11t192.5 -40t152.5 -79t103.5 -127t46 -185.5t-19 -253.5l-21 -113q-30 -162 -75.5 -277t-107 -192.5t-138.5 -123
t-170.5 -69t-204 -30t-237.5 -6.5zM691 1180q-20 0 -44 -1.5t-46 -4.5l-162 -873q9 -2 24 -3t31.5 -1.5t31 -1t22.5 -0.5q94 0 165.5 15t125 57t89.5 117t58 194l23 119q21 118 11 192.5t-50.5 117t-110.5 58t-168 15.5z" />
    <glyph glyph-name="E" unicode="E" horiz-adv-x="1200" 
d="M54 0q-20 0 -16 20l264 1435q4 20 24 20h919q20 0 16 -20l-54 -288q-4 -20 -24 -20h-586l-45 -242h443q20 0 16 -20l-54 -287q-4 -20 -24 -20h-442l-46 -250h587q20 0 16 -20l-54 -288q-4 -20 -24 -20h-916z" />
    <glyph glyph-name="F" unicode="F" horiz-adv-x="1158" 
d="M54 0q-20 0 -16 20l264 1435q4 20 24 20h919q20 0 16 -20l-54 -288q-4 -20 -24 -20h-586l-47 -252h451q20 0 16 -20l-53 -288q-4 -20 -24 -20h-452l-100 -547q-4 -20 -24 -20h-310z" />
    <glyph glyph-name="G" unicode="G" horiz-adv-x="1338" 
d="M1256 827q20 0 16 -20l-137 -741q-2 -11 -7 -16.5t-16 -9.5q-61 -21 -124.5 -35t-125 -22t-120 -11t-110.5 -3q-160 0 -277 34t-186 114.5t-87.5 213.5t19.5 331l29 153q36 196 103 328.5t165 213t227 114.5t289 34q50 0 104 -3.5t105 -10.5t96.5 -16.5t79.5 -22.5
q10 -5 12.5 -10t-0.5 -16l-95 -274q-7 -19 -27 -16q-159 27 -322 27q-84 0 -147.5 -16.5t-110 -55.5t-78 -104t-49.5 -162l-30 -174q-19 -98 -14 -163t34 -104t83 -55t134 -16h70t73 2l40 220l-157 9q-20 1 -16 21l45 242q4 20 24 20h488z" />
    <glyph glyph-name="H" unicode="H" horiz-adv-x="1512" 
d="M54 0q-20 0 -16 20l264 1435q4 20 24 20h310q20 0 16 -20l-100 -550h510l102 550q4 20 24 20h311q20 0 16 -20l-267 -1435q-4 -20 -24 -20h-310q-20 0 -16 20l104 557h-512l-102 -557q-4 -20 -24 -20h-310z" />
    <glyph glyph-name="I" unicode="I" horiz-adv-x="651" 
d="M54 0q-20 0 -16 20l264 1435q4 20 24 20h310q20 0 16 -20l-264 -1435q-4 -20 -24 -20h-310z" />
    <glyph glyph-name="J" unicode="J" horiz-adv-x="652" 
d="M-109 -410q-42 0 -89.5 4.5t-85.5 12.5q-11 2 -13.5 7t0.5 16l90 275q3 11 9 14.5t17 2.5q24 -3 43 -3.5t36 -0.5q31 0 55 5.5t41.5 18.5t29 35t17.5 56l262 1422q4 20 24 20h310q20 0 16 -20l-268 -1455q-17 -89 -48 -164t-88 -130t-144 -85.5t-214 -30.5z" />
    <glyph glyph-name="K" unicode="K" horiz-adv-x="1396" 
d="M839 0q-11 0 -17 3.5t-11 14.5l-224 513l-126 -119l-72 -392q-4 -20 -24 -20h-311q-20 0 -16 20l264 1435q4 20 24 20h311q20 0 16 -20l-96 -519l541 525q14 14 34 14h439q9 0 10.5 -4t-5.5 -10l-700 -658l380 -785q9 -18 -11 -18h-406z" />
    <glyph glyph-name="L" unicode="L" horiz-adv-x="1044" 
d="M54 0q-20 0 -16 20l264 1435q4 20 24 20h310q20 0 16 -20l-207 -1127h499q20 0 16 -20l-52 -288q-4 -20 -24 -20h-830z" />
    <glyph glyph-name="M" unicode="M" horiz-adv-x="1716" 
d="M54 0q-20 0 -16 20l264 1435q4 20 24 20h361q20 0 27 -19l163 -457q5 -14 8.5 -29t5.5 -28t3 -21.5t1 -9.5q0 1 4.5 9.5t11 21t16 27.5t20.5 30l332 460q12 16 32 16h392q20 0 16 -20l-266 -1435q-4 -20 -24 -20h-312q-20 0 -16 20l164 883l10 72q-2 -1 -13.5 -24.5
t-27.5 -49.5l-270 -401q-6 -10 -13 -13.5t-18 -3.5h-205q-11 0 -16.5 4t-9.5 15l-119 389q-5 15 -8 30t-4.5 27t-2.5 19.5t-2 7.5l-16 -84l-162 -871q-4 -20 -24 -20h-310z" />
    <glyph glyph-name="N" unicode="N" horiz-adv-x="1512" 
d="M54 0q-20 0 -16 20l264 1435q4 20 24 20h343q20 0 27 -19l284 -749q7 -19 11.5 -36t8 -30t5 -21t2.5 -8l157 843q4 20 24 20h311q20 0 16 -20l-267 -1435q-4 -20 -24 -20h-343q-20 0 -27 19l-282 745q-17 45 -20.5 72.5t-5.5 27.5l-158 -844q-4 -20 -24 -20h-310z" />
    <glyph glyph-name="O" unicode="O" horiz-adv-x="1436" 
d="M595 -31q-148 0 -256 41.5t-172 126.5t-81 215.5t17 309.5l29 153q26 138 63 243t85.5 181.5t109 127.5t135 81.5t163 43.5t192.5 13q148 0 256 -41.5t172 -126.5t81 -215.5t-16 -308.5l-29 -154q-39 -208 -102.5 -341.5t-155 -211t-213.5 -107.5t-278 -30zM814 1157
q-67 0 -120.5 -16.5t-94.5 -55t-70 -102.5t-47 -158l-30 -174q-18 -95 -16 -159t26.5 -103t73 -55.5t122.5 -16.5q68 0 122.5 16.5t95.5 55.5t70 103t46 159l33 172q18 94 15.5 158t-28 103t-74.5 56t-124 17z" />
    <glyph glyph-name="P" unicode="P" horiz-adv-x="1361" 
d="M755 1180q-34 0 -77 -1.5t-77 -4.5l-65 -357q16 -2 35.5 -3t39.5 -1.5t39.5 -1t36.5 -0.5q91 0 148.5 5t92.5 21.5t52.5 46t26.5 79.5l12 65q8 49 2 79t-35 46t-85 21.5t-146 5.5zM54 0q-20 0 -16 20l266 1437q4 20 24 21q60 3 125.5 5.5t129 4t121.5 2.5t104 1
q187 0 307.5 -22t186 -73t81 -134.5t-7.5 -206.5l-22 -119q-18 -93 -41 -161.5t-59.5 -117t-88.5 -79t-127.5 -48t-177 -24t-235.5 -6.5h-36.5h-40.5t-39 0.5t-32 1.5l-88 -482q-4 -20 -24 -20h-310z" />
    <glyph glyph-name="Q" unicode="Q" horiz-adv-x="1436" 
d="M598 -31q-149 0 -258 41.5t-172.5 126.5t-81 215.5t16.5 309.5l29 153q26 138 63 243t85.5 181.5t109 127.5t135 81.5t163 43.5t192.5 13q148 0 256 -41.5t172 -126.5t81 -215.5t-16 -308.5l-29 -154q-26 -139 -63 -244.5t-86 -182t-110.5 -127.5t-136.5 -81l184 -395
q7 -18 -12 -18h-384q-21 0 -26 19zM814 1157q-67 0 -120.5 -16.5t-94.5 -55t-70 -102.5t-47 -158l-30 -174q-18 -95 -16 -159t26.5 -103t73 -55.5t122.5 -16.5q68 0 122.5 16.5t95.5 55.5t70 103t46 159l33 172q18 94 15.5 158t-28 103t-74.5 56t-124 17z" />
    <glyph glyph-name="R" unicode="R" horiz-adv-x="1389" 
d="M819 0q-20 0 -25 19l-131 491h-24q-37 0 -74 1.5t-84 4.5l-92 -496q-4 -20 -24 -20h-310q-20 0 -16 20l264 1435q4 20 24 21q122 8 235.5 11.5t221.5 3.5q138 0 240 -9.5t173 -30.5t114 -54t63 -80.5t20 -110t-14 -141.5l-24 -133q-18 -96 -47.5 -164t-72 -115t-98 -75
t-126.5 -43q11 -26 22.5 -55.5t24.5 -65.5l131 -395q6 -19 -14 -19h-357zM750 1180q-32 0 -74 -1.5t-74 -4.5l-63 -347q29 -3 68 -4.5t85 -1.5q90 0 147.5 4.5t92 20t52 44.5t26.5 77l12 67q8 48 2 77t-35 44.5t-86.5 20t-152.5 4.5z" />
    <glyph glyph-name="S" unicode="S" horiz-adv-x="1248" 
d="M434 -31q-126 0 -233 13t-185 35q-19 5 -12 25l95 271q7 19 27 16q54 -9 98 -15t84.5 -9.5t80.5 -5.5t87 -2q91 0 149 5.5t91.5 19.5t46 38t12.5 61q0 17 -9.5 32.5t-32.5 33t-62 40t-98 53.5l-157 82q-76 40 -126 84.5t-79.5 91t-41.5 94t-12 94.5q0 130 36 221
t119.5 148.5t218.5 83.5t333 26q105 0 200 -10t171 -35q19 -5 12 -24l-95 -262q-7 -19 -27 -16q-39 5 -79 9t-77.5 6.5t-70 3.5t-54.5 1q-87 0 -147.5 -3t-98 -13.5t-54.5 -31t-17 -55.5q0 -19 9 -35t31.5 -33t59.5 -37.5t94 -47.5l180 -88q69 -34 116.5 -71.5t77 -79.5
t42.5 -88t13 -97q0 -149 -39.5 -250t-125.5 -163t-222 -89t-329 -27z" />
    <glyph glyph-name="T" unicode="T" horiz-adv-x="1202" 
d="M324 0q-20 0 -16 20l209 1127h-373q-20 0 -16 20l53 288q4 20 24 20h1095q20 0 16 -20l-53 -288q-4 -20 -24 -20h-372l-209 -1127q-4 -20 -24 -20h-310z" />
    <glyph glyph-name="U" unicode="U" horiz-adv-x="1489" 
d="M626 -31q-136 0 -242.5 28t-175 90t-93.5 161t1 241l178 966q4 20 24 20h310q20 0 16 -20l-162 -886q-14 -71 -10 -121t28 -81.5t70 -45.5t117 -14q68 0 119.5 14t88 45.5t60.5 81.5t37 121l164 886q4 20 24 20h308q20 0 16 -20l-178 -966q-28 -152 -88.5 -252.5
t-149.5 -160t-205.5 -83.5t-256.5 -24z" />
    <glyph glyph-name="V" unicode="V" horiz-adv-x="1334" 
d="M600 319h2l496 1138q5 11 11 14.5t17 3.5h341q20 0 11 -18l-685 -1439q-5 -11 -11.5 -14.5t-17.5 -3.5h-441q-21 0 -22 20l-149 1435q-1 11 3 15.5t15 4.5h334q20 0 21 -20z" />
    <glyph glyph-name="W" unicode="W" horiz-adv-x="1939" 
d="M208 0q-20 0 -20 20l29 1435q0 20 20 20h350q11 0 15 -4.5t3 -15.5l-92 -935l-21 -221l6.5 20t17.5 51.5t25 70.5t29 77l372 938q4 11 10 15t17 4h304q20 0 21 -20l30 -931q1 -31 0.5 -70t-1.5 -73.5t-2 -58l-1 -23.5l61 227l251 930q5 19 25 19h359q20 0 13 -19
l-504 -1437q-7 -19 -27 -19h-419q-20 0 -21 20l-40 750q-1 19 -0.5 42t1 44t1 35t0.5 15q-1 -2 -5.5 -16.5t-11.5 -35t-15 -43.5t-15 -41l-318 -752q-5 -11 -11 -14.5t-17 -3.5h-419z" />
    <glyph glyph-name="X" unicode="X" horiz-adv-x="1361" 
d="M864 0q-20 0 -27 19l-163 464l-338 -467q-12 -16 -32 -16h-398q-20 0 -7 16l578 722l-310 719q-8 18 12 18h358q20 0 27 -19l166 -450l335 453q12 16 32 16h398q20 0 7 -16l-577 -719l309 -722q7 -18 -12 -18h-358z" />
    <glyph glyph-name="Y" unicode="Y" horiz-adv-x="1246" 
d="M347 0q-20 0 -16 20l84 463l-281 973q-6 19 14 19h344q20 0 24 -19l135 -588l353 590q6 10 12.5 13.5t17.5 3.5h364q20 0 9 -17l-641 -973l-85 -465q-4 -20 -24 -20h-310z" />
    <glyph glyph-name="Z" unicode="Z" horiz-adv-x="1252" 
d="M-14 0q-20 0 -16 20l50 267q4 20 18 35l786 847h-590q-20 0 -16 20l47 266q4 20 24 20h999q20 0 16 -20l-48 -266q-4 -20 -18 -35l-786 -847h631q20 0 16 -20l-50 -267q-4 -20 -24 -20h-1039z" />
    <glyph glyph-name="bracketleft" unicode="[" horiz-adv-x="759" 
d="M-30 -389q-20 0 -16 20l352 1905q4 20 24 20h532q20 0 16 -20l-54 -287q-4 -20 -24 -20h-201l-239 -1290h201q20 0 16 -20l-52 -288q-4 -20 -24 -20h-531z" />
    <glyph glyph-name="backslash" unicode="\" horiz-adv-x="1137" 
d="M628 0q-11 0 -17 3.5t-9 14.5l-403 1520q-4 18 15 18h334q11 0 16.5 -3.5t8.5 -14.5l404 -1520q2 -10 -0.5 -14t-13.5 -4h-335z" />
    <glyph glyph-name="bracketright" unicode="]" horiz-adv-x="760" 
d="M775 1556q20 0 16 -20l-352 -1905q-4 -20 -24 -20h-532q-20 0 -16 20l54 287q4 20 24 20h201l239 1290h-201q-20 0 -16 20l52 288q4 20 24 20h531z" />
    <glyph glyph-name="asciicircum" unicode="^" horiz-adv-x="1321" 
d="M469 1117q-9 0 -11 4t5 10l314 328q8 8 15.5 11t18.5 3h247q11 0 17.5 -3.5t12.5 -13.5l190 -322q11 -17 -10 -17h-212q-11 0 -17.5 3.5t-12.5 13.5l-107 193l-185 -195q-8 -8 -15.5 -11.5t-18.5 -3.5h-231z" />
    <glyph glyph-name="underscore" unicode="_" horiz-adv-x="999" 
d="M-140 -389q-20 0 -16 20l52 279q4 20 24 20h918q20 0 16 -20l-51 -279q-4 -20 -24 -20h-919z" />
    <glyph glyph-name="grave" unicode="`" horiz-adv-x="762" 
d="M614 1270q-20 0 -32 16l-179 244q-13 16 8 16h304q11 0 17 -3.5t11 -14.5l113 -240q7 -18 -12 -18h-230z" />
    <glyph glyph-name="a" unicode="a" horiz-adv-x="1223" 
d="M804 806q-29 5 -76.5 7t-95.5 2q-60 0 -99 -11.5t-64.5 -39t-41 -72.5t-27.5 -112l-14 -72q-13 -72 -14.5 -121t13.5 -78.5t50.5 -42t95.5 -12.5q21 0 44 0.5t45.5 1t43.5 1.5t37 3zM484 -31q-149 0 -243.5 28.5t-143 88.5t-56 153t16.5 222l29 153q27 143 68.5 236.5
t109.5 149t167.5 78t242.5 22.5q138 0 262 -7.5t229 -19.5q20 -1 16 -22l-192 -1031q-4 -21 -24 -22q-122 -14 -243 -21.5t-239 -7.5z" />
    <glyph glyph-name="b" unicode="b" horiz-adv-x="1223" 
d="M663 815q-22 0 -46 -0.5t-47.5 -1.5t-45 -3t-36.5 -5l-102 -545q16 -2 37 -3t43.5 -1.5t45.5 -1t44 -0.5q60 0 100 12.5t66 42t42.5 77t29.5 116.5l14 80q12 67 13.5 111.5t-14 71.5t-50 38.5t-94.5 11.5zM497 -31q-117 0 -235.5 8.5t-234.5 22.5q-20 1 -16 22l289 1560
q4 21 24 22l298 36q20 1 16 -18l-98 -541q25 4 50 7.5t52.5 6t58.5 4t68 1.5q124 0 206 -25t125.5 -82.5t51 -150.5t-17.5 -228l-29 -159q-26 -134 -68 -226.5t-112.5 -150.5t-174.5 -83.5t-253 -25.5z" />
    <glyph glyph-name="c" unicode="c" horiz-adv-x="953" 
d="M483 -31q-150 0 -244.5 30t-142.5 91.5t-54.5 156.5t17.5 226l23 125q24 130 65.5 224.5t113 156t177 91.5t256.5 30q73 0 136.5 -7t114.5 -18q20 -4 15 -23l-58 -237q-3 -11 -8.5 -15t-16.5 -3q-54 5 -109.5 7.5t-118.5 2.5q-65 0 -106 -11.5t-66 -39t-39 -72.5
t-26 -111l-15 -77q-12 -66 -15 -111t12 -72.5t51.5 -39t103.5 -11.5q63 0 120 3.5t112 8.5q20 1 17 -18l-30 -236q-1 -20 -22 -24q-53 -11 -124 -19t-139 -8z" />
    <glyph glyph-name="d" unicode="d" horiz-adv-x="1222" 
d="M632 815q-60 0 -99 -11.5t-64.5 -39t-41 -72.5t-27.5 -112l-14 -72q-13 -72 -14.5 -121t13.5 -78.5t50.5 -42t95.5 -12.5q21 0 44 0.5t45.5 1t43.5 1.5t37 3l103 545q-15 3 -36.5 5t-45 3t-47.5 1.5t-43 0.5zM484 -31q-149 0 -243.5 25.5t-143.5 83.5t-56.5 152t17.5 231
l29 153q25 135 66.5 228t110 150.5t168.5 82.5t243 25q48 0 95.5 -5.5t84.5 -13.5l92 501q4 21 24 22l300 36q20 1 16 -18l-297 -1600q-4 -21 -24 -22q-122 -14 -243 -22.5t-239 -8.5z" />
    <glyph glyph-name="e" unicode="e" horiz-adv-x="1160" 
d="M470 -31q-138 0 -228.5 29.5t-139.5 91t-58.5 157t14.5 228.5l21 115q25 133 70.5 229t116.5 158.5t172 92.5t237 30q224 0 326 -90.5t102 -280.5q0 -61 -8.5 -114t-20.5 -95.5t-25 -73.5t-21 -47q-5 -11 -11 -14.5t-17 -3.5l-627 -2q-1 -42 8.5 -67t31 -38.5t55 -17.5
t80.5 -4q88 0 179.5 3t193.5 10q20 1 17 -19l-29 -226q-3 -20 -23 -23q-100 -12 -202.5 -20t-213.5 -8zM794 631q0 57 -7.5 93t-27 56.5t-52 28.5t-83.5 8t-87 -10t-60.5 -34t-40 -63t-26.5 -97z" />
    <glyph glyph-name="f" unicode="f" horiz-adv-x="795" 
d="M97 796q-19 5 -15 25l41 230q4 20 24 20h132l30 160q21 111 54.5 189t92.5 127.5t149 72t222 22.5q27 0 54.5 -2t53.5 -5t48.5 -7t39.5 -7q20 -4 14 -24l-57 -238q-5 -20 -25 -19q-28 2 -64 2.5t-68 0.5q-56 0 -89 -6t-52 -20t-27 -36.5t-14 -55.5l-29 -154h210
q21 0 15 -19l-66 -267q-5 -19 -25 -19h-190l-158 -852q-19 -104 -52 -178.5t-90 -122.5t-142.5 -71t-209.5 -23q-45 0 -93 4t-85 10q-11 2 -14 7t0 16l78 235q5 19 26 16q23 -2 49 -4t51 -2q42 0 68.5 5.5t42.5 18t24.5 34.5t14.5 55l157 852z" />
    <glyph glyph-name="g" unicode="g" horiz-adv-x="1224" 
d="M295 -481q-76 0 -146.5 6.5t-132.5 17.5q-20 4 -15 23l55 226q5 20 25 17q26 -4 57 -7t61.5 -4.5t57.5 -2t46 -0.5q101 0 165 10t102 34t56 63t29 98q-35 -9 -80.5 -14.5t-111.5 -5.5q-138 0 -227.5 25t-137.5 81.5t-56.5 148.5t17.5 226l29 153q27 143 68.5 236.5
t109.5 149t167.5 78t242.5 22.5q138 0 262 -7.5t229 -19.5q20 -1 16 -22l-194 -1037q-28 -149 -85 -245t-144 -151.5t-203 -77t-262 -21.5zM633 815q-60 0 -99 -11.5t-64 -39t-40.5 -72.5t-28.5 -112l-14 -72q-13 -72 -14.5 -121t13.5 -78.5t50.5 -42t95.5 -12.5
q21 0 44 0.5t45.5 1t43.5 1.5t37 3l103 546q-29 5 -76.5 7t-95.5 2z" />
    <glyph glyph-name="h" unicode="h" horiz-adv-x="1245" 
d="M703 0q-20 0 -16 20l101 543q9 55 10.5 96t-12 68t-45 40t-86.5 13q-45 0 -92 -7t-83 -20l-136 -733q-4 -20 -24 -20h-292q-20 0 -16 20l289 1562q4 21 24 22l300 36q20 1 16 -18l-111 -596q75 36 155.5 55t160.5 19q90 0 154.5 -25t101 -81.5t44.5 -148t-16 -224.5
l-111 -601q-4 -20 -24 -20h-292z" />
    <glyph glyph-name="i" unicode="i" horiz-adv-x="590" 
d="M34 0q-20 0 -16 20l191 1031q4 20 24 20h292q20 0 16 -20l-191 -1031q-4 -20 -24 -20h-292zM260 1219q-20 0 -16 20l53 287q4 21 24 22l300 37q20 1 16 -18l-62 -328q-4 -20 -24 -20h-291z" />
    <glyph glyph-name="j" unicode="j" horiz-adv-x="590" 
d="M-163 -481q-45 0 -93 4t-85 10q-11 2 -14 7t0 16l78 235q5 19 26 16q23 -2 49 -4t51 -2q42 0 68.5 5.5t42.5 18t24.5 34.5t14.5 55l209 1137q4 20 24 20h292q20 0 16 -20l-209 -1137q-19 -104 -52 -178.5t-89.5 -122.5t-142.5 -71t-210 -23zM261 1219q-20 0 -16 20
l51 287q4 21 24 22l300 37q20 1 16 -18l-60 -328q-4 -20 -24 -20h-291z" />
    <glyph glyph-name="k" unicode="k" horiz-adv-x="1232" 
d="M708 0q-20 0 -27 19l-156 431l-118 -91l-63 -339q-4 -20 -24 -20h-292q-20 0 -16 20l289 1562q4 21 24 22l300 36q20 1 16 -18l-155 -834l350 271q16 12 36 12h447q19 0 4 -12l-529 -404l307 -637q9 -18 -11 -18h-382z" />
    <glyph glyph-name="l" unicode="l" horiz-adv-x="604" 
d="M41 0q-20 0 -16 20l289 1562q4 21 24 22l300 36q20 1 16 -18l-297 -1602q-4 -20 -24 -20h-292z" />
    <glyph glyph-name="m" unicode="m" horiz-adv-x="1777" 
d="M26 0q-20 0 -16 20l195 1050q4 20 24 20h230q11 0 16.5 -4t9.5 -15l17 -52q62 38 137.5 59.5t151.5 21.5q86 0 145 -20.5t94 -67.5q69 42 147.5 65t165.5 23q111 0 183.5 -30t110 -92t42 -158t-19.5 -228l-107 -572q-4 -20 -24 -20h-287q-20 0 -16 20l98 531
q14 72 15 117.5t-13 72t-44.5 36t-80.5 9.5q-27 0 -61 -7t-64 -21q-2 -27 -6.5 -56t-9.5 -61l-115 -621q-4 -20 -24 -20h-284q-20 0 -16 20l105 574q9 48 11 83.5t-8.5 59t-35 35.5t-67.5 12q-38 0 -79.5 -9t-72.5 -25l-135 -730q-4 -20 -24 -20h-288z" />
    <glyph glyph-name="n" unicode="n" 
d="M26 0q-20 0 -16 20l195 1050q4 20 24 20h230q20 0 27 -19l20 -56q78 41 165 63t173 22q90 0 154.5 -25t101 -81.5t44.5 -148t-16 -224.5l-111 -601q-4 -20 -24 -20h-292q-20 0 -16 20l101 543q9 55 10.5 96t-12 68t-45 40t-86.5 13q-45 0 -92 -7t-83 -20l-136 -733
q-4 -20 -24 -20h-292z" />
    <glyph glyph-name="o" unicode="o" horiz-adv-x="1174" 
d="M624 817q-56 0 -92.5 -11t-61 -38.5t-40 -73.5t-28.5 -116l-16 -86q-12 -69 -13 -115.5t13.5 -74t46 -39t84.5 -11.5q55 0 92 11.5t61.5 39.5t40.5 74.5t29 116.5l17 84q13 70 14.5 116t-13 73.5t-47 38.5t-87.5 11zM466 -31q-136 0 -226 29.5t-138.5 92t-58 159.5
t14.5 231l21 105q24 134 69.5 231t117 160t172.5 93t237 30t226.5 -30t139 -93t58.5 -160t-15 -231l-20 -105q-25 -134 -70 -231t-117 -159.5t-173.5 -92t-237.5 -29.5z" />
    <glyph glyph-name="p" unicode="p" horiz-adv-x="1223" 
d="M651 815q-16 0 -39 -0.5t-46 -1.5t-44.5 -3t-34.5 -5l-102 -545q32 -3 73 -4.5t97 -1.5q60 0 100 12.5t66 41.5t42.5 77t29.5 119l14 71q12 69 13 115.5t-15.5 74t-53.5 39t-100 11.5zM-58 -453q-20 0 -16 20l275 1482q4 21 24 22q121 13 242.5 21t239.5 8
q148 0 242.5 -25t144 -81.5t57.5 -148.5t-16 -227l-29 -151q-26 -139 -69 -234.5t-112.5 -154t-171 -84t-245.5 -25.5q-48 0 -91.5 5.5t-80.5 15.5l-78 -423q-4 -20 -24 -20h-292z" />
    <glyph glyph-name="q" unicode="q" horiz-adv-x="1223" 
d="M644 815q-64 0 -105.5 -11.5t-68 -39t-42.5 -74t-28 -115.5l-14 -71q-13 -71 -14.5 -119t14 -77t50.5 -41.5t95 -12.5q56 0 97 1.5t75 4.5l101 545q-13 3 -32.5 5t-41.5 3t-44.5 1.5t-41.5 0.5zM590 -453q-20 0 -16 20l78 423q-40 -10 -86 -15.5t-94 -5.5q-143 0 -235 25
t-140 82.5t-56 151t17 229.5l29 161q25 135 67.5 227t113 148.5t175.5 81.5t256 25q57 0 118 -2.5t122 -6.5t118.5 -9t107.5 -11q20 -1 16 -22l-275 -1482q-4 -20 -24 -20h-292z" />
    <glyph glyph-name="r" unicode="r" horiz-adv-x="827" 
d="M26 0q-20 0 -16 20l195 1050q4 20 24 20h230q20 0 27 -19l21 -57q34 28 75 45t82 26t79.5 12t67.5 3q30 0 47 -4q19 -3 15 -22l-71 -299q-3 -11 -8.5 -15t-16.5 -2q-12 1 -24 1.5t-26 0.5q-75 0 -137 -7t-117 -24l-131 -709q-4 -20 -24 -20h-292z" />
    <glyph glyph-name="s" unicode="s" horiz-adv-x="1024" 
d="M348 -31q-28 0 -69.5 2t-88 5.5t-93.5 9t-87 12.5q-20 4 -15 23l55 238q3 11 8.5 15t16.5 3q48 -6 89 -10t77.5 -6.5t69.5 -3.5t66 -1q62 0 99.5 2.5t57 9.5t25.5 18t6 29q0 7 -3.5 14t-14 15t-30 17t-50.5 20l-172 59q-56 19 -93.5 44t-60.5 55.5t-33 67t-10 79.5
q0 128 37 209t107.5 126.5t172.5 62t232 16.5q86 0 162.5 -8t141.5 -18q21 -3 15 -22l-58 -237q-3 -11 -8.5 -15t-16.5 -3q-32 3 -68.5 6t-70.5 5.5t-63.5 3.5t-47.5 1q-57 0 -94.5 -2t-60 -8t-31.5 -17.5t-9 -29.5q0 -8 4 -15t16 -15t33 -16.5t56 -19.5l151 -49
q58 -19 98.5 -41t65.5 -50.5t36 -64.5t11 -84q0 -141 -39 -226t-112 -131t-176.5 -60.5t-233.5 -14.5z" />
    <glyph glyph-name="t" unicode="t" horiz-adv-x="855" 
d="M398 -31q-79 0 -135 15t-87 54.5t-37 109.5t14 180l83 448l-147 29q-20 4 -16 24l41 222q4 20 24 20h152l35 191q4 21 24 22l300 37q20 1 16 -18l-44 -232h263q20 0 14 -19l-84 -257q-5 -19 -26 -19h-220l-80 -430q-5 -28 -3 -45t12 -26t28.5 -12t46.5 -3q20 0 49 1.5
t52 3.5q19 1 18 -19l-29 -227q-1 -11 -5.5 -16t-15.5 -8q-23 -5 -52 -10t-61 -8.5t-65.5 -5.5t-64.5 -2z" />
    <glyph glyph-name="u" unicode="u" 
d="M517 -31q-155 0 -250 26t-141.5 84.5t-51 154t20.5 233.5l109 584q4 20 24 20h291q20 0 16 -20l-104 -562q-11 -63 -11.5 -105.5t14.5 -68.5t48 -37.5t90 -11.5q33 0 73 2.5t71 10.5l143 772q4 20 24 20h292q20 0 16 -20l-184 -997q-2 -11 -7 -16t-16 -8
q-44 -12 -101.5 -23t-120.5 -19.5t-126.5 -13.5t-118.5 -5z" />
    <glyph glyph-name="v" unicode="v" horiz-adv-x="1127" 
d="M226 0q-21 0 -22 20l-121 1031q-1 20 18 20h320q20 0 21 -20l40 -772l330 774q5 11 11 14.5t17 3.5h337q20 0 11 -18l-506 -1035q-5 -11 -11.5 -14.5t-17.5 -3.5h-427z" />
    <glyph glyph-name="w" unicode="w" horiz-adv-x="1718" 
d="M177 0q-20 0 -21 20l-29 1031q-1 20 19 20h316q20 0 19 -20l-25 -662q0 -1 -1 -24t-2.5 -50.5t-2.5 -50t0 -22.5t5 12.5t11.5 32t17 45.5t21.5 53l289 668q5 11 11 14.5t17 3.5h242q20 0 21 -20l38 -670q1 -25 2 -49.5t1 -44.5v-32.5t1 -12.5t4.5 10.5t8.5 26.5t11 34.5
t11.5 34.5t9 26.5l3.5 10.5l223 667q5 19 26 19h316q20 0 13 -19l-416 -1033q-4 -11 -10 -15t-17 -4h-394q-21 0 -22 20l-45 396q-2 18 -2 41.5v44.5t0.5 35t-0.5 14t-6 -14.5t-13 -35.5t-17.5 -44t-18.5 -41l-192 -398q-5 -11 -11.5 -14.5t-17.5 -3.5h-394z" />
    <glyph glyph-name="x" unicode="x" horiz-adv-x="1178" 
d="M682 0q-20 0 -27 19l-111 310l-227 -313q-12 -16 -32 -16h-369q-20 0 -7 15l448 535l-237 503q-9 18 11 18h336q20 0 27 -19l111 -307l227 310q12 16 32 16h369q20 0 7 -15l-448 -529l238 -509q7 -18 -12 -18h-336z" />
    <glyph glyph-name="y" unicode="y" horiz-adv-x="1112" 
d="M-33 -481q-16 0 -35 1t-38.5 3t-38 4.5t-33.5 5.5q-19 3 -13 23l76 239q3 11 9 14.5t17 2.5q21 -3 45.5 -5t47.5 -2q75 0 126.5 9.5t89 32t66.5 60t60 94.5q-4 1 -18 10t-33 35.5t-39 76.5t-35 134l-151 794q-4 20 16 20h332q21 0 22 -20l58 -486q8 -60 13.5 -112
t8.5 -81l272 680q4 11 10 15t17 4h341q20 0 11 -18l-550 -1135q-53 -111 -108.5 -187t-129.5 -123t-174 -68t-242 -21z" />
    <glyph glyph-name="z" unicode="z" horiz-adv-x="1105" 
d="M152 776q-25 0 -20 24l48 255q2 8 5.5 12t14.5 4h864q25 0 20 -24l-41 -214q-6 -32 -26 -51l-533 -485h447q25 0 20 -24l-49 -257q-2 -8 -5.5 -12t-14.5 -4h-885q-25 0 -20 24l41 208q9 42 37 67l517 477h-420z" />
    <glyph glyph-name="braceleft" unicode="{" horiz-adv-x="816" 
d="M439 -389q-79 0 -141 3t-107.5 16t-75 39.5t-42.5 73t-10 117t22 171.5l31 174q8 40 9 69.5t-7 51t-27.5 36t-52.5 24.5q-19 5 -15 25l50 263q4 20 23 25q36 10 60.5 25t41 36t26 50.5t17.5 70.5l32 174q19 101 42.5 171t54 117t69.5 73.5t89.5 39.5t113.5 16t141 3h120
q20 0 16 -20l-52 -288q-4 -20 -24 -20h-121q-29 0 -46 -5t-27 -15t-14.5 -25.5t-8.5 -36.5l-35 -184q-14 -75 -31.5 -124t-43 -84t-61.5 -61.5t-87 -54.5l-5 -29q41 -28 67.5 -54t39 -61t11.5 -84t-15 -122l-33 -187q-5 -21 -5.5 -36.5t5.5 -25.5t21.5 -14.5t44.5 -4.5h119
q20 0 16 -20l-51 -288q-4 -20 -24 -20h-120v0z" />
    <glyph glyph-name="bar" unicode="|" horiz-adv-x="746" 
d="M197 -389q-20 0 -20 20v1824q0 20 20 20h310q20 0 20 -20v-1824q0 -20 -20 -20h-310z" />
    <glyph glyph-name="braceright" unicode="}" horiz-adv-x="810" 
d="M343 1474q79 0 141 -3t107.5 -16t75 -39.5t42.5 -73t10 -117t-22 -171.5l-31 -174q-8 -40 -9 -69.5t7 -51t27.5 -36t52.5 -24.5q19 -5 15 -25l-50 -263q-4 -20 -23 -25q-36 -11 -60.5 -25.5t-41 -35.5t-26.5 -51t-17 -70l-32 -174q-19 -101 -42.5 -171t-54 -117
t-69.5 -73.5t-89.5 -39.5t-113.5 -16t-141 -3h-120q-20 0 -16 20l52 288q4 20 24 20h121q28 0 45.5 5t27.5 15t14.5 25.5t8.5 36.5l35 184q14 75 31 124t42.5 84t62 61t87.5 55l5 29q-41 28 -67.5 54t-39 61t-11.5 83.5t15 122.5l33 187q4 21 5 36.5t-5 25.5t-22 14.5
t-44 4.5h-119q-20 0 -16 20l51 288q4 20 24 20h120v0z" />
    <glyph glyph-name="asciitilde" unicode="~" horiz-adv-x="1159" 
d="M111 512q-20 0 -16 20l14 76q18 101 51.5 160t75.5 89.5t88.5 39t90.5 8.5q56 0 98 -13.5t80 -41.5l57 -41q44 -31 72 -46t52 -15q15 0 27 4t22 18t18.5 40.5t17.5 72.5q4 20 24 20h200q20 0 17 -20l-14 -76q-18 -101 -51.5 -160.5t-75.5 -90.5t-88.5 -39.5t-91.5 -8.5
q-55 0 -96 12.5t-81 42.5l-57 43q-44 33 -71.5 47.5t-51.5 14.5q-16 0 -28 -4t-22 -18t-18.5 -41t-17.5 -73q-4 -20 -24 -20h-201z" />
    <glyph glyph-name="uni007F" horiz-adv-x="0" 
 />
    <glyph glyph-name="uni00A0" unicode="&#xa0;" horiz-adv-x="508" 
 />
    <glyph glyph-name="exclamdown" unicode="&#xa1;" horiz-adv-x="621" 
d="M417 457q20 0 17 -20l-131 -821q-3 -21 -23 -22l-320 -37q-20 -1 -16 18l178 862q4 20 24 20h271zM550 1071q20 0 16 -20l-55 -300q-4 -21 -24 -22l-298 -35q-20 -1 -16 18l62 339q4 20 24 20h291z" />
    <glyph glyph-name="cent" unicode="&#xa2;" horiz-adv-x="941" 
d="M361 -246q-20 0 -16 20l36 198q-125 7 -201.5 39.5t-113.5 95.5t-39 159.5t23 231.5l25 131q25 135 62.5 231t98 159t149 95.5t214.5 39.5l37 198q4 20 24 20h136q20 0 16 -20l-36 -197q49 -2 92 -6t78 -10q11 -2 14 -7t0 -16l-81 -257q-4 -11 -9.5 -15t-16.5 -2l-134 9
l-111 -599q34 1 66.5 2.5t66.5 6.5q20 3 20 -17l-6 -232q0 -20 -20 -24q-37 -6 -83.5 -10t-96.5 -7l-36 -197q-4 -20 -24 -20h-134zM376 502q-11 -56 -15.5 -97.5t0.5 -70.5t22.5 -47t50.5 -26l108 582q-36 -10 -60 -29.5t-40.5 -49t-27 -69.5t-20.5 -91z" />
    <glyph glyph-name="sterling" unicode="&#xa3;" horiz-adv-x="1169" 
d="M98 578q-20 0 -16 20l53 287q4 20 24 20h111l15 78q15 80 33 148t46 122.5t70 96t103.5 69.5t146 42t199.5 14h305q20 0 16 -20l-53 -288q-4 -20 -24 -20h-306q-57 0 -90 -10t-52 -29.5t-27 -48t-15 -66.5l-17 -88h370q20 0 13 -19l-99 -289q-7 -19 -27 -19h-318l-12 -66
q-12 -63 -25.5 -107.5t-33.5 -76.5h536q20 0 16 -20l-53 -288q-4 -20 -24 -20h-972q-20 0 -16 20l52 286q4 20 23 25q37 10 62 24.5t41.5 35.5t26 50.5t17.5 70.5l12 66h-111z" />
    <glyph glyph-name="currency" unicode="&#xa4;" horiz-adv-x="1300" 
d="M167 1034q-8 9 -7 15t9 14l239 200q8 8 14 7t14 -10l98 -122q97 33 220 33q116 0 199 -36l152 128q8 8 14 7t14 -10l155 -194q8 -9 7 -15t-9 -14l-170 -144q2 -19 3.5 -39t1.5 -41q0 -193 -61 -324l99 -122q8 -8 7 -14t-9 -14l-235 -199q-8 -8 -14 -7t-14 9l-98 117
q-95 -30 -216 -30q-59 0 -109.5 9.5t-92.5 29.5l-153 -128q-15 -13 -28 3l-157 195q-8 9 -7 15t9 14l171 144q-3 20 -4 41t-1 44q0 94 16 171t45 140zM502 657q0 -38 11 -63t29 -39t42.5 -19.5t51.5 -5.5q37 0 71.5 9.5t60.5 34t42 66.5t16 108q0 37 -10 61.5t-27.5 39
t-40.5 20t-49 5.5q-38 0 -73.5 -9.5t-63 -34.5t-44 -67t-16.5 -106z" />
    <glyph glyph-name="yen" unicode="&#xa5;" horiz-adv-x="1393" 
d="M160 510q-20 0 -13 19l47 138q7 19 27 19h217l-233 770q-6 19 14 19h355q20 0 25 -19l139 -560l347 562q6 10 13 13.5t18 3.5h353q20 0 9 -17l-519 -772h268q20 0 13 -19l-47 -138q-7 -19 -27 -19h-324l-24 -129h353q20 0 13 -19l-48 -138q-7 -19 -27 -19h-324l-33 -185
q-4 -20 -24 -20h-310q-20 0 -16 20l33 185h-332q-20 0 -13 19l48 138q7 19 27 19h302l24 129h-331z" />
    <glyph glyph-name="brokenbar" unicode="&#xa6;" horiz-adv-x="748" 
d="M220 707q-20 0 -21 20l-18 728q-1 20 19 20h310q20 0 19 -20l-18 -728q-1 -20 -21 -20h-270zM200 -389q-20 0 -19 20l18 728q1 20 21 20h270q20 0 21 -20l18 -728q1 -20 -19 -20h-310z" />
    <glyph glyph-name="section" unicode="&#xa7;" horiz-adv-x="1138" 
d="M299 -453q-45 0 -93.5 3t-96 9t-91 14t-78.5 19q-19 5 -13 25l98 283q5 19 26 16q42 -7 79.5 -12.5t73.5 -9.5t72.5 -6.5t76.5 -2.5q64 0 104 4.5t63 13.5t31.5 23.5t8.5 34.5q0 11 -5.5 21.5t-20.5 23.5t-41.5 30t-68.5 41l-147 83q-56 32 -95.5 66t-64.5 72t-36 80.5
t-11 92.5q0 115 35 208t114 159q-48 76 -48 180q0 132 35.5 225t113 151t200.5 84.5t299 26.5q33 0 73 -2t82 -7t83 -13t76 -21q11 -5 13.5 -10t-0.5 -16l-95 -272q-7 -19 -27 -16q-66 11 -133.5 15t-119.5 4q-70 0 -112.5 -6.5t-66 -18t-31.5 -27.5t-8 -34q0 -11 5.5 -20.5
t20.5 -22t41.5 -28.5t68.5 -40l161 -91q107 -61 150.5 -134t43.5 -164q0 -135 -39.5 -223.5t-108.5 -145.5q47 -78 47 -178q0 -127 -38.5 -219t-117.5 -151.5t-200.5 -88t-287.5 -28.5zM676 486q0 20 -6.5 37t-23.5 33.5t-46 34.5t-74 40l-60 29q-14 -24 -21.5 -51t-7.5 -47
q0 -21 6.5 -38t23.5 -33t46 -33.5t74 -39.5l63 -31q14 26 20 53.5t6 45.5z" />
    <glyph glyph-name="dieresis" unicode="&#xa8;" horiz-adv-x="764" 
d="M241 1219q-20 0 -16 20l54 287q4 21 24 22l287 37q20 1 16 -18l-59 -328q-4 -20 -24 -20h-282zM694 1219q-20 0 -16 20l53 287q4 21 24 22l288 37q20 1 16 -18l-60 -328q-4 -20 -24 -20h-281z" />
    <glyph glyph-name="copyright" unicode="&#xa9;" horiz-adv-x="1557" 
d="M767 338q-99 0 -164.5 26.5t-100 76.5t-40.5 121.5t12 162.5l12 59q17 91 49 157t83 109t124 64t172 21q51 0 100.5 -6t87.5 -14q20 -4 14 -24l-70 -245q-3 -11 -8.5 -15t-16.5 -3q-38 3 -70 4.5t-70 1.5q-21 0 -36 -7t-25.5 -18.5t-17 -25.5t-9.5 -29l-6 -33
q-3 -15 -2 -30t7 -26.5t18.5 -18.5t33.5 -7q42 0 74.5 1.5t67.5 3.5q21 1 18 -19l-18 -244q-2 -11 -6 -16t-15 -8q-40 -8 -93.5 -13.5t-104.5 -5.5zM336 586q0 -85 20 -150t64.5 -109t115.5 -66.5t173 -22.5q127 0 229 34t173 111t109 200.5t38 303.5q0 84 -19.5 149
t-62.5 109.5t-112 67t-168 22.5q-129 0 -233 -34t-176.5 -111t-111.5 -200.5t-39 -303.5zM1510 887q0 -195 -44 -358.5t-143.5 -281t-261 -183.5t-395.5 -66q-146 0 -255 40t-181.5 114.5t-108.5 181.5t-36 241q0 198 45 363t145.5 284.5t262.5 186t396 66.5
q147 0 255.5 -40.5t179.5 -117t106 -185.5t35 -245z" />
    <glyph glyph-name="ordfeminine" unicode="&#xaa;" horiz-adv-x="1006" 
d="M530 897q21 0 43 1t42 3l18 98h-27q-38 0 -64.5 -2.5t-43 -10t-23.5 -20t-7 -32.5q0 -26 18.5 -31.5t43.5 -5.5zM554 1268q-21 0 -47.5 -0.5t-55.5 -1.5t-58.5 -2.5t-56.5 -2.5q-20 -1 -16 19l33 182q2 11 7.5 16t16.5 7q30 5 64.5 8.5t69 6t66 4t56.5 1.5
q127 0 198.5 -20.5t103 -62.5t31.5 -104.5t-15 -146.5l-81 -436q-4 -21 -24 -22q-45 -5 -93.5 -9t-95 -8t-87.5 -6t-71 -2q-83 0 -144 9.5t-101.5 31.5t-60 58.5t-19.5 89.5q0 94 25.5 154.5t82 95t145 48t214.5 13.5h27l2 14q3 15 0 27.5t-15.5 21t-36.5 13t-64 4.5z
M84 342q-20 0 -16 20l36 198q4 20 24 20h738q20 0 16 -20l-36 -198q-4 -20 -24 -20h-738z" />
    <glyph glyph-name="guillemotleft" unicode="&#xab;" horiz-adv-x="1432" 
d="M288 164q-11 0 -18 3.5t-13 13.5l-231 365q-6 10 -5.5 16.5t8.5 14.5l366 372q14 14 34 14h359q20 0 6 -14l-388 -391l239 -377q11 -17 -9 -17h-348zM898 164q-11 0 -18 3.5t-13 13.5l-231 365q-6 10 -5.5 16.5t8.5 14.5l366 372q14 14 34 14h359q20 0 6 -14l-388 -391
l239 -377q11 -17 -9 -17h-348z" />
    <glyph glyph-name="logicalnot" unicode="&#xac;" horiz-adv-x="1195" 
d="M121 805q-20 0 -16 20l51 279q4 20 24 20h927q20 0 16 -20l-55 -299l-79 -429q-4 -20 -24 -20h-279q-20 0 -16 20l79 429h-628z" />
    <glyph glyph-name="uni00AD" unicode="&#xad;" horiz-adv-x="771" 
d="M105 403q-20 0 -16 20l51 280q4 20 24 20h480q20 0 16 -20l-51 -280q-4 -20 -24 -20h-480z" />
    <glyph glyph-name="registered" unicode="&#xae;" horiz-adv-x="1333" 
d="M1315 1110q0 -147 -23.5 -258.5t-68 -193.5t-107 -137t-140 -88.5t-169 -47.5t-192.5 -14q-131 0 -222 37t-147.5 101t-82 150.5t-25.5 184.5q0 146 23.5 258t68 194t107 137t140 88.5t169 47.5t192.5 14q131 0 222 -37t147.5 -101t82 -150.5t25.5 -184.5zM361 864
q0 -69 14.5 -121t48.5 -87t90 -52.5t140 -17.5q97 0 167.5 19.5t119 54t78.5 82t46 104t21.5 119.5t5.5 129q0 68 -14.5 119.5t-48.5 86t-90 51.5t-140 17q-97 0 -167.5 -19.5t-119 -54t-78.5 -82t-46 -103.5t-21.5 -118.5t-5.5 -126.5zM766 684q-20 0 -23 20l-24 191h-32
q-7 0 -16 0.5t-17 1.5l-37 -193q-4 -20 -24 -20h-114q-20 0 -16 20l101 552q4 20 24 21q45 2 88.5 3.5t81.5 1.5q92 0 141.5 -12t70 -35t19.5 -57t-10 -78l-6 -31q-4 -23 -10.5 -44.5t-18 -41t-30.5 -36t-48 -28.5l51 -185q3 -11 0.5 -17.5t-10.5 -14.5l-7 -5
q-8 -8 -16 -10.5t-19 -2.5h-99zM760 1133q-9 0 -27.5 -0.5t-35.5 -2.5l-19 -102q6 -1 16 -1.5t20 -0.5h34q35 0 51 9t21 32l4 25q3 21 -9.5 31t-54.5 10z" />
    <glyph glyph-name="macron" unicode="&#xaf;" horiz-adv-x="762" 
d="M337 1267q-20 0 -16 20l35 198q4 20 24 20h546q20 0 16 -20l-35 -198q-4 -20 -24 -20h-546z" />
    <glyph glyph-name="degree" unicode="&#xb0;" horiz-adv-x="875" 
d="M549 1255q-14 0 -31 -3.5t-33.5 -13t-29.5 -27.5t-19 -46l-6 -26q-5 -29 2.5 -46.5t20 -27t28.5 -13t29 -3.5t30 3t33 12.5t29 27.5t19 47l4 26q5 28 -1.5 46t-19 27.5t-28 13t-27.5 3.5zM465 801q-171 0 -251.5 91.5t-51.5 264.5l6 29q15 78 51.5 138t91 100t126.5 60.5
t157 20.5q171 0 250.5 -92t50.5 -268l-6 -29q-15 -77 -51.5 -136t-91.5 -98.5t-126 -60t-155 -20.5z" />
    <glyph glyph-name="plusminus" unicode="&#xb1;" horiz-adv-x="1195" 
d="M159 813q-20 0 -16 20l51 280q4 20 24 20h316l59 320q4 20 24 20h279q20 0 16 -20l-59 -320h316q20 0 16 -20l-51 -280q-4 -20 -24 -20h-317l-57 -312q-4 -20 -24 -20h-279q-20 0 -16 20l57 312h-315zM28 0q-20 0 -16 20l51 279q4 20 24 20h911q20 0 16 -20l-51 -279
q-4 -20 -24 -20h-911z" />
    <glyph glyph-name="twosuperior" unicode="&#xb2;" horiz-adv-x="875" 
d="M111 600q-20 0 -16 20l17 95q13 71 32 119t49 85.5t74.5 71t109.5 74.5l139 88q18 11 29 18t17 13t8 11.5t2 13.5q0 14 -25.5 23t-76.5 9q-14 0 -34.5 -0.5t-45.5 -1.5t-52 -3.5t-54 -5.5q-20 -3 -20 17l4 203q0 21 19 25q71 19 140 24.5t120 5.5q101 0 167 -17.5
t104.5 -47t53.5 -68t15 -80.5q0 -39 -5 -78.5t-24.5 -79t-59.5 -79t-109 -78.5l-98 -55q-51 -28 -89.5 -48.5t-50.5 -29.5h326q20 0 16 -20l-37 -204q-4 -20 -24 -20h-621z" />
    <glyph glyph-name="threesuperior" unicode="&#xb3;" horiz-adv-x="841" 
d="M374 580q-78 0 -146.5 4.5t-120.5 12.5q-21 3 -15 22l53 214q3 11 8.5 15t16.5 3q67 -4 122 -4.5t103 -0.5q51 0 78 9.5t32 37.5l4 18q5 26 -12 36.5t-74 10.5h-107q-20 0 -16 20l27 145q4 20 24 20h99q31 0 51 2t32 7t18 13.5t9 22.5l2 10q5 25 -18.5 32t-76.5 7
q-58 0 -113.5 -0.5t-107.5 -2.5q-19 -1 -18 19l27 212q1 20 22 23q53 7 119.5 12t141.5 5q178 0 262.5 -55t62.5 -178l-4 -19q-14 -78 -63 -125.5t-128 -68.5q30 -14 54.5 -31.5t41 -42.5t22.5 -59t-2 -80l-3 -15q-14 -75 -47 -123.5t-84 -77t-120 -39.5t-156 -11z" />
    <glyph glyph-name="acute" unicode="&#xb4;" horiz-adv-x="764" 
d="M350 1270q-20 0 -7 16l197 244q8 9 15 12.5t18 3.5h335q20 0 5 -13l-275 -250q-8 -8 -16 -10.5t-19 -2.5h-253z" />
    <glyph glyph-name="mu" unicode="&#xb5;" horiz-adv-x="1332" 
d="M-26 -389q-20 0 -16 20l263 1420q4 20 24 20h292q20 0 16 -20l-95 -514q-15 -79 -11.5 -129.5t24.5 -79t59.5 -39t92.5 -10.5h41.5t45.5 1.5t45 3.5t40 7l141 760q4 20 24 20h291q20 0 16 -20l-184 -995q-2 -11 -7 -16t-16 -8q-47 -12 -109 -23.5t-129.5 -20.5
t-136.5 -14t-130 -5q-62 0 -116.5 10.5t-79.5 24.5l-69 -373q-4 -20 -24 -20h-292z" />
    <glyph glyph-name="paragraph" unicode="&#xb6;" horiz-adv-x="1465" 
d="M350 -453q-20 0 -16 20l186 1006q-12 -2 -23 -2h-22q-132 0 -212.5 20.5t-119.5 69t-42 128.5t20 198l14 82q22 114 54.5 192t89 125.5t144 68t218.5 20.5h357q20 0 16 -20l-348 -1888q-4 -20 -24 -20h-292zM802 -453q-20 0 -16 20l348 1888q4 20 24 20h292q20 0 16 -20
l-348 -1888q-4 -20 -24 -20h-292z" />
    <glyph glyph-name="periodcentered" unicode="&#xb7;" horiz-adv-x="585" 
d="M99 370q-20 0 -16 20l55 300q4 21 24 22l298 35q20 1 16 -18l-61 -339q-4 -20 -24 -20h-292z" />
    <glyph glyph-name="cedilla" unicode="&#xb8;" horiz-adv-x="762" 
d="M112 -389q-19 0 -8 16l203 255q12 16 32 16h221q21 0 8 -16l-181 -255q-12 -16 -32 -16h-243z" />
    <glyph glyph-name="onesuperior" unicode="&#xb9;" horiz-adv-x="590" 
d="M204 1202q-20 -4 -20 16l3 198q0 20 20 24l141 31q9 2 20 3t20 1h212q20 0 16 -20l-154 -835q-4 -20 -24 -20h-243q-20 0 -16 20l111 600z" />
    <glyph glyph-name="ordmasculine" unicode="&#xba;" horiz-adv-x="1028" 
d="M634 1270q-31 0 -52 -6.5t-35.5 -22t-24 -42.5t-17.5 -69l-12 -65q-8 -42 -8 -68.5t9.5 -42.5t28.5 -22t49 -6t51 6t35.5 22t24 43.5t17.5 69.5l12 63q8 42 8.5 69t-8 42.5t-28 22t-50.5 6.5zM526 688q-108 0 -177 21.5t-105 66.5t-42 114.5t12 166.5l14 78q18 97 52 167
t89 115t134 66.5t187 21.5q101 0 167.5 -21.5t102.5 -66.5t43 -115t-11 -167l-14 -78q-18 -97 -53 -166.5t-90 -114.5t-131.5 -66.5t-177.5 -21.5zM91 342q-20 0 -16 20l36 198q4 20 24 20h738q20 0 16 -20l-36 -198q-4 -20 -24 -20h-738z" />
    <glyph glyph-name="guillemotright" unicode="&#xbb;" horiz-adv-x="1434" 
d="M515 963q11 0 18 -3.5t13 -13.5l231 -365q6 -10 5.5 -16.5t-8.5 -14.5l-366 -372q-14 -14 -34 -14h-359q-9 0 -10.5 4t4.5 10l388 391l-239 377q-11 17 9 17h348zM1125 963q11 0 18 -3.5t13 -13.5l231 -365q6 -10 5.5 -16.5t-8.5 -14.5l-366 -372q-14 -14 -34 -14h-359
q-9 0 -10.5 4t4.5 10l388 391l-239 377q-11 17 9 17h348z" />
    <glyph glyph-name="onequarter" unicode="&#xbc;" horiz-adv-x="2009" 
d="M171 0q-21 0 -8 16l1049 1443q12 16 32 16h356q21 0 8 -16l-1050 -1443q-12 -16 -32 -16h-355zM1043 168q-20 0 -16 20l43 234q4 19 17 35l380 433q8 8 15 11.5t18 3.5h382q20 0 16 -20l-86 -463h74q20 0 16 -20l-39 -214q-4 -20 -24 -20h-74l-27 -148q-4 -20 -24 -20
h-243q-20 0 -16 20l27 148h-439zM212 1202q-20 -4 -20 16l3 198q0 20 20 24l142 31q9 2 20 3t20 1h211q20 0 16 -20l-154 -835q-4 -20 -24 -20h-242q-20 0 -16 20l111 601zM1363 422h166l38 229l-202 -219z" />
    <glyph glyph-name="onehalf" unicode="&#xbd;" horiz-adv-x="1990" 
d="M171 0q-21 0 -8 16l1049 1443q12 16 32 16h356q21 0 8 -16l-1050 -1443q-12 -16 -32 -16h-355zM1145 0q-20 0 -16 20l21 115q13 69 32.5 117.5t50.5 86.5t75 69.5t106 66.5l137 78q20 11 31.5 19.5t17 15t6.5 11.5t1 10q0 14 -25.5 23t-76.5 9q-15 0 -38 -0.5t-51 -1.5
t-58 -3.5t-60 -5.5q-20 -3 -20 17l4 203q0 20 19 25q78 19 152 24.5t129 5.5q101 0 167 -17.5t104.5 -47t53.5 -68t15 -80.5q0 -39 -5.5 -77.5t-26 -77t-60 -78.5t-106.5 -82l-88 -55q-56 -35 -82 -49.5t-37 -18.5h297q20 0 16 -20l-39 -214q-4 -20 -24 -20h-622zM212 1202
q-20 -4 -20 16l3 198q0 20 20 24l142 31q9 2 20 3t20 1h211q20 0 16 -20l-154 -835q-4 -20 -24 -20h-242q-20 0 -16 20l111 601z" />
    <glyph glyph-name="threequarters" unicode="&#xbe;" horiz-adv-x="2156" 
d="M1199 168q-20 0 -16 20l43 234q4 19 17 35l380 433q8 8 15 11.5t18 3.5h382q20 0 16 -20l-86 -463h74q20 0 16 -20l-39 -214q-4 -20 -24 -20h-74l-27 -148q-4 -20 -24 -20h-243q-20 0 -16 20l27 148h-439zM1519 422h166l37 229l-201 -219zM325 0q-21 0 -8 16l1049 1443
q12 16 32 16h356q21 0 8 -16l-1050 -1443q-12 -16 -32 -16h-355zM352 580q-77 0 -146 4.5t-121 12.5q-21 3 -15 22l54 214q3 11 8.5 15t16.5 3q66 -4 121.5 -4.5t103.5 -0.5q51 0 78 9.5t32 37.5l4 18q5 26 -12 36.5t-74 10.5h-107q-20 0 -16 20l27 145q4 20 24 20h99
q31 0 51 2t32 7t18 13.5t9 22.5l2 10q5 25 -19 32t-76 7q-58 0 -113.5 -0.5t-107.5 -2.5q-19 -1 -18 19l27 212q1 20 22 23q52 7 119 12t141 5q89 0 155.5 -13.5t108 -41.5t57.5 -72.5t5 -105.5l-4 -19q-14 -78 -63.5 -125.5t-128.5 -68.5q30 -14 55 -31.5t41.5 -42.5
t22.5 -59t-2 -80l-3 -15q-14 -75 -47 -123.5t-84 -77t-120.5 -39.5t-156.5 -11z" />
    <glyph glyph-name="questiondown" unicode="&#xbf;" horiz-adv-x="916" 
d="M377 554q3 11 13 11h290q21 0 22 -20q1 -7 1.5 -15t0.5 -16q0 -53 -10 -97t-31 -82.5t-53 -73.5t-76 -71l-96 -75q-28 -23 -47.5 -39.5t-33 -31.5t-21.5 -30.5t-11 -34.5q-6 -35 22.5 -54t108.5 -19q57 0 112.5 6t121.5 17q20 3 20 -17l-6 -275q0 -21 -19 -26
q-73 -22 -164 -33.5t-191 -11.5q-112 0 -195 18.5t-135.5 57.5t-73 100t-6.5 145q9 57 26 101.5t43.5 83t63.5 75.5t86 80l111 99q34 30 54.5 50.5t33 42t20.5 49.5t17 73zM785 1071q20 0 16 -20l-56 -300q-4 -21 -24 -22l-298 -35q-20 -1 -16 18l62 339q4 20 24 20h292z
" />
    <glyph glyph-name="Agrave" unicode="&#xc0;" horiz-adv-x="1353" 
d="M-92 0q-20 0 -11 18l693 1439q5 11 11.5 14.5t17.5 3.5h441q21 0 22 -20l162 -1435q1 -20 -18 -20h-345q-20 0 -21 20l-16 220h-466l-99 -222q-5 -11 -11 -14.5t-17 -3.5h-343zM780 1135l-264 -588h307zM844 1597q-20 0 -36 12l-209 218q-6 7 -4 11.5t10 4.5h317
q25 0 33 -14l143 -218q9 -14 -10 -14h-244z" />
    <glyph glyph-name="Aacute" unicode="&#xc1;" horiz-adv-x="1353" 
d="M-92 0q-20 0 -11 18l693 1439q5 11 11.5 14.5t17.5 3.5h441q21 0 22 -20l162 -1435q1 -20 -18 -20h-345q-20 0 -21 20l-16 220h-466l-99 -222q-5 -11 -11 -14.5t-17 -3.5h-343zM780 1135l-264 -588h307zM675 1597q-9 0 -10.5 4t4.5 10l220 218q14 14 34 14h343
q19 0 4 -12l-299 -222q-16 -12 -36 -12h-260z" />
    <glyph glyph-name="Acircumflex" unicode="&#xc2;" horiz-adv-x="1353" 
d="M-92 0q-20 0 -11 18l693 1439q5 11 11.5 14.5t17.5 3.5h441q21 0 22 -20l162 -1435q1 -20 -18 -20h-345q-20 0 -21 20l-16 220h-466l-99 -222q-5 -11 -11 -14.5t-17 -3.5h-343zM780 1135l-264 -588h307zM1242 1613q13 -16 -8 -16h-225q-20 0 -31 16l-67 95h-21l-110 -98
q-8 -8 -16 -10.5t-19 -2.5h-258q-20 0 -5 13l257 220q8 8 16 10.5t19 2.5h276q20 0 32 -16z" />
    <glyph glyph-name="Atilde" unicode="&#xc3;" horiz-adv-x="1353" 
d="M-92 0q-20 0 -11 18l693 1439q5 11 11.5 14.5t17.5 3.5h441q21 0 22 -20l162 -1435q1 -20 -18 -20h-345q-20 0 -21 20l-16 220h-466l-99 -222q-5 -11 -11 -14.5t-17 -3.5h-343zM780 1135l-264 -588h307zM500 1587q-11 0 -15 4.5t-3 15.5q14 100 43 158t65.5 88t77 38
t78.5 8q16 0 31 -3t33 -9t39.5 -16t51.5 -24q29 -14 48.5 -23t33 -14.5t22 -8t14.5 -2.5q9 0 15.5 2t12 9t10 20.5t10.5 36.5q4 20 24 20h191q11 0 15 -4.5t3 -15.5q-14 -101 -44 -159t-67.5 -87.5t-79 -37.5t-79.5 -8q-17 0 -33 2t-33 7.5t-37.5 16t-46.5 27.5
q-27 17 -46 27t-32.5 14.5t-22.5 5.5t-16 1q-9 0 -16 -2t-12 -9.5t-9.5 -21t-10.5 -37.5q-4 -19 -24 -19h-191z" />
    <glyph glyph-name="Adieresis" unicode="&#xc4;" horiz-adv-x="1353" 
d="M-92 0q-20 0 -11 18l693 1439q5 11 11.5 14.5t17.5 3.5h441q21 0 22 -20l162 -1435q1 -20 -18 -20h-345q-20 0 -21 20l-16 220h-466l-99 -222q-5 -11 -11 -14.5t-17 -3.5h-343zM780 1135l-264 -588h307zM496 1597q-20 0 -16 20l39 216q4 21 24 22l290 37q20 1 16 -18
l-48 -257q-4 -20 -24 -20h-281zM948 1597q-20 0 -16 20l40 216q4 21 24 22l289 37q20 1 16 -18l-47 -257q-4 -20 -24 -20h-282z" />
    <glyph glyph-name="Aring" unicode="&#xc5;" horiz-adv-x="1346" 
d="M-96 0q-20 0 -11 18l693 1439q6 13 16 16q-14 49 -2 111l2 10q9 47 31.5 89t59.5 73.5t88 50t119 18.5q66 0 111 -19t70.5 -51t32 -74.5t-2.5 -89.5l-2 -10q-12 -60 -43 -107q11 -4 12 -19l162 -1435q1 -20 -18 -20h-345q-20 0 -21 20l-16 220h-466l-99 -222
q-5 -11 -11 -14.5t-17 -3.5h-343zM776 1135l-264 -588h307zM867 1653q-29 0 -52 -16.5t-28 -46.5l-1 -6q-5 -27 11 -44.5t47 -17.5q29 0 52 16.5t29 48.5q5 29 -11 47.5t-47 18.5z" />
    <glyph glyph-name="AE" unicode="&#xc6;" horiz-adv-x="1888" 
d="M766 0q-20 0 -16 20l40 220h-419l-120 -222q-5 -11 -11.5 -14.5t-17.5 -3.5h-343q-21 0 -10 17l818 1441q6 10 12.5 13.5t17.5 3.5h1216q20 0 16 -20l-52 -288q-4 -20 -24 -20h-564l-45 -242h420q20 0 16 -20l-53 -287q-4 -20 -24 -20h-420l-46 -250h564q20 0 16 -20
l-53 -288q-4 -20 -24 -20h-894zM862 1147l-325 -600h310l111 600h-96z" />
    <glyph glyph-name="Ccedilla" unicode="&#xc7;" horiz-adv-x="1199" 
d="M616 -31q-152 0 -265.5 34t-181.5 114.5t-87 213.5t18 331l29 153q36 196 104 328.5t166 213t224 114.5t278 34q54 0 105.5 -3.5t98.5 -10.5t88 -16.5t73 -22.5q10 -5 12.5 -10t-0.5 -16l-95 -274q-7 -19 -26 -14q-75 17 -150.5 23t-152.5 6q-76 0 -137 -17t-107.5 -57
t-78.5 -105.5t-50 -162.5l-30 -174q-19 -98 -11.5 -163.5t38.5 -106t85.5 -57.5t130.5 -17q81 0 163 5t163 15q20 3 19 -17l-12 -278q-1 -20 -20 -25q-36 -9 -81 -16t-95 -12t-105 -7.5t-110 -2.5zM296 -389q-19 0 -8 16l203 255q12 16 32 16h221q21 0 8 -16l-181 -255
q-12 -16 -32 -16h-243z" />
    <glyph glyph-name="Egrave" unicode="&#xc8;" horiz-adv-x="1200" 
d="M54 0q-20 0 -16 20l264 1435q4 20 24 20h919q20 0 16 -20l-54 -288q-4 -20 -24 -20h-586l-45 -242h443q20 0 16 -20l-54 -287q-4 -20 -24 -20h-442l-46 -250h587q20 0 16 -20l-54 -288q-4 -20 -24 -20h-916zM766 1597q-20 0 -36 12l-209 218q-6 7 -4 11.5t10 4.5h317
q25 0 33 -14l143 -218q9 -14 -10 -14h-244z" />
    <glyph glyph-name="Eacute" unicode="&#xc9;" horiz-adv-x="1200" 
d="M54 0q-20 0 -16 20l264 1435q4 20 24 20h919q20 0 16 -20l-54 -288q-4 -20 -24 -20h-586l-45 -242h443q20 0 16 -20l-54 -287q-4 -20 -24 -20h-442l-46 -250h587q20 0 16 -20l-54 -288q-4 -20 -24 -20h-916zM626 1597q-9 0 -10.5 4t4.5 10l220 218q14 14 34 14h343
q19 0 4 -12l-299 -222q-16 -12 -36 -12h-260z" />
    <glyph glyph-name="Ecircumflex" unicode="&#xca;" horiz-adv-x="1200" 
d="M54 0q-20 0 -16 20l264 1435q4 20 24 20h919q20 0 16 -20l-54 -288q-4 -20 -24 -20h-586l-45 -242h443q20 0 16 -20l-54 -287q-4 -20 -24 -20h-442l-46 -250h587q20 0 16 -20l-54 -288q-4 -20 -24 -20h-916zM1173 1613q13 -16 -8 -16h-225q-20 0 -31 16l-67 95h-21
l-110 -98q-8 -8 -16 -10.5t-19 -2.5h-258q-20 0 -5 13l257 220q8 8 16 10.5t19 2.5h276q20 0 32 -16z" />
    <glyph glyph-name="Edieresis" unicode="&#xcb;" horiz-adv-x="1200" 
d="M54 0q-20 0 -16 20l264 1435q4 20 24 20h919q20 0 16 -20l-54 -288q-4 -20 -24 -20h-586l-45 -242h443q20 0 16 -20l-54 -287q-4 -20 -24 -20h-442l-46 -250h587q20 0 16 -20l-54 -288q-4 -20 -24 -20h-916zM425 1597q-20 0 -16 20l39 216q4 21 24 22l290 37q20 1 16 -18
l-48 -257q-4 -20 -24 -20h-281zM877 1597q-20 0 -16 20l40 216q4 21 24 22l289 37q20 1 16 -18l-47 -257q-4 -20 -24 -20h-282z" />
    <glyph glyph-name="Igrave" unicode="&#xcc;" horiz-adv-x="652" 
d="M55 0q-20 0 -16 20l264 1435q4 20 24 20h310q20 0 16 -20l-264 -1435q-4 -20 -24 -20h-310zM459 1597q-20 0 -36 12l-209 218q-6 7 -4 11.5t10 4.5h317q25 0 33 -14l143 -218q9 -14 -10 -14h-244z" />
    <glyph glyph-name="Iacute" unicode="&#xcd;" horiz-adv-x="651" 
d="M54 0q-20 0 -16 20l264 1435q4 20 24 20h310q20 0 16 -20l-264 -1435q-4 -20 -24 -20h-310zM238 1597q-9 0 -10.5 4t4.5 10l220 218q14 14 34 14h343q19 0 4 -12l-299 -222q-16 -12 -36 -12h-260z" />
    <glyph glyph-name="Icircumflex" unicode="&#xce;" horiz-adv-x="652" 
d="M55 0q-20 0 -16 20l264 1435q4 20 24 20h310q20 0 16 -20l-264 -1435q-4 -20 -24 -20h-310zM890 1613q13 -16 -8 -16h-225q-20 0 -31 16l-67 95h-21l-110 -98q-8 -8 -16 -10.5t-19 -2.5h-258q-20 0 -5 13l257 220q8 8 16 10.5t19 2.5h276q20 0 32 -16z" />
    <glyph glyph-name="Idieresis" unicode="&#xcf;" horiz-adv-x="652" 
d="M55 0q-20 0 -16 20l264 1435q4 20 24 20h310q20 0 16 -20l-264 -1435q-4 -20 -24 -20h-310zM140 1597q-20 0 -16 20l39 216q4 21 24 22l290 37q20 1 16 -18l-48 -257q-4 -20 -24 -20h-281zM592 1597q-20 0 -16 20l40 216q4 21 24 22l289 37q20 1 16 -18l-47 -257
q-4 -20 -24 -20h-282z" />
    <glyph glyph-name="Eth" unicode="&#xd0;" horiz-adv-x="1442" 
d="M428 -16q-32 0 -73.5 1t-88.5 2.5t-95.5 4t-93.5 6.5q-20 1 -16 22l105 574h-139q-20 0 -16 20l49 279q4 20 24 20h141l100 542q2 11 7.5 15.5t16.5 6.5q38 3 84 5.5t91.5 4.5t87 3t70.5 1q119 0 224.5 -11t192.5 -40t152.5 -79t103.5 -127t46 -185.5t-19 -253.5
l-21 -113q-30 -162 -75.5 -277t-107 -192.5t-138.5 -123t-170.5 -69t-204 -30t-237.5 -6.5zM714 1180q-20 0 -44 -1.5t-46 -4.5l-49 -261h205q20 0 16 -20l-49 -279q-4 -20 -24 -20h-207l-54 -293q9 -2 24 -3t31.5 -1.5t31 -1t22.5 -0.5q94 0 165.5 15t125 57t89.5 117
t58 194l23 119q21 118 11 192.5t-50.5 117t-110.5 58t-168 15.5z" />
    <glyph glyph-name="Ntilde" unicode="&#xd1;" horiz-adv-x="1512" 
d="M54 0q-20 0 -16 20l264 1435q4 20 24 20h343q20 0 27 -19l284 -749q7 -19 11.5 -36t8 -30t5 -21t2.5 -8l157 843q4 20 24 20h311q20 0 16 -20l-267 -1435q-4 -20 -24 -20h-343q-20 0 -27 19l-282 745q-17 45 -20.5 72.5t-5.5 27.5l-158 -844q-4 -20 -24 -20h-310z
M572 1587q-11 0 -15 4.5t-3 15.5q14 100 43 158t65.5 88t77 38t78.5 8q16 0 31 -3t33 -9t39.5 -16t51.5 -24q29 -14 48.5 -23t33 -14.5t22 -8t14.5 -2.5q9 0 15.5 2t12 9t10 20.5t10.5 36.5q4 20 24 20h191q11 0 15 -4.5t3 -15.5q-14 -101 -44 -159t-67.5 -87.5t-79 -37.5
t-79.5 -8q-17 0 -33 2t-33 7.5t-37.5 16t-46.5 27.5q-27 17 -46 27t-32.5 14.5t-22.5 5.5t-16 1q-9 0 -16 -2t-12 -9.5t-9.5 -21t-10.5 -37.5q-4 -19 -24 -19h-191z" />
    <glyph glyph-name="Ograve" unicode="&#xd2;" horiz-adv-x="1436" 
d="M595 -31q-148 0 -256 41.5t-172 126.5t-81 215.5t17 309.5l29 153q26 138 63 243t85.5 181.5t109 127.5t135 81.5t163 43.5t192.5 13q148 0 256 -41.5t172 -126.5t81 -215.5t-16 -308.5l-29 -154q-39 -208 -102.5 -341.5t-155 -211t-213.5 -107.5t-278 -30zM814 1157
q-67 0 -120.5 -16.5t-94.5 -55t-70 -102.5t-47 -158l-30 -174q-18 -95 -16 -159t26.5 -103t73 -55.5t122.5 -16.5q68 0 122.5 16.5t95.5 55.5t70 103t46 159l33 172q18 94 15.5 158t-28 103t-74.5 56t-124 17zM850 1597q-20 0 -36 12l-209 218q-6 7 -4 11.5t10 4.5h317
q25 0 33 -14l143 -218q9 -14 -10 -14h-244z" />
    <glyph glyph-name="Oacute" unicode="&#xd3;" horiz-adv-x="1436" 
d="M595 -31q-148 0 -256 41.5t-172 126.5t-81 215.5t17 309.5l29 153q26 138 63 243t85.5 181.5t109 127.5t135 81.5t163 43.5t192.5 13q148 0 256 -41.5t172 -126.5t81 -215.5t-16 -308.5l-29 -154q-39 -208 -102.5 -341.5t-155 -211t-213.5 -107.5t-278 -30zM814 1157
q-67 0 -120.5 -16.5t-94.5 -55t-70 -102.5t-47 -158l-30 -174q-18 -95 -16 -159t26.5 -103t73 -55.5t122.5 -16.5q68 0 122.5 16.5t95.5 55.5t70 103t46 159l33 172q18 94 15.5 158t-28 103t-74.5 56t-124 17zM669 1597q-9 0 -10.5 4t4.5 10l220 218q14 14 34 14h343
q19 0 4 -12l-299 -222q-16 -12 -36 -12h-260z" />
    <glyph glyph-name="Ocircumflex" unicode="&#xd4;" horiz-adv-x="1436" 
d="M595 -31q-148 0 -256 41.5t-172 126.5t-81 215.5t17 309.5l29 153q26 138 63 243t85.5 181.5t109 127.5t135 81.5t163 43.5t192.5 13q148 0 256 -41.5t172 -126.5t81 -215.5t-16 -308.5l-29 -154q-39 -208 -102.5 -341.5t-155 -211t-213.5 -107.5t-278 -30zM814 1157
q-67 0 -120.5 -16.5t-94.5 -55t-70 -102.5t-47 -158l-30 -174q-18 -95 -16 -159t26.5 -103t73 -55.5t122.5 -16.5q68 0 122.5 16.5t95.5 55.5t70 103t46 159l33 172q18 94 15.5 158t-28 103t-74.5 56t-124 17zM1277 1613q13 -16 -8 -16h-225q-20 0 -31 16l-67 95h-21
l-110 -98q-8 -8 -16 -10.5t-19 -2.5h-258q-20 0 -5 13l257 220q8 8 16 10.5t19 2.5h276q20 0 32 -16z" />
    <glyph glyph-name="Otilde" unicode="&#xd5;" horiz-adv-x="1436" 
d="M595 -31q-148 0 -256 41.5t-172 126.5t-81 215.5t17 309.5l29 153q26 138 63 243t85.5 181.5t109 127.5t135 81.5t163 43.5t192.5 13q148 0 256 -41.5t172 -126.5t81 -215.5t-16 -308.5l-29 -154q-39 -208 -102.5 -341.5t-155 -211t-213.5 -107.5t-278 -30zM814 1157
q-67 0 -120.5 -16.5t-94.5 -55t-70 -102.5t-47 -158l-30 -174q-18 -95 -16 -159t26.5 -103t73 -55.5t122.5 -16.5q68 0 122.5 16.5t95.5 55.5t70 103t46 159l33 172q18 94 15.5 158t-28 103t-74.5 56t-124 17zM535 1587q-11 0 -15 4.5t-3 15.5q14 100 43 158t65.5 88t77 38
t78.5 8q16 0 31 -3t33 -9t39.5 -16t51.5 -24q29 -14 48.5 -23t33 -14.5t22 -8t14.5 -2.5q9 0 15.5 2t12 9t10 20.5t10.5 36.5q4 20 24 20h191q11 0 15 -4.5t3 -15.5q-14 -101 -44 -159t-67.5 -87.5t-79 -37.5t-79.5 -8q-17 0 -33 2t-33 7.5t-37.5 16t-46.5 27.5
q-27 17 -46 27t-32.5 14.5t-22.5 5.5t-16 1q-9 0 -16 -2t-12 -9.5t-9.5 -21t-10.5 -37.5q-4 -19 -24 -19h-191z" />
    <glyph glyph-name="Odieresis" unicode="&#xd6;" horiz-adv-x="1436" 
d="M595 -31q-148 0 -256 41.5t-172 126.5t-81 215.5t17 309.5l29 153q26 138 63 243t85.5 181.5t109 127.5t135 81.5t163 43.5t192.5 13q148 0 256 -41.5t172 -126.5t81 -215.5t-16 -308.5l-29 -154q-39 -208 -102.5 -341.5t-155 -211t-213.5 -107.5t-278 -30zM814 1157
q-67 0 -120.5 -16.5t-94.5 -55t-70 -102.5t-47 -158l-30 -174q-18 -95 -16 -159t26.5 -103t73 -55.5t122.5 -16.5q68 0 122.5 16.5t95.5 55.5t70 103t46 159l33 172q18 94 15.5 158t-28 103t-74.5 56t-124 17zM529 1597q-20 0 -16 20l39 216q4 21 24 22l290 37q20 1 16 -18
l-48 -257q-4 -20 -24 -20h-281zM981 1597q-20 0 -16 20l40 216q4 21 24 22l289 37q20 1 16 -18l-47 -257q-4 -20 -24 -20h-282z" />
    <glyph glyph-name="multiply" unicode="&#xd7;" horiz-adv-x="1077" 
d="M155 990q-8 9 -7 15t9 14l240 199q8 8 14 7t14 -10l179 -221l271 228q8 8 14 7t14 -10l157 -193q8 -9 7 -15t-9 -14l-270 -229l181 -222q8 -9 7 -15t-9 -14l-237 -199q-8 -8 -14 -7t-14 9l-181 222l-263 -222q-15 -13 -28 3l-157 196q-8 9 -7 15t9 14l261 220z" />
    <glyph glyph-name="Oslash" unicode="&#xd8;" horiz-adv-x="1422" 
d="M122 254q-27 86 -27.5 199t26.5 259l18 103q36 196 100.5 328t156.5 212.5t210.5 115t261.5 34.5q113 0 201.5 -24.5t151.5 -76.5l54 57q8 8 15.5 11t18.5 3h253q9 0 11 -4t-5 -10l-229 -240q27 -86 28 -199t-26 -259l-19 -104q-36 -197 -100.5 -329t-156 -212.5
t-210 -114.5t-262.5 -34q-113 0 -201.5 24.5t-151.5 77.5l-54 -57q-8 -8 -15.5 -11t-18.5 -3h-253q-9 0 -11 4t5 10zM1003 823l9 56l-507 -531q26 -17 62.5 -24t85.5 -7q64 0 115 16.5t90 55.5t67 103t46 159zM808 1157q-65 0 -115.5 -16.5t-89.5 -55t-66.5 -102.5
t-45.5 -158l-32 -174q-6 -29 -9 -54l506 530q-49 30 -148 30z" />
    <glyph glyph-name="Ugrave" unicode="&#xd9;" horiz-adv-x="1489" 
d="M626 -31q-136 0 -242.5 28t-175 90t-93.5 161t1 241l178 966q4 20 24 20h310q20 0 16 -20l-162 -886q-14 -71 -10 -121t28 -81.5t70 -45.5t117 -14q68 0 119.5 14t88 45.5t60.5 81.5t37 121l164 886q4 20 24 20h308q20 0 16 -20l-178 -966q-28 -152 -88.5 -252.5
t-149.5 -160t-205.5 -83.5t-256.5 -24zM856 1597q-20 0 -36 12l-209 218q-6 7 -4 11.5t10 4.5h317q25 0 33 -14l143 -218q9 -14 -10 -14h-244z" />
    <glyph glyph-name="Uacute" unicode="&#xda;" horiz-adv-x="1489" 
d="M626 -31q-136 0 -242.5 28t-175 90t-93.5 161t1 241l178 966q4 20 24 20h310q20 0 16 -20l-162 -886q-14 -71 -10 -121t28 -81.5t70 -45.5t117 -14q68 0 119.5 14t88 45.5t60.5 81.5t37 121l164 886q4 20 24 20h308q20 0 16 -20l-178 -966q-28 -152 -88.5 -252.5
t-149.5 -160t-205.5 -83.5t-256.5 -24zM766 1597q-9 0 -10.5 4t4.5 10l220 218q14 14 34 14h343q19 0 4 -12l-299 -222q-16 -12 -36 -12h-260z" />
    <glyph glyph-name="Ucircumflex" unicode="&#xdb;" horiz-adv-x="1489" 
d="M626 -31q-136 0 -242.5 28t-175 90t-93.5 161t1 241l178 966q4 20 24 20h310q20 0 16 -20l-162 -886q-14 -71 -10 -121t28 -81.5t70 -45.5t117 -14q68 0 119.5 14t88 45.5t60.5 81.5t37 121l164 886q4 20 24 20h308q20 0 16 -20l-178 -966q-28 -152 -88.5 -252.5
t-149.5 -160t-205.5 -83.5t-256.5 -24zM1308 1613q13 -16 -8 -16h-225q-20 0 -31 16l-67 95h-21l-110 -98q-8 -8 -16 -10.5t-19 -2.5h-258q-20 0 -5 13l257 220q8 8 16 10.5t19 2.5h276q20 0 32 -16z" />
    <glyph glyph-name="Udieresis" unicode="&#xdc;" horiz-adv-x="1489" 
d="M626 -31q-136 0 -242.5 28t-175 90t-93.5 161t1 241l178 966q4 20 24 20h310q20 0 16 -20l-162 -886q-14 -71 -10 -121t28 -81.5t70 -45.5t117 -14q68 0 119.5 14t88 45.5t60.5 81.5t37 121l164 886q4 20 24 20h308q20 0 16 -20l-178 -966q-28 -152 -88.5 -252.5
t-149.5 -160t-205.5 -83.5t-256.5 -24zM558 1597q-20 0 -16 20l39 216q4 21 24 22l290 37q20 1 16 -18l-48 -257q-4 -20 -24 -20h-281zM1010 1597q-20 0 -16 20l40 216q4 21 24 22l289 37q20 1 16 -18l-47 -257q-4 -20 -24 -20h-282z" />
    <glyph glyph-name="Yacute" unicode="&#xdd;" horiz-adv-x="1246" 
d="M347 0q-20 0 -16 20l84 463l-281 973q-6 19 14 19h344q20 0 24 -19l135 -588l353 590q6 10 12.5 13.5t17.5 3.5h364q20 0 9 -17l-641 -973l-85 -465q-4 -20 -24 -20h-310zM608 1597q-9 0 -10.5 4t4.5 10l220 218q14 14 34 14h343q19 0 4 -12l-299 -222q-16 -12 -36 -12
h-260z" />
    <glyph glyph-name="Thorn" unicode="&#xde;" horiz-adv-x="1360" 
d="M54 0q-20 0 -16 20l201 1087l30 163l34 185q4 20 24 20h311q20 0 16 -20l-32 -173q42 1 78.5 1.5t68.5 0.5q187 0 307.5 -22t186 -73t81 -134.5t-7.5 -206.5l-22 -119q-17 -93 -40.5 -161.5t-60 -117t-88.5 -79t-127.5 -48t-177 -24t-235.5 -6.5h-36.5h-40.5t-39 0.5
t-32 1.5l-49 -275q-4 -20 -24 -20h-310zM716 973q-34 0 -77 -1.5t-77 -4.5l-65 -357q16 -2 35.5 -3t39.5 -1.5t39.5 -1t36.5 -0.5q91 0 148.5 5t92.5 21.5t52.5 46t26.5 79.5l12 65q8 49 2 79t-35 46t-85 21.5t-146 5.5z" />
    <glyph glyph-name="germandbls" unicode="&#xdf;" horiz-adv-x="1295" 
d="M27 0q-20 0 -16 20l187 1008q27 152 69 258.5t112 173t174.5 97t257.5 30.5q139 0 235 -37t151 -101.5t70.5 -152t-4.5 -187.5l-6 -29q-9 -46 -27 -89t-49.5 -79t-79.5 -63.5t-117 -43.5q62 -22 106 -54.5t68.5 -78t29 -105t-11.5 -135.5l-4 -26q-1 -8 -2.5 -19t-3.5 -19
q-19 -84 -40 -146t-49.5 -106.5t-67 -73t-91 -45t-122.5 -22.5t-162 -6q-35 0 -78.5 3t-77.5 11q-19 4 -15 24l53 241q4 20 24 17q26 -3 54.5 -4t54.5 -1q36 0 64 8.5t48 27t33.5 49t21.5 75.5l12 69q7 34 5 63t-18 50t-49 33t-87 12h-29q-20 0 -16 20l51 279q4 19 24 19h21
q51 0 85.5 10t56.5 28t33.5 43t17.5 54l4 20q15 85 -19 119.5t-119 34.5q-77 0 -123 -15t-72.5 -45t-39.5 -75.5t-25 -106.5l-186 -1012q-4 -20 -24 -20h-292z" />
    <glyph glyph-name="agrave" unicode="&#xe0;" horiz-adv-x="1223" 
d="M804 806q-29 5 -76.5 7t-95.5 2q-60 0 -99 -11.5t-64.5 -39t-41 -72.5t-27.5 -112l-14 -72q-13 -72 -14.5 -121t13.5 -78.5t50.5 -42t95.5 -12.5q21 0 44 0.5t45.5 1t43.5 1.5t37 3zM484 -31q-149 0 -243.5 28.5t-143 88.5t-56 153t16.5 222l29 153q27 143 68.5 236.5
t109.5 149t167.5 78t242.5 22.5q138 0 262 -7.5t229 -19.5q20 -1 16 -22l-192 -1031q-4 -21 -24 -22q-122 -14 -243 -21.5t-239 -7.5zM655 1270q-20 0 -32 16l-179 244q-13 16 8 16h304q11 0 17 -3.5t11 -14.5l113 -240q7 -18 -12 -18h-230z" />
    <glyph glyph-name="aacute" unicode="&#xe1;" horiz-adv-x="1223" 
d="M804 806q-29 5 -76.5 7t-95.5 2q-60 0 -99 -11.5t-64.5 -39t-41 -72.5t-27.5 -112l-14 -72q-13 -72 -14.5 -121t13.5 -78.5t50.5 -42t95.5 -12.5q21 0 44 0.5t45.5 1t43.5 1.5t37 3zM484 -31q-149 0 -243.5 28.5t-143 88.5t-56 153t16.5 222l29 153q27 143 68.5 236.5
t109.5 149t167.5 78t242.5 22.5q138 0 262 -7.5t229 -19.5q20 -1 16 -22l-192 -1031q-4 -21 -24 -22q-122 -14 -243 -21.5t-239 -7.5zM532 1270q-20 0 -7 16l197 244q8 9 15 12.5t18 3.5h335q20 0 5 -13l-275 -250q-8 -8 -16 -10.5t-19 -2.5h-253z" />
    <glyph glyph-name="acircumflex" unicode="&#xe2;" horiz-adv-x="1223" 
d="M804 806q-29 5 -76.5 7t-95.5 2q-60 0 -99 -11.5t-64.5 -39t-41 -72.5t-27.5 -112l-14 -72q-13 -72 -14.5 -121t13.5 -78.5t50.5 -42t95.5 -12.5q21 0 44 0.5t45.5 1t43.5 1.5t37 3zM484 -31q-149 0 -243.5 28.5t-143 88.5t-56 153t16.5 222l29 153q27 143 68.5 236.5
t109.5 149t167.5 78t242.5 22.5q138 0 262 -7.5t229 -19.5q20 -1 16 -22l-192 -1031q-4 -21 -24 -22q-122 -14 -243 -21.5t-239 -7.5zM1107 1266q11 -17 -10 -17h-237q-11 0 -17 3.5t-11 14.5l-57 125h-21l-106 -128q-8 -8 -15 -11.5t-18 -3.5h-249q-9 0 -11 4t5 10l255 269
q8 8 15.5 11t18.5 3h275q11 0 17.5 -3.5t12.5 -13.5z" />
    <glyph glyph-name="atilde" unicode="&#xe3;" horiz-adv-x="1223" 
d="M804 806q-29 5 -76.5 7t-95.5 2q-60 0 -99 -11.5t-64.5 -39t-41 -72.5t-27.5 -112l-14 -72q-13 -72 -14.5 -121t13.5 -78.5t50.5 -42t95.5 -12.5q21 0 44 0.5t45.5 1t43.5 1.5t37 3zM484 -31q-149 0 -243.5 28.5t-143 88.5t-56 153t16.5 222l29 153q27 143 68.5 236.5
t109.5 149t167.5 78t242.5 22.5q138 0 262 -7.5t229 -19.5q20 -1 16 -22l-192 -1031q-4 -21 -24 -22q-122 -14 -243 -21.5t-239 -7.5zM620 1344q-9 0 -16 -2t-12.5 -10t-10.5 -23.5t-10 -42.5q-4 -20 -24 -20h-186q-21 0 -18 20q8 97 32.5 157.5t60.5 95t81.5 47t95.5 12.5
q20 0 36.5 -2t34.5 -7t38.5 -15t48.5 -26q25 -15 42.5 -24.5t29.5 -15.5t19.5 -8.5t12.5 -2.5q9 0 16 2t12.5 10t10.5 23.5t10 42.5q4 20 24 20h186q21 0 18 -20q-8 -97 -32.5 -157.5t-60.5 -95t-81.5 -47t-95.5 -12.5q-20 0 -36.5 2t-34.5 7t-38.5 15t-48.5 26
q-50 29 -72 40t-32 11z" />
    <glyph glyph-name="adieresis" unicode="&#xe4;" horiz-adv-x="1223" 
d="M804 806q-29 5 -76.5 7t-95.5 2q-60 0 -99 -11.5t-64.5 -39t-41 -72.5t-27.5 -112l-14 -72q-13 -72 -14.5 -121t13.5 -78.5t50.5 -42t95.5 -12.5q21 0 44 0.5t45.5 1t43.5 1.5t37 3zM484 -31q-149 0 -243.5 28.5t-143 88.5t-56 153t16.5 222l29 153q27 143 68.5 236.5
t109.5 149t167.5 78t242.5 22.5q138 0 262 -7.5t229 -19.5q20 -1 16 -22l-192 -1031q-4 -21 -24 -22q-122 -14 -243 -21.5t-239 -7.5zM342 1219q-20 0 -16 20l54 287q4 21 24 22l287 37q20 1 16 -18l-59 -328q-4 -20 -24 -20h-282zM795 1219q-20 0 -16 20l53 287q4 21 24 22
l288 37q20 1 16 -18l-60 -328q-4 -20 -24 -20h-281z" />
    <glyph glyph-name="aring" unicode="&#xe5;" horiz-adv-x="1223" 
d="M804 806q-29 5 -76.5 7t-95.5 2q-60 0 -99 -11.5t-64.5 -39t-41 -72.5t-27.5 -112l-14 -72q-13 -72 -14.5 -121t13.5 -78.5t50.5 -42t95.5 -12.5q21 0 44 0.5t45.5 1t43.5 1.5t37 3zM484 -31q-149 0 -243.5 28.5t-143 88.5t-56 153t16.5 222l29 153q27 143 68.5 236.5
t109.5 149t167.5 78t242.5 22.5q138 0 262 -7.5t229 -19.5q20 -1 16 -22l-192 -1031q-4 -21 -24 -22q-122 -14 -243 -21.5t-239 -7.5zM745 1458q-18 0 -32.5 -2t-25 -9.5t-16.5 -21t-6 -36.5q0 -28 16.5 -34.5t42.5 -6.5q18 0 33 2t26 9.5t17 21t6 36.5q0 28 -17.5 34.5
t-43.5 6.5zM683 1176q-121 0 -175 49.5t-54 132.5q0 57 17.5 107t55 86.5t97 57.5t143.5 21q119 0 173.5 -49.5t54.5 -134.5q0 -58 -19 -107.5t-57.5 -85.5t-97 -56.5t-138.5 -20.5z" />
    <glyph glyph-name="ae" unicode="&#xe6;" horiz-adv-x="1849" 
d="M1159 -31q-128 0 -218 26q-116 -13 -230.5 -19.5t-226.5 -6.5q-149 0 -243.5 28.5t-143 88.5t-56 153t16.5 222l29 153q27 143 68.5 236.5t109.5 149t167.5 78t242.5 22.5q131 0 250 -7t221 -18q93 25 218 25q224 0 326 -90.5t102 -280.5q0 -61 -8.5 -114t-20.5 -95.5
t-25 -73.5t-21 -47q-5 -11 -11 -14.5t-17 -3.5l-627 -2q-1 -42 8.5 -67t31 -38.5t55 -17.5t80.5 -4q88 0 179.5 3t193.5 10q20 1 17 -19l-29 -226q-3 -20 -23 -23q-100 -12 -202.5 -20t-213.5 -8zM804 806q-29 5 -76.5 7t-95.5 2q-60 0 -99 -11.5t-64.5 -39t-41 -72.5
t-27.5 -112l-14 -72q-13 -72 -14.5 -121t13.5 -78.5t50.5 -42t95.5 -12.5q21 0 44 0.5t45.5 1t43.5 1.5t37 3zM1483 631q0 57 -7.5 93t-27 56.5t-52 28.5t-83.5 8q-46 0 -79.5 -8t-57 -27t-39.5 -49t-28 -75l-9 -45z" />
    <glyph glyph-name="ccedilla" unicode="&#xe7;" horiz-adv-x="953" 
d="M483 -31q-150 0 -244.5 30t-142.5 91.5t-54.5 156.5t17.5 226l23 125q24 130 65.5 224.5t113 156t177 91.5t256.5 30q73 0 136.5 -7t114.5 -18q20 -4 15 -23l-58 -237q-3 -11 -8.5 -15t-16.5 -3q-54 5 -109.5 7.5t-118.5 2.5q-65 0 -106 -11.5t-66 -39t-39 -72.5
t-26 -111l-15 -77q-12 -66 -15 -111t12 -72.5t51.5 -39t103.5 -11.5q63 0 120 3.5t112 8.5q20 1 17 -18l-30 -236q-1 -20 -22 -24q-53 -11 -124 -19t-139 -8zM86 -389q-19 0 -8 16l203 255q12 16 32 16h221q21 0 8 -16l-181 -255q-12 -16 -32 -16h-243z" />
    <glyph glyph-name="egrave" unicode="&#xe8;" horiz-adv-x="1160" 
d="M470 -31q-138 0 -228.5 29.5t-139.5 91t-58.5 157t14.5 228.5l21 115q25 133 70.5 229t116.5 158.5t172 92.5t237 30q224 0 326 -90.5t102 -280.5q0 -61 -8.5 -114t-20.5 -95.5t-25 -73.5t-21 -47q-5 -11 -11 -14.5t-17 -3.5l-627 -2q-1 -42 8.5 -67t31 -38.5t55 -17.5
t80.5 -4q88 0 179.5 3t193.5 10q20 1 17 -19l-29 -226q-3 -20 -23 -23q-100 -12 -202.5 -20t-213.5 -8zM794 631q0 57 -7.5 93t-27 56.5t-52 28.5t-83.5 8t-87 -10t-60.5 -34t-40 -63t-26.5 -97zM654 1270q-20 0 -32 16l-179 244q-13 16 8 16h304q11 0 17 -3.5t11 -14.5
l113 -240q7 -18 -12 -18h-230z" />
    <glyph glyph-name="eacute" unicode="&#xe9;" horiz-adv-x="1160" 
d="M470 -31q-138 0 -228.5 29.5t-139.5 91t-58.5 157t14.5 228.5l21 115q25 133 70.5 229t116.5 158.5t172 92.5t237 30q224 0 326 -90.5t102 -280.5q0 -61 -8.5 -114t-20.5 -95.5t-25 -73.5t-21 -47q-5 -11 -11 -14.5t-17 -3.5l-627 -2q-1 -42 8.5 -67t31 -38.5t55 -17.5
t80.5 -4q88 0 179.5 3t193.5 10q20 1 17 -19l-29 -226q-3 -20 -23 -23q-100 -12 -202.5 -20t-213.5 -8zM794 631q0 57 -7.5 93t-27 56.5t-52 28.5t-83.5 8t-87 -10t-60.5 -34t-40 -63t-26.5 -97zM521 1270q-20 0 -7 16l197 244q8 9 15 12.5t18 3.5h335q20 0 5 -13l-275 -250
q-8 -8 -16 -10.5t-19 -2.5h-253z" />
    <glyph glyph-name="ecircumflex" unicode="&#xea;" horiz-adv-x="1160" 
d="M470 -31q-138 0 -228.5 29.5t-139.5 91t-58.5 157t14.5 228.5l21 115q25 133 70.5 229t116.5 158.5t172 92.5t237 30q224 0 326 -90.5t102 -280.5q0 -61 -8.5 -114t-20.5 -95.5t-25 -73.5t-21 -47q-5 -11 -11 -14.5t-17 -3.5l-627 -2q-1 -42 8.5 -67t31 -38.5t55 -17.5
t80.5 -4q88 0 179.5 3t193.5 10q20 1 17 -19l-29 -226q-3 -20 -23 -23q-100 -12 -202.5 -20t-213.5 -8zM794 631q0 57 -7.5 93t-27 56.5t-52 28.5t-83.5 8t-87 -10t-60.5 -34t-40 -63t-26.5 -97zM1053 1266q11 -17 -10 -17h-237q-11 0 -17 3.5t-11 14.5l-57 125h-21
l-106 -128q-8 -8 -15 -11.5t-18 -3.5h-249q-9 0 -11 4t5 10l255 269q8 8 15.5 11t18.5 3h275q11 0 17.5 -3.5t12.5 -13.5z" />
    <glyph glyph-name="edieresis" unicode="&#xeb;" horiz-adv-x="1160" 
d="M470 -31q-138 0 -228.5 29.5t-139.5 91t-58.5 157t14.5 228.5l21 115q25 133 70.5 229t116.5 158.5t172 92.5t237 30q224 0 326 -90.5t102 -280.5q0 -61 -8.5 -114t-20.5 -95.5t-25 -73.5t-21 -47q-5 -11 -11 -14.5t-17 -3.5l-627 -2q-1 -42 8.5 -67t31 -38.5t55 -17.5
t80.5 -4q88 0 179.5 3t193.5 10q20 1 17 -19l-29 -226q-3 -20 -23 -23q-100 -12 -202.5 -20t-213.5 -8zM794 631q0 57 -7.5 93t-27 56.5t-52 28.5t-83.5 8t-87 -10t-60.5 -34t-40 -63t-26.5 -97zM300 1219q-20 0 -16 20l54 287q4 21 24 22l287 37q20 1 16 -18l-59 -328
q-4 -20 -24 -20h-282zM753 1219q-20 0 -16 20l53 287q4 21 24 22l288 37q20 1 16 -18l-60 -328q-4 -20 -24 -20h-281z" />
    <glyph glyph-name="igrave" unicode="&#xec;" horiz-adv-x="590" 
d="M34 0q-20 0 -16 20l191 1031q4 20 24 20h292q20 0 16 -20l-191 -1031q-4 -20 -24 -20h-292zM333 1270q-20 0 -32 16l-179 244q-13 16 8 16h304q11 0 17 -3.5t11 -14.5l113 -240q7 -18 -12 -18h-230z" />
    <glyph glyph-name="iacute" unicode="&#xed;" horiz-adv-x="590" 
d="M34 0q-20 0 -16 20l191 1031q4 20 24 20h292q20 0 16 -20l-191 -1031q-4 -20 -24 -20h-292zM180 1270q-20 0 -7 16l197 244q8 9 15 12.5t18 3.5h335q20 0 5 -13l-275 -250q-8 -8 -16 -10.5t-19 -2.5h-253z" />
    <glyph glyph-name="icircumflex" unicode="&#xee;" horiz-adv-x="590" 
d="M34 0q-20 0 -16 20l191 1031q4 20 24 20h292q20 0 16 -20l-191 -1031q-4 -20 -24 -20h-292zM784 1266q11 -17 -10 -17h-237q-11 0 -17 3.5t-11 14.5l-57 125h-21l-106 -128q-8 -8 -15 -11.5t-18 -3.5h-249q-9 0 -11 4t5 10l255 269q8 8 15.5 11t18.5 3h275
q11 0 17.5 -3.5t12.5 -13.5z" />
    <glyph glyph-name="idieresis" unicode="&#xef;" horiz-adv-x="590" 
d="M34 0q-20 0 -16 20l191 1031q4 20 24 20h292q20 0 16 -20l-191 -1031q-4 -20 -24 -20h-292zM41 1219q-20 0 -16 20l54 287q4 21 24 22l287 37q20 1 16 -18l-59 -328q-4 -20 -24 -20h-282zM494 1219q-20 0 -16 20l53 287q4 21 24 22l288 37q20 1 16 -18l-60 -328
q-4 -20 -24 -20h-281z" />
    <glyph glyph-name="eth" unicode="&#xf0;" horiz-adv-x="1195" 
d="M891 1408q90 -68 141.5 -155.5t71.5 -192.5t13.5 -227t-32.5 -258l-16 -88q-26 -145 -69.5 -244t-110 -160t-161 -87.5t-222.5 -26.5q-149 0 -246 32t-149 96.5t-63 161.5t13 228l16 88q21 137 61.5 235.5t106.5 162t160 93.5t220 30q50 0 92.5 -7t79.5 -19
q-59 108 -167 179l-204 -125q-18 -10 -26 8l-38 70q-10 18 8 28l133 82q-68 26 -145 42q-20 4 -13 23l75 191q7 19 27 15q100 -19 181 -45t148 -59l223 137q17 10 26 -8l38 -72q10 -18 -8 -28zM638 815q-54 0 -92.5 -12.5t-65 -41.5t-44 -77t-30.5 -119l-13 -67
q-14 -72 -15 -120t13.5 -76.5t45.5 -40t81 -11.5q58 0 99 12.5t70 41.5t48.5 77t33.5 119l12 65q13 71 13.5 119t-15.5 77t-50.5 41.5t-90.5 12.5z" />
    <glyph glyph-name="ntilde" unicode="&#xf1;" 
d="M26 0q-20 0 -16 20l195 1050q4 20 24 20h230q20 0 27 -19l20 -56q78 41 165 63t173 22q90 0 154.5 -25t101 -81.5t44.5 -148t-16 -224.5l-111 -601q-4 -20 -24 -20h-292q-20 0 -16 20l101 543q9 55 10.5 96t-12 68t-45 40t-86.5 13q-45 0 -92 -7t-83 -20l-136 -733
q-4 -20 -24 -20h-292zM627 1344q-9 0 -16 -2t-12.5 -10t-10.5 -23.5t-10 -42.5q-4 -20 -24 -20h-186q-21 0 -18 20q8 97 32.5 157.5t60.5 95t81.5 47t95.5 12.5q20 0 36.5 -2t34.5 -7t38.5 -15t48.5 -26q25 -15 42.5 -24.5t29.5 -15.5t19.5 -8.5t12.5 -2.5q9 0 16 2t12.5 10
t10.5 23.5t10 42.5q4 20 24 20h186q21 0 18 -20q-8 -97 -32.5 -157.5t-60.5 -95t-81.5 -47t-95.5 -12.5q-20 0 -36.5 2t-34.5 7t-38.5 15t-48.5 26q-50 29 -72 40t-32 11z" />
    <glyph glyph-name="ograve" unicode="&#xf2;" horiz-adv-x="1174" 
d="M624 817q-56 0 -92.5 -11t-61 -38.5t-40 -73.5t-28.5 -116l-16 -86q-12 -69 -13 -115.5t13.5 -74t46 -39t84.5 -11.5q55 0 92 11.5t61.5 39.5t40.5 74.5t29 116.5l17 84q13 70 14.5 116t-13 73.5t-47 38.5t-87.5 11zM466 -31q-136 0 -226 29.5t-138.5 92t-58 159.5
t14.5 231l21 105q24 134 69.5 231t117 160t172.5 93t237 30t226.5 -30t139 -93t58.5 -160t-15 -231l-20 -105q-25 -134 -70 -231t-117 -159.5t-173.5 -92t-237.5 -29.5zM633 1270q-20 0 -32 16l-179 244q-13 16 8 16h304q11 0 17 -3.5t11 -14.5l113 -240q7 -18 -12 -18h-230
z" />
    <glyph glyph-name="oacute" unicode="&#xf3;" horiz-adv-x="1174" 
d="M624 817q-56 0 -92.5 -11t-61 -38.5t-40 -73.5t-28.5 -116l-16 -86q-12 -69 -13 -115.5t13.5 -74t46 -39t84.5 -11.5q55 0 92 11.5t61.5 39.5t40.5 74.5t29 116.5l17 84q13 70 14.5 116t-13 73.5t-47 38.5t-87.5 11zM466 -31q-136 0 -226 29.5t-138.5 92t-58 159.5
t14.5 231l21 105q24 134 69.5 231t117 160t172.5 93t237 30t226.5 -30t139 -93t58.5 -160t-15 -231l-20 -105q-25 -134 -70 -231t-117 -159.5t-173.5 -92t-237.5 -29.5zM510 1270q-20 0 -7 16l197 244q8 9 15 12.5t18 3.5h335q20 0 5 -13l-275 -250q-8 -8 -16 -10.5
t-19 -2.5h-253z" />
    <glyph glyph-name="ocircumflex" unicode="&#xf4;" horiz-adv-x="1174" 
d="M624 817q-56 0 -92.5 -11t-61 -38.5t-40 -73.5t-28.5 -116l-16 -86q-12 -69 -13 -115.5t13.5 -74t46 -39t84.5 -11.5q55 0 92 11.5t61.5 39.5t40.5 74.5t29 116.5l17 84q13 70 14.5 116t-13 73.5t-47 38.5t-87.5 11zM466 -31q-136 0 -226 29.5t-138.5 92t-58 159.5
t14.5 231l21 105q24 134 69.5 231t117 160t172.5 93t237 30t226.5 -30t139 -93t58.5 -160t-15 -231l-20 -105q-25 -134 -70 -231t-117 -159.5t-173.5 -92t-237.5 -29.5zM1063 1266q11 -17 -10 -17h-237q-11 0 -17 3.5t-11 14.5l-57 125h-21l-106 -128q-8 -8 -15 -11.5
t-18 -3.5h-249q-9 0 -11 4t5 10l255 269q8 8 15.5 11t18.5 3h275q11 0 17.5 -3.5t12.5 -13.5z" />
    <glyph glyph-name="otilde" unicode="&#xf5;" horiz-adv-x="1174" 
d="M624 817q-56 0 -92.5 -11t-61 -38.5t-40 -73.5t-28.5 -116l-16 -86q-12 -69 -13 -115.5t13.5 -74t46 -39t84.5 -11.5q55 0 92 11.5t61.5 39.5t40.5 74.5t29 116.5l17 84q13 70 14.5 116t-13 73.5t-47 38.5t-87.5 11zM466 -31q-136 0 -226 29.5t-138.5 92t-58 159.5
t14.5 231l21 105q24 134 69.5 231t117 160t172.5 93t237 30t226.5 -30t139 -93t58.5 -160t-15 -231l-20 -105q-25 -134 -70 -231t-117 -159.5t-173.5 -92t-237.5 -29.5zM591 1344q-9 0 -16 -2t-12.5 -10t-10.5 -23.5t-10 -42.5q-4 -20 -24 -20h-186q-21 0 -18 20
q8 97 32.5 157.5t60.5 95t81.5 47t95.5 12.5q20 0 36.5 -2t34.5 -7t38.5 -15t48.5 -26q25 -15 42.5 -24.5t29.5 -15.5t19.5 -8.5t12.5 -2.5q9 0 16 2t12.5 10t10.5 23.5t10 42.5q4 20 24 20h186q21 0 18 -20q-8 -97 -32.5 -157.5t-60.5 -95t-81.5 -47t-95.5 -12.5
q-20 0 -36.5 2t-34.5 7t-38.5 15t-48.5 26q-50 29 -72 40t-32 11z" />
    <glyph glyph-name="odieresis" unicode="&#xf6;" horiz-adv-x="1174" 
d="M624 817q-56 0 -92.5 -11t-61 -38.5t-40 -73.5t-28.5 -116l-16 -86q-12 -69 -13 -115.5t13.5 -74t46 -39t84.5 -11.5q55 0 92 11.5t61.5 39.5t40.5 74.5t29 116.5l17 84q13 70 14.5 116t-13 73.5t-47 38.5t-87.5 11zM466 -31q-136 0 -226 29.5t-138.5 92t-58 159.5
t14.5 231l21 105q24 134 69.5 231t117 160t172.5 93t237 30t226.5 -30t139 -93t58.5 -160t-15 -231l-20 -105q-25 -134 -70 -231t-117 -159.5t-173.5 -92t-237.5 -29.5zM320 1219q-20 0 -16 20l54 287q4 21 24 22l287 37q20 1 16 -18l-59 -328q-4 -20 -24 -20h-282z
M773 1219q-20 0 -16 20l53 287q4 21 24 22l288 37q20 1 16 -18l-60 -328q-4 -20 -24 -20h-281z" />
    <glyph glyph-name="divide" unicode="&#xf7;" horiz-adv-x="1117" 
d="M78 602q-20 0 -16 20l51 280q4 20 24 20h951q20 0 16 -20l-51 -280q-4 -20 -24 -20h-951zM321 123q-20 0 -16 20l55 300q4 21 24 22l298 35q20 1 16 -18l-62 -339q-4 -20 -24 -20h-291zM492 1044q-20 0 -16 20l55 300q4 21 24 22l298 35q20 1 16 -18l-62 -339
q-4 -20 -24 -20h-291z" />
    <glyph glyph-name="oslash" unicode="&#xf8;" horiz-adv-x="1192" 
d="M81 143q-62 124 -20 340l18 103q25 134 71 231t119 160t175.5 93t240.5 30q211 0 318 -81l39 37q14 14 34 14h136q20 0 6 -14l-137 -130q32 -63 37 -148t-15 -192l-20 -104q-25 -135 -71 -232t-119 -159.5t-176 -92t-242 -29.5q-107 0 -185 20.5t-132 60.5l-38 -36
q-14 -14 -34 -14h-136q-9 0 -10.5 4t5.5 10zM769 551l15 94l-386 -368q17 -14 49.5 -19.5t83.5 -5.5q57 0 95 11.5t63.5 39t41 74t28.5 116.5zM632 817q-57 0 -95 -11.5t-63.5 -39t-41 -74t-28.5 -116.5l-10 -58l-15 -92l385 366q-18 14 -49.5 19.5t-82.5 5.5z" />
    <glyph glyph-name="ugrave" unicode="&#xf9;" 
d="M517 -31q-155 0 -250 26t-141.5 84.5t-51 154t20.5 233.5l109 584q4 20 24 20h291q20 0 16 -20l-104 -562q-11 -63 -11.5 -105.5t14.5 -68.5t48 -37.5t90 -11.5q33 0 73 2.5t71 10.5l143 772q4 20 24 20h292q20 0 16 -20l-184 -997q-2 -11 -7 -16t-16 -8
q-44 -12 -101.5 -23t-120.5 -19.5t-126.5 -13.5t-118.5 -5zM685 1270q-20 0 -32 16l-179 244q-13 16 8 16h304q11 0 17 -3.5t11 -14.5l113 -240q7 -18 -12 -18h-230z" />
    <glyph glyph-name="uacute" unicode="&#xfa;" 
d="M517 -31q-155 0 -250 26t-141.5 84.5t-51 154t20.5 233.5l109 584q4 20 24 20h291q20 0 16 -20l-104 -562q-11 -63 -11.5 -105.5t14.5 -68.5t48 -37.5t90 -11.5q33 0 73 2.5t71 10.5l143 772q4 20 24 20h292q20 0 16 -20l-184 -997q-2 -11 -7 -16t-16 -8
q-44 -12 -101.5 -23t-120.5 -19.5t-126.5 -13.5t-118.5 -5zM572 1270q-20 0 -7 16l197 244q8 9 15 12.5t18 3.5h335q20 0 5 -13l-275 -250q-8 -8 -16 -10.5t-19 -2.5h-253z" />
    <glyph glyph-name="ucircumflex" unicode="&#xfb;" 
d="M517 -31q-155 0 -250 26t-141.5 84.5t-51 154t20.5 233.5l109 584q4 20 24 20h291q20 0 16 -20l-104 -562q-11 -63 -11.5 -105.5t14.5 -68.5t48 -37.5t90 -11.5q33 0 73 2.5t71 10.5l143 772q4 20 24 20h292q20 0 16 -20l-184 -997q-2 -11 -7 -16t-16 -8
q-44 -12 -101.5 -23t-120.5 -19.5t-126.5 -13.5t-118.5 -5zM1096 1266q11 -17 -10 -17h-237q-11 0 -17 3.5t-11 14.5l-57 125h-21l-106 -128q-8 -8 -15 -11.5t-18 -3.5h-249q-9 0 -11 4t5 10l255 269q8 8 15.5 11t18.5 3h275q11 0 17.5 -3.5t12.5 -13.5z" />
    <glyph glyph-name="udieresis" unicode="&#xfc;" 
d="M517 -31q-155 0 -250 26t-141.5 84.5t-51 154t20.5 233.5l109 584q4 20 24 20h291q20 0 16 -20l-104 -562q-11 -63 -11.5 -105.5t14.5 -68.5t48 -37.5t90 -11.5q33 0 73 2.5t71 10.5l143 772q4 20 24 20h292q20 0 16 -20l-184 -997q-2 -11 -7 -16t-16 -8
q-44 -12 -101.5 -23t-120.5 -19.5t-126.5 -13.5t-118.5 -5zM351 1219q-20 0 -16 20l54 287q4 21 24 22l287 37q20 1 16 -18l-59 -328q-4 -20 -24 -20h-282zM804 1219q-20 0 -16 20l53 287q4 21 24 22l288 37q20 1 16 -18l-60 -328q-4 -20 -24 -20h-281z" />
    <glyph glyph-name="yacute" unicode="&#xfd;" horiz-adv-x="1112" 
d="M-33 -481q-16 0 -35 1t-38.5 3t-38 4.5t-33.5 5.5q-19 3 -13 23l76 239q3 11 9 14.5t17 2.5q21 -3 45.5 -5t47.5 -2q75 0 126.5 9.5t89 32t66.5 60t60 94.5q-4 1 -18 10t-33 35.5t-39 76.5t-35 134l-151 794q-4 20 16 20h332q21 0 22 -20l58 -486q8 -60 13.5 -112
t8.5 -81l272 680q4 11 10 15t17 4h341q20 0 11 -18l-550 -1135q-53 -111 -108.5 -187t-129.5 -123t-174 -68t-242 -21zM481 1270q-20 0 -7 16l197 244q8 9 15 12.5t18 3.5h335q20 0 5 -13l-275 -250q-8 -8 -16 -10.5t-19 -2.5h-253z" />
    <glyph glyph-name="thorn" unicode="&#xfe;" horiz-adv-x="1224" 
d="M-57 -453q-20 0 -16 20l279 1502l95 513q4 21 24 22l300 36q20 1 16 -18l-98 -526q42 2 83 3t82 1q148 0 242.5 -25t144 -81.5t57.5 -148.5t-16 -227l-29 -151q-26 -139 -69 -234.5t-112.5 -154t-171 -84t-245.5 -25.5q-48 0 -91.5 5.5t-80.5 15.5l-78 -423
q-4 -20 -24 -20h-292zM652 815q-16 0 -39 -0.5t-46 -1.5t-44.5 -3t-34.5 -5l-102 -545q32 -3 73 -4.5t97 -1.5q60 0 100 12.5t66 41.5t42.5 77t29.5 119l14 71q12 69 13 115.5t-15.5 74t-53.5 39t-100 11.5z" />
    <glyph glyph-name="ydieresis" unicode="&#xff;" horiz-adv-x="1112" 
d="M-33 -481q-16 0 -35 1t-38.5 3t-38 4.5t-33.5 5.5q-19 3 -13 23l76 239q3 11 9 14.5t17 2.5q21 -3 45.5 -5t47.5 -2q75 0 126.5 9.5t89 32t66.5 60t60 94.5q-4 1 -18 10t-33 35.5t-39 76.5t-35 134l-151 794q-4 20 16 20h332q21 0 22 -20l58 -486q8 -60 13.5 -112
t8.5 -81l272 680q4 11 10 15t17 4h341q20 0 11 -18l-550 -1135q-53 -111 -108.5 -187t-129.5 -123t-174 -68t-242 -21zM274 1219q-20 0 -16 20l54 287q4 21 24 22l287 37q20 1 16 -18l-59 -328q-4 -20 -24 -20h-282zM727 1219q-20 0 -16 20l53 287q4 21 24 22l288 37
q20 1 16 -18l-60 -328q-4 -20 -24 -20h-281z" />
    <glyph glyph-name="Amacron" unicode="&#x100;" horiz-adv-x="1353" 
d="M-92 0q-20 0 -11 18l693 1439q5 11 11.5 14.5t17.5 3.5h441q21 0 22 -20l162 -1435q1 -20 -18 -20h-345q-20 0 -21 20l-16 220h-466l-99 -222q-5 -11 -11 -14.5t-17 -3.5h-343zM780 1135l-264 -588h307zM594 1596q-20 0 -16 20l35 198q4 20 24 20h546q20 0 16 -20
l-35 -198q-4 -20 -24 -20h-546z" />
    <glyph glyph-name="amacron" unicode="&#x101;" horiz-adv-x="1223" 
d="M804 806q-29 5 -76.5 7t-95.5 2q-60 0 -99 -11.5t-64.5 -39t-41 -72.5t-27.5 -112l-14 -72q-13 -72 -14.5 -121t13.5 -78.5t50.5 -42t95.5 -12.5q21 0 44 0.5t45.5 1t43.5 1.5t37 3zM484 -31q-149 0 -243.5 28.5t-143 88.5t-56 153t16.5 222l29 153q27 143 68.5 236.5
t109.5 149t167.5 78t242.5 22.5q138 0 262 -7.5t229 -19.5q20 -1 16 -22l-192 -1031q-4 -21 -24 -22q-122 -14 -243 -21.5t-239 -7.5zM440 1267q-20 0 -16 20l35 198q4 20 24 20h546q20 0 16 -20l-35 -198q-4 -20 -24 -20h-546z" />
    <glyph glyph-name="Abreve" unicode="&#x102;" horiz-adv-x="1353" 
d="M-92 0q-20 0 -11 18l693 1439q5 11 11.5 14.5t17.5 3.5h441q21 0 22 -20l162 -1435q1 -20 -18 -20h-345q-20 0 -21 20l-16 220h-466l-99 -222q-5 -11 -11 -14.5t-17 -3.5h-343zM780 1135l-264 -588h307zM854 1577q-86 0 -142.5 15.5t-88 48t-40 83t2.5 120.5q3 20 23 20
h174q11 0 15 -4.5t3 -15.5q-3 -27 3.5 -45t18 -28.5t27 -15t32.5 -4.5q32 0 60 19.5t42 73.5q5 20 25 20h186q20 0 16 -20q-15 -77 -35 -128.5t-58.5 -82.5t-101 -43.5t-162.5 -12.5z" />
    <glyph glyph-name="abreve" unicode="&#x103;" horiz-adv-x="1223" 
d="M804 806q-29 5 -76.5 7t-95.5 2q-60 0 -99 -11.5t-64.5 -39t-41 -72.5t-27.5 -112l-14 -72q-13 -72 -14.5 -121t13.5 -78.5t50.5 -42t95.5 -12.5q21 0 44 0.5t45.5 1t43.5 1.5t37 3zM484 -31q-149 0 -243.5 28.5t-143 88.5t-56 153t16.5 222l29 153q27 143 68.5 236.5
t109.5 149t167.5 78t242.5 22.5q138 0 262 -7.5t229 -19.5q20 -1 16 -22l-192 -1031q-4 -21 -24 -22q-122 -14 -243 -21.5t-239 -7.5zM729 1239q-94 0 -150 21t-84 58.5t-33 90.5t3 117q3 20 23 20h200q20 0 17 -20q-10 -66 3.5 -89.5t46.5 -23.5t55.5 23.5t36.5 89.5
q4 20 24 20h202q20 0 17 -20q-14 -73 -36 -127t-62.5 -89.5t-104 -53t-158.5 -17.5z" />
    <glyph glyph-name="Aogonek" unicode="&#x104;" horiz-adv-x="1353" 
d="M-92 0q-20 0 -11 18l693 1439q5 11 11.5 14.5t17.5 3.5h441q11 0 15.5 -4.5t6.5 -15.5l162 -1435q2 -11 -3 -14.5t-17 -5.5q-81 -9 -130 -32.5t-76 -53t-35.5 -60t-8.5 -53.5q0 -28 18.5 -37.5t63.5 -9.5q18 0 40.5 1t45.5 4q21 3 18 -17l-9 -122q-1 -20 -20 -25
q-23 -5 -63 -10t-100 -5q-125 0 -185.5 34t-60.5 120q0 48 11 87.5t29.5 73t44 62t54.5 54.5l-17 229h-466l-99 -222q-5 -11 -11 -14.5t-17 -3.5h-343zM780 1135l-264 -588h307z" />
    <glyph glyph-name="aogonek" unicode="&#x105;" horiz-adv-x="1223" 
d="M484 -31q-149 0 -243.5 28.5t-143 88.5t-56 153t16.5 222l29 153q27 143 68.5 236.5t109.5 149t167.5 78t242.5 22.5q138 0 263 -8t228 -19q11 -2 14.5 -6.5t1.5 -15.5l-192 -1033q-3 -11 -7.5 -14.5t-15.5 -8.5q-47 -20 -86 -45t-67 -51.5t-44 -54t-16 -51.5
q0 -23 14.5 -31t51.5 -8q14 0 30 1t32 3q19 3 18 -16l-10 -123q-1 -19 -20 -24q-25 -5 -66.5 -10t-90.5 -5q-106 0 -161 31.5t-55 109.5q0 71 36 137t104 114q-78 -3 -153 -3zM804 806q-29 5 -76.5 7t-95.5 2q-60 0 -99 -11.5t-64.5 -39t-41 -72.5t-27.5 -112l-14 -72
q-13 -72 -14.5 -121t13.5 -78.5t50.5 -42t95.5 -12.5q21 0 44 0.5t45.5 1t43.5 1.5t37 3z" />
    <glyph glyph-name="Cacute" unicode="&#x106;" horiz-adv-x="1197" 
d="M616 -31q-152 0 -265.5 34t-181.5 114.5t-87 213.5t18 331l29 153q36 196 104 328.5t166 213t224 114.5t278 34q54 0 105.5 -3.5t98.5 -10.5t88 -16.5t73 -22.5q10 -5 12.5 -10t-0.5 -16l-95 -274q-7 -19 -26 -14q-75 17 -150.5 23t-152.5 6q-76 0 -137 -17t-107.5 -57
t-78.5 -105.5t-50 -162.5l-30 -174q-19 -98 -11.5 -163.5t38.5 -106t85.5 -57.5t130.5 -17q81 0 163 5t163 15q20 3 19 -17l-12 -278q-1 -20 -20 -25q-36 -9 -81 -16t-95 -12t-105 -7.5t-110 -2.5zM736 1597q-9 0 -10.5 4t4.5 10l220 218q14 14 34 14h343q19 0 4 -12
l-299 -222q-16 -12 -36 -12h-260z" />
    <glyph glyph-name="cacute" unicode="&#x107;" horiz-adv-x="953" 
d="M483 -31q-150 0 -244.5 30t-142.5 91.5t-54.5 156.5t17.5 226l23 125q24 130 65.5 224.5t113 156t177 91.5t256.5 30q73 0 136.5 -7t114.5 -18q20 -4 15 -23l-58 -237q-3 -11 -8.5 -15t-16.5 -3q-54 5 -109.5 7.5t-118.5 2.5q-65 0 -106 -11.5t-66 -39t-39 -72.5
t-26 -111l-15 -77q-12 -66 -15 -111t12 -72.5t51.5 -39t103.5 -11.5q63 0 120 3.5t112 8.5q20 1 17 -18l-30 -236q-1 -20 -22 -24q-53 -11 -124 -19t-139 -8zM465 1270q-20 0 -7 16l197 244q8 9 15 12.5t18 3.5h335q20 0 5 -13l-275 -250q-8 -8 -16 -10.5t-19 -2.5h-253z
" />
    <glyph glyph-name="Ccaron" unicode="&#x10c;" horiz-adv-x="1197" 
d="M616 -31q-152 0 -265.5 34t-181.5 114.5t-87 213.5t18 331l29 153q36 196 104 328.5t166 213t224 114.5t278 34q54 0 105.5 -3.5t98.5 -10.5t88 -16.5t73 -22.5q10 -5 12.5 -10t-0.5 -16l-95 -274q-7 -19 -26 -14q-75 17 -150.5 23t-152.5 6q-76 0 -137 -17t-107.5 -57
t-78.5 -105.5t-50 -162.5l-30 -174q-19 -98 -11.5 -163.5t38.5 -106t85.5 -57.5t130.5 -17q81 0 163 5t163 15q20 3 19 -17l-12 -278q-1 -20 -20 -25q-36 -9 -81 -16t-95 -12t-105 -7.5t-110 -2.5zM553 1827q-13 16 8 16h225q20 0 31 -16l67 -95h21l110 98q8 8 16 10.5
t19 2.5h258q20 0 5 -13l-257 -220q-8 -8 -16 -10.5t-19 -2.5h-276q-20 0 -32 16z" />
    <glyph glyph-name="ccaron" unicode="&#x10d;" horiz-adv-x="953" 
d="M483 -31q-150 0 -244.5 30t-142.5 91.5t-54.5 156.5t17.5 226l23 125q24 130 65.5 224.5t113 156t177 91.5t256.5 30q73 0 136.5 -7t114.5 -18q20 -4 15 -23l-58 -237q-3 -11 -8.5 -15t-16.5 -3q-54 5 -109.5 7.5t-118.5 2.5q-65 0 -106 -11.5t-66 -39t-39 -72.5
t-26 -111l-15 -77q-12 -66 -15 -111t12 -72.5t51.5 -39t103.5 -11.5q63 0 120 3.5t112 8.5q20 1 17 -18l-30 -236q-1 -20 -22 -24q-53 -11 -124 -19t-139 -8zM333 1529q-11 17 10 17h237q11 0 17 -3.5t11 -14.5l57 -125h21l106 128q8 8 15 11.5t18 3.5h249q9 0 11 -4t-5 -10
l-255 -269q-8 -8 -15.5 -11t-18.5 -3h-275q-11 0 -17.5 3.5t-12.5 13.5z" />
    <glyph glyph-name="Dcaron" unicode="&#x10e;" horiz-adv-x="1419" 
d="M405 -16q-32 0 -73.5 1t-88.5 2.5t-95.5 4t-93.5 6.5q-20 1 -16 22l264 1435q2 11 7.5 15.5t16.5 6.5q38 3 84 5.5t91.5 4.5t87 3t70.5 1q119 0 224.5 -11t192.5 -40t152.5 -79t103.5 -127t46 -185.5t-19 -253.5l-21 -113q-30 -162 -75.5 -277t-107 -192.5t-138.5 -123
t-170.5 -69t-204 -30t-237.5 -6.5zM691 1180q-20 0 -44 -1.5t-46 -4.5l-162 -873q9 -2 24 -3t31.5 -1.5t31 -1t22.5 -0.5q94 0 165.5 15t125 57t89.5 117t58 194l23 119q21 118 11 192.5t-50.5 117t-110.5 58t-168 15.5zM503 1827q-13 16 8 16h225q20 0 31 -16l67 -95h21
l110 98q8 8 16 10.5t19 2.5h258q20 0 5 -13l-257 -220q-8 -8 -16 -10.5t-19 -2.5h-276q-20 0 -32 16z" />
    <glyph glyph-name="dcaron" unicode="&#x10f;" horiz-adv-x="1223" 
d="M632 815q-60 0 -99 -11.5t-64.5 -39t-41 -72.5t-27.5 -112l-14 -72q-13 -72 -14.5 -121t13.5 -78.5t50.5 -42t95.5 -12.5q21 0 44 0.5t45.5 1t43.5 1.5t37 3l103 545q-15 3 -36.5 5t-45 3t-47.5 1.5t-43 0.5zM484 -31q-149 0 -243.5 25.5t-143.5 83.5t-56.5 152t17.5 231
l29 153q25 135 66.5 228t110 150.5t168.5 82.5t243 25q48 0 95.5 -5.5t84.5 -13.5l92 501q4 21 24 22l300 36q20 1 16 -18l-297 -1600q-4 -21 -24 -22q-122 -14 -243 -22.5t-239 -8.5zM1330 1141q-20 0 -16 20l77 421q4 21 24 22l279 34q20 1 14 -17l-136 -461
q-4 -11 -9.5 -15t-16.5 -4h-216z" />
    <glyph glyph-name="Dcroat" unicode="&#x110;" horiz-adv-x="1442" 
d="M428 -16q-32 0 -73.5 1t-88.5 2.5t-95.5 4t-93.5 6.5q-20 1 -16 22l105 574h-139q-20 0 -16 20l49 279q4 20 24 20h141l100 542q2 11 7.5 15.5t16.5 6.5q38 3 84 5.5t91.5 4.5t87 3t70.5 1q119 0 224.5 -11t192.5 -40t152.5 -79t103.5 -127t46 -185.5t-19 -253.5
l-21 -113q-30 -162 -75.5 -277t-107 -192.5t-138.5 -123t-170.5 -69t-204 -30t-237.5 -6.5zM714 1180q-20 0 -44 -1.5t-46 -4.5l-49 -261h205q20 0 16 -20l-49 -279q-4 -20 -24 -20h-207l-54 -293q9 -2 24 -3t31.5 -1.5t31 -1t22.5 -0.5q94 0 165.5 15t125 57t89.5 117
t58 194l23 119q21 118 11 192.5t-50.5 117t-110.5 58t-168 15.5z" />
    <glyph glyph-name="dcroat" unicode="&#x111;" horiz-adv-x="1222" 
d="M484 -31q-149 0 -243.5 25.5t-143.5 83.5t-56.5 152t17.5 231l29 153q25 135 66.5 228t110 150.5t168.5 82.5t243 25q48 0 95.5 -5.5t84.5 -13.5l20 112h-274q-20 0 -16 20l34 185q4 20 24 20h274l30 164q4 21 24 22l300 36q20 1 16 -18l-38 -204h110q20 0 16 -20
l-34 -185q-4 -20 -24 -20h-110l-217 -1171q-4 -21 -24 -22q-122 -14 -243 -22.5t-239 -8.5zM632 815q-60 0 -99 -11.5t-64.5 -39t-41 -72.5t-27.5 -112l-14 -72q-13 -72 -14.5 -121t13.5 -78.5t50.5 -42t95.5 -12.5q21 0 44 0.5t45.5 1t43.5 1.5t37 3l103 545q-15 3 -36.5 5
t-45 3t-47.5 1.5t-43 0.5z" />
    <glyph glyph-name="Emacron" unicode="&#x112;" horiz-adv-x="1200" 
d="M54 0q-20 0 -16 20l264 1435q4 20 24 20h919q20 0 16 -20l-54 -288q-4 -20 -24 -20h-586l-45 -242h443q20 0 16 -20l-54 -287q-4 -20 -24 -20h-442l-46 -250h587q20 0 16 -20l-54 -288q-4 -20 -24 -20h-916zM525 1596q-20 0 -16 20l35 198q4 20 24 20h546q20 0 16 -20
l-35 -198q-4 -20 -24 -20h-546z" />
    <glyph glyph-name="emacron" unicode="&#x113;" horiz-adv-x="1160" 
d="M470 -31q-138 0 -228.5 29.5t-139.5 91t-58.5 157t14.5 228.5l21 115q25 133 70.5 229t116.5 158.5t172 92.5t237 30q224 0 326 -90.5t102 -280.5q0 -61 -8.5 -114t-20.5 -95.5t-25 -73.5t-21 -47q-5 -11 -11 -14.5t-17 -3.5l-627 -2q-1 -42 8.5 -67t31 -38.5t55 -17.5
t80.5 -4q88 0 179.5 3t193.5 10q20 1 17 -19l-29 -226q-3 -20 -23 -23q-100 -12 -202.5 -20t-213.5 -8zM794 631q0 57 -7.5 93t-27 56.5t-52 28.5t-83.5 8t-87 -10t-60.5 -34t-40 -63t-26.5 -97zM418 1267q-20 0 -16 20l35 198q4 20 24 20h546q20 0 16 -20l-35 -198
q-4 -20 -24 -20h-546z" />
    <glyph glyph-name="Edotaccent" unicode="&#x116;" horiz-adv-x="1200" 
d="M54 0q-20 0 -16 20l264 1435q4 20 24 20h919q20 0 16 -20l-54 -288q-4 -20 -24 -20h-586l-45 -242h443q20 0 16 -20l-54 -287q-4 -20 -24 -20h-442l-46 -250h587q20 0 16 -20l-54 -288q-4 -20 -24 -20h-916zM646 1597q-20 0 -16 20l39 216q4 21 24 22l300 37q20 1 16 -18
l-47 -257q-4 -20 -24 -20h-292z" />
    <glyph glyph-name="edotaccent" unicode="&#x117;" horiz-adv-x="1160" 
d="M470 -31q-138 0 -228.5 29.5t-139.5 91t-58.5 157t14.5 228.5l21 115q25 133 70.5 229t116.5 158.5t172 92.5t237 30q224 0 326 -90.5t102 -280.5q0 -61 -8.5 -114t-20.5 -95.5t-25 -73.5t-21 -47q-5 -11 -11 -14.5t-17 -3.5l-627 -2q-1 -42 8.5 -67t31 -38.5t55 -17.5
t80.5 -4q88 0 179.5 3t193.5 10q20 1 17 -19l-29 -226q-3 -20 -23 -23q-100 -12 -202.5 -20t-213.5 -8zM794 631q0 57 -7.5 93t-27 56.5t-52 28.5t-83.5 8t-87 -10t-60.5 -34t-40 -63t-26.5 -97zM537 1219q-20 0 -16 20l54 287q4 21 24 22l298 37q20 1 16 -18l-60 -328
q-4 -20 -24 -20h-292z" />
    <glyph glyph-name="Eogonek" unicode="&#x118;" horiz-adv-x="1200" 
d="M845 -246q18 0 40 1t45 4q21 3 18 -17l-10 -122q-1 -20 -20 -25q-23 -5 -63.5 -10t-107.5 -5q-119 0 -178.5 34t-59.5 120q0 99 48.5 162.5t146.5 103.5h-650q-20 0 -16 20l264 1435q4 20 24 20h919q20 0 16 -20l-54 -288q-4 -20 -24 -20h-586l-45 -242h443q20 0 16 -20
l-54 -287q-4 -20 -24 -20h-442l-46 -250h587q20 0 16 -20l-54 -288q-4 -20 -24 -20h-43q-39 -20 -70 -44.5t-53 -51.5t-33.5 -55t-11.5 -54q0 -25 18.5 -33t67.5 -8z" />
    <glyph glyph-name="eogonek" unicode="&#x119;" horiz-adv-x="1162" 
d="M773 -246q18 0 40 1t45 4q21 3 18 -17l-10 -122q-1 -20 -20 -25q-23 -5 -63.5 -10t-107.5 -5q-119 0 -178.5 34t-59.5 120q0 82 33.5 139.5t101.5 97.5q-26 -1 -51 -1.5t-51 -0.5q-138 0 -228.5 29.5t-139.5 91t-58.5 157t14.5 228.5l21 115q25 133 70.5 229t116.5 158.5
t172 92.5t237 30q224 0 326 -90.5t102 -280.5q0 -61 -8.5 -114t-20.5 -95.5t-25 -73.5t-21 -47q-5 -11 -11 -14.5t-17 -3.5l-627 -2q-1 -42 8.5 -67t31 -38.5t55 -17.5t80.5 -4q88 0 179.5 3t193.5 10q20 1 17 -19l-29 -226q-3 -20 -23 -23l-47 -5q-72 -40 -112 -93
t-40 -104q0 -25 18.5 -33t67.5 -8zM794 631q0 57 -7.5 93t-27 56.5t-52 28.5t-83.5 8t-87 -10t-60.5 -34t-40 -63t-26.5 -97z" />
    <glyph glyph-name="Ecaron" unicode="&#x11a;" horiz-adv-x="1200" 
d="M54 0q-20 0 -16 20l264 1435q4 20 24 20h919q20 0 16 -20l-54 -288q-4 -20 -24 -20h-586l-45 -242h443q20 0 16 -20l-54 -287q-4 -20 -24 -20h-442l-46 -250h587q20 0 16 -20l-54 -288q-4 -20 -24 -20h-916zM464 1827q-13 16 8 16h225q20 0 31 -16l67 -95h21l110 98
q8 8 16 10.5t19 2.5h258q20 0 5 -13l-257 -220q-8 -8 -16 -10.5t-19 -2.5h-276q-20 0 -32 16z" />
    <glyph glyph-name="ecaron" unicode="&#x11b;" horiz-adv-x="1160" 
d="M470 -31q-138 0 -228.5 29.5t-139.5 91t-58.5 157t14.5 228.5l21 115q25 133 70.5 229t116.5 158.5t172 92.5t237 30q224 0 326 -90.5t102 -280.5q0 -61 -8.5 -114t-20.5 -95.5t-25 -73.5t-21 -47q-5 -11 -11 -14.5t-17 -3.5l-627 -2q-1 -42 8.5 -67t31 -38.5t55 -17.5
t80.5 -4q88 0 179.5 3t193.5 10q20 1 17 -19l-29 -226q-3 -20 -23 -23q-100 -12 -202.5 -20t-213.5 -8zM794 631q0 57 -7.5 93t-27 56.5t-52 28.5t-83.5 8t-87 -10t-60.5 -34t-40 -63t-26.5 -97zM361 1529q-11 17 10 17h237q11 0 17 -3.5t11 -14.5l57 -125h21l106 128
q8 8 15 11.5t18 3.5h249q9 0 11 -4t-5 -10l-255 -269q-8 -8 -15.5 -11t-18.5 -3h-275q-11 0 -17.5 3.5t-12.5 13.5z" />
    <glyph glyph-name="Gbreve" unicode="&#x11e;" horiz-adv-x="1338" 
d="M1256 827q20 0 16 -20l-137 -741q-2 -11 -7 -16.5t-16 -9.5q-61 -21 -124.5 -35t-125 -22t-120 -11t-110.5 -3q-160 0 -277 34t-186 114.5t-87.5 213.5t19.5 331l29 153q36 196 103 328.5t165 213t227 114.5t289 34q50 0 104 -3.5t105 -10.5t96.5 -16.5t79.5 -22.5
q10 -5 12.5 -10t-0.5 -16l-95 -274q-7 -19 -27 -16q-159 27 -322 27q-84 0 -147.5 -16.5t-110 -55.5t-78 -104t-49.5 -162l-30 -174q-19 -98 -14 -163t34 -104t83 -55t134 -16h70t73 2l40 220l-157 9q-20 1 -16 21l45 242q4 20 24 20h488zM860 1577q-86 0 -142.5 15.5
t-88 48t-40 83t2.5 120.5q3 20 23 20h174q11 0 15 -4.5t3 -15.5q-3 -27 3.5 -45t18 -28.5t27 -15t32.5 -4.5q32 0 60 19.5t42 73.5q5 20 25 20h186q20 0 16 -20q-15 -77 -35 -128.5t-58.5 -82.5t-101 -43.5t-162.5 -12.5z" />
    <glyph glyph-name="gbreve" unicode="&#x11f;" horiz-adv-x="1224" 
d="M726 1239q-94 0 -150 21t-84 58.5t-33 90.5t3 117q3 20 23 20h200q20 0 17 -20q-10 -66 3.5 -89.5t46.5 -23.5t55.5 23.5t36.5 89.5q4 20 24 20h202q20 0 17 -20q-14 -73 -36 -127t-62.5 -89.5t-104 -53t-158.5 -17.5zM295 -481q-76 0 -146.5 6.5t-132.5 17.5
q-20 4 -15 23l55 226q5 20 25 17q26 -4 57 -7t61.5 -4.5t57.5 -2t46 -0.5q101 0 165 10t102 34t56 63t29 98q-35 -9 -80.5 -14.5t-111.5 -5.5q-138 0 -227.5 25t-137.5 81.5t-56.5 148.5t17.5 226l29 153q27 143 68.5 236.5t109.5 149t167.5 78t242.5 22.5q138 0 262 -7.5
t229 -19.5q20 -1 16 -22l-194 -1037q-28 -149 -85 -245t-144 -151.5t-203 -77t-262 -21.5zM633 815q-60 0 -99 -11.5t-64 -39t-40.5 -72.5t-28.5 -112l-14 -72q-13 -72 -14.5 -121t13.5 -78.5t50.5 -42t95.5 -12.5q21 0 44 0.5t45.5 1t43.5 1.5t37 3l103 546q-29 5 -76.5 7
t-95.5 2z" />
    <glyph glyph-name="Gcommaaccent" unicode="&#x122;" horiz-adv-x="1338" 
d="M1256 827q20 0 16 -20l-137 -741q-2 -11 -7 -16.5t-16 -9.5q-61 -21 -124.5 -35t-125 -22t-120 -11t-110.5 -3q-160 0 -277 34t-186 114.5t-87.5 213.5t19.5 331l29 153q36 196 103 328.5t165 213t227 114.5t289 34q50 0 104 -3.5t105 -10.5t96.5 -16.5t79.5 -22.5
q10 -5 12.5 -10t-0.5 -16l-95 -274q-7 -19 -27 -16q-159 27 -322 27q-84 0 -147.5 -16.5t-110 -55.5t-78 -104t-49.5 -162l-30 -174q-19 -98 -14 -163t34 -104t83 -55t134 -16h70t73 2l40 220l-157 9q-20 1 -16 21l45 242q4 20 24 20h488zM314 -453q-20 0 -11 18l133 286
q5 11 11.5 15t17.5 6l262 33q19 3 10 -14l-187 -327q-6 -10 -12.5 -13.5t-17.5 -3.5h-206z" />
    <glyph glyph-name="gcommaaccent" unicode="&#x123;" horiz-adv-x="1224" 
d="M585 1245q-20 -2 -9 15l216 325q6 10 13 13.5t18 3.5h183q21 0 12 -18l-119 -284q-8 -19 -28 -20zM295 -481q-76 0 -146.5 6.5t-132.5 17.5q-20 4 -15 23l55 226q5 20 25 17q26 -4 57 -7t61.5 -4.5t57.5 -2t46 -0.5q101 0 165 10t102 34t56 63t29 98q-35 -9 -80.5 -14.5
t-111.5 -5.5q-138 0 -227.5 25t-137.5 81.5t-56.5 148.5t17.5 226l29 153q27 143 68.5 236.5t109.5 149t167.5 78t242.5 22.5q138 0 262 -7.5t229 -19.5q20 -1 16 -22l-194 -1037q-28 -149 -85 -245t-144 -151.5t-203 -77t-262 -21.5zM633 815q-60 0 -99 -11.5t-64 -39
t-40.5 -72.5t-28.5 -112l-14 -72q-13 -72 -14.5 -121t13.5 -78.5t50.5 -42t95.5 -12.5q21 0 44 0.5t45.5 1t43.5 1.5t37 3l103 546q-29 5 -76.5 7t-95.5 2z" />
    <glyph glyph-name="Imacron" unicode="&#x12a;" horiz-adv-x="651" 
d="M226 1626q-20 0 -16 20l35 198q4 20 24 20h550q20 0 16 -20l-37 -198q-4 -20 -24 -20h-548zM54 0q-20 0 -16 20l264 1435q4 20 24 20h310q20 0 16 -20l-264 -1435q-4 -20 -24 -20h-310z" />
    <glyph glyph-name="imacron" unicode="&#x12b;" horiz-adv-x="590" 
d="M168 1237q-20 0 -16 20l35 198q4 20 24 20h466q20 0 16 -20l-35 -198q-4 -20 -24 -20h-466zM34 0q-20 0 -16 20l191 1031q4 20 24 20h292q20 0 16 -20l-191 -1031q-4 -20 -24 -20h-292z" />
    <glyph glyph-name="Ibreve" unicode="&#x12c;" horiz-adv-x="652" 
d="M55 0q-20 0 -16 20l264 1435q4 20 24 20h310q20 0 16 -20l-264 -1435q-4 -20 -24 -20h-310zM508 1577q-86 0 -142.5 15.5t-88 48t-40 83t2.5 120.5q3 20 23 20h174q11 0 15 -4.5t3 -15.5q-3 -27 3.5 -45t18 -28.5t27 -15t32.5 -4.5q32 0 60 19.5t42 73.5q5 20 25 20h186
q20 0 16 -20q-15 -77 -35 -128.5t-58.5 -82.5t-101 -43.5t-162.5 -12.5z" />
    <glyph glyph-name="ibreve" unicode="&#x12d;" horiz-adv-x="590" 
d="M34 0q-20 0 -16 20l191 1031q4 20 24 20h292q20 0 16 -20l-191 -1031q-4 -20 -24 -20h-292zM408 1239q-94 0 -150 21t-84 58.5t-33 90.5t3 117q3 20 23 20h200q20 0 17 -20q-10 -66 3.5 -89.5t46.5 -23.5t55.5 23.5t36.5 89.5q4 20 24 20h202q20 0 17 -20
q-14 -73 -36 -127t-62.5 -89.5t-104 -53t-158.5 -17.5z" />
    <glyph glyph-name="Iogonek" unicode="&#x12e;" horiz-adv-x="652" 
d="M215 -246q18 0 40 1t44 4q21 3 18 -17l-9 -122q-1 -20 -20 -25q-23 -5 -63 -10t-106 -5q-59 0 -103.5 8t-74.5 26.5t-45 49.5t-15 76q0 53 11.5 94t32.5 74t50 59t63 49l265 1439q4 20 24 20h310q20 0 16 -20l-264 -1435q-2 -11 -7 -15t-15 -5q-39 -4 -81 -19.5
t-76.5 -41t-56.5 -60.5t-22 -78q0 -28 18 -37.5t66 -9.5z" />
    <glyph glyph-name="iogonek" unicode="&#x12f;" horiz-adv-x="591" 
d="M214 -246q15 0 33.5 1t36.5 4q21 3 18 -17l-9 -123q-1 -11 -5 -16t-15 -8q-22 -6 -59 -10.5t-91 -4.5q-63 0 -111.5 8t-80.5 26.5t-48.5 49.5t-16.5 76q0 52 12.5 94t33.5 75t48.5 59t57.5 46l192 1037q4 20 24 20h292q20 0 16 -20l-191 -1031q-2 -7 -5 -13.5t-19 -9.5
q-45 -9 -84 -28t-67.5 -45t-44.5 -57.5t-16 -65.5q0 -28 21.5 -37.5t77.5 -9.5zM261 1219q-20 0 -16 20l53 287q2 11 7.5 15.5t16.5 6.5l300 37q20 3 16 -18l-62 -328q-4 -20 -24 -20h-291z" />
    <glyph glyph-name="Idotaccent" unicode="&#x130;" horiz-adv-x="651" 
d="M54 0q-20 0 -16 20l264 1435q4 20 24 20h310q20 0 16 -20l-264 -1435q-4 -20 -24 -20h-310zM360 1597q-20 0 -16 20l39 216q4 21 24 22l300 37q20 1 16 -18l-47 -257q-4 -20 -24 -20h-292z" />
    <glyph glyph-name="dotlessi" unicode="&#x131;" horiz-adv-x="590" 
d="M34 0q-20 0 -16 20l191 1031q4 20 24 20h292q20 0 16 -20l-191 -1031q-4 -20 -24 -20h-292z" />
    <glyph glyph-name="IJ" unicode="&#x132;" horiz-adv-x="1304" 
d="M54 0q-20 0 -16 20l264 1435q4 20 24 20h310q20 0 16 -20l-264 -1435q-4 -20 -24 -20h-310zM543 -410q-42 0 -89.5 4.5t-85.5 12.5q-11 2 -13.5 7t0.5 16l90 275q3 11 9 14.5t17 2.5q24 -3 43 -3.5t36 -0.5q31 0 55 5.5t41.5 18.5t29 35t17.5 56l262 1422q4 20 24 20h310
q20 0 16 -20l-268 -1455q-17 -89 -48 -164t-88 -130t-144 -85.5t-214 -30.5z" />
    <glyph glyph-name="ij" unicode="&#x133;" horiz-adv-x="1179" 
d="M34 0q-20 0 -16 20l191 1031q4 20 24 20h292q20 0 16 -20l-191 -1031q-4 -20 -24 -20h-292zM260 1219q-20 0 -16 20l53 287q4 21 24 22l300 37q20 1 16 -18l-62 -328q-4 -20 -24 -20h-291zM426 -481q-45 0 -93 4t-85 10q-11 2 -14 7t0 16l78 235q5 19 26 16q23 -2 49 -4
t51 -2q42 0 68.5 5.5t42.5 18t24.5 34.5t14.5 55l209 1137q4 20 24 20h292q20 0 16 -20l-209 -1137q-19 -104 -52 -178.5t-89.5 -122.5t-142.5 -71t-210 -23zM850 1219q-20 0 -16 20l51 287q4 21 24 22l300 37q20 1 16 -18l-60 -328q-4 -20 -24 -20h-291z" />
    <glyph glyph-name="Kcommaaccent" unicode="&#x136;" horiz-adv-x="1374" 
d="M822 0q-11 0 -17 3.5t-11 14.5l-224 513l-126 -119l-72 -392q-4 -20 -24 -20h-311q-20 0 -16 20l264 1435q4 20 24 20h311q20 0 16 -20l-96 -519l541 525q14 14 34 14h439q9 0 10.5 -4t-5.5 -10l-700 -658l380 -785q9 -18 -11 -18h-406zM276 -453q-20 0 -11 18l133 286
q5 11 11.5 15t17.5 6l262 33q19 3 10 -14l-187 -327q-6 -10 -12.5 -13.5t-17.5 -3.5h-206z" />
    <glyph glyph-name="kcommaaccent" unicode="&#x137;" horiz-adv-x="1235" 
d="M708 0q-20 0 -27 19l-156 431l-118 -91l-63 -339q-4 -20 -24 -20h-292q-20 0 -16 20l289 1562q4 21 24 22l300 36q20 1 16 -18l-155 -834l350 271q16 12 36 12h447q19 0 4 -12l-529 -404l307 -637q9 -18 -11 -18h-382zM192 -453q-20 0 -11 18l133 286q5 11 11.5 15
t17.5 6l262 33q19 3 10 -14l-187 -327q-6 -10 -12.5 -13.5t-17.5 -3.5h-206z" />
    <glyph glyph-name="Lacute" unicode="&#x139;" horiz-adv-x="1044" 
d="M54 0q-20 0 -16 20l264 1435q4 20 24 20h310q20 0 16 -20l-207 -1127h499q20 0 16 -20l-52 -288q-4 -20 -24 -20h-830zM392 1597q-9 0 -10.5 4t4.5 10l220 218q14 14 34 14h343q19 0 4 -12l-299 -222q-16 -12 -36 -12h-260z" />
    <glyph glyph-name="lacute" unicode="&#x13a;" horiz-adv-x="604" 
d="M41 0q-20 0 -16 20l289 1562q4 21 24 22l300 36q20 1 16 -18l-297 -1602q-4 -20 -24 -20h-292zM286 1679q-9 0 -10.5 4t4.5 10l220 218q14 14 34 14h343q19 0 4 -12l-299 -222q-16 -12 -36 -12h-260z" />
    <glyph glyph-name="Lcommaaccent" unicode="&#x13b;" horiz-adv-x="1048" 
d="M55 0q-20 0 -16 20l264 1435q4 20 24 20h310q20 0 16 -20l-207 -1127h499q20 0 16 -20l-52 -288q-4 -20 -24 -20h-830zM196 -453q-20 0 -11 18l133 286q5 11 11.5 15t17.5 6l262 33q19 3 10 -14l-187 -327q-6 -10 -12.5 -13.5t-17.5 -3.5h-206z" />
    <glyph glyph-name="lcommaaccent" unicode="&#x13c;" horiz-adv-x="604" 
d="M41 0q-20 0 -16 20l289 1562q4 21 24 22l300 36q20 1 16 -18l-297 -1602q-4 -20 -24 -20h-292zM-122 -453q-20 0 -11 18l133 286q5 11 11.5 15t17.5 6l262 33q19 3 10 -14l-187 -327q-6 -10 -12.5 -13.5t-17.5 -3.5h-206z" />
    <glyph glyph-name="Lcaron" unicode="&#x13d;" horiz-adv-x="1050" 
d="M726 1006q-20 0 -16 20l78 420q4 21 24 22l277 35q20 1 14 -17l-135 -461q-4 -11 -9.5 -15t-16.5 -4h-216zM54 0q-20 0 -16 20l264 1435q4 20 24 20h310q20 0 16 -20l-207 -1127h499q20 0 16 -20l-52 -288q-4 -20 -24 -20h-830z" />
    <glyph glyph-name="lcaron" unicode="&#x13e;" horiz-adv-x="604" 
d="M41 0q-20 0 -16 20l289 1562q4 21 24 22l300 36q20 1 16 -18l-297 -1602q-4 -20 -24 -20h-292zM698 1141q-20 0 -16 20l77 421q4 21 24 22l279 34q20 1 14 -17l-136 -461q-4 -11 -9.5 -15t-16.5 -4h-216z" />
    <glyph glyph-name="Lslash" unicode="&#x141;" horiz-adv-x="1084" 
d="M94 0q-20 0 -16 20l80 437l-172 -99q-8 -5 -11.5 -2.5t-1.5 12.5l62 329q2 11 6.5 17.5t14.5 12.5l170 98l116 630q4 20 24 20h310q20 0 16 -20l-74 -403l307 177q8 5 11.5 2.5t1.5 -12.5l-62 -329q-2 -11 -6.5 -17.5t-14.5 -12.5l-305 -176l-65 -356h499q20 0 16 -20
l-52 -288q-4 -20 -24 -20h-830z" />
    <glyph glyph-name="lslash" unicode="&#x142;" horiz-adv-x="649" 
d="M74 0q-20 0 -16 20l82 446l-138 -95q-8 -5 -12.5 -1t-2.5 13l62 345q2 11 6 18t14 13l144 98l134 725q4 21 24 22l300 36q20 1 16 -18l-94 -504l140 96q8 5 14 3t4 -11l-64 -346q-4 -20 -20 -31l-146 -100l-131 -709q-4 -20 -24 -20h-292z" />
    <glyph glyph-name="Nacute" unicode="&#x143;" horiz-adv-x="1512" 
d="M54 0q-20 0 -16 20l264 1435q4 20 24 20h343q20 0 27 -19l284 -749q7 -19 11.5 -36t8 -30t5 -21t2.5 -8l157 843q4 20 24 20h311q20 0 16 -20l-267 -1435q-4 -20 -24 -20h-343q-20 0 -27 19l-282 745q-17 45 -20.5 72.5t-5.5 27.5l-158 -844q-4 -20 -24 -20h-310z
M788 1597q-9 0 -10.5 4t4.5 10l220 218q14 14 34 14h343q19 0 4 -12l-299 -222q-16 -12 -36 -12h-260z" />
    <glyph glyph-name="nacute" unicode="&#x144;" 
d="M26 0q-20 0 -16 20l195 1050q4 20 24 20h230q20 0 27 -19l20 -56q78 41 165 63t173 22q90 0 154.5 -25t101 -81.5t44.5 -148t-16 -224.5l-111 -601q-4 -20 -24 -20h-292q-20 0 -16 20l101 543q9 55 10.5 96t-12 68t-45 40t-86.5 13q-45 0 -92 -7t-83 -20l-136 -733
q-4 -20 -24 -20h-292zM569 1270q-20 0 -7 16l197 244q8 9 15 12.5t18 3.5h335q20 0 5 -13l-275 -250q-8 -8 -16 -10.5t-19 -2.5h-253z" />
    <glyph glyph-name="Ncommaaccent" unicode="&#x145;" horiz-adv-x="1513" 
d="M55 0q-20 0 -16 20l264 1435q4 20 24 20h343q20 0 27 -19l284 -749q7 -19 11.5 -36t8 -30t5 -21t2.5 -8l157 843q4 20 24 20h311q20 0 16 -20l-267 -1435q-4 -20 -24 -20h-343q-20 0 -27 19l-282 745q-17 45 -20.5 72.5t-5.5 27.5l-158 -844q-4 -20 -24 -20h-310z
M354 -453q-20 0 -11 18l133 286q5 11 11.5 15t17.5 6l262 33q19 3 10 -14l-187 -327q-6 -10 -12.5 -13.5t-17.5 -3.5h-206z" />
    <glyph glyph-name="ncommaaccent" unicode="&#x146;" horiz-adv-x="1242" 
d="M26 0q-20 0 -16 20l195 1050q4 20 24 20h230q20 0 27 -19l20 -56q78 41 165 63t173 22q90 0 154.5 -25t101 -81.5t44.5 -148t-16 -224.5l-111 -601q-4 -20 -24 -20h-292q-20 0 -16 20l101 543q9 55 10.5 96t-12 68t-45 40t-86.5 13q-45 0 -92 -7t-83 -20l-136 -733
q-4 -20 -24 -20h-292zM206 -453q-20 0 -11 18l133 286q5 11 11.5 15t17.5 6l262 33q19 3 10 -14l-187 -327q-6 -10 -12.5 -13.5t-17.5 -3.5h-206z" />
    <glyph glyph-name="Ncaron" unicode="&#x147;" horiz-adv-x="1512" 
d="M54 0q-20 0 -16 20l264 1435q4 20 24 20h343q20 0 27 -19l284 -749q7 -19 11.5 -36t8 -30t5 -21t2.5 -8l157 843q4 20 24 20h311q20 0 16 -20l-267 -1435q-4 -20 -24 -20h-343q-20 0 -27 19l-282 745q-17 45 -20.5 72.5t-5.5 27.5l-158 -844q-4 -20 -24 -20h-310z
M607 1827q-13 16 8 16h225q20 0 31 -16l67 -95h21l110 98q8 8 16 10.5t19 2.5h258q20 0 5 -13l-257 -220q-8 -8 -16 -10.5t-19 -2.5h-276q-20 0 -32 16z" />
    <glyph glyph-name="ncaron" unicode="&#x148;" 
d="M26 0q-20 0 -16 20l195 1050q4 20 24 20h230q20 0 27 -19l20 -56q78 41 165 63t173 22q90 0 154.5 -25t101 -81.5t44.5 -148t-16 -224.5l-111 -601q-4 -20 -24 -20h-292q-20 0 -16 20l101 543q9 55 10.5 96t-12 68t-45 40t-86.5 13q-45 0 -92 -7t-83 -20l-136 -733
q-4 -20 -24 -20h-292zM407 1529q-11 17 10 17h237q11 0 17 -3.5t11 -14.5l57 -125h21l106 128q8 8 15 11.5t18 3.5h249q9 0 11 -4t-5 -10l-255 -269q-8 -8 -15.5 -11t-18.5 -3h-275q-11 0 -17.5 3.5t-12.5 13.5z" />
    <glyph glyph-name="Omacron" unicode="&#x14c;" horiz-adv-x="1436" 
d="M595 -31q-148 0 -256 41.5t-172 126.5t-81 215.5t17 309.5l29 153q26 138 63 243t85.5 181.5t109 127.5t135 81.5t163 43.5t192.5 13q148 0 256 -41.5t172 -126.5t81 -215.5t-16 -308.5l-29 -154q-39 -208 -102.5 -341.5t-155 -211t-213.5 -107.5t-278 -30zM814 1157
q-67 0 -120.5 -16.5t-94.5 -55t-70 -102.5t-47 -158l-30 -174q-18 -95 -16 -159t26.5 -103t73 -55.5t122.5 -16.5q68 0 122.5 16.5t95.5 55.5t70 103t46 159l33 172q18 94 15.5 158t-28 103t-74.5 56t-124 17zM629 1596q-20 0 -16 20l35 198q4 20 24 20h546q20 0 16 -20
l-35 -198q-4 -20 -24 -20h-546z" />
    <glyph glyph-name="omacron" unicode="&#x14d;" horiz-adv-x="1174" 
d="M624 817q-56 0 -92.5 -11t-61 -38.5t-40 -73.5t-28.5 -116l-16 -86q-12 -69 -13 -115.5t13.5 -74t46 -39t84.5 -11.5q55 0 92 11.5t61.5 39.5t40.5 74.5t29 116.5l17 84q13 70 14.5 116t-13 73.5t-47 38.5t-87.5 11zM466 -31q-136 0 -226 29.5t-138.5 92t-58 159.5
t14.5 231l21 105q24 134 69.5 231t117 160t172.5 93t237 30t226.5 -30t139 -93t58.5 -160t-15 -231l-20 -105q-25 -134 -70 -231t-117 -159.5t-173.5 -92t-237.5 -29.5zM418 1267q-20 0 -16 20l35 198q4 20 24 20h546q20 0 16 -20l-35 -198q-4 -20 -24 -20h-546z" />
    <glyph glyph-name="Ohungarumlaut" unicode="&#x150;" horiz-adv-x="1436" 
d="M595 -31q-148 0 -256 41.5t-172 126.5t-81 215.5t17 309.5l29 153q26 138 63 243t85.5 181.5t109 127.5t135 81.5t163 43.5t192.5 13q148 0 256 -41.5t172 -126.5t81 -215.5t-16 -308.5l-29 -154q-39 -208 -102.5 -341.5t-155 -211t-213.5 -107.5t-278 -30zM814 1157
q-67 0 -120.5 -16.5t-94.5 -55t-70 -102.5t-47 -158l-30 -174q-18 -95 -16 -159t26.5 -103t73 -55.5t122.5 -16.5q68 0 122.5 16.5t95.5 55.5t70 103t46 159l33 172q18 94 15.5 158t-28 103t-74.5 56t-124 17zM559 1597q-21 0 -8 16l163 214q12 16 32 16h253q20 0 6 -14
l-217 -218q-14 -14 -34 -14h-195zM957 1597q-21 0 -8 16l150 214q12 16 32 16h271q20 0 6 -14l-230 -218q-14 -14 -34 -14h-187z" />
    <glyph glyph-name="ohungarumlaut" unicode="&#x151;" horiz-adv-x="1174" 
d="M624 817q-56 0 -92.5 -11t-61 -38.5t-40 -73.5t-28.5 -116l-16 -86q-12 -69 -13 -115.5t13.5 -74t46 -39t84.5 -11.5q55 0 92 11.5t61.5 39.5t40.5 74.5t29 116.5l17 84q13 70 14.5 116t-13 73.5t-47 38.5t-87.5 11zM466 -31q-136 0 -226 29.5t-138.5 92t-58 159.5
t14.5 231l21 105q24 134 69.5 231t117 160t172.5 93t237 30t226.5 -30t139 -93t58.5 -160t-15 -231l-20 -105q-25 -134 -70 -231t-117 -159.5t-173.5 -92t-237.5 -29.5zM804 1260q-21 0 -12 18l103 250q5 11 11 14.5t17 3.5h273q20 0 9 -17l-168 -252q-6 -10 -13 -13.5
t-18 -3.5h-202zM430 1260q-20 0 -14 19l74 248q4 11 9.5 15t16.5 4h273q21 0 10 -17l-147 -252q-6 -10 -12.5 -13.5t-17.5 -3.5h-192z" />
    <glyph glyph-name="OE" unicode="&#x152;" horiz-adv-x="2039" 
d="M595 -31q-148 0 -256 41.5t-172 126.5t-81 215.5t17 309.5l29 153q26 138 63 243t85.5 181.5t109 127.5t135 81.5t163 43.5t192.5 13q125 0 223 -30h981q20 0 16 -20l-54 -288q-4 -20 -24 -20h-637q18 -107 2 -242h447q20 0 16 -20l-54 -287q-4 -20 -24 -20h-445
q-17 -74 -37 -135.5t-44 -114.5h625q20 0 16 -20l-54 -288q-4 -20 -24 -20h-933q-62 -17 -132 -24t-149 -7zM814 1157q-67 0 -120.5 -16.5t-94.5 -55t-70 -102.5t-47 -158l-30 -174q-18 -95 -16 -159t26.5 -103t73 -55.5t122.5 -16.5q68 0 122.5 16.5t95.5 55.5t70 103
t46 159l33 172q18 94 15.5 158t-28 103t-74.5 56t-124 17z" />
    <glyph glyph-name="oe" unicode="&#x153;" horiz-adv-x="1841" 
d="M1151 -31q-227 0 -330 81q-133 -81 -355 -81q-136 0 -226 29.5t-138.5 92t-58 159.5t14.5 231l21 105q24 134 69.5 231t117 160t172.5 93t237 30q113 0 193 -20.5t133 -62.5q132 83 355 83q224 0 326 -90.5t102 -280.5q0 -61 -8.5 -114t-20.5 -95.5t-25 -73.5t-21 -47
q-5 -11 -11 -14.5t-17 -3.5l-627 -2q-1 -42 8.5 -67t31 -38.5t55 -17.5t80.5 -4q88 0 179.5 3t193.5 10q20 1 17 -19l-29 -226q-3 -20 -23 -23q-100 -12 -202.5 -20t-213.5 -8zM624 817q-56 0 -92.5 -11t-61 -38.5t-40 -73.5t-28.5 -116l-16 -86q-12 -69 -13 -115.5
t13.5 -74t46 -39t84.5 -11.5q55 0 92 11.5t61.5 39.5t40.5 74.5t29 116.5l17 84q13 70 14.5 116t-13 73.5t-47 38.5t-87.5 11zM1475 631q0 57 -7.5 93t-27 56.5t-52 28.5t-83.5 8t-87 -10t-60.5 -34t-40 -63t-26.5 -97z" />
    <glyph glyph-name="Racute" unicode="&#x154;" horiz-adv-x="1389" 
d="M819 0q-20 0 -25 19l-131 491h-24q-37 0 -74 1.5t-84 4.5l-92 -496q-4 -20 -24 -20h-310q-20 0 -16 20l264 1435q4 20 24 21q122 8 235.5 11.5t221.5 3.5q138 0 240 -9.5t173 -30.5t114 -54t63 -80.5t20 -110t-14 -141.5l-24 -133q-18 -96 -47.5 -164t-72 -115t-98 -75
t-126.5 -43q11 -26 22.5 -55.5t24.5 -65.5l131 -395q6 -19 -14 -19h-357zM750 1180q-32 0 -74 -1.5t-74 -4.5l-63 -347q29 -3 68 -4.5t85 -1.5q90 0 147.5 4.5t92 20t52 44.5t26.5 77l12 67q8 48 2 77t-35 44.5t-86.5 20t-152.5 4.5zM703 1597q-9 0 -10.5 4t4.5 10l220 218
q14 14 34 14h343q19 0 4 -12l-299 -222q-16 -12 -36 -12h-260z" />
    <glyph glyph-name="racute" unicode="&#x155;" horiz-adv-x="827" 
d="M26 0q-20 0 -16 20l195 1050q4 20 24 20h230q20 0 27 -19l21 -57q34 28 75 45t82 26t79.5 12t67.5 3q30 0 47 -4q19 -3 15 -22l-71 -299q-3 -11 -8.5 -15t-16.5 -2q-12 1 -24 1.5t-26 0.5q-75 0 -137 -7t-117 -24l-131 -709q-4 -20 -24 -20h-292zM393 1270q-20 0 -7 16
l197 244q8 9 15 12.5t18 3.5h335q20 0 5 -13l-275 -250q-8 -8 -16 -10.5t-19 -2.5h-253z" />
    <glyph glyph-name="Rcommaaccent" unicode="&#x156;" horiz-adv-x="1387" 
d="M819 0q-20 0 -25 19l-131 491h-24q-37 0 -74 1.5t-84 4.5l-92 -496q-4 -20 -24 -20h-310q-20 0 -16 20l264 1435q4 20 24 21q122 8 235.5 11.5t221.5 3.5q138 0 240 -9.5t173 -30.5t114 -54t63 -80.5t20 -110t-14 -141.5l-24 -133q-18 -96 -47.5 -164t-72 -115t-98 -75
t-126.5 -43q11 -26 22.5 -55.5t24.5 -65.5l131 -395q6 -19 -14 -19h-357zM750 1180q-32 0 -74 -1.5t-74 -4.5l-63 -347q29 -3 68 -4.5t85 -1.5q90 0 147.5 4.5t92 20t52 44.5t26.5 77l12 67q8 48 2 77t-35 44.5t-86.5 20t-152.5 4.5zM305 -453q-20 0 -11 18l133 286
q5 11 11.5 15t17.5 6l262 33q19 3 10 -14l-187 -327q-6 -10 -12.5 -13.5t-17.5 -3.5h-206z" />
    <glyph glyph-name="rcommaaccent" unicode="&#x157;" horiz-adv-x="827" 
d="M26 0q-20 0 -16 20l195 1050q4 20 24 20h230q20 0 27 -19l21 -57q34 28 75 45t82 26t79.5 12t67.5 3q30 0 47 -4q19 -3 15 -22l-71 -299q-3 -11 -8.5 -15t-16.5 -2q-12 1 -24 1.5t-26 0.5q-75 0 -137 -7t-117 -24l-131 -709q-4 -20 -24 -20h-292zM-147 -453q-20 0 -11 18
l133 286q5 11 11.5 15t17.5 6l262 33q19 3 10 -14l-187 -327q-6 -10 -12.5 -13.5t-17.5 -3.5h-206z" />
    <glyph glyph-name="Rcaron" unicode="&#x158;" horiz-adv-x="1389" 
d="M819 0q-20 0 -25 19l-131 491h-24q-37 0 -74 1.5t-84 4.5l-92 -496q-4 -20 -24 -20h-310q-20 0 -16 20l264 1435q4 20 24 21q122 8 235.5 11.5t221.5 3.5q138 0 240 -9.5t173 -30.5t114 -54t63 -80.5t20 -110t-14 -141.5l-24 -133q-18 -96 -47.5 -164t-72 -115t-98 -75
t-126.5 -43q11 -26 22.5 -55.5t24.5 -65.5l131 -395q6 -19 -14 -19h-357zM750 1180q-32 0 -74 -1.5t-74 -4.5l-63 -347q29 -3 68 -4.5t85 -1.5q90 0 147.5 4.5t92 20t52 44.5t26.5 77l12 67q8 48 2 77t-35 44.5t-86.5 20t-152.5 4.5zM563 1827q-13 16 8 16h225q20 0 31 -16
l67 -95h21l110 98q8 8 16 10.5t19 2.5h258q20 0 5 -13l-257 -220q-8 -8 -16 -10.5t-19 -2.5h-276q-20 0 -32 16z" />
    <glyph glyph-name="rcaron" unicode="&#x159;" horiz-adv-x="828" 
d="M27 0q-20 0 -16 20l195 1050q4 20 24 20h230q20 0 27 -19l21 -57q34 28 75 45t82 26t79.5 12t67.5 3q30 0 47 -4q19 -3 15 -22l-71 -299q-3 -11 -8.5 -15t-16.5 -2q-12 1 -24 1.5t-26 0.5q-75 0 -137 -7t-117 -24l-131 -709q-4 -20 -24 -20h-292zM244 1529q-11 17 10 17
h237q11 0 17 -3.5t11 -14.5l57 -125h21l106 128q8 8 15 11.5t18 3.5h249q9 0 11 -4t-5 -10l-255 -269q-8 -8 -15.5 -11t-18.5 -3h-275q-11 0 -17.5 3.5t-12.5 13.5z" />
    <glyph glyph-name="Sacute" unicode="&#x15a;" horiz-adv-x="1248" 
d="M434 -31q-126 0 -233 13t-185 35q-19 5 -12 25l95 271q7 19 27 16q54 -9 98 -15t84.5 -9.5t80.5 -5.5t87 -2q91 0 149 5.5t91.5 19.5t46 38t12.5 61q0 17 -9.5 32.5t-32.5 33t-62 40t-98 53.5l-157 82q-76 40 -126 84.5t-79.5 91t-41.5 94t-12 94.5q0 130 36 221
t119.5 148.5t218.5 83.5t333 26q105 0 200 -10t171 -35q19 -5 12 -24l-95 -262q-7 -19 -27 -16q-39 5 -79 9t-77.5 6.5t-70 3.5t-54.5 1q-87 0 -147.5 -3t-98 -13.5t-54.5 -31t-17 -55.5q0 -19 9 -35t31.5 -33t59.5 -37.5t94 -47.5l180 -88q69 -34 116.5 -71.5t77 -79.5
t42.5 -88t13 -97q0 -149 -39.5 -250t-125.5 -163t-222 -89t-329 -27zM691 1597q-9 0 -10.5 4t4.5 10l220 218q14 14 34 14h343q19 0 4 -12l-299 -222q-16 -12 -36 -12h-260z" />
    <glyph glyph-name="sacute" unicode="&#x15b;" horiz-adv-x="1024" 
d="M348 -31q-28 0 -69.5 2t-88 5.5t-93.5 9t-87 12.5q-20 4 -15 23l55 238q3 11 8.5 15t16.5 3q48 -6 89 -10t77.5 -6.5t69.5 -3.5t66 -1q62 0 99.5 2.5t57 9.5t25.5 18t6 29q0 7 -3.5 14t-14 15t-30 17t-50.5 20l-172 59q-56 19 -93.5 44t-60.5 55.5t-33 67t-10 79.5
q0 128 37 209t107.5 126.5t172.5 62t232 16.5q86 0 162.5 -8t141.5 -18q21 -3 15 -22l-58 -237q-3 -11 -8.5 -15t-16.5 -3q-32 3 -68.5 6t-70.5 5.5t-63.5 3.5t-47.5 1q-57 0 -94.5 -2t-60 -8t-31.5 -17.5t-9 -29.5q0 -8 4 -15t16 -15t33 -16.5t56 -19.5l151 -49
q58 -19 98.5 -41t65.5 -50.5t36 -64.5t11 -84q0 -141 -39 -226t-112 -131t-176.5 -60.5t-233.5 -14.5zM471 1270q-20 0 -7 16l197 244q8 9 15 12.5t18 3.5h335q20 0 5 -13l-275 -250q-8 -8 -16 -10.5t-19 -2.5h-253z" />
    <glyph glyph-name="uni015E" unicode="&#x15e;" horiz-adv-x="1248" 
d="M434 -31q-126 0 -233 13t-185 35q-19 5 -12 25l95 271q7 19 27 16q54 -9 98 -15t84.5 -9.5t80.5 -5.5t87 -2q91 0 149 5.5t91.5 19.5t46 38t12.5 61q0 17 -9.5 32.5t-32.5 33t-62 40t-98 53.5l-157 82q-76 40 -126 84.5t-79.5 91t-41.5 94t-12 94.5q0 130 36 221
t119.5 148.5t218.5 83.5t333 26q105 0 200 -10t171 -35q19 -5 12 -24l-95 -262q-7 -19 -27 -16q-39 5 -79 9t-77.5 6.5t-70 3.5t-54.5 1q-87 0 -147.5 -3t-98 -13.5t-54.5 -31t-17 -55.5q0 -19 9 -35t31.5 -33t59.5 -37.5t94 -47.5l180 -88q69 -34 116.5 -71.5t77 -79.5
t42.5 -88t13 -97q0 -149 -39.5 -250t-125.5 -163t-222 -89t-329 -27zM251 -389q-19 0 -8 16l203 255q12 16 32 16h221q21 0 8 -16l-181 -255q-12 -16 -32 -16h-243z" />
    <glyph glyph-name="uni015F" unicode="&#x15f;" horiz-adv-x="1024" 
d="M348 -31q-28 0 -69.5 2t-88 5.5t-93.5 9t-87 12.5q-20 4 -15 23l55 238q3 11 8.5 15t16.5 3q48 -6 89 -10t77.5 -6.5t69.5 -3.5t66 -1q62 0 99.5 2.5t57 9.5t25.5 18t6 29q0 7 -3.5 14t-14 15t-30 17t-50.5 20l-172 59q-56 19 -93.5 44t-60.5 55.5t-33 67t-10 79.5
q0 128 37 209t107.5 126.5t172.5 62t232 16.5q86 0 162.5 -8t141.5 -18q21 -3 15 -22l-58 -237q-3 -11 -8.5 -15t-16.5 -3q-32 3 -68.5 6t-70.5 5.5t-63.5 3.5t-47.5 1q-57 0 -94.5 -2t-60 -8t-31.5 -17.5t-9 -29.5q0 -8 4 -15t16 -15t33 -16.5t56 -19.5l151 -49
q58 -19 98.5 -41t65.5 -50.5t36 -64.5t11 -84q0 -141 -39 -226t-112 -131t-176.5 -60.5t-233.5 -14.5zM85 -389q-19 0 -8 16l203 255q12 16 32 16h221q21 0 8 -16l-181 -255q-12 -16 -32 -16h-243z" />
    <glyph glyph-name="Scaron" unicode="&#x160;" horiz-adv-x="1248" 
d="M434 -31q-126 0 -233 13t-185 35q-19 5 -12 25l95 271q7 19 27 16q54 -9 98 -15t84.5 -9.5t80.5 -5.5t87 -2q91 0 149 5.5t91.5 19.5t46 38t12.5 61q0 17 -9.5 32.5t-32.5 33t-62 40t-98 53.5l-157 82q-76 40 -126 84.5t-79.5 91t-41.5 94t-12 94.5q0 130 36 221
t119.5 148.5t218.5 83.5t333 26q105 0 200 -10t171 -35q19 -5 12 -24l-95 -262q-7 -19 -27 -16q-39 5 -79 9t-77.5 6.5t-70 3.5t-54.5 1q-87 0 -147.5 -3t-98 -13.5t-54.5 -31t-17 -55.5q0 -19 9 -35t31.5 -33t59.5 -37.5t94 -47.5l180 -88q69 -34 116.5 -71.5t77 -79.5
t42.5 -88t13 -97q0 -149 -39.5 -250t-125.5 -163t-222 -89t-329 -27zM488 1827q-13 16 8 16h225q20 0 31 -16l67 -95h21l110 98q8 8 16 10.5t19 2.5h258q20 0 5 -13l-257 -220q-8 -8 -16 -10.5t-19 -2.5h-276q-20 0 -32 16z" />
    <glyph glyph-name="scaron" unicode="&#x161;" horiz-adv-x="1024" 
d="M348 -31q-28 0 -69.5 2t-88 5.5t-93.5 9t-87 12.5q-20 4 -15 23l55 238q3 11 8.5 15t16.5 3q48 -6 89 -10t77.5 -6.5t69.5 -3.5t66 -1q62 0 99.5 2.5t57 9.5t25.5 18t6 29q0 7 -3.5 14t-14 15t-30 17t-50.5 20l-172 59q-56 19 -93.5 44t-60.5 55.5t-33 67t-10 79.5
q0 128 37 209t107.5 126.5t172.5 62t232 16.5q86 0 162.5 -8t141.5 -18q21 -3 15 -22l-58 -237q-3 -11 -8.5 -15t-16.5 -3q-32 3 -68.5 6t-70.5 5.5t-63.5 3.5t-47.5 1q-57 0 -94.5 -2t-60 -8t-31.5 -17.5t-9 -29.5q0 -8 4 -15t16 -15t33 -16.5t56 -19.5l151 -49
q58 -19 98.5 -41t65.5 -50.5t36 -64.5t11 -84q0 -141 -39 -226t-112 -131t-176.5 -60.5t-233.5 -14.5zM296 1529q-11 17 10 17h237q11 0 17 -3.5t11 -14.5l57 -125h21l106 128q8 8 15 11.5t18 3.5h249q9 0 11 -4t-5 -10l-255 -269q-8 -8 -15.5 -11t-18.5 -3h-275
q-11 0 -17.5 3.5t-12.5 13.5z" />
    <glyph glyph-name="uni0162" unicode="&#x162;" horiz-adv-x="1202" 
d="M324 0q-20 0 -16 20l209 1127h-373q-20 0 -16 20l53 288q4 20 24 20h1095q20 0 16 -20l-53 -288q-4 -20 -24 -20h-372l-209 -1127q-4 -20 -24 -20h-310zM183 -453q-20 0 -11 18l133 286q5 11 11.5 15t17.5 6l262 33q19 3 10 -14l-187 -327q-6 -10 -12.5 -13.5t-17.5 -3.5
h-206z" />
    <glyph glyph-name="uni0163" unicode="&#x163;" horiz-adv-x="851" 
d="M397 -31q-79 0 -135 15t-87 54.5t-37 109.5t14 180l83 448l-147 29q-20 4 -16 24l41 222q4 20 24 20h152l35 191q4 21 24 22l300 37q20 1 16 -18l-44 -232h263q20 0 14 -19l-84 -257q-5 -19 -26 -19h-220l-80 -430q-5 -28 -3 -45t12 -26t28.5 -12t46.5 -3q20 0 49 1.5
t52 3.5q19 1 18 -19l-29 -227q-1 -11 -5.5 -16t-15.5 -8q-23 -5 -52 -10t-61 -8.5t-65.5 -5.5t-64.5 -2zM86 -453q-20 0 -11 18l133 286q5 11 11.5 15t17.5 6l262 33q19 3 10 -14l-187 -327q-6 -10 -12.5 -13.5t-17.5 -3.5h-206z" />
    <glyph glyph-name="Tcaron" unicode="&#x164;" horiz-adv-x="1202" 
d="M324 0q-20 0 -16 20l209 1127h-373q-20 0 -16 20l53 288q4 20 24 20h1095q20 0 16 -20l-53 -288q-4 -20 -24 -20h-372l-209 -1127q-4 -20 -24 -20h-310zM445 1827q-13 16 8 16h225q20 0 31 -16l67 -95h21l110 98q8 8 16 10.5t19 2.5h258q20 0 5 -13l-257 -220
q-8 -8 -16 -10.5t-19 -2.5h-276q-20 0 -32 16z" />
    <glyph glyph-name="tcaron" unicode="&#x165;" horiz-adv-x="855" 
d="M751 1171q-20 0 -16 20l70 391q4 21 24 22l279 34q20 1 14 -17l-129 -431q-4 -11 -9.5 -15t-16.5 -4h-216zM398 -31q-79 0 -135 15t-87 54.5t-37 109.5t14 180l83 448l-147 29q-20 4 -16 24l41 222q4 20 24 20h152l35 191q4 21 24 22l300 37q20 1 16 -18l-44 -232h263
q20 0 14 -19l-84 -257q-5 -19 -26 -19h-220l-80 -430q-5 -28 -3 -45t12 -26t28.5 -12t46.5 -3q20 0 49 1.5t52 3.5q19 1 18 -19l-29 -227q-1 -11 -5.5 -16t-15.5 -8q-23 -5 -52 -10t-61 -8.5t-65.5 -5.5t-64.5 -2z" />
    <glyph glyph-name="uni0166" unicode="&#x166;" horiz-adv-x="1202" 
d="M324 0q-20 0 -16 20l87 473h-130q-20 0 -16 20l52 280q4 20 24 20h130l62 334h-373q-20 0 -16 20l53 288q4 20 24 20h1095q20 0 16 -20l-53 -288q-4 -20 -24 -20h-372l-62 -334h130q20 0 16 -20l-52 -280q-4 -20 -24 -20h-130l-87 -473q-4 -20 -24 -20h-310z" />
    <glyph glyph-name="uni0167" unicode="&#x167;" horiz-adv-x="855" 
d="M398 -31q-79 0 -135 15t-87 54.5t-37 109.5t14 180l11 60l-94 21q-19 5 -15 25l37 212q4 20 24 20h99l21 110l-147 29q-20 4 -16 24l41 222q4 20 24 20h152l35 191q4 21 24 22l300 37q20 1 16 -18l-44 -232h263q20 0 14 -19l-84 -257q-5 -19 -26 -19h-220l-21 -110h213
q20 0 14 -19l-80 -247q-4 -11 -9.5 -15t-16.5 -4h-174l-6 -35q-5 -28 -3 -45t12 -26t28.5 -12t46.5 -3q20 0 49 1.5t52 3.5q19 1 18 -19l-29 -227q-1 -11 -5.5 -16t-15.5 -8q-23 -5 -52 -10t-61 -8.5t-65.5 -5.5t-64.5 -2z" />
    <glyph glyph-name="Utilde" unicode="&#x168;" horiz-adv-x="1489" 
d="M626 -31q-136 0 -242.5 28t-175 90t-93.5 161t1 241l178 966q4 20 24 20h310q20 0 16 -20l-162 -886q-14 -71 -10 -121t28 -81.5t70 -45.5t117 -14q68 0 119.5 14t88 45.5t60.5 81.5t37 121l164 886q4 20 24 20h308q20 0 16 -20l-178 -966q-28 -152 -88.5 -252.5
t-149.5 -160t-205.5 -83.5t-256.5 -24zM562 1587q-11 0 -15 4.5t-3 15.5q14 100 43 158t65.5 88t77 38t78.5 8q16 0 31 -3t33 -9t39.5 -16t51.5 -24q29 -14 48.5 -23t33 -14.5t22 -8t14.5 -2.5q9 0 15.5 2t12 9t10 20.5t10.5 36.5q4 20 24 20h191q11 0 15 -4.5t3 -15.5
q-14 -101 -44 -159t-67.5 -87.5t-79 -37.5t-79.5 -8q-17 0 -33 2t-33 7.5t-37.5 16t-46.5 27.5q-27 17 -46 27t-32.5 14.5t-22.5 5.5t-16 1q-9 0 -16 -2t-12 -9.5t-9.5 -21t-10.5 -37.5q-4 -19 -24 -19h-191z" />
    <glyph glyph-name="utilde" unicode="&#x169;" 
d="M517 -31q-155 0 -250 26t-141.5 84.5t-51 154t20.5 233.5l109 584q4 20 24 20h291q20 0 16 -20l-104 -562q-11 -63 -11.5 -105.5t14.5 -68.5t48 -37.5t90 -11.5q33 0 73 2.5t71 10.5l143 772q4 20 24 20h292q20 0 16 -20l-184 -997q-2 -11 -7 -16t-16 -8
q-44 -12 -101.5 -23t-120.5 -19.5t-126.5 -13.5t-118.5 -5zM624 1344q-9 0 -16 -2t-12.5 -10t-10.5 -23.5t-10 -42.5q-4 -20 -24 -20h-186q-21 0 -18 20q8 97 32.5 157.5t60.5 95t81.5 47t95.5 12.5q20 0 36.5 -2t34.5 -7t38.5 -15t48.5 -26q25 -15 42.5 -24.5t29.5 -15.5
t19.5 -8.5t12.5 -2.5q9 0 16 2t12.5 10t10.5 23.5t10 42.5q4 20 24 20h186q21 0 18 -20q-8 -97 -32.5 -157.5t-60.5 -95t-81.5 -47t-95.5 -12.5q-20 0 -36.5 2t-34.5 7t-38.5 15t-48.5 26q-50 29 -72 40t-32 11z" />
    <glyph glyph-name="Umacron" unicode="&#x16a;" horiz-adv-x="1489" 
d="M626 -31q-136 0 -242.5 28t-175 90t-93.5 161t1 241l178 966q4 20 24 20h310q20 0 16 -20l-162 -886q-14 -71 -10 -121t28 -81.5t70 -45.5t117 -14q68 0 119.5 14t88 45.5t60.5 81.5t37 121l164 886q4 20 24 20h308q20 0 16 -20l-178 -966q-28 -152 -88.5 -252.5
t-149.5 -160t-205.5 -83.5t-256.5 -24zM658 1596q-20 0 -16 20l35 198q4 20 24 20h546q20 0 16 -20l-35 -198q-4 -20 -24 -20h-546z" />
    <glyph glyph-name="umacron" unicode="&#x16b;" 
d="M517 -31q-155 0 -250 26t-141.5 84.5t-51 154t20.5 233.5l109 584q4 20 24 20h291q20 0 16 -20l-104 -562q-11 -63 -11.5 -105.5t14.5 -68.5t48 -37.5t90 -11.5q33 0 73 2.5t71 10.5l143 772q4 20 24 20h292q20 0 16 -20l-184 -997q-2 -11 -7 -16t-16 -8
q-44 -12 -101.5 -23t-120.5 -19.5t-126.5 -13.5t-118.5 -5zM451 1267q-20 0 -16 20l35 198q4 20 24 20h546q20 0 16 -20l-35 -198q-4 -20 -24 -20h-546z" />
    <glyph glyph-name="Uring" unicode="&#x16e;" horiz-adv-x="1489" 
d="M626 -31q-136 0 -242.5 28t-175 90t-93.5 161t1 241l178 966q4 20 24 20h310q20 0 16 -20l-162 -886q-14 -71 -10 -121t28 -81.5t70 -45.5t117 -14q68 0 119.5 14t88 45.5t60.5 81.5t37 121l164 886q4 20 24 20h308q20 0 16 -20l-178 -966q-28 -152 -88.5 -252.5
t-149.5 -160t-205.5 -83.5t-256.5 -24zM957 1776q-29 0 -52 -16.5t-28 -46.5l-1 -6q-5 -27 11 -44.5t47 -17.5q29 0 52 16.5t29 48.5q5 29 -11 47.5t-47 18.5zM901 1473q-66 0 -111 19t-70.5 51t-32 74.5t2.5 89.5l2 10q9 47 31.5 89t59.5 73.5t88 50t119 18.5q66 0 111 -19
t70.5 -51t32 -74.5t-2.5 -89.5l-2 -10q-9 -47 -31.5 -89t-59 -73.5t-88.5 -50t-119 -18.5z" />
    <glyph glyph-name="uring" unicode="&#x16f;" 
d="M517 -31q-155 0 -250 26t-141.5 84.5t-51 154t20.5 233.5l109 584q4 20 24 20h291q20 0 16 -20l-104 -562q-11 -63 -11.5 -105.5t14.5 -68.5t48 -37.5t90 -11.5q33 0 73 2.5t71 10.5l143 772q4 20 24 20h292q20 0 16 -20l-184 -997q-2 -11 -7 -16t-16 -8
q-44 -12 -101.5 -23t-120.5 -19.5t-126.5 -13.5t-118.5 -5zM775 1458q-18 0 -32.5 -2t-25 -9.5t-16.5 -21t-6 -36.5q0 -28 16.5 -34.5t42.5 -6.5q18 0 33 2t26 9.5t17 21t6 36.5q0 28 -17.5 34.5t-43.5 6.5zM713 1176q-121 0 -175 49.5t-54 132.5q0 57 17.5 107t55 86.5
t97 57.5t143.5 21q119 0 173.5 -49.5t54.5 -134.5q0 -58 -19 -107.5t-57.5 -85.5t-97 -56.5t-138.5 -20.5z" />
    <glyph glyph-name="Uhungarumlaut" unicode="&#x170;" horiz-adv-x="1489" 
d="M626 -31q-136 0 -242.5 28t-175 90t-93.5 161t1 241l178 966q4 20 24 20h310q20 0 16 -20l-162 -886q-14 -71 -10 -121t28 -81.5t70 -45.5t117 -14q68 0 119.5 14t88 45.5t60.5 81.5t37 121l164 886q4 20 24 20h308q20 0 16 -20l-178 -966q-28 -152 -88.5 -252.5
t-149.5 -160t-205.5 -83.5t-256.5 -24zM568 1597q-21 0 -8 16l163 214q12 16 32 16h253q20 0 6 -14l-217 -218q-14 -14 -34 -14h-195zM966 1597q-21 0 -8 16l150 214q12 16 32 16h271q20 0 6 -14l-230 -218q-14 -14 -34 -14h-187z" />
    <glyph glyph-name="uhungarumlaut" unicode="&#x171;" 
d="M517 -31q-155 0 -250 26t-141.5 84.5t-51 154t20.5 233.5l109 584q4 20 24 20h291q20 0 16 -20l-104 -562q-11 -63 -11.5 -105.5t14.5 -68.5t48 -37.5t90 -11.5q33 0 73 2.5t71 10.5l143 772q4 20 24 20h292q20 0 16 -20l-184 -997q-2 -11 -7 -16t-16 -8
q-44 -12 -101.5 -23t-120.5 -19.5t-126.5 -13.5t-118.5 -5zM807 1260q-21 0 -12 18l103 250q5 11 11 14.5t17 3.5h273q20 0 9 -17l-168 -252q-6 -10 -13 -13.5t-18 -3.5h-202zM433 1260q-20 0 -14 19l74 248q4 11 9.5 15t16.5 4h273q21 0 10 -17l-147 -252
q-6 -10 -12.5 -13.5t-17.5 -3.5h-192z" />
    <glyph glyph-name="Uogonek" unicode="&#x172;" horiz-adv-x="1494" 
d="M626 -31q-136 0 -242.5 28t-175 90t-93.5 161t1 241l178 966q4 20 24 20h310q20 0 16 -20l-162 -886q-14 -71 -10 -121t28 -81.5t70 -45.5t117 -14q68 0 119.5 14t88 45.5t60.5 81.5t37 121l164 886q4 20 24 20h308q20 0 16 -20l-178 -966q-19 -103 -53 -182t-81.5 -137
t-108.5 -97t-134 -62q-98 -45 -137 -98t-39 -118q0 -25 18 -33t68 -8q18 0 39.5 1t44.5 4q21 3 18 -17l-9 -122q-1 -20 -20 -25q-23 -5 -63.5 -10t-107.5 -5q-119 0 -178.5 34t-59.5 120q0 78 29.5 135.5t88.5 99.5h-15v0z" />
    <glyph glyph-name="uogonek" unicode="&#x173;" horiz-adv-x="1244" 
d="M517 -31q-155 0 -250 26t-141.5 84.5t-51 154t20.5 233.5l109 584q4 20 24 20h291q20 0 16 -20l-104 -562q-11 -63 -11.5 -105.5t14.5 -68.5t48 -37.5t90 -11.5q33 0 73 2.5t71 10.5l143 772q4 20 24 20h292q20 0 16 -20l-184 -997q-2 -13 -6.5 -20t-15.5 -13
q-42 -26 -76.5 -55.5t-59 -60t-38 -60t-13.5 -54.5q0 -23 14 -31t51 -8q14 0 30 1t32 3q21 3 18 -16l-9 -123q-1 -19 -20 -24q-25 -5 -66 -10t-91 -5q-103 0 -157 31.5t-54 109.5q0 69 33 137.5t95 121.5q-83 -9 -157 -9z" />
    <glyph glyph-name="Ydieresis" unicode="&#x178;" horiz-adv-x="1246" 
d="M347 0q-20 0 -16 20l84 463l-281 973q-6 19 14 19h344q20 0 24 -19l135 -588l353 590q6 10 12.5 13.5t17.5 3.5h364q20 0 9 -17l-641 -973l-85 -465q-4 -20 -24 -20h-310zM431 1597q-20 0 -16 20l39 216q4 21 24 22l290 37q20 1 16 -18l-48 -257q-4 -20 -24 -20h-281z
M883 1597q-20 0 -16 20l40 216q4 21 24 22l289 37q20 1 16 -18l-47 -257q-4 -20 -24 -20h-282z" />
    <glyph glyph-name="Zacute" unicode="&#x179;" horiz-adv-x="1252" 
d="M-14 0q-20 0 -16 20l50 267q4 20 18 35l786 847h-590q-20 0 -16 20l47 266q4 20 24 20h999q20 0 16 -20l-48 -266q-4 -20 -18 -35l-786 -847h631q20 0 16 -20l-50 -267q-4 -20 -24 -20h-1039zM651 1597q-9 0 -10.5 4t4.5 10l220 218q14 14 34 14h343q19 0 4 -12
l-299 -222q-16 -12 -36 -12h-260z" />
    <glyph glyph-name="zacute" unicode="&#x17a;" horiz-adv-x="1105" 
d="M152 776q-25 0 -20 24l48 255q2 8 5.5 12t14.5 4h864q25 0 20 -24l-41 -214q-6 -32 -26 -51l-533 -485h447q25 0 20 -24l-49 -257q-2 -8 -5.5 -12t-14.5 -4h-885q-25 0 -20 24l41 208q9 42 37 67l517 477h-420zM519 1270q-20 0 -7 16l197 244q8 9 15 12.5t18 3.5h335
q20 0 5 -13l-275 -250q-8 -8 -16 -10.5t-19 -2.5h-253z" />
    <glyph glyph-name="Zdotaccent" unicode="&#x17b;" horiz-adv-x="1252" 
d="M-14 0q-20 0 -16 20l50 267q4 20 18 35l786 847h-590q-20 0 -16 20l47 266q4 20 24 20h999q20 0 16 -20l-48 -266q-4 -20 -18 -35l-786 -847h631q20 0 16 -20l-50 -267q-4 -20 -24 -20h-1039zM656 1597q-20 0 -16 20l39 216q4 21 24 22l300 37q20 1 16 -18l-47 -257
q-4 -20 -24 -20h-292z" />
    <glyph glyph-name="zdotaccent" unicode="&#x17c;" horiz-adv-x="1105" 
d="M152 776q-25 0 -20 24l48 255q2 8 5.5 12t14.5 4h864q25 0 20 -24l-41 -214q-6 -32 -26 -51l-533 -485h447q25 0 20 -24l-49 -257q-2 -8 -5.5 -12t-14.5 -4h-885q-25 0 -20 24l41 208q9 42 37 67l517 477h-420zM456 1219q-20 0 -16 20l54 287q4 21 24 22l298 37
q20 1 16 -18l-60 -328q-4 -20 -24 -20h-292z" />
    <glyph glyph-name="Zcaron" unicode="&#x17d;" horiz-adv-x="1252" 
d="M-14 0q-20 0 -16 20l50 267q4 20 18 35l786 847h-590q-20 0 -16 20l47 266q4 20 24 20h999q20 0 16 -20l-48 -266q-4 -20 -18 -35l-786 -847h631q20 0 16 -20l-50 -267q-4 -20 -24 -20h-1039zM472 1827q-13 16 8 16h225q20 0 31 -16l67 -95h21l110 98q8 8 16 10.5t19 2.5
h258q20 0 5 -13l-257 -220q-8 -8 -16 -10.5t-19 -2.5h-276q-20 0 -32 16z" />
    <glyph glyph-name="zcaron" unicode="&#x17e;" horiz-adv-x="1105" 
d="M152 776q-25 0 -20 24l48 255q2 8 5.5 12t14.5 4h864q25 0 20 -24l-41 -214q-6 -32 -26 -51l-533 -485h447q25 0 20 -24l-49 -257q-2 -8 -5.5 -12t-14.5 -4h-885q-25 0 -20 24l41 208q9 42 37 67l517 477h-420zM330 1529q-11 17 10 17h237q11 0 17 -3.5t11 -14.5l57 -125
h21l106 128q8 8 15 11.5t18 3.5h249q9 0 11 -4t-5 -10l-255 -269q-8 -8 -15.5 -11t-18.5 -3h-275q-11 0 -17.5 3.5t-12.5 13.5z" />
    <glyph glyph-name="florin" unicode="&#x192;" horiz-adv-x="817" 
d="M88 760q-20 4 -16 24l42 230q4 20 24 20h145l6 35q19 118 50 201t86.5 135t140.5 76t211 24q16 0 36 -1t40.5 -3.5t40 -5t33.5 -5.5q19 -4 15 -23l-48 -253q-4 -20 -24 -17q-20 2 -44.5 3.5t-44.5 1.5q-48 0 -77 -7t-46 -23t-25 -42.5t-14 -66.5l-5 -29h207q20 0 16 -20
l-49 -265q-4 -20 -24 -20h-198l-120 -771q-17 -105 -48 -182t-86.5 -127.5t-140.5 -75.5t-209 -25q-45 0 -94 4.5t-86 12.5q-21 4 -14 23l70 233q5 20 26 17q23 -3 50 -5t53 -2q41 0 67 6t42 21t24 39.5t14 60.5l121 771z" />
    <glyph glyph-name="uni01D3" unicode="&#x1d3;" horiz-adv-x="1489" 
d="M626 -31q-136 0 -242.5 28t-175 90t-93.5 161t1 241l178 966q4 20 24 20h310q20 0 16 -20l-162 -886q-14 -71 -10 -121t28 -81.5t70 -45.5t117 -14q68 0 119.5 14t88 45.5t60.5 81.5t37 121l164 886q4 20 24 20h308q20 0 16 -20l-178 -966q-28 -152 -88.5 -252.5
t-149.5 -160t-205.5 -83.5t-256.5 -24zM594 1933q-11 17 10 17h237q11 0 17 -3.5t11 -14.5l57 -125h21l106 128q8 8 15 11.5t18 3.5h249q9 0 11 -4t-5 -10l-255 -269q-8 -8 -15.5 -11t-18.5 -3h-275q-11 0 -17.5 3.5t-12.5 13.5z" />
    <glyph glyph-name="uni01D4" unicode="&#x1d4;" 
d="M517 -31q-155 0 -250 26t-141.5 84.5t-51 154t20.5 233.5l109 584q4 20 24 20h291q20 0 16 -20l-104 -562q-11 -63 -11.5 -105.5t14.5 -68.5t48 -37.5t90 -11.5q33 0 73 2.5t71 10.5l143 772q4 20 24 20h292q20 0 16 -20l-184 -997q-2 -11 -7 -16t-16 -8
q-44 -12 -101.5 -23t-120.5 -19.5t-126.5 -13.5t-118.5 -5zM406 1529q-11 17 10 17h237q11 0 17 -3.5t11 -14.5l57 -125h21l106 128q8 8 15 11.5t18 3.5h249q9 0 11 -4t-5 -10l-255 -269q-8 -8 -15.5 -11t-18.5 -3h-275q-11 0 -17.5 3.5t-12.5 13.5z" />
    <glyph glyph-name="circumflex" unicode="&#x2c6;" horiz-adv-x="764" 
d="M984 1266q11 -17 -10 -17h-237q-11 0 -17 3.5t-11 14.5l-57 125h-21l-106 -128q-8 -8 -15 -11.5t-18 -3.5h-249q-9 0 -11 4t5 10l255 269q8 8 15.5 11t18.5 3h275q11 0 17.5 -3.5t12.5 -13.5z" />
    <glyph glyph-name="caron" unicode="&#x2c7;" horiz-adv-x="764" 
d="M286 1529q-11 17 10 17h237q11 0 17 -3.5t11 -14.5l57 -125h21l106 128q8 8 15 11.5t18 3.5h249q9 0 11 -4t-5 -10l-255 -269q-8 -8 -15.5 -11t-18.5 -3h-275q-11 0 -17.5 3.5t-12.5 13.5z" />
    <glyph glyph-name="breve" unicode="&#x2d8;" horiz-adv-x="762" 
d="M607 1239q-94 0 -150 21t-84 58.5t-33 90.5t3 117q3 20 23 20h200q20 0 17 -20q-10 -66 3.5 -89.5t46.5 -23.5t55.5 23.5t36.5 89.5q4 20 24 20h202q20 0 17 -20q-14 -73 -36 -127t-62.5 -89.5t-104 -53t-158.5 -17.5z" />
    <glyph glyph-name="dotaccent" unicode="&#x2d9;" horiz-adv-x="764" 
d="M462 1219q-20 0 -16 20l54 287q4 21 24 22l298 37q20 1 16 -18l-60 -328q-4 -20 -24 -20h-292z" />
    <glyph glyph-name="ring" unicode="&#x2da;" horiz-adv-x="745" 
d="M676 1458q-18 0 -32.5 -2t-25 -9.5t-16.5 -21t-6 -36.5q0 -28 16.5 -34.5t42.5 -6.5q18 0 33 2t26 9.5t17 21t6 36.5q0 28 -17.5 34.5t-43.5 6.5zM614 1176q-121 0 -175 49.5t-54 132.5q0 57 17.5 107t55 86.5t97 57.5t143.5 21q119 0 173.5 -49.5t54.5 -134.5
q0 -58 -19 -107.5t-57.5 -85.5t-97 -56.5t-138.5 -20.5z" />
    <glyph glyph-name="ogonek" unicode="&#x2db;" horiz-adv-x="764" 
d="M346 -246q18 0 40 1t45 4q21 3 18 -17l-10 -122q-1 -20 -20 -25q-23 -5 -63.5 -10t-107.5 -5q-119 0 -178.5 34t-59.5 120q0 108 58 174.5t175 105.5q18 6 37 6h175q7 0 7.5 -2.5t-6.5 -4.5q-45 -19 -81.5 -45t-62 -55t-39 -59.5t-13.5 -58.5q0 -25 18.5 -33t67.5 -8z
" />
    <glyph glyph-name="tilde" unicode="&#x2dc;" horiz-adv-x="762" 
d="M510 1344q-9 0 -16 -2t-12.5 -10t-10.5 -23.5t-10 -42.5q-4 -20 -24 -20h-186q-21 0 -18 20q8 97 32.5 157.5t60.5 95t81.5 47t95.5 12.5q20 0 36.5 -2t34.5 -7t38.5 -15t48.5 -26q25 -15 42.5 -24.5t29.5 -15.5t19.5 -8.5t12.5 -2.5q9 0 16 2t12.5 10t10.5 23.5t10 42.5
q4 20 24 20h186q21 0 18 -20q-8 -97 -32.5 -157.5t-60.5 -95t-81.5 -47t-95.5 -12.5q-20 0 -36.5 2t-34.5 7t-38.5 15t-48.5 26q-50 29 -72 40t-32 11z" />
    <glyph glyph-name="hungarumlaut" unicode="&#x2dd;" horiz-adv-x="764" 
d="M643 1260q-21 0 -12 18l103 250q5 11 11 14.5t17 3.5h273q20 0 9 -17l-168 -252q-6 -10 -13 -13.5t-18 -3.5h-202zM269 1260q-20 0 -14 19l74 248q4 11 9.5 15t16.5 4h273q21 0 10 -17l-147 -252q-6 -10 -12.5 -13.5t-17.5 -3.5h-192z" />
    <glyph glyph-name="uni0300" unicode="&#x300;" horiz-adv-x="0" 
d="M-396 1270q-20 0 -32 16l-179 244q-13 16 8 16h304q11 0 17 -3.5t11 -14.5l113 -240q7 -18 -12 -18h-230z" />
    <glyph glyph-name="uni0301" unicode="&#x301;" horiz-adv-x="0" 
d="M-550 1270q-20 0 -7 16l197 244q8 9 15 12.5t18 3.5h335q20 0 5 -13l-275 -250q-8 -8 -16 -10.5t-19 -2.5h-253z" />
    <glyph glyph-name="uni0302" unicode="&#x302;" horiz-adv-x="0" 
d="M1 1266q11 -17 -10 -17h-237q-11 0 -17 3.5t-11 14.5l-57 125h-21l-106 -128q-8 -8 -15 -11.5t-18 -3.5h-249q-9 0 -11 4t5 10l255 269q8 8 15.5 11t18.5 3h275q11 0 17.5 -3.5t12.5 -13.5z" />
    <glyph glyph-name="uni0303" unicode="&#x303;" horiz-adv-x="0" 
d="M-472 1344q-9 0 -16 -2t-12.5 -10t-10.5 -23.5t-10 -42.5q-4 -20 -24 -20h-186q-21 0 -18 20q8 97 32.5 157.5t60.5 95t81.5 47t95.5 12.5q20 0 36.5 -2t34.5 -7t38.5 -15t48.5 -26q25 -15 42.5 -24.5t29.5 -15.5t19.5 -8.5t12.5 -2.5q9 0 16 2t12.5 10t10.5 23.5
t10 42.5q4 20 24 20h186q21 0 18 -20q-8 -97 -32.5 -157.5t-60.5 -95t-81.5 -47t-95.5 -12.5q-20 0 -36.5 2t-34.5 7t-38.5 15t-48.5 26q-50 29 -72 40t-32 11z" />
    <glyph glyph-name="uni0304" unicode="&#x304;" horiz-adv-x="0" 
d="M-645 1267q-20 0 -16 20l35 198q4 20 24 20h546q20 0 16 -20l-35 -198q-4 -20 -24 -20h-546z" />
    <glyph glyph-name="uni0306" unicode="&#x306;" horiz-adv-x="0" 
d="M-369 1239q-94 0 -150 21t-84 58.5t-33 90.5t3 117q3 20 23 20h200q20 0 17 -20q-10 -66 3.5 -89.5t46.5 -23.5t55.5 23.5t36.5 89.5q4 20 24 20h202q20 0 17 -20q-14 -73 -36 -127t-62.5 -89.5t-104 -53t-158.5 -17.5z" />
    <glyph glyph-name="uni0307" unicode="&#x307;" horiz-adv-x="0" 
d="M-520 1219q-20 0 -16 20l54 287q4 21 24 22l298 37q20 1 16 -18l-60 -328q-4 -20 -24 -20h-292z" />
    <glyph glyph-name="uni0308" unicode="&#x308;" horiz-adv-x="0" 
d="M-752 1219q-20 0 -16 20l54 287q4 21 24 22l287 37q20 1 16 -18l-59 -328q-4 -20 -24 -20h-282zM-299 1219q-20 0 -16 20l53 287q4 21 24 22l288 37q20 1 16 -18l-60 -328q-4 -20 -24 -20h-281z" />
    <glyph glyph-name="uni030A" unicode="&#x30a;" horiz-adv-x="0" 
d="M-322 1458q-18 0 -32.5 -2t-25 -9.5t-16.5 -21t-6 -36.5q0 -28 16.5 -34.5t42.5 -6.5q18 0 33 2t26 9.5t17 21t6 36.5q0 28 -17.5 34.5t-43.5 6.5zM-384 1176q-121 0 -175 49.5t-54 132.5q0 57 17.5 107t55 86.5t97 57.5t143.5 21q119 0 173.5 -49.5t54.5 -134.5
q0 -58 -19 -107.5t-57.5 -85.5t-97 -56.5t-138.5 -20.5z" />
    <glyph glyph-name="uni030B" unicode="&#x30b;" horiz-adv-x="0" 
d="M-277 1260q-21 0 -12 18l103 250q5 11 11 14.5t17 3.5h273q20 0 9 -17l-168 -252q-6 -10 -13 -13.5t-18 -3.5h-202zM-651 1260q-20 0 -14 19l74 248q4 11 9.5 15t16.5 4h273q21 0 10 -17l-147 -252q-6 -10 -12.5 -13.5t-17.5 -3.5h-192z" />
    <glyph glyph-name="uni030C" unicode="&#x30c;" horiz-adv-x="0" 
d="M-710 1529q-11 17 10 17h237q11 0 17 -3.5t11 -14.5l57 -125h21l106 128q8 8 15 11.5t18 3.5h249q9 0 11 -4t-5 -10l-255 -269q-8 -8 -15.5 -11t-18.5 -3h-275q-11 0 -17.5 3.5t-12.5 13.5z" />
    <glyph glyph-name="uni0327" unicode="&#x327;" horiz-adv-x="0" 
d="M-886 -389q-19 0 -8 16l203 255q12 16 32 16h221q21 0 8 -16l-181 -255q-12 -16 -32 -16h-243z" />
    <glyph glyph-name="uni0328" unicode="&#x328;" horiz-adv-x="0" 
d="M-467 -246q18 0 40 1t45 4q21 3 18 -17l-10 -122q-1 -20 -20 -25q-23 -5 -63.5 -10t-107.5 -5q-119 0 -178.5 34t-59.5 120q0 108 58 174.5t175 105.5q18 6 37 6h175q7 0 7.5 -2.5t-6.5 -4.5q-45 -19 -81.5 -45t-62 -55t-39 -59.5t-13.5 -58.5q0 -25 18.5 -33t67.5 -8z
" />
    <glyph glyph-name="uni037E" unicode="&#x37e;" horiz-adv-x="628" 
d="M-54 -266q-20 0 -14 19l176 568q4 11 9.5 15t16.5 6l339 35q19 1 12 -16l-265 -609q-5 -11 -11 -14.5t-17 -3.5h-246zM195 676q-20 0 -16 20l55 300q4 21 24 22l298 35q20 1 16 -18l-61 -339q-4 -20 -24 -20h-292z" />
    <glyph glyph-name="tonos" unicode="&#x384;" horiz-adv-x="778" 
d="M406 1219q-20 0 -17 20l52 343q3 20 23 20h299q21 0 12 -19l-139 -345q-5 -11 -11 -15t-17 -4h-202z" />
    <glyph glyph-name="dieresistonos" unicode="&#x385;" horiz-adv-x="778" 
d="M242 1219q-20 0 -16 20l39 216q4 21 24 22l290 37q20 1 16 -18l-47 -257q-4 -20 -24 -20h-282zM699 1219q-20 0 -16 20l39 216q4 21 24 22l289 37q20 1 16 -18l-47 -257q-4 -20 -24 -20h-281zM577 1557q-20 0 -12 18l123 282q5 11 11 14.5t17 3.5h319q20 0 7 -16
l-230 -286q-13 -16 -33 -16h-202z" />
    <glyph glyph-name="Alphatonos" unicode="&#x386;" horiz-adv-x="1353" 
d="M-88 0q-20 0 -11 18l693 1439q5 11 11.5 14.5t17.5 3.5h441q21 0 22 -20l162 -1435q1 -20 -18 -20h-345q-20 0 -21 20l-16 220h-466l-99 -222q-5 -11 -11 -14.5t-17 -3.5h-343zM784 1135l-264 -588h307zM12 1093q-20 0 -17 20l52 343q3 20 23 20h299q21 0 12 -19
l-139 -345q-5 -11 -11 -15t-17 -4h-202z" />
    <glyph glyph-name="Epsilontonos" unicode="&#x388;" horiz-adv-x="1203" 
d="M54 0q-20 0 -16 20l264 1435q4 20 24 20h919q20 0 16 -20l-54 -288q-4 -20 -24 -20h-586l-45 -242h443q20 0 16 -20l-54 -287q-4 -20 -24 -20h-442l-46 -250h587q20 0 16 -20l-54 -288q-4 -20 -24 -20h-916zM-144 1093q-20 0 -17 20l52 343q3 20 23 20h299q21 0 12 -19
l-139 -345q-5 -11 -11 -15t-17 -4h-202z" />
    <glyph glyph-name="Etatonos" unicode="&#x389;" horiz-adv-x="1762" 
d="M303 0q-20 0 -16 20l264 1435q4 20 24 20h310q20 0 16 -20l-100 -550h510l102 550q4 20 24 20h311q20 0 16 -20l-267 -1435q-4 -20 -24 -20h-310q-20 0 -16 20l104 557h-512l-102 -557q-4 -20 -24 -20h-310zM105 1093q-20 0 -17 20l52 343q3 20 23 20h299q21 0 12 -19
l-139 -345q-5 -11 -11 -15t-17 -4h-202z" />
    <glyph glyph-name="Iotatonos" unicode="&#x38a;" horiz-adv-x="890" 
d="M293 0q-20 0 -16 20l264 1435q4 20 24 20h310q20 0 16 -20l-264 -1435q-4 -20 -24 -20h-310zM105 1093q-20 0 -17 20l52 343q3 20 23 20h299q21 0 12 -19l-139 -345q-5 -11 -11 -15t-17 -4h-202z" />
    <glyph glyph-name="Omicrontonos" unicode="&#x38c;" horiz-adv-x="1654" 
d="M813 -31q-148 0 -256 41.5t-172 126.5t-81 215.5t17 309.5l29 153q26 138 63 243t85.5 181.5t109 127.5t135 81.5t163 43.5t192.5 13q148 0 256 -41.5t172 -126.5t81 -215.5t-16 -308.5l-29 -154q-39 -208 -102.5 -341.5t-155 -211t-213.5 -107.5t-278 -30zM1032 1157
q-67 0 -120.5 -16.5t-94.5 -55t-70 -102.5t-47 -158l-30 -174q-18 -95 -16 -159t26.5 -103t73 -55.5t122.5 -16.5q68 0 122.5 16.5t95.5 55.5t70 103t46 159l33 172q18 94 15.5 158t-28 103t-74.5 56t-124 17zM116 1093q-20 0 -17 20l52 343q3 20 23 20h299q21 0 12 -19
l-139 -345q-5 -11 -11 -15t-17 -4h-202z" />
    <glyph glyph-name="Upsilontonos" unicode="&#x38e;" horiz-adv-x="1692" 
d="M792 0q-20 0 -16 20l84 463l-281 973q-6 19 14 19h344q20 0 24 -19l135 -588l353 590q6 10 12.5 13.5t17.5 3.5h364q20 0 9 -17l-641 -973l-85 -465q-4 -20 -24 -20h-310zM131 1093q-20 0 -17 20l52 343q3 20 23 20h299q21 0 12 -19l-139 -345q-5 -11 -11 -15t-17 -4
h-202z" />
    <glyph glyph-name="Omegatonos" unicode="&#x38f;" horiz-adv-x="1675" 
d="M290 0q-20 0 -16 20l49 269q4 20 24 20h171l4 19q-49 34 -82 81.5t-49.5 111.5t-16 146t19.5 187l9 49q31 166 93.5 281t153.5 186.5t209.5 103t261.5 31.5q144 0 251 -35.5t173 -109.5t87 -187.5t-7 -269.5l-9 -49q-20 -108 -49.5 -191t-69.5 -146t-91 -109t-112 -80
l-4 -19h170q20 0 16 -20l-49 -269q-4 -20 -24 -20h-476q-20 0 -16 20l71 387q2 12 6.5 18.5t15.5 11.5q46 23 86.5 56.5t73.5 81t57.5 109t39.5 139.5l11 60q25 137 -26.5 206.5t-184.5 69.5q-130 0 -208 -69.5t-103 -206.5l-11 -60q-15 -78 -13.5 -139t16.5 -108t42 -81
t64 -57q17 -11 13 -31l-71 -387q-4 -20 -24 -20h-476zM114 1093q-20 0 -17 20l52 343q3 20 23 20h299q21 0 12 -19l-139 -345q-5 -11 -11 -15t-17 -4h-202z" />
    <glyph glyph-name="iotadieresistonos" unicode="&#x390;" horiz-adv-x="629" 
d="M334 -31q-111 0 -173.5 22.5t-89.5 68.5t-25 117t20 169l131 705q4 20 24 20h292q20 0 16 -20l-131 -705q-11 -56 -7.5 -76t34.5 -20h21.5t22.5 1q20 1 19 -19l-9 -231q-1 -11 -5.5 -16t-15.5 -7q-29 -5 -63.5 -7t-60.5 -2zM16 1219q-20 0 -16 20l39 216q4 21 24 22
l290 37q20 1 16 -18l-47 -257q-4 -20 -24 -20h-282zM473 1219q-20 0 -16 20l39 216q4 21 24 22l289 37q20 1 16 -18l-47 -257q-4 -20 -24 -20h-281zM351 1557q-20 0 -12 18l123 282q5 11 11 14.5t17 3.5h319q20 0 7 -16l-230 -286q-13 -16 -33 -16h-202z" />
    <glyph glyph-name="Alpha" unicode="&#x391;" horiz-adv-x="1353" 
d="M-88 0q-20 0 -11 18l693 1439q5 11 11.5 14.5t17.5 3.5h441q21 0 22 -20l162 -1435q1 -20 -18 -20h-345q-20 0 -21 20l-16 220h-466l-99 -222q-5 -11 -11 -14.5t-17 -3.5h-343zM784 1135l-264 -588h307z" />
    <glyph glyph-name="Beta" unicode="&#x392;" horiz-adv-x="1353" 
d="M437 -18q-34 0 -79.5 1t-96.5 3t-104.5 4.5t-104.5 6.5q-20 1 -16 21l266 1437q4 20 24 21q43 3 95 5.5t107 5t109 3.5t101 1q177 0 294 -20.5t183 -66t84.5 -118t-2.5 -176.5l-2 -10q-20 -100 -64.5 -164t-110.5 -106q38 -25 68 -59t48 -78.5t23.5 -98t-5.5 -117.5
l-6 -35q-18 -106 -53 -181.5t-86.5 -127t-119.5 -81.5t-152 -45.5t-184 -20t-216 -4.5zM896 451q9 44 1.5 71.5t-28 43t-53.5 21t-76 5.5h-248l-55 -295q13 -1 31 -2h37q19 -1 35.5 -1.5t25.5 -0.5q87 0 146 4.5t96.5 18.5t56.5 41.5t27 72.5zM757 1180q-41 0 -75 -0.5
t-81 -3.5l-53 -283h226q26 1 50 7t44 20t35 37.5t23 59.5l7 29q8 44 0 71t-30.5 41t-59.5 18t-86 4z" />
    <glyph glyph-name="Gamma" unicode="&#x393;" horiz-adv-x="1124" 
d="M53 0q-20 0 -16 20l268 1435q4 20 24 20h896q20 0 16 -20l-53 -288q-4 -20 -24 -20h-569l-208 -1127q-4 -20 -24 -20h-310z" />
    <glyph glyph-name="Delta" unicode="&#x394;" horiz-adv-x="1390" 
d="M-44 0q-20 0 -16 20l47 257q5 22 13 38l611 1142q5 11 11.5 14.5t17.5 3.5h441q20 0 23 -20l185 -1138q3 -21 -1 -40l-47 -257q-4 -20 -24 -20h-1261zM358 307h579l-136 828z" />
    <glyph glyph-name="Delta" unicode="&#x2206;" horiz-adv-x="1390" 
d="M-44 0q-20 0 -16 20l47 257q5 22 13 38l611 1142q5 11 11.5 14.5t17.5 3.5h441q20 0 23 -20l185 -1138q3 -21 -1 -40l-47 -257q-4 -20 -24 -20h-1261zM358 307h579l-136 828z" />
    <glyph glyph-name="Epsilon" unicode="&#x395;" horiz-adv-x="1203" 
d="M54 0q-20 0 -16 20l264 1435q4 20 24 20h919q20 0 16 -20l-54 -288q-4 -20 -24 -20h-586l-45 -242h443q20 0 16 -20l-54 -287q-4 -20 -24 -20h-442l-46 -250h587q20 0 16 -20l-54 -288q-4 -20 -24 -20h-916z" />
    <glyph glyph-name="Zeta" unicode="&#x396;" horiz-adv-x="1251" 
d="M-14 0q-20 0 -16 20l50 267q4 20 18 35l786 847h-590q-20 0 -16 20l47 266q4 20 24 20h999q20 0 16 -20l-48 -266q-4 -20 -18 -35l-786 -847h631q20 0 16 -20l-50 -267q-4 -20 -24 -20h-1039z" />
    <glyph glyph-name="Eta" unicode="&#x397;" horiz-adv-x="1513" 
d="M54 0q-20 0 -16 20l264 1435q4 20 24 20h310q20 0 16 -20l-100 -550h510l102 550q4 20 24 20h311q20 0 16 -20l-267 -1435q-4 -20 -24 -20h-310q-20 0 -16 20l104 557h-512l-102 -557q-4 -20 -24 -20h-310z" />
    <glyph glyph-name="Theta" unicode="&#x398;" horiz-adv-x="1436" 
d="M566 577q-20 0 -16 20l54 288q4 20 24 20h284q20 0 16 -20l-54 -288q-4 -20 -24 -20h-284zM595 -31q-148 0 -256 41.5t-172 126.5t-81 215.5t17 309.5l29 153q26 138 63 243t85.5 181.5t109 127.5t135 81.5t163 43.5t192.5 13q148 0 256 -41.5t172 -126.5t81 -215.5
t-16 -308.5l-29 -154q-39 -208 -102.5 -341.5t-155 -211t-213.5 -107.5t-278 -30zM814 1157q-67 0 -120.5 -16.5t-94.5 -55t-70 -102.5t-47 -158l-30 -174q-18 -95 -16 -159t26.5 -103t73 -55.5t122.5 -16.5q68 0 122.5 16.5t95.5 55.5t70 103t46 159l33 172q18 94 15.5 158
t-28 103t-74.5 56t-124 17z" />
    <glyph glyph-name="Iota" unicode="&#x399;" horiz-adv-x="651" 
d="M54 0q-20 0 -16 20l264 1435q4 20 24 20h310q20 0 16 -20l-264 -1435q-4 -20 -24 -20h-310z" />
    <glyph glyph-name="Kappa" unicode="&#x39a;" horiz-adv-x="1378" 
d="M821 0q-11 0 -17 3.5t-11 14.5l-224 513l-126 -119l-72 -392q-4 -20 -24 -20h-311q-20 0 -16 20l264 1435q4 20 24 20h311q20 0 16 -20l-96 -519l541 525q14 14 34 14h439q9 0 10.5 -4t-5.5 -10l-700 -658l380 -785q9 -18 -11 -18h-406z" />
    <glyph glyph-name="Lambda" unicode="&#x39b;" horiz-adv-x="1353" 
d="M-88 0q-20 0 -11 18l693 1439q5 11 11.5 14.5t17.5 3.5h441q21 0 22 -20l162 -1435q1 -20 -18 -20h-345q-20 0 -21 20l-79 1115l-502 -1117q-5 -11 -11 -14.5t-17 -3.5h-343z" />
    <glyph glyph-name="Mu" unicode="&#x39c;" horiz-adv-x="1717" 
d="M54 0q-20 0 -16 20l264 1435q4 20 24 20h361q20 0 27 -19l163 -457q5 -14 8.5 -29t5.5 -28t3 -21.5t1 -9.5q0 1 4.5 9.5t11 21t16 27.5t20.5 30l332 460q12 16 32 16h392q20 0 16 -20l-266 -1435q-4 -20 -24 -20h-312q-20 0 -16 20l164 883l10 72q-2 -1 -13.5 -24.5
t-27.5 -49.5l-270 -401q-6 -10 -13 -13.5t-18 -3.5h-205q-11 0 -16.5 4t-9.5 15l-119 389q-5 15 -8 30t-4.5 27t-2.5 19.5t-2 7.5l-16 -84l-162 -871q-4 -20 -24 -20h-310z" />
    <glyph glyph-name="Nu" unicode="&#x39d;" horiz-adv-x="1513" 
d="M54 0q-20 0 -16 20l264 1435q4 20 24 20h343q20 0 27 -19l284 -749q7 -19 11.5 -36t8 -30t5 -21t2.5 -8l157 843q4 20 24 20h311q20 0 16 -20l-267 -1435q-4 -20 -24 -20h-343q-20 0 -27 19l-282 745q-17 45 -20.5 72.5t-5.5 27.5l-158 -844q-4 -20 -24 -20h-310z" />
    <glyph glyph-name="Xi" unicode="&#x39e;" horiz-adv-x="1169" 
d="M252 578q-20 0 -16 20l53 287q4 20 24 20h645q20 0 16 -20l-53 -287q-4 -20 -24 -20h-645zM1171 1167q-4 -20 -24 -20h-933q-20 0 -16 20l52 288q4 20 24 20h933q20 0 16 -20zM38 308q4 20 24 20h933q20 0 16 -20l-53 -288q-4 -20 -24 -20h-933q-20 0 -16 20z" />
    <glyph glyph-name="Omicron" unicode="&#x39f;" horiz-adv-x="1436" 
d="M595 -31q-148 0 -256 41.5t-172 126.5t-81 215.5t17 309.5l29 153q26 138 63 243t85.5 181.5t109 127.5t135 81.5t163 43.5t192.5 13q148 0 256 -41.5t172 -126.5t81 -215.5t-16 -308.5l-29 -154q-39 -208 -102.5 -341.5t-155 -211t-213.5 -107.5t-278 -30zM814 1157
q-67 0 -120.5 -16.5t-94.5 -55t-70 -102.5t-47 -158l-30 -174q-18 -95 -16 -159t26.5 -103t73 -55.5t122.5 -16.5q68 0 122.5 16.5t95.5 55.5t70 103t46 159l33 172q18 94 15.5 158t-28 103t-74.5 56t-124 17z" />
    <glyph glyph-name="Pi" unicode="&#x3a0;" horiz-adv-x="1510" 
d="M54 0q-20 0 -16 20l265 1435q4 20 24 20h1169q20 0 16 -20l-265 -1435q-4 -20 -24 -20h-310q-20 0 -16 20l208 1127h-508l-208 -1127q-4 -20 -24 -20h-311z" />
    <glyph glyph-name="Rho" unicode="&#x3a1;" horiz-adv-x="1361" 
d="M755 1180q-34 0 -77 -1.5t-77 -4.5l-65 -357q16 -2 35.5 -3t39.5 -1.5t39.5 -1t36.5 -0.5q91 0 148.5 5t92.5 21.5t52.5 46t26.5 79.5l12 65q8 49 2 79t-35 46t-85 21.5t-146 5.5zM54 0q-20 0 -16 20l266 1437q4 20 24 21q60 3 125.5 5.5t129 4t121.5 2.5t104 1
q187 0 307.5 -22t186 -73t81 -134.5t-7.5 -206.5l-22 -119q-18 -93 -41 -161.5t-59.5 -117t-88.5 -79t-127.5 -48t-177 -24t-235.5 -6.5h-36.5h-40.5t-39 0.5t-32 1.5l-88 -482q-4 -20 -24 -20h-310z" />
    <glyph glyph-name="Sigma" unicode="&#x3a3;" horiz-adv-x="1272" 
d="M-8 0q-20 0 -16 20l49 267q4 21 19 33l473 428l-317 403q-12 16 -8 36l49 268q4 20 24 20h1058q20 0 16 -20l-53 -288q-4 -20 -24 -20h-630l308 -392q12 -16 -3 -29l-438 -398h612q20 0 16 -20l-53 -288q-4 -20 -24 -20h-1058z" />
    <glyph glyph-name="Tau" unicode="&#x3a4;" horiz-adv-x="1201" 
d="M324 0q-20 0 -16 20l209 1127h-373q-20 0 -16 20l53 288q4 20 24 20h1095q20 0 16 -20l-53 -288q-4 -20 -24 -20h-372l-209 -1127q-4 -20 -24 -20h-310z" />
    <glyph glyph-name="Upsilon" unicode="&#x3a5;" horiz-adv-x="1246" 
d="M347 0q-20 0 -16 20l84 463l-281 973q-6 19 14 19h344q20 0 24 -19l135 -588l353 590q6 10 12.5 13.5t17.5 3.5h364q20 0 9 -17l-641 -973l-85 -465q-4 -20 -24 -20h-310z" />
    <glyph glyph-name="Phi" unicode="&#x3a6;" horiz-adv-x="1556" 
d="M516 163q-130 15 -224.5 55.5t-151 109t-73.5 166.5t9 229l6 31q27 137 75.5 237t125.5 167.5t187 105t260 50.5l26 141q4 20 24 20h311q20 0 16 -20l-27 -144q130 -15 224 -55.5t150.5 -109t73 -166.5t-8.5 -228l-6 -31q-27 -138 -75 -238.5t-125.5 -168t-187 -105
t-258.5 -49.5l-26 -140q-4 -20 -24 -20h-311q-20 0 -16 20zM670 988q-60 -12 -101.5 -34t-68.5 -51.5t-42.5 -67t-24.5 -81.5l-7 -32q-9 -41 -7 -77t18.5 -66.5t50.5 -53.5t89 -37zM1169 752q8 40 5.5 76.5t-20 66.5t-50 53t-84.5 37l-93 -498q58 13 98.5 35t68 52t44 67
t25.5 81z" />
    <glyph glyph-name="Chi" unicode="&#x3a7;" horiz-adv-x="1361" 
d="M864 0q-20 0 -27 19l-163 464l-338 -467q-12 -16 -32 -16h-398q-20 0 -7 16l578 722l-310 719q-8 18 12 18h358q20 0 27 -19l166 -450l335 453q12 16 32 16h398q20 0 7 -16l-577 -719l309 -722q7 -18 -12 -18h-358z" />
    <glyph glyph-name="Psi" unicode="&#x3a8;" horiz-adv-x="1531" 
d="M484 0q-20 0 -16 20l81 443q-110 15 -198.5 52t-145.5 100t-78.5 153.5t1.5 212.5l87 474q4 20 24 20h310q20 0 16 -20l-74 -404q-19 -100 7.5 -157t116.5 -79l118 640q4 20 24 20h311q20 0 16 -20l-118 -641q49 11 85.5 30.5t62.5 49t42.5 68.5t25.5 89l74 404
q4 20 24 20h310q20 0 16 -20l-87 -474q-23 -125 -76 -216.5t-132.5 -154.5t-183 -99.5t-227.5 -49.5l-81 -441q-4 -20 -24 -20h-311z" />
    <glyph glyph-name="Omega" unicode="&#x3a9;" horiz-adv-x="1424" 
d="M39 0q-20 0 -16 20l49 269q4 20 24 20h171l4 19q-49 34 -82 81.5t-49.5 111.5t-16 146t19.5 187l9 49q31 166 93.5 281t153.5 186.5t209.5 103t261.5 31.5q144 0 251 -35.5t173 -109.5t87 -187.5t-7 -269.5l-9 -49q-20 -108 -49.5 -191t-69.5 -146t-91 -109t-112 -80
l-4 -19h170q20 0 16 -20l-49 -269q-4 -20 -24 -20h-476q-20 0 -16 20l71 387q2 12 6.5 18.5t15.5 11.5q46 23 86.5 56.5t73.5 81t57.5 109t39.5 139.5l11 60q25 137 -26.5 206.5t-184.5 69.5q-130 0 -208 -69.5t-103 -206.5l-11 -60q-15 -78 -13.5 -139t16.5 -108t42 -81
t64 -57q17 -11 13 -31l-71 -387q-4 -20 -24 -20h-476z" />
    <glyph glyph-name="Omega" unicode="&#x2126;" horiz-adv-x="1424" 
d="M39 0q-20 0 -16 20l49 269q4 20 24 20h171l4 19q-49 34 -82 81.5t-49.5 111.5t-16 146t19.5 187l9 49q31 166 93.5 281t153.5 186.5t209.5 103t261.5 31.5q144 0 251 -35.5t173 -109.5t87 -187.5t-7 -269.5l-9 -49q-20 -108 -49.5 -191t-69.5 -146t-91 -109t-112 -80
l-4 -19h170q20 0 16 -20l-49 -269q-4 -20 -24 -20h-476q-20 0 -16 20l71 387q2 12 6.5 18.5t15.5 11.5q46 23 86.5 56.5t73.5 81t57.5 109t39.5 139.5l11 60q25 137 -26.5 206.5t-184.5 69.5q-130 0 -208 -69.5t-103 -206.5l-11 -60q-15 -78 -13.5 -139t16.5 -108t42 -81
t64 -57q17 -11 13 -31l-71 -387q-4 -20 -24 -20h-476z" />
    <glyph glyph-name="Iotadieresis" unicode="&#x3aa;" horiz-adv-x="652" 
d="M55 0q-20 0 -16 20l264 1435q4 20 24 20h310q20 0 16 -20l-264 -1435q-4 -20 -24 -20h-310zM150 1597q-20 0 -16 20l39 216q4 21 24 22l290 37q20 1 16 -18l-48 -257q-4 -20 -24 -20h-281zM602 1597q-20 0 -16 20l40 216q4 21 24 22l289 37q20 1 16 -18l-47 -257
q-4 -20 -24 -20h-282z" />
    <glyph glyph-name="Upsilondieresis" unicode="&#x3ab;" horiz-adv-x="1247" 
d="M347 0q-20 0 -16 20l84 463l-281 973q-6 19 14 19h344q20 0 24 -19l135 -588l353 590q6 10 12.5 13.5t17.5 3.5h364q20 0 9 -17l-641 -973l-85 -465q-4 -20 -24 -20h-310zM420 1597q-20 0 -16 20l39 216q4 21 24 22l290 37q20 1 16 -18l-48 -257q-4 -20 -24 -20h-281z
M872 1597q-20 0 -16 20l40 216q4 21 24 22l289 37q20 1 16 -18l-47 -257q-4 -20 -24 -20h-282z" />
    <glyph glyph-name="alphatonos" unicode="&#x3ac;" horiz-adv-x="1273" 
d="M1090 -22q-29 -5 -63.5 -7t-60.5 -2q-82 0 -134.5 17t-82.5 48q-35 -14 -74.5 -26t-79.5 -20.5t-77 -13.5t-66 -5q-133 0 -220.5 25t-135 82t-56 149t16.5 227l30 162q25 135 69 228t108 150.5t146.5 83t184.5 25.5q81 0 151 -24t118 -62l42 60q12 16 32 16h231
q20 0 16 -20l-134 -725q-11 -56 -6.5 -76t33.5 -20h23q20 1 19 -18l-9 -231q-1 -11 -5.5 -16t-15.5 -7zM633 810q-61 0 -100.5 -11.5t-65 -39t-40.5 -72.5t-28 -112l-14 -80q-13 -69 -16 -116t10 -75.5t44 -41t85 -12.5q24 0 50.5 1.5t53 4.5t51 7.5t44.5 9.5q5 37 12 73
l82 444q-38 10 -76 15t-92 5zM573 1219q-20 0 -17 20l52 343q3 20 23 20h299q21 0 12 -19l-139 -345q-5 -11 -11 -15t-17 -4h-202z" />
    <glyph glyph-name="epsilontonos" unicode="&#x3ad;" horiz-adv-x="997" 
d="M451 -31q-129 0 -219 15t-143 52t-70 97.5t0 152.5q11 59 35.5 102t58 74.5t75.5 53.5t88 40q-46 15 -81 37t-56 53t-27.5 73t4.5 97q14 70 49.5 123t98.5 89t158.5 54t229.5 18q96 0 180.5 -6.5t148.5 -18.5q20 -4 15 -23l-66 -261q-5 -20 -25 -19q-63 5 -130.5 7
t-136.5 2q-61 0 -95.5 -4t-52.5 -11.5t-23.5 -17.5t-7.5 -22q-2 -14 -2 -25t12 -19t39.5 -12.5t80.5 -4.5h148q20 0 16 -20l-42 -211q-4 -20 -24 -20h-123q-58 0 -92 -2.5t-52 -9.5t-24 -19t-9 -31t1.5 -31t21 -19t46 -9.5t76.5 -2.5h70t77 1t76.5 2t68.5 3q19 1 18 -18
l-32 -258q-1 -20 -22 -24q-67 -13 -154.5 -20t-182.5 -7zM540 1219q-20 0 -17 20l52 343q3 20 23 20h299q21 0 12 -19l-139 -345q-5 -11 -11 -15t-17 -4h-202z" />
    <glyph glyph-name="etatonos" unicode="&#x3ae;" horiz-adv-x="1241" 
d="M616 -453q-20 0 -16 20l185 996q10 55 11.5 96t-13 68t-48 40t-93.5 13q-37 0 -82.5 -7.5t-81.5 -19.5l-135 -733q-4 -20 -24 -20h-292q-20 0 -16 20l194 1050q4 20 24 20h230q20 0 27 -19l19 -53q33 18 72.5 33t82 26t86.5 17t86 6q94 0 161.5 -25t105.5 -81.5
t45.5 -148t-17.5 -224.5l-195 -1054q-4 -20 -24 -20h-292zM632 1219q-20 0 -17 20l52 343q3 20 23 20h299q21 0 12 -19l-139 -345q-5 -11 -11 -15t-17 -4h-202z" />
    <glyph glyph-name="iotatonos" unicode="&#x3af;" horiz-adv-x="630" 
d="M333 -31q-111 0 -173.5 22.5t-89.5 68.5t-25 117t20 169l131 705q4 20 24 20h292q20 0 16 -20l-131 -705q-11 -56 -7.5 -76t34.5 -20h21.5t22.5 1q20 1 19 -19l-9 -231q-1 -11 -5.5 -16t-15.5 -7q-29 -5 -63.5 -7t-60.5 -2zM282 1219q-20 0 -17 20l52 343q3 20 23 20h299
q21 0 12 -19l-139 -345q-5 -11 -11 -15t-17 -4h-202z" />
    <glyph glyph-name="upsilondieresistonos" unicode="&#x3b0;" horiz-adv-x="1217" 
d="M507 -31q-140 0 -232.5 32.5t-142.5 99t-60 168t16 239.5l101 543q4 20 24 20h290q20 0 16 -20l-99 -533q-14 -79 -14.5 -131t15 -82.5t49.5 -42.5t89 -12q54 0 92.5 12t65.5 41.5t45 79.5t32 127l4 25q13 72 20 118t6.5 75t-9.5 45t-27 28q-17 11 -10 30l82 252
q4 11 9.5 14.5t16.5 1.5q70 -11 117.5 -38t78 -66t45 -87.5t18 -102t-2.5 -111t-16 -114.5l-13 -67q-32 -162 -79 -267.5t-119 -167t-172 -85.5t-236 -24zM344 1219q-20 0 -16 20l39 216q4 21 24 22l290 37q20 1 16 -18l-47 -257q-4 -20 -24 -20h-282zM801 1219
q-20 0 -16 20l39 216q4 21 24 22l289 37q20 1 16 -18l-47 -257q-4 -20 -24 -20h-281zM679 1557q-20 0 -12 18l123 282q5 11 11 14.5t17 3.5h319q20 0 7 -16l-230 -286q-13 -16 -33 -16h-202z" />
    <glyph glyph-name="alpha" unicode="&#x3b1;" horiz-adv-x="1273" 
d="M1090 -22q-29 -5 -63.5 -7t-60.5 -2q-82 0 -134.5 17t-82.5 48q-35 -14 -74.5 -26t-79.5 -20.5t-77 -13.5t-66 -5q-133 0 -220.5 25t-135 82t-56 149t16.5 227l30 162q25 135 69 228t108 150.5t146.5 83t184.5 25.5q81 0 151 -24t118 -62l42 60q12 16 32 16h231
q20 0 16 -20l-134 -725q-11 -56 -6.5 -76t33.5 -20h23q20 1 19 -18l-9 -231q-1 -11 -5.5 -16t-15.5 -7zM633 810q-61 0 -100.5 -11.5t-65 -39t-40.5 -72.5t-28 -112l-14 -80q-13 -69 -16 -116t10 -75.5t44 -41t85 -12.5q24 0 50.5 1.5t53 4.5t51 7.5t44.5 9.5q5 37 12 73
l82 444q-38 10 -76 15t-92 5z" />
    <glyph glyph-name="beta" unicode="&#x3b2;" horiz-adv-x="1267" 
d="M-56 -453q-20 0 -16 20l278 1504q31 168 82 278t127 175t178 91.5t236 26.5q138 0 230 -37t143 -98.5t65 -142t-3 -167.5l-6 -30q-12 -58 -31 -111.5t-52.5 -97t-85 -75t-127.5 -46.5q72 -17 117 -51.5t67 -82.5t24 -108t-12 -127l-6 -29q-28 -136 -72.5 -226.5
t-114 -144.5t-168.5 -76.5t-236 -22.5q-23 0 -51.5 1t-58.5 3t-59.5 4.5t-54.5 6.5l-77 -417q-4 -20 -24 -20h-292zM771 1329q-59 0 -98 -15t-65 -46.5t-41.5 -80.5t-28.5 -116l-148 -801q17 -2 35.5 -4t39.5 -3t47 -1.5t58 -0.5q42 0 78.5 9t66 30t50.5 55t30 84l9 47
q7 41 7.5 76.5t-10.5 61.5t-36.5 40.5t-69.5 14.5h-17q-16 0 -13 15l54 292q1 11 14 11h13q40 0 68 11t46.5 31t29 46.5t16.5 58.5l4 20q8 46 3 77.5t-23 51t-48 28t-71 8.5z" />
    <glyph glyph-name="gamma" unicode="&#x3b3;" horiz-adv-x="1173" 
d="M269 -453q-20 0 -16 20l80 433l-141 744q-6 32 -25 45.5t-52 13.5h-10t-11 -1q-18 -3 -17 16l11 251q1 20 21 23t48 5.5t62 2.5q82 0 134.5 -14t85 -46t49 -83.5t25.5 -126.5l50 -440l299 663q5 11 11 14.5t17 3.5h342q20 0 10 -18l-577 -1053l-80 -433q-4 -20 -24 -20
h-292z" />
    <glyph glyph-name="delta" unicode="&#x3b4;" horiz-adv-x="1162" 
d="M460 -33q-138 0 -227.5 36t-136.5 107t-55 176.5t18 243.5l10 54q17 91 50.5 163.5t81.5 128t109.5 94.5t135.5 65q-35 21 -60.5 41.5t-41.5 44t-23.5 53t-7.5 69.5q0 93 15.5 158t51 109t94.5 69.5t145 38.5t202 17t267 4q20 0 16 -20l-42 -226q-4 -20 -24 -20
q-94 0 -159.5 -0.5t-110 -3t-70 -6.5t-39 -11t-17 -16.5t-3.5 -23.5q0 -12 7.5 -24t28 -26.5t57.5 -34t96 -47.5q79 -38 135 -90.5t87.5 -123.5t37.5 -161.5t-15 -204.5l-13 -70q-29 -153 -74.5 -260.5t-117 -174.5t-171.5 -97.5t-237 -30.5zM750 580q11 61 11 108
t-9.5 83.5t-29 65.5t-47.5 53q-68 -18 -118 -51t-85 -75.5t-56 -92t-30 -99.5l-6 -30q-15 -80 -17 -136t12 -90.5t46.5 -50t86.5 -15.5q50 0 87.5 15t65.5 49.5t48 90.5t35 139z" />
    <glyph glyph-name="epsilon" unicode="&#x3b5;" horiz-adv-x="998" 
d="M451 -31q-129 0 -219 15t-143 52t-70 97.5t0 152.5q11 59 35.5 102t58 74.5t75.5 53.5t88 40q-46 15 -81 37t-56 53t-27.5 73t4.5 97q14 70 49.5 123t98.5 89t158.5 54t229.5 18q96 0 180.5 -6.5t148.5 -18.5q20 -4 15 -23l-66 -261q-5 -20 -25 -19q-63 5 -130.5 7
t-136.5 2q-61 0 -95.5 -4t-52.5 -11.5t-23.5 -17.5t-7.5 -22q-2 -14 -2 -25t12 -19t39.5 -12.5t80.5 -4.5h148q20 0 16 -20l-42 -211q-4 -20 -24 -20h-123q-58 0 -92 -2.5t-52 -9.5t-24 -19t-9 -31t1.5 -31t21 -19t46 -9.5t76.5 -2.5h70t77 1t76.5 2t68.5 3q19 1 18 -18
l-32 -258q-1 -20 -22 -24q-67 -13 -154.5 -20t-182.5 -7z" />
    <glyph glyph-name="zeta" unicode="&#x3b6;" horiz-adv-x="932" 
d="M207 1308q-20 0 -16 20l46 254q4 20 24 20h773q20 0 16 -20l-46 -254q-4 -20 -20 -32q-79 -61 -154.5 -129.5t-142 -140.5t-122.5 -145t-96.5 -142.5t-63 -134t-22.5 -118.5q0 -33 8 -55t25 -39t42 -31t60 -30q90 -42 147.5 -75.5t90.5 -67t45.5 -71.5t12.5 -88
q0 -126 -40 -208.5t-111 -134t-168 -79.5t-211 -45q-20 -3 -19 17l10 247q1 20 21 24q56 12 92.5 23t58 23t30 26.5t8.5 34.5q0 10 -5 18t-18 16t-35.5 17.5t-56.5 23.5q-102 44 -168.5 85.5t-105.5 84t-54.5 89t-15.5 101.5q0 91 35.5 204t106 234t175.5 244t244 234h-380z
" />
    <glyph glyph-name="eta" unicode="&#x3b7;" horiz-adv-x="1242" 
d="M616 -453q-20 0 -16 20l185 996q10 55 11.5 96t-13 68t-48 40t-93.5 13q-37 0 -82.5 -7.5t-81.5 -19.5l-135 -733q-4 -20 -24 -20h-292q-20 0 -16 20l194 1050q4 20 24 20h230q20 0 27 -19l19 -53q33 18 72.5 33t82 26t86.5 17t86 6q94 0 161.5 -25t105.5 -81.5
t45.5 -148t-17.5 -224.5l-195 -1054q-4 -20 -24 -20h-292z" />
    <glyph glyph-name="theta" unicode="&#x3b8;" horiz-adv-x="1260" 
d="M509 -31q-138 0 -231.5 35.5t-143 117t-56 215t29.5 328.5l51 279q36 196 86.5 329.5t127 215.5t185 117.5t261.5 35.5q138 0 231.5 -35.5t143.5 -117.5t56 -215.5t-30 -329.5l-51 -279q-36 -195 -86.5 -328.5t-127 -215t-185 -117t-261.5 -35.5zM432 661
q-23 -123 -28 -202.5t9.5 -125.5t50.5 -63.5t97 -17.5t103.5 17.5t74.5 63.5t56 125.5t48 202.5h-411zM899 968q21 117 25 193t-11 120t-51 61t-95 17q-60 0 -102 -17t-73.5 -61t-55.5 -120t-47 -193h410z" />
    <glyph glyph-name="iota" unicode="&#x3b9;" horiz-adv-x="630" 
d="M333 -31q-111 0 -173.5 22.5t-89.5 68.5t-25 117t20 169l131 705q4 20 24 20h292q20 0 16 -20l-131 -705q-11 -56 -7.5 -76t34.5 -20h21.5t22.5 1q20 1 19 -19l-9 -231q-1 -11 -5.5 -16t-15.5 -7q-29 -5 -63.5 -7t-60.5 -2z" />
    <glyph glyph-name="kappa" unicode="&#x3ba;" horiz-adv-x="1209" 
d="M688 0q-11 0 -17.5 3.5t-11.5 14.5l-166 334l-105 -93l-44 -239q-4 -20 -24 -20h-292q-20 0 -16 20l190 1031q4 20 24 20h292q20 0 16 -20l-65 -350l367 356q14 14 34 14h413q20 0 5 -13l-536 -476l338 -565q9 -17 -10 -17h-392z" />
    <glyph glyph-name="lambda" unicode="&#x3bb;" horiz-adv-x="1172" 
d="M-97 0q-20 0 -9 17l676 1092q-4 71 -19 118t-42.5 75.5t-69.5 40t-101 11.5q-35 0 -69 -2.5t-60 -7.5q-20 -3 -19 16l12 223q1 20 20 25q25 8 54 14t60 10.5t62 7t60 2.5q101 0 173.5 -17.5t121.5 -67.5t77.5 -139.5t42.5 -233.5l86 -893q2 -25 14 -33t41 -8h14.5t14.5 1
q20 0 19 -19l-10 -231q-1 -11 -5.5 -16t-15.5 -7q-30 -5 -65 -7t-67 -2q-81 0 -133 12.5t-82.5 39.5t-43.5 69.5t-16 102.5l-26 430q-9 -23 -21.5 -49t-26.5 -52l-280 -505q-6 -10 -12.5 -13.5t-17.5 -3.5h-337z" />
    <glyph glyph-name="uni03BC" unicode="&#x3bc;" horiz-adv-x="1290" 
d="M-43 -389q-20 0 -16 20l263 1420q4 20 24 20h292q20 0 16 -20l-95 -514q-15 -79 -11.5 -129.5t24.5 -79t59.5 -39t92.5 -10.5h41.5t45.5 1.5t45 3.5t40 7l141 760q4 20 24 20h291q20 0 16 -20l-184 -995q-2 -11 -7 -16t-16 -8q-47 -12 -109 -23.5t-129.5 -20.5
t-136.5 -14t-130 -5q-62 0 -116.5 10.5t-79.5 24.5l-69 -373q-4 -20 -24 -20h-292z" />
    <glyph glyph-name="nu" unicode="&#x3bd;" horiz-adv-x="1128" 
d="M226 0q-21 0 -22 20l-121 1031q-1 20 18 20h320q20 0 21 -20l40 -772l330 774q5 11 11 14.5t17 3.5h337q20 0 11 -18l-506 -1035q-5 -11 -11.5 -14.5t-17.5 -3.5h-427z" />
    <glyph glyph-name="xi" unicode="&#x3be;" horiz-adv-x="958" 
d="M841 673q-4 -20 -24 -20h-168q-71 0 -118.5 -8t-78 -26t-46.5 -46.5t-23 -68.5l-2 -13q-6 -29 0.5 -50t24 -39t47 -34.5t70.5 -35.5q90 -42 147.5 -76t90.5 -67.5t45.5 -71t12.5 -87.5q0 -126 -40 -208.5t-111 -134t-168 -79.5t-211 -45q-20 -3 -19 17l10 247q1 20 21 24
q56 12 92.5 23t58 23t30 26.5t8.5 34.5q0 10 -5 18t-18 16t-35.5 17.5t-56.5 23.5q-126 45 -199.5 89t-107.5 97.5t-35.5 120.5t15.5 158l4 21q23 130 92.5 213.5t193.5 126.5q-97 38 -138 115t-19 195l6 30q21 112 59.5 195t107 138t172.5 82.5t255 27.5q72 0 139 -7
t127 -18q11 -2 14 -7t0 -16l-82 -247q-3 -11 -9 -14.5t-17 -2.5q-47 5 -95 6.5t-90 1.5q-116 0 -175 -36t-73 -109l-8 -43q-10 -54 -2.5 -92.5t45.5 -63.5t113.5 -37t202.5 -13q20 0 16 -20l-19 -102z" />
    <glyph glyph-name="omicron" unicode="&#x3bf;" horiz-adv-x="1174" 
d="M624 817q-56 0 -92.5 -11t-61 -38.5t-40 -73.5t-28.5 -116l-16 -86q-12 -69 -13 -115.5t13.5 -74t46 -39t84.5 -11.5q55 0 92 11.5t61.5 39.5t40.5 74.5t29 116.5l17 84q13 70 14.5 116t-13 73.5t-47 38.5t-87.5 11zM466 -31q-136 0 -226 29.5t-138.5 92t-58 159.5
t14.5 231l21 105q24 134 69.5 231t117 160t172.5 93t237 30t226.5 -30t139 -93t58.5 -160t-15 -231l-20 -105q-25 -134 -70 -231t-117 -159.5t-173.5 -92t-237.5 -29.5z" />
    <glyph glyph-name="pi" unicode="&#x3c0;" horiz-adv-x="1453" 
d="M89 776q-20 0 -16 20l47 255q4 20 24 20h1321q20 0 14 -19l-85 -257q-5 -19 -26 -19h-159l-80 -430q-5 -28 -6.5 -46.5t2.5 -29.5t14.5 -15.5t30.5 -4.5h28.5t28.5 1q20 1 19 -19l-8 -231q-1 -11 -5.5 -16t-15.5 -7q-32 -5 -70.5 -7t-67.5 -2q-114 0 -179 22.5t-94 68.5
t-28 117t19 169l80 430h-299l-140 -756q-4 -20 -24 -20h-292q-20 0 -16 20l140 756h-157z" />
    <glyph glyph-name="rho" unicode="&#x3c1;" horiz-adv-x="1224" 
d="M662 815q-48 0 -84.5 -9.5t-63.5 -36t-46.5 -72t-32.5 -117.5l-58 -313q16 -4 37.5 -6.5t45.5 -4t49.5 -2t48.5 -0.5q58 0 97 11t65 39.5t42 77t30 123.5l10 56q14 75 15.5 124t-14 78t-50 40.5t-91.5 11.5zM-68 -453q-20 0 -16 20l188 1017q28 155 75.5 255t120.5 158
t176 80.5t243 22.5q138 0 229 -31t140 -94.5t58.5 -161t-14.5 -229.5l-18 -97q-19 -103 -44.5 -181t-61 -136t-82 -96.5t-107.5 -61.5t-138 -33t-173 -10q-51 0 -97 5.5t-85 14.5l-78 -422q-4 -20 -24 -20h-292z" />
    <glyph glyph-name="sigma1" unicode="&#x3c2;" horiz-adv-x="960" 
d="M820 40q0 -129 -40 -213.5t-111 -137.5t-168 -81t-211 -45q-20 -3 -19 17l10 247q1 20 21 24q56 12 92.5 23t58 22.5t30 26t8.5 34.5q0 10 -5 19t-17.5 17.5t-35 18t-56.5 21.5q-88 32 -149.5 62t-101 63t-59.5 70.5t-26 83t0 100.5t19 124l11 60q17 92 40.5 165.5
t57.5 129.5t80.5 95.5t109 65t143 37t182.5 11.5q75 0 144.5 -7t119.5 -18q11 -2 14 -7t0 -16l-79 -255q-3 -11 -9 -14.5t-17 -2.5q-49 5 -107 8.5t-112 3.5q-66 0 -108 -13.5t-67.5 -41.5t-39 -72t-24.5 -104l-4 -17q-8 -45 -4.5 -76.5t19.5 -55t44.5 -42.5t69.5 -38
q88 -41 145 -74t90.5 -65t47 -68.5t13.5 -84.5z" />
    <glyph glyph-name="sigma" unicode="&#x3c3;" horiz-adv-x="1232" 
d="M465 -31q-136 0 -225 30t-137 94t-57.5 162.5t14.5 236.5l16 85q25 138 69.5 235t116 159t172.5 90.5t239 28.5h564q20 0 16 -20l-43 -237q-4 -20 -24 -20h-159l8 -12q13 -20 24 -48t17.5 -62.5t6.5 -76.5t-9 -90l-6 -32q-26 -140 -71 -239t-116 -162t-173 -92.5
t-243 -29.5zM621 812q-57 0 -94 -11t-61.5 -39t-39.5 -75.5t-27 -119.5l-12 -65q-12 -74 -13.5 -122t13 -76.5t46 -40t84.5 -11.5q58 0 96 12t63 41t40.5 77.5t28.5 121.5l12 63q12 69 15 116t-9.5 75.5t-46 41t-95.5 12.5z" />
    <glyph glyph-name="tau" unicode="&#x3c4;" horiz-adv-x="1065" 
d="M77 776q-20 0 -16 20l47 255q4 20 24 20h971q20 0 14 -19l-84 -257q-5 -19 -26 -19h-311l-80 -430q-5 -28 -7 -46.5t2 -29.5t14.5 -15.5t31.5 -4.5h29t28 1q20 1 19 -19l-9 -231q-1 -11 -5.5 -15.5t-15.5 -6.5q-33 -5 -75.5 -7.5t-72.5 -2.5q-112 0 -174.5 22.5t-90 68.5
t-25.5 117t19 169l80 430h-287z" />
    <glyph glyph-name="upsilon" unicode="&#x3c5;" horiz-adv-x="1217" 
d="M507 -31q-140 0 -232.5 32.5t-142.5 99t-60 168t16 239.5l101 543q4 20 24 20h290q20 0 16 -20l-99 -533q-14 -79 -14.5 -131t15 -82.5t49.5 -42.5t89 -12q54 0 92.5 12t65.5 41.5t45 79.5t32 127l4 25q13 72 20 118t6.5 75t-9.5 45t-27 28q-17 11 -10 30l82 252
q4 11 9.5 14.5t16.5 1.5q70 -11 117.5 -38t78 -66t45 -87.5t18 -102t-2.5 -111t-16 -114.5l-13 -67q-32 -162 -79 -267.5t-119 -167t-172 -85.5t-236 -24z" />
    <glyph glyph-name="phi" unicode="&#x3c6;" horiz-adv-x="1633" 
d="M472 -453q-20 0 -16 20l74 402q-156 0 -259 30t-159.5 92.5t-69 159t12.5 230.5l20 105q24 133 72.5 230t128 160t193.5 93t271 31l89 482q4 21 24 22l300 36q20 1 16 -18l-97 -522q157 -1 260 -31t159 -93t68 -160t-12 -230l-20 -105q-25 -134 -73 -230.5t-127 -158.5
t-193.5 -92t-271.5 -31l-74 -402q-4 -20 -24 -20h-292zM383 492q-13 -69 -11 -115t24 -73.5t67.5 -39.5t119.5 -12l104 565q-75 0 -125 -11.5t-82 -39t-50 -73.5t-31 -115zM1219 578q13 69 12 115t-22.5 73.5t-67 39t-121.5 11.5l-105 -565q75 0 124.5 12t81.5 39.5t51 74
t32 116.5z" />
    <glyph glyph-name="chi" unicode="&#x3c7;" horiz-adv-x="1127" 
d="M568 -453q-20 0 -24 20l-85 448l-236 -450q-5 -11 -11.5 -14.5t-17.5 -3.5h-367q-20 0 -9 17l499 756l-222 732q-6 19 14 19h341q20 0 24 -20l82 -438l237 440q5 11 11.5 14.5t17.5 3.5h369q20 0 9 -16l-504 -735l227 -754q6 -19 -14 -19h-341z" />
    <glyph glyph-name="psi" unicode="&#x3c8;" horiz-adv-x="1580" 
d="M448 -453q-20 0 -16 20l75 409q-140 13 -231.5 50.5t-140.5 102.5t-58.5 159t13.5 220l101 543q4 20 24 20h290q20 0 16 -20l-99 -533q-11 -59 -10.5 -103t16.5 -75t48 -50t84 -29l245 1321q4 21 24 22l300 36q20 1 16 -18l-253 -1361q56 10 96 29t67 50t44 75.5
t28 104.5l99 531q4 20 24 20h289q20 0 16 -20l-101 -543q-23 -125 -67.5 -219t-118 -159.5t-179 -103t-250.5 -50.5l-75 -409q-4 -20 -24 -20h-292z" />
    <glyph glyph-name="omega" unicode="&#x3c9;" horiz-adv-x="1595" 
d="M393 -31q-114 0 -189.5 31.5t-115.5 95.5t-46.5 162t18.5 230l13 67q13 68 29 132.5t38 122t53.5 106.5t75.5 86.5t103.5 62t138.5 33.5q20 3 19 -18l-11 -249q-1 -12 -4.5 -18.5t-14.5 -12.5q-24 -13 -40 -31t-27.5 -47t-21 -72t-20.5 -105l-9 -47q-12 -67 -15.5 -112.5
t5 -73.5t29 -40t56.5 -12q38 0 65 13t46.5 43t33.5 79.5t28 122.5l32 177q4 20 24 20h257q20 0 16 -20l-32 -177q-14 -73 -18 -122.5t4 -79.5t30 -43t60 -13q36 0 61 12t43.5 40t32.5 73.5t26 112.5l9 47q11 61 17.5 103.5t5.5 71.5t-9 47t-26 31q-9 8 -11.5 14.5t1.5 17.5
l82 251q4 11 9.5 14.5t16.5 1.5q75 -12 124.5 -40.5t79 -70t42.5 -93t14.5 -108t-6 -115.5t-18.5 -115l-13 -67q-27 -143 -69.5 -242t-106 -160.5t-150.5 -89t-204 -27.5q-43 0 -81.5 12t-70.5 34t-55.5 53t-36.5 69q-25 -41 -60.5 -72.5t-77.5 -52.5t-88 -32t-91 -11z" />
    <glyph glyph-name="iotadieresis" unicode="&#x3ca;" horiz-adv-x="629" 
d="M334 -31q-111 0 -173.5 22.5t-89.5 68.5t-25 117t20 169l131 705q4 20 24 20h292q20 0 16 -20l-131 -705q-11 -56 -7.5 -76t34.5 -20h21.5t22.5 1q20 1 19 -19l-9 -231q-1 -11 -5.5 -16t-15.5 -7q-29 -5 -63.5 -7t-60.5 -2zM20 1219q-20 0 -16 20l54 287q4 21 24 22
l287 37q20 1 16 -18l-59 -328q-4 -20 -24 -20h-282zM473 1219q-20 0 -16 20l53 287q4 21 24 22l288 37q20 1 16 -18l-60 -328q-4 -20 -24 -20h-281z" />
    <glyph glyph-name="upsilondieresis" unicode="&#x3cb;" horiz-adv-x="1217" 
d="M507 -31q-140 0 -232.5 32.5t-142.5 99t-60 168t16 239.5l101 543q4 20 24 20h290q20 0 16 -20l-99 -533q-14 -79 -14.5 -131t15 -82.5t49.5 -42.5t89 -12q54 0 92.5 12t65.5 41.5t45 79.5t32 127l4 25q13 72 20 118t6.5 75t-9.5 45t-27 28q-17 11 -10 30l82 252
q4 11 9.5 14.5t16.5 1.5q70 -11 117.5 -38t78 -66t45 -87.5t18 -102t-2.5 -111t-16 -114.5l-13 -67q-32 -162 -79 -267.5t-119 -167t-172 -85.5t-236 -24zM353 1219q-20 0 -16 20l54 287q4 21 24 22l287 37q20 1 16 -18l-59 -328q-4 -20 -24 -20h-282zM806 1219
q-20 0 -16 20l53 287q4 21 24 22l288 37q20 1 16 -18l-60 -328q-4 -20 -24 -20h-281z" />
    <glyph glyph-name="omicrontonos" unicode="&#x3cc;" horiz-adv-x="1174" 
d="M624 817q-56 0 -92.5 -11t-61 -38.5t-40 -73.5t-28.5 -116l-16 -86q-12 -69 -13 -115.5t13.5 -74t46 -39t84.5 -11.5q55 0 92 11.5t61.5 39.5t40.5 74.5t29 116.5l17 84q13 70 14.5 116t-13 73.5t-47 38.5t-87.5 11zM466 -31q-136 0 -226 29.5t-138.5 92t-58 159.5
t14.5 231l21 105q24 134 69.5 231t117 160t172.5 93t237 30t226.5 -30t139 -93t58.5 -160t-15 -231l-20 -105q-25 -134 -70 -231t-117 -159.5t-173.5 -92t-237.5 -29.5zM557 1219q-20 0 -17 20l52 343q3 20 23 20h299q21 0 12 -19l-139 -345q-5 -11 -11 -15t-17 -4h-202z
" />
    <glyph glyph-name="upsilontonos" unicode="&#x3cd;" horiz-adv-x="1217" 
d="M507 -31q-140 0 -232.5 32.5t-142.5 99t-60 168t16 239.5l101 543q4 20 24 20h290q20 0 16 -20l-99 -533q-14 -79 -14.5 -131t15 -82.5t49.5 -42.5t89 -12q54 0 92.5 12t65.5 41.5t45 79.5t32 127l4 25q13 72 20 118t6.5 75t-9.5 45t-27 28q-17 11 -10 30l82 252
q4 11 9.5 14.5t16.5 1.5q70 -11 117.5 -38t78 -66t45 -87.5t18 -102t-2.5 -111t-16 -114.5l-13 -67q-32 -162 -79 -267.5t-119 -167t-172 -85.5t-236 -24zM578 1219q-20 0 -17 20l52 343q3 20 23 20h299q21 0 12 -19l-139 -345q-5 -11 -11 -15t-17 -4h-202z" />
    <glyph glyph-name="omegatonos" unicode="&#x3ce;" horiz-adv-x="1595" 
d="M393 -31q-114 0 -189.5 31.5t-115.5 95.5t-46.5 162t18.5 230l13 67q13 68 29 132.5t38 122t53.5 106.5t75.5 86.5t103.5 62t138.5 33.5q20 3 19 -18l-11 -249q-1 -12 -4.5 -18.5t-14.5 -12.5q-24 -13 -40 -31t-27.5 -47t-21 -72t-20.5 -105l-9 -47q-12 -67 -15.5 -112.5
t5 -73.5t29 -40t56.5 -12q38 0 65 13t46.5 43t33.5 79.5t28 122.5l32 177q4 20 24 20h257q20 0 16 -20l-32 -177q-14 -73 -18 -122.5t4 -79.5t30 -43t60 -13q36 0 61 12t43.5 40t32.5 73.5t26 112.5l9 47q11 61 17.5 103.5t5.5 71.5t-9 47t-26 31q-9 8 -11.5 14.5t1.5 17.5
l82 251q4 11 9.5 14.5t16.5 1.5q75 -12 124.5 -40.5t79 -70t42.5 -93t14.5 -108t-6 -115.5t-18.5 -115l-13 -67q-27 -143 -69.5 -242t-106 -160.5t-150.5 -89t-204 -27.5q-43 0 -81.5 12t-70.5 34t-55.5 53t-36.5 69q-25 -41 -60.5 -72.5t-77.5 -52.5t-88 -32t-91 -11z
M766 1219q-20 0 -17 20l52 343q3 20 23 20h299q21 0 12 -19l-139 -345q-5 -11 -11 -15t-17 -4h-202z" />
    <glyph glyph-name="afii10023" unicode="&#x401;" horiz-adv-x="1203" 
d="M54 0q-20 0 -16 20l264 1435q4 20 24 20h919q20 0 16 -20l-54 -288q-4 -20 -24 -20h-586l-45 -242h443q20 0 16 -20l-54 -287q-4 -20 -24 -20h-442l-46 -250h587q20 0 16 -20l-54 -288q-4 -20 -24 -20h-916zM446 1597q-20 0 -16 20l39 216q4 21 24 22l290 37q20 1 16 -18
l-48 -257q-4 -20 -24 -20h-281zM898 1597q-20 0 -16 20l40 216q4 21 24 22l289 37q20 1 16 -18l-47 -257q-4 -20 -24 -20h-282z" />
    <glyph glyph-name="afii10051" unicode="&#x402;" horiz-adv-x="1544" 
d="M324 0q-20 0 -16 20l209 1127h-373q-20 0 -16 20l53 288q4 20 24 20h1095q20 0 16 -20l-53 -288q-4 -20 -24 -20h-372l-41 -221q66 34 152.5 55t182.5 21t163.5 -27t105 -86.5t44 -153.5t-17.5 -227l-21 -115q-21 -113 -53.5 -193.5t-86.5 -131.5t-134.5 -75t-195.5 -24
q-33 0 -70.5 2.5t-68.5 10.5q-11 3 -14 8t1 16l77 234q3 11 9 14.5t17 1.5q13 -2 26 -3t27 -1q30 0 49 6.5t31.5 23t20.5 44t15 69.5l12 70q10 55 10 96t-14.5 68t-47 40t-86.5 13q-42 0 -92.5 -7t-90.5 -20l-118 -635q-4 -20 -24 -20h-310z" />
    <glyph glyph-name="afii10052" unicode="&#x403;" horiz-adv-x="1124" 
d="M53 0q-20 0 -16 20l268 1435q4 20 24 20h896q20 0 16 -20l-53 -288q-4 -20 -24 -20h-569l-208 -1127q-4 -20 -24 -20h-310zM614 1597q-9 0 -10.5 4t4.5 10l220 218q14 14 34 14h343q19 0 4 -12l-299 -222q-16 -12 -36 -12h-260z" />
    <glyph glyph-name="afii10053" unicode="&#x404;" horiz-adv-x="1185" 
d="M605 -31q-152 0 -261.5 42.5t-173.5 129t-81 216.5t15 305l28 153q26 141 62.5 246.5t85 182.5t110 127t137.5 80t166 42t197 12q105 0 199 -13.5t157 -39.5q18 -7 12 -26l-96 -274q-7 -19 -26 -14q-72 17 -145.5 23t-148.5 6q-64 0 -116.5 -13.5t-94.5 -44t-74 -81
t-53 -123.5h501q20 0 16 -20l-53 -288q-4 -20 -24 -20h-502q-9 -73 0 -124.5t37.5 -83.5t78.5 -47t125 -15q78 0 157.5 5t160.5 15q20 3 19 -17l-12 -278q-1 -20 -20 -25q-36 -9 -80 -16t-93.5 -12t-102.5 -7.5t-107 -2.5z" />
    <glyph glyph-name="afii10054" unicode="&#x405;" horiz-adv-x="1248" 
d="M434 -31q-126 0 -233 13t-185 35q-19 5 -12 25l95 271q7 19 27 16q54 -9 98 -15t84.5 -9.5t80.5 -5.5t87 -2q91 0 149 5.5t91.5 19.5t46 38t12.5 61q0 17 -9.5 32.5t-32.5 33t-62 40t-98 53.5l-157 82q-76 40 -126 84.5t-79.5 91t-41.5 94t-12 94.5q0 130 36 221
t119.5 148.5t218.5 83.5t333 26q105 0 200 -10t171 -35q19 -5 12 -24l-95 -262q-7 -19 -27 -16q-39 5 -79 9t-77.5 6.5t-70 3.5t-54.5 1q-87 0 -147.5 -3t-98 -13.5t-54.5 -31t-17 -55.5q0 -19 9 -35t31.5 -33t59.5 -37.5t94 -47.5l180 -88q69 -34 116.5 -71.5t77 -79.5
t42.5 -88t13 -97q0 -149 -39.5 -250t-125.5 -163t-222 -89t-329 -27z" />
    <glyph glyph-name="afii10055" unicode="&#x406;" horiz-adv-x="651" 
d="M54 0q-20 0 -16 20l264 1435q4 20 24 20h310q20 0 16 -20l-264 -1435q-4 -20 -24 -20h-310z" />
    <glyph glyph-name="afii10056" unicode="&#x407;" horiz-adv-x="652" 
d="M55 0q-20 0 -16 20l264 1435q4 20 24 20h310q20 0 16 -20l-264 -1435q-4 -20 -24 -20h-310zM146 1597q-20 0 -16 20l39 216q4 21 24 22l290 37q20 1 16 -18l-48 -257q-4 -20 -24 -20h-281zM598 1597q-20 0 -16 20l40 216q4 21 24 22l289 37q20 1 16 -18l-47 -257
q-4 -20 -24 -20h-282z" />
    <glyph glyph-name="afii10057" unicode="&#x408;" horiz-adv-x="652" 
d="M-109 -410q-42 0 -89.5 4.5t-85.5 12.5q-11 2 -13.5 7t0.5 16l90 275q3 11 9 14.5t17 2.5q24 -3 43 -3.5t36 -0.5q31 0 55 5.5t41.5 18.5t29 35t17.5 56l262 1422q4 20 24 20h310q20 0 16 -20l-268 -1455q-17 -89 -48 -164t-88 -130t-144 -85.5t-214 -30.5z" />
    <glyph glyph-name="afii10058" unicode="&#x409;" horiz-adv-x="2022" 
d="M1161 -31q-37 0 -88 2.5t-108.5 7t-118 10t-117.5 11.5h-1l214 1147h-264q-39 -214 -76.5 -377.5t-79 -284.5t-90.5 -205.5t-112.5 -141.5t-143.5 -91.5t-184 -56.5q-20 -4 -20 16l-2 302q0 20 19 25q46 12 81 32t62.5 55.5t50.5 91t45.5 139.5t45.5 199.5t52 271.5
l62 333q4 20 24 20h920q20 0 16 -20l-96 -519q17 2 33.5 2h17.5q126 0 227 -5.5t178 -22t130 -47.5t83 -82.5t36.5 -126.5t-9.5 -179l-5 -31q-17 -104 -46 -179.5t-74 -128.5t-106.5 -85.5t-143 -50.5t-184 -24.5t-228.5 -6.5zM1597 479q9 49 -1 78t-44.5 44.5t-96.5 20.5
t-157 5q-5 0 -17 -0.5t-27 -1.5t-31.5 -1.5t-29.5 -1.5l-63 -338q11 -1 26.5 -1.5t30.5 -1t28 -1t21 -0.5q95 0 158.5 5.5t104 23t61.5 49t30 82.5z" />
    <glyph glyph-name="afii10059" unicode="&#x40a;" horiz-adv-x="2187" 
d="M54 0q-20 0 -16 20l264 1435q4 20 24 20h310q20 0 16 -20l-98 -540h510l100 540q4 20 24 20h311q20 0 16 -20l-97 -519q17 2 32.5 2h16.5q126 0 227 -5.5t178 -22t130 -47.5t83 -82.5t36.5 -126.5t-9.5 -179l-5 -31q-17 -104 -46 -179.5t-74 -128.5t-106.5 -85.5
t-143 -50.5t-184 -24.5t-228.5 -6.5q-36 0 -84 2.5t-102.5 6.5t-112.5 9t-113 11q-19 3 -16 22l103 547h-512l-100 -547q-4 -20 -24 -20h-310zM1761 479q9 49 -1 78t-44.5 44.5t-96.5 20.5t-157 5q-5 0 -16.5 -0.5t-26 -1t-30.5 -1t-29 -1.5l-63 -340q11 -1 26 -1.5t29.5 -1
t27 -0.5h20.5q95 0 158.5 5.5t104 23t61.5 49t30 82.5z" />
    <glyph glyph-name="afii10060" unicode="&#x40b;" horiz-adv-x="1541" 
d="M324 0q-20 0 -16 20l209 1127h-373q-20 0 -16 20l53 288q4 20 24 20h1095q20 0 16 -20l-53 -288q-4 -20 -24 -20h-372l-40 -217q63 32 143 52t172 20q90 0 154.5 -25t101 -81.5t44.5 -148t-16 -224.5l-93 -503q-4 -20 -24 -20h-292q-20 0 -16 20l83 445q9 55 10.5 96
t-12 68t-45 40t-86.5 13q-45 0 -92 -7t-83 -20l-118 -635q-4 -20 -24 -20h-310z" />
    <glyph glyph-name="afii10061" unicode="&#x40c;" horiz-adv-x="1325" 
d="M55 0q-20 0 -16 20l264 1435q4 20 24 20h310q20 0 16 -20l-102 -549l520 554q8 8 15.5 11.5t18.5 3.5h398q9 0 11 -4t-5 -10l-700 -730l360 -713q9 -18 -11 -18h-342q-11 0 -17.5 3.5t-11.5 14.5l-291 591l-107 -589q-4 -20 -24 -20h-310zM757 1597q-9 0 -10.5 4t4.5 10
l220 218q14 14 34 14h343q19 0 4 -12l-299 -222q-16 -12 -36 -12h-260z" />
    <glyph glyph-name="afii10062" unicode="&#x40e;" horiz-adv-x="1130" 
d="M147 -31q-44 0 -83.5 6t-68.5 17q-19 7 -12 26l72 228q5 20 26 17q22 -3 47 -5t45 -2q54 0 96.5 3t75.5 12t57.5 25t42.5 41l-276 1119q-6 19 15 19h340q20 0 23 -20l84 -523q6 -42 7 -75t0 -52l261 651q4 11 10 15t17 4h334q20 0 11 -18l-519 -1091
q-56 -115 -110 -191.5t-122 -122t-157.5 -64.5t-215.5 -19zM739 1577q-86 0 -142.5 15.5t-88 48t-40 83t2.5 120.5q3 20 23 20h174q11 0 15 -4.5t3 -15.5q-3 -27 3.5 -45t18 -28.5t27 -15t32.5 -4.5q32 0 60 19.5t42 73.5q5 20 25 20h186q20 0 16 -20q-15 -77 -35 -128.5
t-58.5 -82.5t-101 -43.5t-162.5 -12.5z" />
    <glyph glyph-name="afii10145" unicode="&#x40f;" horiz-adv-x="1487" 
d="M54 0q-20 0 -16 20l265 1435q4 20 24 20h311q20 0 16 -20l-208 -1127h485l208 1127q4 20 24 20h310q20 0 16 -20l-265 -1435q-4 -20 -24 -20h-398l-44 -240q-4 -20 -24 -20h-310q-20 0 -16 20l44 240h-398z" />
    <glyph glyph-name="afii10017" unicode="&#x410;" horiz-adv-x="1353" 
d="M-88 0q-20 0 -11 18l693 1439q5 11 11.5 14.5t17.5 3.5h441q21 0 22 -20l162 -1435q1 -20 -18 -20h-345q-20 0 -21 20l-16 220h-466l-99 -222q-5 -11 -11 -14.5t-17 -3.5h-343zM784 1135l-264 -588h307z" />
    <glyph glyph-name="afii10018" unicode="&#x411;" horiz-adv-x="1336" 
d="M409 -18q-32 0 -73.5 1t-89 3t-97 4.5t-96.5 6.5q-20 1 -16 21l266 1437q4 20 24 20h892q20 0 16 -20l-53 -288q-4 -20 -24 -20h-561l-39 -207h29q183 0 318.5 -16.5t220.5 -66t117.5 -141t8.5 -241.5l-5 -31q-17 -104 -53 -178.5t-90 -126t-126 -82.5t-159.5 -47.5
t-190 -22t-219.5 -5.5zM902 481q9 48 -1 77.5t-44.5 45t-97 20.5t-158.5 5h-101l-61 -332q10 -1 24.5 -1.5l29 -1t27 -1t19.5 -0.5q95 0 159 5t104.5 20.5t61.5 44.5t30 77z" />
    <glyph glyph-name="afii10019" unicode="&#x412;" horiz-adv-x="1353" 
d="M437 -18q-34 0 -79.5 1t-96.5 3t-104.5 4.5t-104.5 6.5q-20 1 -16 21l266 1437q4 20 24 21q43 3 95 5.5t107 5t109 3.5t101 1q177 0 294 -20.5t183 -66t84.5 -118t-2.5 -176.5l-2 -10q-20 -100 -64.5 -164t-110.5 -106q38 -25 68 -59t48 -78.5t23.5 -98t-5.5 -117.5
l-6 -35q-18 -106 -53 -181.5t-86.5 -127t-119.5 -81.5t-152 -45.5t-184 -20t-216 -4.5zM896 451q9 44 1.5 71.5t-28 43t-53.5 21t-76 5.5h-248l-55 -295q13 -1 31 -2h37q19 -1 35.5 -1.5t25.5 -0.5q87 0 146 4.5t96.5 18.5t56.5 41.5t27 72.5zM757 1180q-41 0 -75 -0.5
t-81 -3.5l-53 -283h226q26 1 50 7t44 20t35 37.5t23 59.5l7 29q8 44 0 71t-30.5 41t-59.5 18t-86 4z" />
    <glyph glyph-name="afii10020" unicode="&#x413;" horiz-adv-x="1124" 
d="M53 0q-20 0 -16 20l268 1435q4 20 24 20h896q20 0 16 -20l-53 -288q-4 -20 -24 -20h-569l-208 -1127q-4 -20 -24 -20h-310z" />
    <glyph glyph-name="afii10021" unicode="&#x414;" horiz-adv-x="1523" 
d="M-122 -276q-20 0 -16 20l105 565q4 20 24 20h86q43 0 81.5 39.5t76 132t74.5 244.5t78 377l62 333q4 20 24 20h967q20 0 16 -20l-209 -1126h149q20 0 16 -20l-105 -565q-4 -20 -24 -20h-310q-20 0 -16 20l47 256h-745l-47 -256q-4 -20 -24 -20h-310zM737 1147
q-34 -182 -66 -318t-65 -234t-69.5 -162.5t-80.5 -103.5h441l151 818h-311z" />
    <glyph glyph-name="afii10022" unicode="&#x415;" horiz-adv-x="1203" 
d="M54 0q-20 0 -16 20l264 1435q4 20 24 20h919q20 0 16 -20l-54 -288q-4 -20 -24 -20h-586l-45 -242h443q20 0 16 -20l-54 -287q-4 -20 -24 -20h-442l-46 -250h587q20 0 16 -20l-54 -288q-4 -20 -24 -20h-916z" />
    <glyph glyph-name="afii10024" unicode="&#x416;" horiz-adv-x="1994" 
d="M-110 0q-20 0 -7 15l679 756l-419 687q-9 17 10 17h366q11 0 17.5 -3.5t12.5 -13.5l322 -552l102 549q4 20 24 20h310q20 0 16 -20l-103 -549l520 554q8 8 15.5 11.5t18.5 3.5h398q9 0 11 -4t-5 -10l-700 -730l360 -713q9 -18 -11 -18h-342q-11 0 -17.5 3.5t-11.5 14.5
l-291 591l-107 -589q-4 -20 -24 -20h-310q-20 0 -16 20l108 589l-510 -594q-8 -8 -15 -11.5t-18 -3.5h-383z" />
    <glyph glyph-name="afii10025" unicode="&#x417;" horiz-adv-x="1174" 
d="M389 -31q-115 0 -218.5 7.5t-182.5 20.5q-21 3 -15 22l70 287q3 11 8.5 15t16.5 3q97 -10 184 -10.5t166 -0.5q65 0 114 6.5t82.5 22.5t53 41t26.5 63l5 27q6 32 1 53.5t-27 35t-63.5 19.5t-108.5 6h-320q-20 0 -16 20l53 287q4 20 24 20h312q70 0 116 8t74 23t41.5 36.5
t18.5 48.5l4 29q10 52 -49 77t-184 25q-85 0 -164 -2t-169 -9q-19 -1 -18 19l36 286q1 20 22 23q79 11 176.5 19t205.5 8q139 0 244.5 -24.5t171.5 -74t91.5 -123t4.5 -171.5l-6 -28q-15 -72 -42 -124.5t-67 -90t-94 -62.5t-124 -43q59 -21 102.5 -55.5t70 -78.5t35.5 -95
t-1 -103l-7 -36q-26 -133 -80 -216t-136 -130t-191.5 -64t-246.5 -17z" />
    <glyph glyph-name="afii10026" unicode="&#x418;" horiz-adv-x="1528" 
d="M500 612q6 13 16 29q8 13 19.5 30t25.5 36l578 751q6 8 13.5 12.5t22.5 4.5h337q20 0 16 -21l-263 -1434q-4 -20 -24 -20h-310q-20 0 -16 20l156 844h-4q-6 -12 -15 -28q-8 -14 -19.5 -32t-28.5 -40l-578 -751q-10 -13 -26 -13h-346q-20 0 -16 20l264 1435q4 20 24 20
h310q20 0 16 -20l-156 -843h4z" />
    <glyph glyph-name="afii10027" unicode="&#x419;" horiz-adv-x="1528" 
d="M501 612q6 13 16 29q8 13 19.5 30t25.5 36l578 751q6 8 13.5 12.5t22.5 4.5h337q20 0 16 -21l-263 -1434q-4 -20 -24 -20h-310q-20 0 -16 20l156 844h-4q-6 -12 -15 -28q-8 -14 -19.5 -32t-28.5 -40l-578 -751q-10 -13 -26 -13h-346q-20 0 -16 20l264 1435q4 20 24 20
h310q20 0 16 -20l-156 -843h4zM912 1577q-86 0 -142.5 15.5t-88 48t-40 83t2.5 120.5q3 20 23 20h174q11 0 15 -4.5t3 -15.5q-3 -27 3.5 -45t18 -28.5t27 -15t32.5 -4.5q32 0 60 19.5t42 73.5q5 20 25 20h186q20 0 16 -20q-15 -77 -35 -128.5t-58.5 -82.5t-101 -43.5
t-162.5 -12.5z" />
    <glyph glyph-name="afii10028" unicode="&#x41a;" horiz-adv-x="1325" 
d="M55 0q-20 0 -16 20l264 1435q4 20 24 20h310q20 0 16 -20l-102 -549l520 554q8 8 15.5 11.5t18.5 3.5h398q9 0 11 -4t-5 -10l-700 -730l360 -713q9 -18 -11 -18h-342q-11 0 -17.5 3.5t-11.5 14.5l-291 591l-107 -589q-4 -20 -24 -20h-310z" />
    <glyph glyph-name="afii10029" unicode="&#x41b;" horiz-adv-x="1435" 
d="M678 1147q-39 -214 -76.5 -377.5t-79 -284.5t-90.5 -205.5t-112.5 -141.5t-143.5 -91.5t-184 -56.5q-20 -4 -20 16l-2 302q0 20 19 25q46 12 81 32t62.5 55.5t50.5 91t45.5 139.5t45.5 199.5t52 271.5l62 333q4 20 24 20h1010q20 0 16 -20l-266 -1435q-4 -20 -24 -20
h-310q-20 0 -16 20l210 1127h-354v0z" />
    <glyph glyph-name="afii10030" unicode="&#x41c;" horiz-adv-x="1717" 
d="M54 0q-20 0 -16 20l264 1435q4 20 24 20h361q20 0 27 -19l163 -457q5 -14 8.5 -29t5.5 -28t3 -21.5t1 -9.5q0 1 4.5 9.5t11 21t16 27.5t20.5 30l332 460q12 16 32 16h392q20 0 16 -20l-266 -1435q-4 -20 -24 -20h-312q-20 0 -16 20l164 883l10 72q-2 -1 -13.5 -24.5
t-27.5 -49.5l-270 -401q-6 -10 -13 -13.5t-18 -3.5h-205q-11 0 -16.5 4t-9.5 15l-119 389q-5 15 -8 30t-4.5 27t-2.5 19.5t-2 7.5l-16 -84l-162 -871q-4 -20 -24 -20h-310z" />
    <glyph glyph-name="afii10031" unicode="&#x41d;" horiz-adv-x="1513" 
d="M54 0q-20 0 -16 20l264 1435q4 20 24 20h310q20 0 16 -20l-100 -550h510l102 550q4 20 24 20h311q20 0 16 -20l-267 -1435q-4 -20 -24 -20h-310q-20 0 -16 20l104 557h-512l-102 -557q-4 -20 -24 -20h-310z" />
    <glyph glyph-name="afii10032" unicode="&#x41e;" horiz-adv-x="1436" 
d="M595 -31q-148 0 -256 41.5t-172 126.5t-81 215.5t17 309.5l29 153q26 138 63 243t85.5 181.5t109 127.5t135 81.5t163 43.5t192.5 13q148 0 256 -41.5t172 -126.5t81 -215.5t-16 -308.5l-29 -154q-39 -208 -102.5 -341.5t-155 -211t-213.5 -107.5t-278 -30zM814 1157
q-67 0 -120.5 -16.5t-94.5 -55t-70 -102.5t-47 -158l-30 -174q-18 -95 -16 -159t26.5 -103t73 -55.5t122.5 -16.5q68 0 122.5 16.5t95.5 55.5t70 103t46 159l33 172q18 94 15.5 158t-28 103t-74.5 56t-124 17z" />
    <glyph glyph-name="afii10033" unicode="&#x41f;" horiz-adv-x="1512" 
d="M55 0q-20 0 -16 20l265 1435q4 20 24 20h1169q20 0 16 -20l-265 -1435q-4 -20 -24 -20h-310q-20 0 -16 20l208 1127h-508l-208 -1127q-4 -20 -24 -20h-311z" />
    <glyph glyph-name="afii10034" unicode="&#x420;" horiz-adv-x="1361" 
d="M755 1180q-34 0 -77 -1.5t-77 -4.5l-65 -357q16 -2 35.5 -3t39.5 -1.5t39.5 -1t36.5 -0.5q91 0 148.5 5t92.5 21.5t52.5 46t26.5 79.5l12 65q8 49 2 79t-35 46t-85 21.5t-146 5.5zM54 0q-20 0 -16 20l266 1437q4 20 24 21q60 3 125.5 5.5t129 4t121.5 2.5t104 1
q187 0 307.5 -22t186 -73t81 -134.5t-7.5 -206.5l-22 -119q-18 -93 -41 -161.5t-59.5 -117t-88.5 -79t-127.5 -48t-177 -24t-235.5 -6.5h-36.5h-40.5t-39 0.5t-32 1.5l-88 -482q-4 -20 -24 -20h-310z" />
    <glyph glyph-name="afii10035" unicode="&#x421;" horiz-adv-x="1197" 
d="M616 -31q-152 0 -265.5 34t-181.5 114.5t-87 213.5t18 331l29 153q36 196 104 328.5t166 213t224 114.5t278 34q54 0 105.5 -3.5t98.5 -10.5t88 -16.5t73 -22.5q10 -5 12.5 -10t-0.5 -16l-95 -274q-7 -19 -26 -14q-75 17 -150.5 23t-152.5 6q-76 0 -137 -17t-107.5 -57
t-78.5 -105.5t-50 -162.5l-30 -174q-19 -98 -11.5 -163.5t38.5 -106t85.5 -57.5t130.5 -17q81 0 163 5t163 15q20 3 19 -17l-12 -278q-1 -20 -20 -25q-36 -9 -81 -16t-95 -12t-105 -7.5t-110 -2.5z" />
    <glyph glyph-name="afii10036" unicode="&#x422;" horiz-adv-x="1201" 
d="M324 0q-20 0 -16 20l209 1127h-373q-20 0 -16 20l53 288q4 20 24 20h1095q20 0 16 -20l-53 -288q-4 -20 -24 -20h-372l-209 -1127q-4 -20 -24 -20h-310z" />
    <glyph glyph-name="afii10037" unicode="&#x423;" horiz-adv-x="1130" 
d="M147 -31q-44 0 -83.5 6t-68.5 17q-19 7 -12 26l72 228q5 20 26 17q22 -3 47 -5t45 -2q54 0 96.5 3t75.5 12t57.5 25t42.5 41l-276 1119q-6 19 15 19h340q20 0 23 -20l84 -523q6 -42 7 -75t0 -52l261 651q4 11 10 15t17 4h334q20 0 11 -18l-519 -1091
q-56 -115 -110 -191.5t-122 -122t-157.5 -64.5t-215.5 -19z" />
    <glyph glyph-name="afii10038" unicode="&#x424;" horiz-adv-x="1919" 
d="M551 147q-169 0 -272.5 28t-155 89.5t-57.5 160.5t20 241l26 143q19 104 43.5 182.5t60 136t84 96t115.5 61.5t154 32.5t200 9.5h67t78 -2l24 130q4 20 24 20h310q20 0 16 -20l-24 -130q41 2 77 2h67q169 0 272 -28t154.5 -90t57.5 -160.5t-19 -239.5l-26 -143
q-19 -104 -44 -183.5t-60.5 -137t-84 -96t-115 -61t-154 -32t-199.5 -9.5q-34 0 -75 0.5t-69 2.5l-24 -130q-4 -20 -24 -20h-310q-20 0 -16 20l24 130q-29 -2 -69.5 -2.5t-75.5 -0.5zM1357 1016q-37 0 -78 -1.5t-73 -4.5l-101 -545q32 -3 71.5 -4.5t76.5 -1.5q55 0 95.5 9
t69.5 34t48.5 70.5t33.5 119.5l10 58q16 84 17.5 136.5t-16 81t-55 38.5t-99.5 10zM706 1016q-58 0 -98.5 -9t-69 -34.5t-47 -71t-32.5 -119.5l-16 -90q-14 -74 -12.5 -119.5t20.5 -70.5t56 -34t95 -9q38 0 78 1.5t75 4.5l101 545q-33 2 -71.5 4t-78.5 2z" />
    <glyph glyph-name="afii10039" unicode="&#x425;" horiz-adv-x="1361" 
d="M864 0q-20 0 -27 19l-163 464l-338 -467q-12 -16 -32 -16h-398q-20 0 -7 16l578 722l-310 719q-8 18 12 18h358q20 0 27 -19l166 -450l335 453q12 16 32 16h398q20 0 7 -16l-577 -719l309 -722q7 -18 -12 -18h-358z" />
    <glyph glyph-name="afii10040" unicode="&#x426;" horiz-adv-x="1583" 
d="M55 0q-20 0 -16 20l265 1435q4 20 24 20h311q20 0 16 -20l-208 -1127h485l207 1127q4 20 24 20h310q20 0 16 -20l-208 -1127h188q20 0 16 -20l-101 -548q-4 -20 -24 -20h-311q-20 0 -16 20l44 240h-1022z" />
    <glyph glyph-name="afii10041" unicode="&#x427;" horiz-adv-x="1335" 
d="M493 502q-107 0 -186 27.5t-126 87.5t-59.5 155.5t13.5 231.5l83 451q4 20 24 20h292q20 0 16 -20l-70 -384q-13 -70 -12.5 -116t21.5 -73.5t65 -39t119 -11.5q57 0 117 6t103 14l112 604q4 20 24 20h292q20 0 16 -20l-265 -1435q-4 -20 -24 -20h-292q-20 0 -16 20
l97 527q-70 -20 -160.5 -32.5t-183.5 -12.5z" />
    <glyph glyph-name="afii10042" unicode="&#x428;" horiz-adv-x="2074" 
d="M55 0q-20 0 -16 20l265 1435q4 20 24 20h309q20 0 16 -20l-208 -1127h362l208 1127q4 20 24 20h310q20 0 16 -20l-208 -1127h362l208 1127q4 20 24 20h309q20 0 16 -20l-265 -1435q-4 -20 -24 -20h-1732z" />
    <glyph glyph-name="afii10043" unicode="&#x429;" horiz-adv-x="2170" 
d="M55 0q-20 0 -16 20l265 1435q4 20 24 20h309q20 0 16 -20l-208 -1127h362l208 1127q4 20 24 20h310q20 0 16 -20l-208 -1127h362l208 1127q4 20 24 20h309q20 0 16 -20l-209 -1127h189q20 0 16 -20l-101 -548q-4 -20 -24 -20h-310q-20 0 -16 20l44 240h-1610z" />
    <glyph glyph-name="afii10044" unicode="&#x42a;" horiz-adv-x="1436" 
d="M155 1147q-20 0 -16 20l53 288q4 20 24 20h531q20 0 16 -20l-96 -519q17 2 33 2h17q126 0 227 -5.5t178 -22t130.5 -47.5t83 -82.5t36 -126.5t-9.5 -179l-5 -31q-17 -104 -46 -179.5t-74 -128.5t-106.5 -85.5t-143 -50.5t-184 -24.5t-228.5 -6.5q-36 0 -84 2.5
t-102.5 6.5t-112 9t-112.5 11q-20 1 -16 22l208 1127h-201zM1010 479q9 49 -1 78t-44.5 44.5t-96.5 20.5t-157 5q-5 0 -16.5 -0.5t-26.5 -1.5t-31 -1.5t-29 -1.5l-60 -325q11 -1 25.5 -1.5l29 -1t27 -1t19.5 -0.5q95 0 158.5 5t104 20.5t61.5 44.5t30 77z" />
    <glyph glyph-name="afii10045" unicode="&#x42b;" horiz-adv-x="2022" 
d="M465 -31q-36 0 -84 2.5t-102.5 6.5t-112 9t-112.5 11q-20 1 -16 22l265 1435q4 20 24 20h310q20 0 16 -20l-96 -519q17 2 33 2h17q126 0 227 -5.5t178 -22t130.5 -47.5t83 -82.5t36 -126.5t-9.5 -179l-5 -31q-17 -104 -46 -179.5t-74 -128.5t-106.5 -85.5t-143 -50.5
t-184 -24.5t-228.5 -6.5zM1424 0q-20 0 -16 20l266 1435q4 20 24 20h311q20 0 16 -20l-266 -1435q-4 -20 -24 -20h-311zM900 479q9 49 -1 78t-44.5 44.5t-96.5 20.5t-157 5q-5 0 -16.5 -0.5t-26.5 -1.5t-31 -1.5t-29 -1.5l-60 -325q11 -1 25.5 -1.5l29 -1t27 -1t19.5 -0.5
q95 0 158.5 5t104 20.5t61.5 44.5t30 77z" />
    <glyph glyph-name="afii10046" unicode="&#x42c;" horiz-adv-x="1325" 
d="M464 -31q-36 0 -84 2.5t-102.5 6.5t-112 9t-112.5 11q-20 1 -16 22l265 1435q4 20 24 20h310q20 0 16 -20l-96 -519q17 2 33 2h17q126 0 227 -5.5t178 -22t130.5 -47.5t83 -82.5t36 -126.5t-9.5 -179l-5 -31q-17 -104 -46 -179.5t-74 -128.5t-106.5 -85.5t-143 -50.5
t-184 -24.5t-228.5 -6.5zM899 479q9 49 -1 78t-44.5 44.5t-96.5 20.5t-157 5q-5 0 -16.5 -0.5t-26.5 -1.5t-31 -1.5t-29 -1.5l-60 -325q11 -1 25.5 -1.5l29 -1t27 -1t19.5 -0.5q95 0 158.5 5t104 20.5t61.5 44.5t30 77z" />
    <glyph glyph-name="afii10047" unicode="&#x42d;" horiz-adv-x="1186" 
d="M784 905q6 73 -6.5 123t-43 81t-78.5 44.5t-112 13.5q-72 0 -151.5 -6.5t-154.5 -23.5q-21 -4 -19 17l6 272q1 11 5 16t15 9q34 13 77.5 23t92 17t101.5 10.5t106 3.5q149 0 258.5 -41t175 -126t84 -215t-15.5 -308l-29 -153q-28 -146 -67 -254.5t-90.5 -185.5
t-114.5 -126t-138 -77.5t-162 -39t-186 -10.5q-110 0 -206 10.5t-162 27.5q-11 3 -13 9t1 17l92 280q4 11 9.5 13.5t16.5 0.5q74 -11 153.5 -15.5t156.5 -4.5q66 0 119 13.5t95 45t73 83.5t52 128h-499q-20 0 -16 20l51 288q4 20 24 20h500v0z" />
    <glyph glyph-name="afii10048" unicode="&#x42e;" horiz-adv-x="2147" 
d="M1306 -31q-139 0 -243 36.5t-169 111.5t-89.5 189.5t-4.5 270.5h-309l-101 -557q-4 -20 -24 -20h-311q-20 0 -16 20l265 1435q4 20 24 20h311q20 0 16 -20l-101 -550h308q42 179 106 295t153 184t206 94.5t264 26.5q148 0 256 -41.5t172 -126.5t81 -215.5t-16 -308.5
l-29 -154q-39 -208 -102.5 -341.5t-155 -211t-213.5 -107.5t-278 -30zM1525 1157q-67 0 -120.5 -16.5t-94.5 -55t-70 -102.5t-47 -158l-30 -174q-18 -95 -16 -159t26.5 -103t73 -55.5t122.5 -16.5q68 0 122.5 16.5t95.5 55.5t70 103t46 159l33 172q18 94 15.5 158t-28 103
t-74.5 56t-124 17z" />
    <glyph glyph-name="afii10049" unicode="&#x42f;" horiz-adv-x="1405" 
d="M368 20q-6 -10 -12.5 -15t-17.5 -5h-356q-23 0 -10 20l284 394q27 38 50.5 68.5t46.5 57.5q-54 14 -92.5 34t-64.5 45q-48 47 -58.5 130t7.5 183l24 133q16 85 39.5 150t61.5 112t94 78.5t136 50.5t187 27t247 8q115 0 230.5 -3.5t227.5 -11.5q20 -1 16 -20l-266 -1436
q-4 -20 -24 -20h-311q-20 0 -16 20l92 496q-50 -3 -89 -4.5t-78 -1.5h-30zM1005 1174q-32 3 -74 4.5t-76 1.5q-98 0 -160 -4.5t-99 -20t-54 -44.5t-26 -77l-13 -67q-9 -48 -2 -77t37.5 -44.5t88.5 -20t151 -4.5q97 0 162 6z" />
    <glyph glyph-name="afii10065" unicode="&#x430;" horiz-adv-x="1223" 
d="M804 806q-29 5 -76.5 7t-95.5 2q-60 0 -99 -11.5t-64.5 -39t-41 -72.5t-27.5 -112l-14 -72q-13 -72 -14.5 -121t13.5 -78.5t50.5 -42t95.5 -12.5q21 0 44 0.5t45.5 1t43.5 1.5t37 3zM484 -31q-149 0 -243.5 28.5t-143 88.5t-56 153t16.5 222l29 153q27 143 68.5 236.5
t109.5 149t167.5 78t242.5 22.5q138 0 262 -7.5t229 -19.5q20 -1 16 -22l-192 -1031q-4 -21 -24 -22q-122 -14 -243 -21.5t-239 -7.5z" />
    <glyph glyph-name="afii10066" unicode="&#x431;" horiz-adv-x="1204" 
d="M506 -30q-141 0 -233.5 32t-142 95t-60 156.5t12.5 217.5l17 93q30 161 55 280t54.5 206.5t66 147.5t89 102.5t125 72t172.5 55.5q97 25 161.5 42.5t104 33t59.5 34t28 47.5q4 11 9.5 15t17.5 4h229q20 0 16 -20q-13 -66 -33.5 -122t-64.5 -102t-119.5 -82t-198.5 -61
q-84 -19 -156.5 -35.5t-130 -40.5t-97 -61t-56.5 -95q129 86 310 86q124 0 206 -32t125.5 -95.5t51.5 -157.5t-15 -218l-18 -97q-26 -139 -70.5 -234.5t-114 -155t-168 -85.5t-232.5 -26zM658 791q-54 0 -92 -11.5t-64.5 -38.5t-43.5 -72t-29 -112l-14 -75
q-12 -68 -12.5 -112.5t15.5 -71t50 -37.5t90 -11q55 0 93.5 11.5t65 38.5t44 72t29.5 111l14 74q12 67 12 112t-16.5 72t-51 38.5t-90.5 11.5z" />
    <glyph glyph-name="afii10067" unicode="&#x432;" horiz-adv-x="1136" 
d="M361 -13q-27 0 -65.5 0.5t-82.5 2t-92 4t-94 5.5q-20 1 -16 21l190 1031q4 20 24 21q37 1 84 3t97 3.5l100 3t93 1.5q150 0 243.5 -19.5t142.5 -57t60 -93t-4 -128.5q-3 -15 -11 -40t-21 -53t-31.5 -55.5t-42.5 -47.5q23 -16 42 -37.5t31 -50t15.5 -65t-4.5 -81.5
l-10 -51q-19 -104 -65 -166.5t-124.5 -96t-191.5 -44t-267 -10.5zM669 365q3 20 -4 31t-23 16.5t-40.5 7t-56.5 1.5h-112l-21 -142q14 -2 40 -2h52q48 0 78 3t47.5 9t25 16t9.5 24zM590 794h-20h-17.5t-21.5 -0.5t-31 -1.5l-23 -147h173q9 14 14.5 33t10.5 45q3 25 1 39.5
t-11.5 21.5t-28 8.5t-46.5 1.5z" />
    <glyph glyph-name="afii10068" unicode="&#x433;" horiz-adv-x="1036" 
d="M442 -31q-99 0 -180 9t-138.5 37.5t-89.5 80t-32 137.5q0 102 21 169.5t63 112.5t105.5 73.5t148.5 52.5l173 49q48 13 75.5 23t41.5 19t18 19t4 23q0 12 -8 19.5t-29 12t-56 6t-89 1.5q-22 0 -56.5 -1.5t-72 -4t-73.5 -5t-60 -5.5q-11 -2 -16.5 3.5t-3.5 14.5l31 235
q2 10 5.5 15.5t14.5 7.5q69 10 152 18.5t171 8.5q100 0 179.5 -10.5t135.5 -39t86 -78t30 -127.5q0 -90 -19 -155.5t-59 -112.5t-100.5 -79.5t-143.5 -57.5l-197 -59q-45 -14 -71.5 -24t-40 -19t-17 -18.5t-3.5 -21.5t8.5 -20.5t29 -13t55 -6.5t86.5 -2q72 0 147 6t165 15
q23 3 20 -18l-31 -237q-2 -10 -5.5 -15.5t-14.5 -7.5q-42 -7 -93 -12.5t-100.5 -9.5t-93.5 -6t-73 -2z" />
    <glyph glyph-name="afii10069" unicode="&#x434;" horiz-adv-x="1170" 
d="M466 -33q-138 0 -227.5 36t-136.5 107t-55 176.5t18 243.5l10 54q23 133 66.5 227.5t115.5 156t178 93.5t254 40q-51 88 -134.5 152t-206.5 104q-11 4 -14 9.5t-1 16.5l42 236q4 20 24 17q141 -20 251.5 -75.5t192.5 -137t136 -185.5t81 -220t28 -240.5t-22 -247.5
q-29 -154 -75 -261t-117 -174t-171 -97.5t-237 -30.5zM514 250q50 0 88.5 15t67 49.5t48 90.5t32.5 139q12 82 16 156t-1 143q-77 -5 -132 -14.5t-93.5 -25t-63 -36.5t-40.5 -49.5t-25.5 -64.5t-18.5 -81l-6 -30q-15 -80 -17 -136t12 -90.5t46.5 -50t86.5 -15.5z" />
    <glyph glyph-name="afii10070" unicode="&#x435;" horiz-adv-x="1160" 
d="M470 -31q-138 0 -228.5 29.5t-139.5 91t-58.5 157t14.5 228.5l21 115q25 133 70.5 229t116.5 158.5t172 92.5t237 30q224 0 326 -90.5t102 -280.5q0 -61 -8.5 -114t-20.5 -95.5t-25 -73.5t-21 -47q-5 -11 -11 -14.5t-17 -3.5l-627 -2q-1 -42 8.5 -67t31 -38.5t55 -17.5
t80.5 -4q88 0 179.5 3t193.5 10q20 1 17 -19l-29 -226q-3 -20 -23 -23q-100 -12 -202.5 -20t-213.5 -8zM794 631q0 57 -7.5 93t-27 56.5t-52 28.5t-83.5 8t-87 -10t-60.5 -34t-40 -63t-26.5 -97z" />
    <glyph glyph-name="afii10072" unicode="&#x436;" horiz-adv-x="1891" 
d="M686 0q-20 0 -16 20l62 338h-115q-30 -113 -73.5 -188t-103.5 -119.5t-138 -63t-176 -18.5q-35 0 -74.5 7t-71.5 18q-20 6 -14 25l57 237q5 20 25 16q23 -5 49.5 -7.5t52.5 -2.5q31 0 62.5 10t60 37.5t51.5 76t37 125.5l8 47q13 77 8 125.5t-23 76t-45.5 37.5t-57.5 10
q-26 0 -53.5 -2t-53.5 -6q-20 -4 -17 16l30 236q1 11 5.5 16.5t15.5 8.5q37 11 76 17.5t82 6.5q193 0 276.5 -99t68.5 -293h116l63 343q4 20 24 20h292q20 0 16 -20l-63 -343h114q30 111 73.5 186t103.5 120.5t138 65.5t177 20q43 0 78.5 -6.5t67.5 -16.5q20 -6 14 -25
l-57 -237q-5 -20 -25 -16q-23 4 -49 6t-52 2q-31 0 -62.5 -10t-60 -37.5t-52 -76t-37.5 -125.5l-8 -47q-14 -77 -8 -125.5t24 -76t45.5 -37.5t57.5 -10q26 0 53.5 2.5t52.5 7.5q20 4 17 -16l-30 -237q-1 -11 -5.5 -16.5t-15.5 -8.5q-36 -10 -79 -17.5t-79 -7.5
q-193 0 -276 97.5t-69 291.5h-116l-62 -338q-4 -20 -24 -20h-292z" />
    <glyph glyph-name="afii10073" unicode="&#x437;" horiz-adv-x="1003" 
d="M703 556q31 -11 64 -33t58 -55t37 -77.5t1 -100.5l-4 -20q-15 -96 -55.5 -155t-108 -91.5t-163.5 -43t-221 -10.5q-88 0 -173.5 5.5t-153.5 20.5q-12 3 -15 7.5t1 14.5l65 252q4 11 10 14.5t17 2.5q21 -5 56.5 -8.5t76 -5.5t81.5 -2.5t73 -0.5q47 0 78 3.5t49.5 12.5
t27 23.5t10.5 36.5l2 17q2 17 -0.5 28t-17.5 17t-48 8.5t-91 2.5h-202q-20 0 -16 20l41 201q4 20 24 20h228q53 0 83 5t45 13.5t18.5 19t4.5 22.5l1 13q1 15 -1.5 27.5t-17.5 21.5t-48 14t-94 5q-77 0 -146.5 -5t-122.5 -14q-20 -1 -20 18l31 250q0 11 4.5 16t15.5 7
q31 6 70.5 11t83.5 8.5t92 5.5t96 2q124 0 210.5 -19.5t139 -55.5t72 -87.5t8.5 -115.5l-4 -24q-9 -56 -30.5 -95.5t-53.5 -67t-74 -46t-94 -33.5z" />
    <glyph glyph-name="afii10074" unicode="&#x438;" 
d="M517 -31q-155 0 -250 26t-141.5 84.5t-51 154t20.5 233.5l109 584q4 20 24 20h291q20 0 16 -20l-104 -562q-11 -63 -11.5 -105.5t14.5 -68.5t48 -37.5t90 -11.5q33 0 73 2.5t71 10.5l143 772q4 20 24 20h292q20 0 16 -20l-184 -997q-2 -11 -7 -16t-16 -8
q-44 -12 -101.5 -23t-120.5 -19.5t-126.5 -13.5t-118.5 -5z" />
    </font>
</defs>
</svg>
